G04 #@! TF.GenerationSoftware,KiCad,Pcbnew,5.0.1*
G04 #@! TF.CreationDate,2019-02-08T19:53:44+01:00*
G04 #@! TF.ProjectId,arduinowalkietalkie,61726475696E6F77616C6B696574616C,1.1*
G04 #@! TF.SameCoordinates,Original*
G04 #@! TF.FileFunction,Soldermask,Top*
G04 #@! TF.FilePolarity,Negative*
%FSLAX46Y46*%
G04 Gerber Fmt 4.6, Leading zero omitted, Abs format (unit mm)*
G04 Created by KiCad (PCBNEW 5.0.1) date Fri 08 Feb 2019 19:53:44 CET*
%MOMM*%
%LPD*%
G01*
G04 APERTURE LIST*
%ADD10C,0.100000*%
G04 APERTURE END LIST*
D10*
G36*
X160166821Y-136781313D02*
X160166824Y-136781314D01*
X160166825Y-136781314D01*
X160327239Y-136829975D01*
X160327241Y-136829976D01*
X160327244Y-136829977D01*
X160475078Y-136908995D01*
X160604659Y-137015341D01*
X160711005Y-137144922D01*
X160790023Y-137292756D01*
X160790024Y-137292759D01*
X160790025Y-137292761D01*
X160838686Y-137453175D01*
X160838687Y-137453179D01*
X160855117Y-137620000D01*
X160838687Y-137786821D01*
X160790023Y-137947244D01*
X160711005Y-138095078D01*
X160604659Y-138224659D01*
X160475078Y-138331005D01*
X160327244Y-138410023D01*
X160327241Y-138410024D01*
X160327239Y-138410025D01*
X160166825Y-138458686D01*
X160166824Y-138458686D01*
X160166821Y-138458687D01*
X160041804Y-138471000D01*
X159958196Y-138471000D01*
X159833179Y-138458687D01*
X159833176Y-138458686D01*
X159833175Y-138458686D01*
X159672761Y-138410025D01*
X159672759Y-138410024D01*
X159672756Y-138410023D01*
X159524922Y-138331005D01*
X159395341Y-138224659D01*
X159288995Y-138095078D01*
X159209977Y-137947244D01*
X159161313Y-137786821D01*
X159144883Y-137620000D01*
X159161313Y-137453179D01*
X159161314Y-137453175D01*
X159209975Y-137292761D01*
X159209976Y-137292759D01*
X159209977Y-137292756D01*
X159288995Y-137144922D01*
X159395341Y-137015341D01*
X159524922Y-136908995D01*
X159672756Y-136829977D01*
X159672759Y-136829976D01*
X159672761Y-136829975D01*
X159833175Y-136781314D01*
X159833176Y-136781314D01*
X159833179Y-136781313D01*
X159958196Y-136769000D01*
X160041804Y-136769000D01*
X160166821Y-136781313D01*
X160166821Y-136781313D01*
G37*
G36*
X195166821Y-135781313D02*
X195166824Y-135781314D01*
X195166825Y-135781314D01*
X195327239Y-135829975D01*
X195327241Y-135829976D01*
X195327244Y-135829977D01*
X195475078Y-135908995D01*
X195604659Y-136015341D01*
X195711005Y-136144922D01*
X195790023Y-136292756D01*
X195838687Y-136453179D01*
X195855117Y-136620000D01*
X195838687Y-136786821D01*
X195838686Y-136786824D01*
X195838686Y-136786825D01*
X195796231Y-136926782D01*
X195790023Y-136947244D01*
X195711005Y-137095078D01*
X195604659Y-137224659D01*
X195475078Y-137331005D01*
X195327244Y-137410023D01*
X195327241Y-137410024D01*
X195327239Y-137410025D01*
X195166825Y-137458686D01*
X195166824Y-137458686D01*
X195166821Y-137458687D01*
X195041804Y-137471000D01*
X194958196Y-137471000D01*
X194833179Y-137458687D01*
X194833176Y-137458686D01*
X194833175Y-137458686D01*
X194672761Y-137410025D01*
X194672759Y-137410024D01*
X194672756Y-137410023D01*
X194524922Y-137331005D01*
X194395341Y-137224659D01*
X194288995Y-137095078D01*
X194209977Y-136947244D01*
X194203770Y-136926782D01*
X194161314Y-136786825D01*
X194161314Y-136786824D01*
X194161313Y-136786821D01*
X194144883Y-136620000D01*
X194161313Y-136453179D01*
X194209977Y-136292756D01*
X194288995Y-136144922D01*
X194395341Y-136015341D01*
X194524922Y-135908995D01*
X194672756Y-135829977D01*
X194672759Y-135829976D01*
X194672761Y-135829975D01*
X194833175Y-135781314D01*
X194833176Y-135781314D01*
X194833179Y-135781313D01*
X194958196Y-135769000D01*
X195041804Y-135769000D01*
X195166821Y-135781313D01*
X195166821Y-135781313D01*
G37*
G36*
X174262812Y-135633624D02*
X174426784Y-135701544D01*
X174574354Y-135800147D01*
X174699853Y-135925646D01*
X174798456Y-136073216D01*
X174866376Y-136237188D01*
X174901000Y-136411259D01*
X174901000Y-136588741D01*
X174866376Y-136762812D01*
X174798456Y-136926784D01*
X174699853Y-137074354D01*
X174574354Y-137199853D01*
X174426784Y-137298456D01*
X174262812Y-137366376D01*
X174088741Y-137401000D01*
X173911259Y-137401000D01*
X173737188Y-137366376D01*
X173573216Y-137298456D01*
X173425646Y-137199853D01*
X173300147Y-137074354D01*
X173201544Y-136926784D01*
X173133624Y-136762812D01*
X173099000Y-136588741D01*
X173099000Y-136411259D01*
X173133624Y-136237188D01*
X173201544Y-136073216D01*
X173300147Y-135925646D01*
X173425646Y-135800147D01*
X173573216Y-135701544D01*
X173737188Y-135633624D01*
X173911259Y-135599000D01*
X174088741Y-135599000D01*
X174262812Y-135633624D01*
X174262812Y-135633624D01*
G37*
G36*
X180762812Y-135633624D02*
X180926784Y-135701544D01*
X181074354Y-135800147D01*
X181199853Y-135925646D01*
X181298456Y-136073216D01*
X181366376Y-136237188D01*
X181401000Y-136411259D01*
X181401000Y-136588741D01*
X181366376Y-136762812D01*
X181298456Y-136926784D01*
X181199853Y-137074354D01*
X181074354Y-137199853D01*
X180926784Y-137298456D01*
X180762812Y-137366376D01*
X180588741Y-137401000D01*
X180411259Y-137401000D01*
X180237188Y-137366376D01*
X180073216Y-137298456D01*
X179925646Y-137199853D01*
X179800147Y-137074354D01*
X179701544Y-136926784D01*
X179633624Y-136762812D01*
X179599000Y-136588741D01*
X179599000Y-136411259D01*
X179633624Y-136237188D01*
X179701544Y-136073216D01*
X179800147Y-135925646D01*
X179925646Y-135800147D01*
X180073216Y-135701544D01*
X180237188Y-135633624D01*
X180411259Y-135599000D01*
X180588741Y-135599000D01*
X180762812Y-135633624D01*
X180762812Y-135633624D01*
G37*
G36*
X184262812Y-135633624D02*
X184426784Y-135701544D01*
X184574354Y-135800147D01*
X184699853Y-135925646D01*
X184798456Y-136073216D01*
X184866376Y-136237188D01*
X184901000Y-136411259D01*
X184901000Y-136588741D01*
X184866376Y-136762812D01*
X184798456Y-136926784D01*
X184699853Y-137074354D01*
X184574354Y-137199853D01*
X184426784Y-137298456D01*
X184262812Y-137366376D01*
X184088741Y-137401000D01*
X183911259Y-137401000D01*
X183737188Y-137366376D01*
X183573216Y-137298456D01*
X183425646Y-137199853D01*
X183300147Y-137074354D01*
X183201544Y-136926784D01*
X183133624Y-136762812D01*
X183099000Y-136588741D01*
X183099000Y-136411259D01*
X183133624Y-136237188D01*
X183201544Y-136073216D01*
X183300147Y-135925646D01*
X183425646Y-135800147D01*
X183573216Y-135701544D01*
X183737188Y-135633624D01*
X183911259Y-135599000D01*
X184088741Y-135599000D01*
X184262812Y-135633624D01*
X184262812Y-135633624D01*
G37*
G36*
X190762812Y-135633624D02*
X190926784Y-135701544D01*
X191074354Y-135800147D01*
X191199853Y-135925646D01*
X191298456Y-136073216D01*
X191366376Y-136237188D01*
X191401000Y-136411259D01*
X191401000Y-136588741D01*
X191366376Y-136762812D01*
X191298456Y-136926784D01*
X191199853Y-137074354D01*
X191074354Y-137199853D01*
X190926784Y-137298456D01*
X190762812Y-137366376D01*
X190588741Y-137401000D01*
X190411259Y-137401000D01*
X190237188Y-137366376D01*
X190073216Y-137298456D01*
X189925646Y-137199853D01*
X189800147Y-137074354D01*
X189701544Y-136926784D01*
X189633624Y-136762812D01*
X189599000Y-136588741D01*
X189599000Y-136411259D01*
X189633624Y-136237188D01*
X189701544Y-136073216D01*
X189800147Y-135925646D01*
X189925646Y-135800147D01*
X190073216Y-135701544D01*
X190237188Y-135633624D01*
X190411259Y-135599000D01*
X190588741Y-135599000D01*
X190762812Y-135633624D01*
X190762812Y-135633624D01*
G37*
G36*
X170762812Y-135633624D02*
X170926784Y-135701544D01*
X171074354Y-135800147D01*
X171199853Y-135925646D01*
X171298456Y-136073216D01*
X171366376Y-136237188D01*
X171401000Y-136411259D01*
X171401000Y-136588741D01*
X171366376Y-136762812D01*
X171298456Y-136926784D01*
X171199853Y-137074354D01*
X171074354Y-137199853D01*
X170926784Y-137298456D01*
X170762812Y-137366376D01*
X170588741Y-137401000D01*
X170411259Y-137401000D01*
X170237188Y-137366376D01*
X170073216Y-137298456D01*
X169925646Y-137199853D01*
X169800147Y-137074354D01*
X169701544Y-136926784D01*
X169633624Y-136762812D01*
X169599000Y-136588741D01*
X169599000Y-136411259D01*
X169633624Y-136237188D01*
X169701544Y-136073216D01*
X169800147Y-135925646D01*
X169925646Y-135800147D01*
X170073216Y-135701544D01*
X170237188Y-135633624D01*
X170411259Y-135599000D01*
X170588741Y-135599000D01*
X170762812Y-135633624D01*
X170762812Y-135633624D01*
G37*
G36*
X164262812Y-135633624D02*
X164426784Y-135701544D01*
X164574354Y-135800147D01*
X164699853Y-135925646D01*
X164798456Y-136073216D01*
X164866376Y-136237188D01*
X164901000Y-136411259D01*
X164901000Y-136588741D01*
X164866376Y-136762812D01*
X164798456Y-136926784D01*
X164699853Y-137074354D01*
X164574354Y-137199853D01*
X164426784Y-137298456D01*
X164262812Y-137366376D01*
X164088741Y-137401000D01*
X163911259Y-137401000D01*
X163737188Y-137366376D01*
X163573216Y-137298456D01*
X163425646Y-137199853D01*
X163300147Y-137074354D01*
X163201544Y-136926784D01*
X163133624Y-136762812D01*
X163099000Y-136588741D01*
X163099000Y-136411259D01*
X163133624Y-136237188D01*
X163201544Y-136073216D01*
X163300147Y-135925646D01*
X163425646Y-135800147D01*
X163573216Y-135701544D01*
X163737188Y-135633624D01*
X163911259Y-135599000D01*
X164088741Y-135599000D01*
X164262812Y-135633624D01*
X164262812Y-135633624D01*
G37*
G36*
X141166821Y-131221313D02*
X141166824Y-131221314D01*
X141166825Y-131221314D01*
X141327239Y-131269975D01*
X141327241Y-131269976D01*
X141327244Y-131269977D01*
X141475078Y-131348995D01*
X141604659Y-131455341D01*
X141711005Y-131584922D01*
X141790023Y-131732756D01*
X141790024Y-131732759D01*
X141790025Y-131732761D01*
X141838686Y-131893175D01*
X141838687Y-131893179D01*
X141855117Y-132060000D01*
X141838687Y-132226821D01*
X141790023Y-132387244D01*
X141711005Y-132535078D01*
X141604659Y-132664659D01*
X141475078Y-132771005D01*
X141327244Y-132850023D01*
X141327241Y-132850024D01*
X141327239Y-132850025D01*
X141166825Y-132898686D01*
X141166824Y-132898686D01*
X141166821Y-132898687D01*
X141041804Y-132911000D01*
X140958196Y-132911000D01*
X140833179Y-132898687D01*
X140833176Y-132898686D01*
X140833175Y-132898686D01*
X140672761Y-132850025D01*
X140672759Y-132850024D01*
X140672756Y-132850023D01*
X140524922Y-132771005D01*
X140395341Y-132664659D01*
X140288995Y-132535078D01*
X140209977Y-132387244D01*
X140161313Y-132226821D01*
X140144883Y-132060000D01*
X140161313Y-131893179D01*
X140161314Y-131893175D01*
X140209975Y-131732761D01*
X140209976Y-131732759D01*
X140209977Y-131732756D01*
X140288995Y-131584922D01*
X140395341Y-131455341D01*
X140524922Y-131348995D01*
X140672756Y-131269977D01*
X140672759Y-131269976D01*
X140672761Y-131269975D01*
X140833175Y-131221314D01*
X140833176Y-131221314D01*
X140833179Y-131221313D01*
X140958196Y-131209000D01*
X141041804Y-131209000D01*
X141166821Y-131221313D01*
X141166821Y-131221313D01*
G37*
G36*
X156406821Y-131221313D02*
X156406824Y-131221314D01*
X156406825Y-131221314D01*
X156567239Y-131269975D01*
X156567241Y-131269976D01*
X156567244Y-131269977D01*
X156715078Y-131348995D01*
X156844659Y-131455341D01*
X156951005Y-131584922D01*
X157030023Y-131732756D01*
X157030024Y-131732759D01*
X157030025Y-131732761D01*
X157078686Y-131893175D01*
X157078687Y-131893179D01*
X157095117Y-132060000D01*
X157078687Y-132226821D01*
X157030023Y-132387244D01*
X156951005Y-132535078D01*
X156844659Y-132664659D01*
X156715078Y-132771005D01*
X156567244Y-132850023D01*
X156567241Y-132850024D01*
X156567239Y-132850025D01*
X156406825Y-132898686D01*
X156406824Y-132898686D01*
X156406821Y-132898687D01*
X156281804Y-132911000D01*
X156198196Y-132911000D01*
X156073179Y-132898687D01*
X156073176Y-132898686D01*
X156073175Y-132898686D01*
X155912761Y-132850025D01*
X155912759Y-132850024D01*
X155912756Y-132850023D01*
X155764922Y-132771005D01*
X155635341Y-132664659D01*
X155528995Y-132535078D01*
X155449977Y-132387244D01*
X155401313Y-132226821D01*
X155384883Y-132060000D01*
X155401313Y-131893179D01*
X155401314Y-131893175D01*
X155449975Y-131732761D01*
X155449976Y-131732759D01*
X155449977Y-131732756D01*
X155528995Y-131584922D01*
X155635341Y-131455341D01*
X155764922Y-131348995D01*
X155912756Y-131269977D01*
X155912759Y-131269976D01*
X155912761Y-131269975D01*
X156073175Y-131221314D01*
X156073176Y-131221314D01*
X156073179Y-131221313D01*
X156198196Y-131209000D01*
X156281804Y-131209000D01*
X156406821Y-131221313D01*
X156406821Y-131221313D01*
G37*
G36*
X184262812Y-131133624D02*
X184426784Y-131201544D01*
X184574354Y-131300147D01*
X184699853Y-131425646D01*
X184798456Y-131573216D01*
X184866376Y-131737188D01*
X184901000Y-131911259D01*
X184901000Y-132088741D01*
X184866376Y-132262812D01*
X184798456Y-132426784D01*
X184699853Y-132574354D01*
X184574354Y-132699853D01*
X184426784Y-132798456D01*
X184262812Y-132866376D01*
X184088741Y-132901000D01*
X183911259Y-132901000D01*
X183737188Y-132866376D01*
X183573216Y-132798456D01*
X183425646Y-132699853D01*
X183300147Y-132574354D01*
X183201544Y-132426784D01*
X183133624Y-132262812D01*
X183099000Y-132088741D01*
X183099000Y-131911259D01*
X183133624Y-131737188D01*
X183201544Y-131573216D01*
X183300147Y-131425646D01*
X183425646Y-131300147D01*
X183573216Y-131201544D01*
X183737188Y-131133624D01*
X183911259Y-131099000D01*
X184088741Y-131099000D01*
X184262812Y-131133624D01*
X184262812Y-131133624D01*
G37*
G36*
X190762812Y-131133624D02*
X190926784Y-131201544D01*
X191074354Y-131300147D01*
X191199853Y-131425646D01*
X191298456Y-131573216D01*
X191366376Y-131737188D01*
X191401000Y-131911259D01*
X191401000Y-132088741D01*
X191366376Y-132262812D01*
X191298456Y-132426784D01*
X191199853Y-132574354D01*
X191074354Y-132699853D01*
X190926784Y-132798456D01*
X190762812Y-132866376D01*
X190588741Y-132901000D01*
X190411259Y-132901000D01*
X190237188Y-132866376D01*
X190073216Y-132798456D01*
X189925646Y-132699853D01*
X189800147Y-132574354D01*
X189701544Y-132426784D01*
X189633624Y-132262812D01*
X189599000Y-132088741D01*
X189599000Y-131911259D01*
X189633624Y-131737188D01*
X189701544Y-131573216D01*
X189800147Y-131425646D01*
X189925646Y-131300147D01*
X190073216Y-131201544D01*
X190237188Y-131133624D01*
X190411259Y-131099000D01*
X190588741Y-131099000D01*
X190762812Y-131133624D01*
X190762812Y-131133624D01*
G37*
G36*
X164262812Y-131133624D02*
X164426784Y-131201544D01*
X164574354Y-131300147D01*
X164699853Y-131425646D01*
X164798456Y-131573216D01*
X164866376Y-131737188D01*
X164901000Y-131911259D01*
X164901000Y-132088741D01*
X164866376Y-132262812D01*
X164798456Y-132426784D01*
X164699853Y-132574354D01*
X164574354Y-132699853D01*
X164426784Y-132798456D01*
X164262812Y-132866376D01*
X164088741Y-132901000D01*
X163911259Y-132901000D01*
X163737188Y-132866376D01*
X163573216Y-132798456D01*
X163425646Y-132699853D01*
X163300147Y-132574354D01*
X163201544Y-132426784D01*
X163133624Y-132262812D01*
X163099000Y-132088741D01*
X163099000Y-131911259D01*
X163133624Y-131737188D01*
X163201544Y-131573216D01*
X163300147Y-131425646D01*
X163425646Y-131300147D01*
X163573216Y-131201544D01*
X163737188Y-131133624D01*
X163911259Y-131099000D01*
X164088741Y-131099000D01*
X164262812Y-131133624D01*
X164262812Y-131133624D01*
G37*
G36*
X170762812Y-131133624D02*
X170926784Y-131201544D01*
X171074354Y-131300147D01*
X171199853Y-131425646D01*
X171298456Y-131573216D01*
X171366376Y-131737188D01*
X171401000Y-131911259D01*
X171401000Y-132088741D01*
X171366376Y-132262812D01*
X171298456Y-132426784D01*
X171199853Y-132574354D01*
X171074354Y-132699853D01*
X170926784Y-132798456D01*
X170762812Y-132866376D01*
X170588741Y-132901000D01*
X170411259Y-132901000D01*
X170237188Y-132866376D01*
X170073216Y-132798456D01*
X169925646Y-132699853D01*
X169800147Y-132574354D01*
X169701544Y-132426784D01*
X169633624Y-132262812D01*
X169599000Y-132088741D01*
X169599000Y-131911259D01*
X169633624Y-131737188D01*
X169701544Y-131573216D01*
X169800147Y-131425646D01*
X169925646Y-131300147D01*
X170073216Y-131201544D01*
X170237188Y-131133624D01*
X170411259Y-131099000D01*
X170588741Y-131099000D01*
X170762812Y-131133624D01*
X170762812Y-131133624D01*
G37*
G36*
X174262812Y-131133624D02*
X174426784Y-131201544D01*
X174574354Y-131300147D01*
X174699853Y-131425646D01*
X174798456Y-131573216D01*
X174866376Y-131737188D01*
X174901000Y-131911259D01*
X174901000Y-132088741D01*
X174866376Y-132262812D01*
X174798456Y-132426784D01*
X174699853Y-132574354D01*
X174574354Y-132699853D01*
X174426784Y-132798456D01*
X174262812Y-132866376D01*
X174088741Y-132901000D01*
X173911259Y-132901000D01*
X173737188Y-132866376D01*
X173573216Y-132798456D01*
X173425646Y-132699853D01*
X173300147Y-132574354D01*
X173201544Y-132426784D01*
X173133624Y-132262812D01*
X173099000Y-132088741D01*
X173099000Y-131911259D01*
X173133624Y-131737188D01*
X173201544Y-131573216D01*
X173300147Y-131425646D01*
X173425646Y-131300147D01*
X173573216Y-131201544D01*
X173737188Y-131133624D01*
X173911259Y-131099000D01*
X174088741Y-131099000D01*
X174262812Y-131133624D01*
X174262812Y-131133624D01*
G37*
G36*
X180762812Y-131133624D02*
X180926784Y-131201544D01*
X181074354Y-131300147D01*
X181199853Y-131425646D01*
X181298456Y-131573216D01*
X181366376Y-131737188D01*
X181401000Y-131911259D01*
X181401000Y-132088741D01*
X181366376Y-132262812D01*
X181298456Y-132426784D01*
X181199853Y-132574354D01*
X181074354Y-132699853D01*
X180926784Y-132798456D01*
X180762812Y-132866376D01*
X180588741Y-132901000D01*
X180411259Y-132901000D01*
X180237188Y-132866376D01*
X180073216Y-132798456D01*
X179925646Y-132699853D01*
X179800147Y-132574354D01*
X179701544Y-132426784D01*
X179633624Y-132262812D01*
X179599000Y-132088741D01*
X179599000Y-131911259D01*
X179633624Y-131737188D01*
X179701544Y-131573216D01*
X179800147Y-131425646D01*
X179925646Y-131300147D01*
X180073216Y-131201544D01*
X180237188Y-131133624D01*
X180411259Y-131099000D01*
X180588741Y-131099000D01*
X180762812Y-131133624D01*
X180762812Y-131133624D01*
G37*
G36*
X160248228Y-129181703D02*
X160403100Y-129245853D01*
X160542481Y-129338985D01*
X160661015Y-129457519D01*
X160754147Y-129596900D01*
X160818297Y-129751772D01*
X160851000Y-129916184D01*
X160851000Y-130083816D01*
X160818297Y-130248228D01*
X160754147Y-130403100D01*
X160661015Y-130542481D01*
X160542481Y-130661015D01*
X160403100Y-130754147D01*
X160248228Y-130818297D01*
X160083816Y-130851000D01*
X159916184Y-130851000D01*
X159751772Y-130818297D01*
X159596900Y-130754147D01*
X159457519Y-130661015D01*
X159338985Y-130542481D01*
X159245853Y-130403100D01*
X159181703Y-130248228D01*
X159149000Y-130083816D01*
X159149000Y-129916184D01*
X159181703Y-129751772D01*
X159245853Y-129596900D01*
X159338985Y-129457519D01*
X159457519Y-129338985D01*
X159596900Y-129245853D01*
X159751772Y-129181703D01*
X159916184Y-129149000D01*
X160083816Y-129149000D01*
X160248228Y-129181703D01*
X160248228Y-129181703D01*
G37*
G36*
X141166821Y-128681313D02*
X141166824Y-128681314D01*
X141166825Y-128681314D01*
X141327239Y-128729975D01*
X141327241Y-128729976D01*
X141327244Y-128729977D01*
X141475078Y-128808995D01*
X141604659Y-128915341D01*
X141711005Y-129044922D01*
X141790023Y-129192756D01*
X141790024Y-129192759D01*
X141790025Y-129192761D01*
X141834382Y-129338986D01*
X141838687Y-129353179D01*
X141855117Y-129520000D01*
X141838687Y-129686821D01*
X141838686Y-129686824D01*
X141838686Y-129686825D01*
X141798805Y-129818296D01*
X141790023Y-129847244D01*
X141711005Y-129995078D01*
X141604659Y-130124659D01*
X141475078Y-130231005D01*
X141327244Y-130310023D01*
X141327241Y-130310024D01*
X141327239Y-130310025D01*
X141166825Y-130358686D01*
X141166824Y-130358686D01*
X141166821Y-130358687D01*
X141041804Y-130371000D01*
X140958196Y-130371000D01*
X140833179Y-130358687D01*
X140833176Y-130358686D01*
X140833175Y-130358686D01*
X140672761Y-130310025D01*
X140672759Y-130310024D01*
X140672756Y-130310023D01*
X140524922Y-130231005D01*
X140395341Y-130124659D01*
X140288995Y-129995078D01*
X140209977Y-129847244D01*
X140201196Y-129818296D01*
X140161314Y-129686825D01*
X140161314Y-129686824D01*
X140161313Y-129686821D01*
X140144883Y-129520000D01*
X140161313Y-129353179D01*
X140165618Y-129338986D01*
X140209975Y-129192761D01*
X140209976Y-129192759D01*
X140209977Y-129192756D01*
X140288995Y-129044922D01*
X140395341Y-128915341D01*
X140524922Y-128808995D01*
X140672756Y-128729977D01*
X140672759Y-128729976D01*
X140672761Y-128729975D01*
X140833175Y-128681314D01*
X140833176Y-128681314D01*
X140833179Y-128681313D01*
X140958196Y-128669000D01*
X141041804Y-128669000D01*
X141166821Y-128681313D01*
X141166821Y-128681313D01*
G37*
G36*
X156406821Y-128681313D02*
X156406824Y-128681314D01*
X156406825Y-128681314D01*
X156567239Y-128729975D01*
X156567241Y-128729976D01*
X156567244Y-128729977D01*
X156715078Y-128808995D01*
X156844659Y-128915341D01*
X156951005Y-129044922D01*
X157030023Y-129192756D01*
X157030024Y-129192759D01*
X157030025Y-129192761D01*
X157074382Y-129338986D01*
X157078687Y-129353179D01*
X157095117Y-129520000D01*
X157078687Y-129686821D01*
X157078686Y-129686824D01*
X157078686Y-129686825D01*
X157038805Y-129818296D01*
X157030023Y-129847244D01*
X156951005Y-129995078D01*
X156844659Y-130124659D01*
X156715078Y-130231005D01*
X156567244Y-130310023D01*
X156567241Y-130310024D01*
X156567239Y-130310025D01*
X156406825Y-130358686D01*
X156406824Y-130358686D01*
X156406821Y-130358687D01*
X156281804Y-130371000D01*
X156198196Y-130371000D01*
X156073179Y-130358687D01*
X156073176Y-130358686D01*
X156073175Y-130358686D01*
X155912761Y-130310025D01*
X155912759Y-130310024D01*
X155912756Y-130310023D01*
X155764922Y-130231005D01*
X155635341Y-130124659D01*
X155528995Y-129995078D01*
X155449977Y-129847244D01*
X155441196Y-129818296D01*
X155401314Y-129686825D01*
X155401314Y-129686824D01*
X155401313Y-129686821D01*
X155384883Y-129520000D01*
X155401313Y-129353179D01*
X155405618Y-129338986D01*
X155449975Y-129192761D01*
X155449976Y-129192759D01*
X155449977Y-129192756D01*
X155528995Y-129044922D01*
X155635341Y-128915341D01*
X155764922Y-128808995D01*
X155912756Y-128729977D01*
X155912759Y-128729976D01*
X155912761Y-128729975D01*
X156073175Y-128681314D01*
X156073176Y-128681314D01*
X156073179Y-128681313D01*
X156198196Y-128669000D01*
X156281804Y-128669000D01*
X156406821Y-128681313D01*
X156406821Y-128681313D01*
G37*
G36*
X195248228Y-128181703D02*
X195403100Y-128245853D01*
X195542481Y-128338985D01*
X195661015Y-128457519D01*
X195754147Y-128596900D01*
X195818297Y-128751772D01*
X195851000Y-128916184D01*
X195851000Y-129083816D01*
X195818297Y-129248228D01*
X195754147Y-129403100D01*
X195661015Y-129542481D01*
X195542481Y-129661015D01*
X195403100Y-129754147D01*
X195248228Y-129818297D01*
X195083816Y-129851000D01*
X194916184Y-129851000D01*
X194751772Y-129818297D01*
X194596900Y-129754147D01*
X194457519Y-129661015D01*
X194338985Y-129542481D01*
X194245853Y-129403100D01*
X194181703Y-129248228D01*
X194149000Y-129083816D01*
X194149000Y-128916184D01*
X194181703Y-128751772D01*
X194245853Y-128596900D01*
X194338985Y-128457519D01*
X194457519Y-128338985D01*
X194596900Y-128245853D01*
X194751772Y-128181703D01*
X194916184Y-128149000D01*
X195083816Y-128149000D01*
X195248228Y-128181703D01*
X195248228Y-128181703D01*
G37*
G36*
X184262812Y-127633624D02*
X184426784Y-127701544D01*
X184574354Y-127800147D01*
X184699853Y-127925646D01*
X184798456Y-128073216D01*
X184866376Y-128237188D01*
X184901000Y-128411259D01*
X184901000Y-128588741D01*
X184866376Y-128762812D01*
X184798456Y-128926784D01*
X184699853Y-129074354D01*
X184574354Y-129199853D01*
X184426784Y-129298456D01*
X184262812Y-129366376D01*
X184088741Y-129401000D01*
X183911259Y-129401000D01*
X183737188Y-129366376D01*
X183573216Y-129298456D01*
X183425646Y-129199853D01*
X183300147Y-129074354D01*
X183201544Y-128926784D01*
X183133624Y-128762812D01*
X183099000Y-128588741D01*
X183099000Y-128411259D01*
X183133624Y-128237188D01*
X183201544Y-128073216D01*
X183300147Y-127925646D01*
X183425646Y-127800147D01*
X183573216Y-127701544D01*
X183737188Y-127633624D01*
X183911259Y-127599000D01*
X184088741Y-127599000D01*
X184262812Y-127633624D01*
X184262812Y-127633624D01*
G37*
G36*
X190762812Y-127633624D02*
X190926784Y-127701544D01*
X191074354Y-127800147D01*
X191199853Y-127925646D01*
X191298456Y-128073216D01*
X191366376Y-128237188D01*
X191401000Y-128411259D01*
X191401000Y-128588741D01*
X191366376Y-128762812D01*
X191298456Y-128926784D01*
X191199853Y-129074354D01*
X191074354Y-129199853D01*
X190926784Y-129298456D01*
X190762812Y-129366376D01*
X190588741Y-129401000D01*
X190411259Y-129401000D01*
X190237188Y-129366376D01*
X190073216Y-129298456D01*
X189925646Y-129199853D01*
X189800147Y-129074354D01*
X189701544Y-128926784D01*
X189633624Y-128762812D01*
X189599000Y-128588741D01*
X189599000Y-128411259D01*
X189633624Y-128237188D01*
X189701544Y-128073216D01*
X189800147Y-127925646D01*
X189925646Y-127800147D01*
X190073216Y-127701544D01*
X190237188Y-127633624D01*
X190411259Y-127599000D01*
X190588741Y-127599000D01*
X190762812Y-127633624D01*
X190762812Y-127633624D01*
G37*
G36*
X170762812Y-127633624D02*
X170926784Y-127701544D01*
X171074354Y-127800147D01*
X171199853Y-127925646D01*
X171298456Y-128073216D01*
X171366376Y-128237188D01*
X171401000Y-128411259D01*
X171401000Y-128588741D01*
X171366376Y-128762812D01*
X171298456Y-128926784D01*
X171199853Y-129074354D01*
X171074354Y-129199853D01*
X170926784Y-129298456D01*
X170762812Y-129366376D01*
X170588741Y-129401000D01*
X170411259Y-129401000D01*
X170237188Y-129366376D01*
X170073216Y-129298456D01*
X169925646Y-129199853D01*
X169800147Y-129074354D01*
X169701544Y-128926784D01*
X169633624Y-128762812D01*
X169599000Y-128588741D01*
X169599000Y-128411259D01*
X169633624Y-128237188D01*
X169701544Y-128073216D01*
X169800147Y-127925646D01*
X169925646Y-127800147D01*
X170073216Y-127701544D01*
X170237188Y-127633624D01*
X170411259Y-127599000D01*
X170588741Y-127599000D01*
X170762812Y-127633624D01*
X170762812Y-127633624D01*
G37*
G36*
X174262812Y-127633624D02*
X174426784Y-127701544D01*
X174574354Y-127800147D01*
X174699853Y-127925646D01*
X174798456Y-128073216D01*
X174866376Y-128237188D01*
X174901000Y-128411259D01*
X174901000Y-128588741D01*
X174866376Y-128762812D01*
X174798456Y-128926784D01*
X174699853Y-129074354D01*
X174574354Y-129199853D01*
X174426784Y-129298456D01*
X174262812Y-129366376D01*
X174088741Y-129401000D01*
X173911259Y-129401000D01*
X173737188Y-129366376D01*
X173573216Y-129298456D01*
X173425646Y-129199853D01*
X173300147Y-129074354D01*
X173201544Y-128926784D01*
X173133624Y-128762812D01*
X173099000Y-128588741D01*
X173099000Y-128411259D01*
X173133624Y-128237188D01*
X173201544Y-128073216D01*
X173300147Y-127925646D01*
X173425646Y-127800147D01*
X173573216Y-127701544D01*
X173737188Y-127633624D01*
X173911259Y-127599000D01*
X174088741Y-127599000D01*
X174262812Y-127633624D01*
X174262812Y-127633624D01*
G37*
G36*
X164262812Y-127633624D02*
X164426784Y-127701544D01*
X164574354Y-127800147D01*
X164699853Y-127925646D01*
X164798456Y-128073216D01*
X164866376Y-128237188D01*
X164901000Y-128411259D01*
X164901000Y-128588741D01*
X164866376Y-128762812D01*
X164798456Y-128926784D01*
X164699853Y-129074354D01*
X164574354Y-129199853D01*
X164426784Y-129298456D01*
X164262812Y-129366376D01*
X164088741Y-129401000D01*
X163911259Y-129401000D01*
X163737188Y-129366376D01*
X163573216Y-129298456D01*
X163425646Y-129199853D01*
X163300147Y-129074354D01*
X163201544Y-128926784D01*
X163133624Y-128762812D01*
X163099000Y-128588741D01*
X163099000Y-128411259D01*
X163133624Y-128237188D01*
X163201544Y-128073216D01*
X163300147Y-127925646D01*
X163425646Y-127800147D01*
X163573216Y-127701544D01*
X163737188Y-127633624D01*
X163911259Y-127599000D01*
X164088741Y-127599000D01*
X164262812Y-127633624D01*
X164262812Y-127633624D01*
G37*
G36*
X180762812Y-127633624D02*
X180926784Y-127701544D01*
X181074354Y-127800147D01*
X181199853Y-127925646D01*
X181298456Y-128073216D01*
X181366376Y-128237188D01*
X181401000Y-128411259D01*
X181401000Y-128588741D01*
X181366376Y-128762812D01*
X181298456Y-128926784D01*
X181199853Y-129074354D01*
X181074354Y-129199853D01*
X180926784Y-129298456D01*
X180762812Y-129366376D01*
X180588741Y-129401000D01*
X180411259Y-129401000D01*
X180237188Y-129366376D01*
X180073216Y-129298456D01*
X179925646Y-129199853D01*
X179800147Y-129074354D01*
X179701544Y-128926784D01*
X179633624Y-128762812D01*
X179599000Y-128588741D01*
X179599000Y-128411259D01*
X179633624Y-128237188D01*
X179701544Y-128073216D01*
X179800147Y-127925646D01*
X179925646Y-127800147D01*
X180073216Y-127701544D01*
X180237188Y-127633624D01*
X180411259Y-127599000D01*
X180588741Y-127599000D01*
X180762812Y-127633624D01*
X180762812Y-127633624D01*
G37*
G36*
X160166821Y-126781313D02*
X160166824Y-126781314D01*
X160166825Y-126781314D01*
X160327239Y-126829975D01*
X160327241Y-126829976D01*
X160327244Y-126829977D01*
X160475078Y-126908995D01*
X160604659Y-127015341D01*
X160711005Y-127144922D01*
X160790023Y-127292756D01*
X160790024Y-127292759D01*
X160790025Y-127292761D01*
X160794418Y-127307244D01*
X160838687Y-127453179D01*
X160855117Y-127620000D01*
X160838687Y-127786821D01*
X160838686Y-127786824D01*
X160838686Y-127786825D01*
X160825286Y-127831000D01*
X160790023Y-127947244D01*
X160711005Y-128095078D01*
X160604659Y-128224659D01*
X160475078Y-128331005D01*
X160327244Y-128410023D01*
X160327241Y-128410024D01*
X160327239Y-128410025D01*
X160166825Y-128458686D01*
X160166824Y-128458686D01*
X160166821Y-128458687D01*
X160041804Y-128471000D01*
X159958196Y-128471000D01*
X159833179Y-128458687D01*
X159833176Y-128458686D01*
X159833175Y-128458686D01*
X159672761Y-128410025D01*
X159672759Y-128410024D01*
X159672756Y-128410023D01*
X159524922Y-128331005D01*
X159395341Y-128224659D01*
X159288995Y-128095078D01*
X159209977Y-127947244D01*
X159174715Y-127831000D01*
X159161314Y-127786825D01*
X159161314Y-127786824D01*
X159161313Y-127786821D01*
X159144883Y-127620000D01*
X159161313Y-127453179D01*
X159205582Y-127307244D01*
X159209975Y-127292761D01*
X159209976Y-127292759D01*
X159209977Y-127292756D01*
X159288995Y-127144922D01*
X159395341Y-127015341D01*
X159524922Y-126908995D01*
X159672756Y-126829977D01*
X159672759Y-126829976D01*
X159672761Y-126829975D01*
X159833175Y-126781314D01*
X159833176Y-126781314D01*
X159833179Y-126781313D01*
X159958196Y-126769000D01*
X160041804Y-126769000D01*
X160166821Y-126781313D01*
X160166821Y-126781313D01*
G37*
G36*
X141166821Y-126141313D02*
X141166824Y-126141314D01*
X141166825Y-126141314D01*
X141327239Y-126189975D01*
X141327241Y-126189976D01*
X141327244Y-126189977D01*
X141475078Y-126268995D01*
X141604659Y-126375341D01*
X141711005Y-126504922D01*
X141790023Y-126652756D01*
X141790024Y-126652759D01*
X141790025Y-126652761D01*
X141829021Y-126781313D01*
X141838687Y-126813179D01*
X141855117Y-126980000D01*
X141838687Y-127146821D01*
X141838686Y-127146824D01*
X141838686Y-127146825D01*
X141794417Y-127292761D01*
X141790023Y-127307244D01*
X141711005Y-127455078D01*
X141604659Y-127584659D01*
X141475078Y-127691005D01*
X141327244Y-127770023D01*
X141327241Y-127770024D01*
X141327239Y-127770025D01*
X141166825Y-127818686D01*
X141166824Y-127818686D01*
X141166821Y-127818687D01*
X141041804Y-127831000D01*
X140958196Y-127831000D01*
X140833179Y-127818687D01*
X140833176Y-127818686D01*
X140833175Y-127818686D01*
X140672761Y-127770025D01*
X140672759Y-127770024D01*
X140672756Y-127770023D01*
X140524922Y-127691005D01*
X140395341Y-127584659D01*
X140288995Y-127455078D01*
X140209977Y-127307244D01*
X140205584Y-127292761D01*
X140161314Y-127146825D01*
X140161314Y-127146824D01*
X140161313Y-127146821D01*
X140144883Y-126980000D01*
X140161313Y-126813179D01*
X140170979Y-126781313D01*
X140209975Y-126652761D01*
X140209976Y-126652759D01*
X140209977Y-126652756D01*
X140288995Y-126504922D01*
X140395341Y-126375341D01*
X140524922Y-126268995D01*
X140672756Y-126189977D01*
X140672759Y-126189976D01*
X140672761Y-126189975D01*
X140833175Y-126141314D01*
X140833176Y-126141314D01*
X140833179Y-126141313D01*
X140958196Y-126129000D01*
X141041804Y-126129000D01*
X141166821Y-126141313D01*
X141166821Y-126141313D01*
G37*
G36*
X156406821Y-126141313D02*
X156406824Y-126141314D01*
X156406825Y-126141314D01*
X156567239Y-126189975D01*
X156567241Y-126189976D01*
X156567244Y-126189977D01*
X156715078Y-126268995D01*
X156844659Y-126375341D01*
X156951005Y-126504922D01*
X157030023Y-126652756D01*
X157030024Y-126652759D01*
X157030025Y-126652761D01*
X157069021Y-126781313D01*
X157078687Y-126813179D01*
X157095117Y-126980000D01*
X157078687Y-127146821D01*
X157078686Y-127146824D01*
X157078686Y-127146825D01*
X157034417Y-127292761D01*
X157030023Y-127307244D01*
X156951005Y-127455078D01*
X156844659Y-127584659D01*
X156715078Y-127691005D01*
X156567244Y-127770023D01*
X156567241Y-127770024D01*
X156567239Y-127770025D01*
X156406825Y-127818686D01*
X156406824Y-127818686D01*
X156406821Y-127818687D01*
X156281804Y-127831000D01*
X156198196Y-127831000D01*
X156073179Y-127818687D01*
X156073176Y-127818686D01*
X156073175Y-127818686D01*
X155912761Y-127770025D01*
X155912759Y-127770024D01*
X155912756Y-127770023D01*
X155764922Y-127691005D01*
X155635341Y-127584659D01*
X155528995Y-127455078D01*
X155449977Y-127307244D01*
X155445584Y-127292761D01*
X155401314Y-127146825D01*
X155401314Y-127146824D01*
X155401313Y-127146821D01*
X155384883Y-126980000D01*
X155401313Y-126813179D01*
X155410979Y-126781313D01*
X155449975Y-126652761D01*
X155449976Y-126652759D01*
X155449977Y-126652756D01*
X155528995Y-126504922D01*
X155635341Y-126375341D01*
X155764922Y-126268995D01*
X155912756Y-126189977D01*
X155912759Y-126189976D01*
X155912761Y-126189975D01*
X156073175Y-126141314D01*
X156073176Y-126141314D01*
X156073179Y-126141313D01*
X156198196Y-126129000D01*
X156281804Y-126129000D01*
X156406821Y-126141313D01*
X156406821Y-126141313D01*
G37*
G36*
X141166821Y-123601313D02*
X141166824Y-123601314D01*
X141166825Y-123601314D01*
X141327239Y-123649975D01*
X141327241Y-123649976D01*
X141327244Y-123649977D01*
X141475078Y-123728995D01*
X141604659Y-123835341D01*
X141711005Y-123964922D01*
X141790023Y-124112756D01*
X141838687Y-124273179D01*
X141855117Y-124440000D01*
X141838687Y-124606821D01*
X141790023Y-124767244D01*
X141711005Y-124915078D01*
X141604659Y-125044659D01*
X141475078Y-125151005D01*
X141327244Y-125230023D01*
X141327241Y-125230024D01*
X141327239Y-125230025D01*
X141166825Y-125278686D01*
X141166824Y-125278686D01*
X141166821Y-125278687D01*
X141041804Y-125291000D01*
X140958196Y-125291000D01*
X140833179Y-125278687D01*
X140833176Y-125278686D01*
X140833175Y-125278686D01*
X140672761Y-125230025D01*
X140672759Y-125230024D01*
X140672756Y-125230023D01*
X140524922Y-125151005D01*
X140395341Y-125044659D01*
X140288995Y-124915078D01*
X140209977Y-124767244D01*
X140161313Y-124606821D01*
X140144883Y-124440000D01*
X140161313Y-124273179D01*
X140209977Y-124112756D01*
X140288995Y-123964922D01*
X140395341Y-123835341D01*
X140524922Y-123728995D01*
X140672756Y-123649977D01*
X140672759Y-123649976D01*
X140672761Y-123649975D01*
X140833175Y-123601314D01*
X140833176Y-123601314D01*
X140833179Y-123601313D01*
X140958196Y-123589000D01*
X141041804Y-123589000D01*
X141166821Y-123601313D01*
X141166821Y-123601313D01*
G37*
G36*
X156406821Y-123601313D02*
X156406824Y-123601314D01*
X156406825Y-123601314D01*
X156567239Y-123649975D01*
X156567241Y-123649976D01*
X156567244Y-123649977D01*
X156715078Y-123728995D01*
X156844659Y-123835341D01*
X156951005Y-123964922D01*
X157030023Y-124112756D01*
X157078687Y-124273179D01*
X157095117Y-124440000D01*
X157078687Y-124606821D01*
X157030023Y-124767244D01*
X156951005Y-124915078D01*
X156844659Y-125044659D01*
X156715078Y-125151005D01*
X156567244Y-125230023D01*
X156567241Y-125230024D01*
X156567239Y-125230025D01*
X156406825Y-125278686D01*
X156406824Y-125278686D01*
X156406821Y-125278687D01*
X156281804Y-125291000D01*
X156198196Y-125291000D01*
X156073179Y-125278687D01*
X156073176Y-125278686D01*
X156073175Y-125278686D01*
X155912761Y-125230025D01*
X155912759Y-125230024D01*
X155912756Y-125230023D01*
X155764922Y-125151005D01*
X155635341Y-125044659D01*
X155528995Y-124915078D01*
X155449977Y-124767244D01*
X155401313Y-124606821D01*
X155384883Y-124440000D01*
X155401313Y-124273179D01*
X155449977Y-124112756D01*
X155528995Y-123964922D01*
X155635341Y-123835341D01*
X155764922Y-123728995D01*
X155912756Y-123649977D01*
X155912759Y-123649976D01*
X155912761Y-123649975D01*
X156073175Y-123601314D01*
X156073176Y-123601314D01*
X156073179Y-123601313D01*
X156198196Y-123589000D01*
X156281804Y-123589000D01*
X156406821Y-123601313D01*
X156406821Y-123601313D01*
G37*
G36*
X190762812Y-123133624D02*
X190926784Y-123201544D01*
X191074354Y-123300147D01*
X191199853Y-123425646D01*
X191298456Y-123573216D01*
X191366376Y-123737188D01*
X191401000Y-123911259D01*
X191401000Y-124088741D01*
X191366376Y-124262812D01*
X191298456Y-124426784D01*
X191199853Y-124574354D01*
X191074354Y-124699853D01*
X190926784Y-124798456D01*
X190762812Y-124866376D01*
X190588741Y-124901000D01*
X190411259Y-124901000D01*
X190237188Y-124866376D01*
X190073216Y-124798456D01*
X189925646Y-124699853D01*
X189800147Y-124574354D01*
X189701544Y-124426784D01*
X189633624Y-124262812D01*
X189599000Y-124088741D01*
X189599000Y-123911259D01*
X189633624Y-123737188D01*
X189701544Y-123573216D01*
X189800147Y-123425646D01*
X189925646Y-123300147D01*
X190073216Y-123201544D01*
X190237188Y-123133624D01*
X190411259Y-123099000D01*
X190588741Y-123099000D01*
X190762812Y-123133624D01*
X190762812Y-123133624D01*
G37*
G36*
X184262812Y-123133624D02*
X184426784Y-123201544D01*
X184574354Y-123300147D01*
X184699853Y-123425646D01*
X184798456Y-123573216D01*
X184866376Y-123737188D01*
X184901000Y-123911259D01*
X184901000Y-124088741D01*
X184866376Y-124262812D01*
X184798456Y-124426784D01*
X184699853Y-124574354D01*
X184574354Y-124699853D01*
X184426784Y-124798456D01*
X184262812Y-124866376D01*
X184088741Y-124901000D01*
X183911259Y-124901000D01*
X183737188Y-124866376D01*
X183573216Y-124798456D01*
X183425646Y-124699853D01*
X183300147Y-124574354D01*
X183201544Y-124426784D01*
X183133624Y-124262812D01*
X183099000Y-124088741D01*
X183099000Y-123911259D01*
X183133624Y-123737188D01*
X183201544Y-123573216D01*
X183300147Y-123425646D01*
X183425646Y-123300147D01*
X183573216Y-123201544D01*
X183737188Y-123133624D01*
X183911259Y-123099000D01*
X184088741Y-123099000D01*
X184262812Y-123133624D01*
X184262812Y-123133624D01*
G37*
G36*
X174262812Y-123133624D02*
X174426784Y-123201544D01*
X174574354Y-123300147D01*
X174699853Y-123425646D01*
X174798456Y-123573216D01*
X174866376Y-123737188D01*
X174901000Y-123911259D01*
X174901000Y-124088741D01*
X174866376Y-124262812D01*
X174798456Y-124426784D01*
X174699853Y-124574354D01*
X174574354Y-124699853D01*
X174426784Y-124798456D01*
X174262812Y-124866376D01*
X174088741Y-124901000D01*
X173911259Y-124901000D01*
X173737188Y-124866376D01*
X173573216Y-124798456D01*
X173425646Y-124699853D01*
X173300147Y-124574354D01*
X173201544Y-124426784D01*
X173133624Y-124262812D01*
X173099000Y-124088741D01*
X173099000Y-123911259D01*
X173133624Y-123737188D01*
X173201544Y-123573216D01*
X173300147Y-123425646D01*
X173425646Y-123300147D01*
X173573216Y-123201544D01*
X173737188Y-123133624D01*
X173911259Y-123099000D01*
X174088741Y-123099000D01*
X174262812Y-123133624D01*
X174262812Y-123133624D01*
G37*
G36*
X180762812Y-123133624D02*
X180926784Y-123201544D01*
X181074354Y-123300147D01*
X181199853Y-123425646D01*
X181298456Y-123573216D01*
X181366376Y-123737188D01*
X181401000Y-123911259D01*
X181401000Y-124088741D01*
X181366376Y-124262812D01*
X181298456Y-124426784D01*
X181199853Y-124574354D01*
X181074354Y-124699853D01*
X180926784Y-124798456D01*
X180762812Y-124866376D01*
X180588741Y-124901000D01*
X180411259Y-124901000D01*
X180237188Y-124866376D01*
X180073216Y-124798456D01*
X179925646Y-124699853D01*
X179800147Y-124574354D01*
X179701544Y-124426784D01*
X179633624Y-124262812D01*
X179599000Y-124088741D01*
X179599000Y-123911259D01*
X179633624Y-123737188D01*
X179701544Y-123573216D01*
X179800147Y-123425646D01*
X179925646Y-123300147D01*
X180073216Y-123201544D01*
X180237188Y-123133624D01*
X180411259Y-123099000D01*
X180588741Y-123099000D01*
X180762812Y-123133624D01*
X180762812Y-123133624D01*
G37*
G36*
X170762812Y-123133624D02*
X170926784Y-123201544D01*
X171074354Y-123300147D01*
X171199853Y-123425646D01*
X171298456Y-123573216D01*
X171366376Y-123737188D01*
X171401000Y-123911259D01*
X171401000Y-124088741D01*
X171366376Y-124262812D01*
X171298456Y-124426784D01*
X171199853Y-124574354D01*
X171074354Y-124699853D01*
X170926784Y-124798456D01*
X170762812Y-124866376D01*
X170588741Y-124901000D01*
X170411259Y-124901000D01*
X170237188Y-124866376D01*
X170073216Y-124798456D01*
X169925646Y-124699853D01*
X169800147Y-124574354D01*
X169701544Y-124426784D01*
X169633624Y-124262812D01*
X169599000Y-124088741D01*
X169599000Y-123911259D01*
X169633624Y-123737188D01*
X169701544Y-123573216D01*
X169800147Y-123425646D01*
X169925646Y-123300147D01*
X170073216Y-123201544D01*
X170237188Y-123133624D01*
X170411259Y-123099000D01*
X170588741Y-123099000D01*
X170762812Y-123133624D01*
X170762812Y-123133624D01*
G37*
G36*
X164262812Y-123133624D02*
X164426784Y-123201544D01*
X164574354Y-123300147D01*
X164699853Y-123425646D01*
X164798456Y-123573216D01*
X164866376Y-123737188D01*
X164901000Y-123911259D01*
X164901000Y-124088741D01*
X164866376Y-124262812D01*
X164798456Y-124426784D01*
X164699853Y-124574354D01*
X164574354Y-124699853D01*
X164426784Y-124798456D01*
X164262812Y-124866376D01*
X164088741Y-124901000D01*
X163911259Y-124901000D01*
X163737188Y-124866376D01*
X163573216Y-124798456D01*
X163425646Y-124699853D01*
X163300147Y-124574354D01*
X163201544Y-124426784D01*
X163133624Y-124262812D01*
X163099000Y-124088741D01*
X163099000Y-123911259D01*
X163133624Y-123737188D01*
X163201544Y-123573216D01*
X163300147Y-123425646D01*
X163425646Y-123300147D01*
X163573216Y-123201544D01*
X163737188Y-123133624D01*
X163911259Y-123099000D01*
X164088741Y-123099000D01*
X164262812Y-123133624D01*
X164262812Y-123133624D01*
G37*
G36*
X156406821Y-121061313D02*
X156406824Y-121061314D01*
X156406825Y-121061314D01*
X156567239Y-121109975D01*
X156567241Y-121109976D01*
X156567244Y-121109977D01*
X156715078Y-121188995D01*
X156844659Y-121295341D01*
X156951005Y-121424922D01*
X157030023Y-121572756D01*
X157078687Y-121733179D01*
X157095117Y-121900000D01*
X157078687Y-122066821D01*
X157030023Y-122227244D01*
X156951005Y-122375078D01*
X156844659Y-122504659D01*
X156715078Y-122611005D01*
X156567244Y-122690023D01*
X156567241Y-122690024D01*
X156567239Y-122690025D01*
X156406825Y-122738686D01*
X156406824Y-122738686D01*
X156406821Y-122738687D01*
X156281804Y-122751000D01*
X156198196Y-122751000D01*
X156073179Y-122738687D01*
X156073176Y-122738686D01*
X156073175Y-122738686D01*
X155912761Y-122690025D01*
X155912759Y-122690024D01*
X155912756Y-122690023D01*
X155764922Y-122611005D01*
X155635341Y-122504659D01*
X155528995Y-122375078D01*
X155449977Y-122227244D01*
X155401313Y-122066821D01*
X155384883Y-121900000D01*
X155401313Y-121733179D01*
X155449977Y-121572756D01*
X155528995Y-121424922D01*
X155635341Y-121295341D01*
X155764922Y-121188995D01*
X155912756Y-121109977D01*
X155912759Y-121109976D01*
X155912761Y-121109975D01*
X156073175Y-121061314D01*
X156073176Y-121061314D01*
X156073179Y-121061313D01*
X156198196Y-121049000D01*
X156281804Y-121049000D01*
X156406821Y-121061313D01*
X156406821Y-121061313D01*
G37*
G36*
X141166821Y-121061313D02*
X141166824Y-121061314D01*
X141166825Y-121061314D01*
X141327239Y-121109975D01*
X141327241Y-121109976D01*
X141327244Y-121109977D01*
X141475078Y-121188995D01*
X141604659Y-121295341D01*
X141711005Y-121424922D01*
X141790023Y-121572756D01*
X141838687Y-121733179D01*
X141855117Y-121900000D01*
X141838687Y-122066821D01*
X141790023Y-122227244D01*
X141711005Y-122375078D01*
X141604659Y-122504659D01*
X141475078Y-122611005D01*
X141327244Y-122690023D01*
X141327241Y-122690024D01*
X141327239Y-122690025D01*
X141166825Y-122738686D01*
X141166824Y-122738686D01*
X141166821Y-122738687D01*
X141041804Y-122751000D01*
X140958196Y-122751000D01*
X140833179Y-122738687D01*
X140833176Y-122738686D01*
X140833175Y-122738686D01*
X140672761Y-122690025D01*
X140672759Y-122690024D01*
X140672756Y-122690023D01*
X140524922Y-122611005D01*
X140395341Y-122504659D01*
X140288995Y-122375078D01*
X140209977Y-122227244D01*
X140161313Y-122066821D01*
X140144883Y-121900000D01*
X140161313Y-121733179D01*
X140209977Y-121572756D01*
X140288995Y-121424922D01*
X140395341Y-121295341D01*
X140524922Y-121188995D01*
X140672756Y-121109977D01*
X140672759Y-121109976D01*
X140672761Y-121109975D01*
X140833175Y-121061314D01*
X140833176Y-121061314D01*
X140833179Y-121061313D01*
X140958196Y-121049000D01*
X141041804Y-121049000D01*
X141166821Y-121061313D01*
X141166821Y-121061313D01*
G37*
G36*
X184262812Y-119633624D02*
X184426784Y-119701544D01*
X184574354Y-119800147D01*
X184699853Y-119925646D01*
X184798456Y-120073216D01*
X184866376Y-120237188D01*
X184901000Y-120411259D01*
X184901000Y-120588741D01*
X184866376Y-120762812D01*
X184798456Y-120926784D01*
X184699853Y-121074354D01*
X184574354Y-121199853D01*
X184426784Y-121298456D01*
X184262812Y-121366376D01*
X184088741Y-121401000D01*
X183911259Y-121401000D01*
X183737188Y-121366376D01*
X183573216Y-121298456D01*
X183425646Y-121199853D01*
X183300147Y-121074354D01*
X183201544Y-120926784D01*
X183133624Y-120762812D01*
X183099000Y-120588741D01*
X183099000Y-120411259D01*
X183133624Y-120237188D01*
X183201544Y-120073216D01*
X183300147Y-119925646D01*
X183425646Y-119800147D01*
X183573216Y-119701544D01*
X183737188Y-119633624D01*
X183911259Y-119599000D01*
X184088741Y-119599000D01*
X184262812Y-119633624D01*
X184262812Y-119633624D01*
G37*
G36*
X170762812Y-119633624D02*
X170926784Y-119701544D01*
X171074354Y-119800147D01*
X171199853Y-119925646D01*
X171298456Y-120073216D01*
X171366376Y-120237188D01*
X171401000Y-120411259D01*
X171401000Y-120588741D01*
X171366376Y-120762812D01*
X171298456Y-120926784D01*
X171199853Y-121074354D01*
X171074354Y-121199853D01*
X170926784Y-121298456D01*
X170762812Y-121366376D01*
X170588741Y-121401000D01*
X170411259Y-121401000D01*
X170237188Y-121366376D01*
X170073216Y-121298456D01*
X169925646Y-121199853D01*
X169800147Y-121074354D01*
X169701544Y-120926784D01*
X169633624Y-120762812D01*
X169599000Y-120588741D01*
X169599000Y-120411259D01*
X169633624Y-120237188D01*
X169701544Y-120073216D01*
X169800147Y-119925646D01*
X169925646Y-119800147D01*
X170073216Y-119701544D01*
X170237188Y-119633624D01*
X170411259Y-119599000D01*
X170588741Y-119599000D01*
X170762812Y-119633624D01*
X170762812Y-119633624D01*
G37*
G36*
X164262812Y-119633624D02*
X164426784Y-119701544D01*
X164574354Y-119800147D01*
X164699853Y-119925646D01*
X164798456Y-120073216D01*
X164866376Y-120237188D01*
X164901000Y-120411259D01*
X164901000Y-120588741D01*
X164866376Y-120762812D01*
X164798456Y-120926784D01*
X164699853Y-121074354D01*
X164574354Y-121199853D01*
X164426784Y-121298456D01*
X164262812Y-121366376D01*
X164088741Y-121401000D01*
X163911259Y-121401000D01*
X163737188Y-121366376D01*
X163573216Y-121298456D01*
X163425646Y-121199853D01*
X163300147Y-121074354D01*
X163201544Y-120926784D01*
X163133624Y-120762812D01*
X163099000Y-120588741D01*
X163099000Y-120411259D01*
X163133624Y-120237188D01*
X163201544Y-120073216D01*
X163300147Y-119925646D01*
X163425646Y-119800147D01*
X163573216Y-119701544D01*
X163737188Y-119633624D01*
X163911259Y-119599000D01*
X164088741Y-119599000D01*
X164262812Y-119633624D01*
X164262812Y-119633624D01*
G37*
G36*
X190762812Y-119633624D02*
X190926784Y-119701544D01*
X191074354Y-119800147D01*
X191199853Y-119925646D01*
X191298456Y-120073216D01*
X191366376Y-120237188D01*
X191401000Y-120411259D01*
X191401000Y-120588741D01*
X191366376Y-120762812D01*
X191298456Y-120926784D01*
X191199853Y-121074354D01*
X191074354Y-121199853D01*
X190926784Y-121298456D01*
X190762812Y-121366376D01*
X190588741Y-121401000D01*
X190411259Y-121401000D01*
X190237188Y-121366376D01*
X190073216Y-121298456D01*
X189925646Y-121199853D01*
X189800147Y-121074354D01*
X189701544Y-120926784D01*
X189633624Y-120762812D01*
X189599000Y-120588741D01*
X189599000Y-120411259D01*
X189633624Y-120237188D01*
X189701544Y-120073216D01*
X189800147Y-119925646D01*
X189925646Y-119800147D01*
X190073216Y-119701544D01*
X190237188Y-119633624D01*
X190411259Y-119599000D01*
X190588741Y-119599000D01*
X190762812Y-119633624D01*
X190762812Y-119633624D01*
G37*
G36*
X180762812Y-119633624D02*
X180926784Y-119701544D01*
X181074354Y-119800147D01*
X181199853Y-119925646D01*
X181298456Y-120073216D01*
X181366376Y-120237188D01*
X181401000Y-120411259D01*
X181401000Y-120588741D01*
X181366376Y-120762812D01*
X181298456Y-120926784D01*
X181199853Y-121074354D01*
X181074354Y-121199853D01*
X180926784Y-121298456D01*
X180762812Y-121366376D01*
X180588741Y-121401000D01*
X180411259Y-121401000D01*
X180237188Y-121366376D01*
X180073216Y-121298456D01*
X179925646Y-121199853D01*
X179800147Y-121074354D01*
X179701544Y-120926784D01*
X179633624Y-120762812D01*
X179599000Y-120588741D01*
X179599000Y-120411259D01*
X179633624Y-120237188D01*
X179701544Y-120073216D01*
X179800147Y-119925646D01*
X179925646Y-119800147D01*
X180073216Y-119701544D01*
X180237188Y-119633624D01*
X180411259Y-119599000D01*
X180588741Y-119599000D01*
X180762812Y-119633624D01*
X180762812Y-119633624D01*
G37*
G36*
X174262812Y-119633624D02*
X174426784Y-119701544D01*
X174574354Y-119800147D01*
X174699853Y-119925646D01*
X174798456Y-120073216D01*
X174866376Y-120237188D01*
X174901000Y-120411259D01*
X174901000Y-120588741D01*
X174866376Y-120762812D01*
X174798456Y-120926784D01*
X174699853Y-121074354D01*
X174574354Y-121199853D01*
X174426784Y-121298456D01*
X174262812Y-121366376D01*
X174088741Y-121401000D01*
X173911259Y-121401000D01*
X173737188Y-121366376D01*
X173573216Y-121298456D01*
X173425646Y-121199853D01*
X173300147Y-121074354D01*
X173201544Y-120926784D01*
X173133624Y-120762812D01*
X173099000Y-120588741D01*
X173099000Y-120411259D01*
X173133624Y-120237188D01*
X173201544Y-120073216D01*
X173300147Y-119925646D01*
X173425646Y-119800147D01*
X173573216Y-119701544D01*
X173737188Y-119633624D01*
X173911259Y-119599000D01*
X174088741Y-119599000D01*
X174262812Y-119633624D01*
X174262812Y-119633624D01*
G37*
G36*
X160248228Y-119181703D02*
X160403100Y-119245853D01*
X160542481Y-119338985D01*
X160661015Y-119457519D01*
X160754147Y-119596900D01*
X160818297Y-119751772D01*
X160851000Y-119916184D01*
X160851000Y-120083816D01*
X160818297Y-120248228D01*
X160754147Y-120403100D01*
X160661015Y-120542481D01*
X160542481Y-120661015D01*
X160403100Y-120754147D01*
X160248228Y-120818297D01*
X160083816Y-120851000D01*
X159916184Y-120851000D01*
X159751772Y-120818297D01*
X159596900Y-120754147D01*
X159457519Y-120661015D01*
X159338985Y-120542481D01*
X159245853Y-120403100D01*
X159181703Y-120248228D01*
X159149000Y-120083816D01*
X159149000Y-119916184D01*
X159181703Y-119751772D01*
X159245853Y-119596900D01*
X159338985Y-119457519D01*
X159457519Y-119338985D01*
X159596900Y-119245853D01*
X159751772Y-119181703D01*
X159916184Y-119149000D01*
X160083816Y-119149000D01*
X160248228Y-119181703D01*
X160248228Y-119181703D01*
G37*
G36*
X156406821Y-118521313D02*
X156406824Y-118521314D01*
X156406825Y-118521314D01*
X156567239Y-118569975D01*
X156567241Y-118569976D01*
X156567244Y-118569977D01*
X156715078Y-118648995D01*
X156844659Y-118755341D01*
X156951005Y-118884922D01*
X157030023Y-119032756D01*
X157030024Y-119032759D01*
X157030025Y-119032761D01*
X157075206Y-119181703D01*
X157078687Y-119193179D01*
X157095117Y-119360000D01*
X157078687Y-119526821D01*
X157078686Y-119526824D01*
X157078686Y-119526825D01*
X157046289Y-119633625D01*
X157030023Y-119687244D01*
X156951005Y-119835078D01*
X156844659Y-119964659D01*
X156715078Y-120071005D01*
X156567244Y-120150023D01*
X156567241Y-120150024D01*
X156567239Y-120150025D01*
X156406825Y-120198686D01*
X156406824Y-120198686D01*
X156406821Y-120198687D01*
X156281804Y-120211000D01*
X156198196Y-120211000D01*
X156073179Y-120198687D01*
X156073176Y-120198686D01*
X156073175Y-120198686D01*
X155912761Y-120150025D01*
X155912759Y-120150024D01*
X155912756Y-120150023D01*
X155764922Y-120071005D01*
X155635341Y-119964659D01*
X155528995Y-119835078D01*
X155449977Y-119687244D01*
X155433712Y-119633625D01*
X155401314Y-119526825D01*
X155401314Y-119526824D01*
X155401313Y-119526821D01*
X155384883Y-119360000D01*
X155401313Y-119193179D01*
X155404794Y-119181703D01*
X155449975Y-119032761D01*
X155449976Y-119032759D01*
X155449977Y-119032756D01*
X155528995Y-118884922D01*
X155635341Y-118755341D01*
X155764922Y-118648995D01*
X155912756Y-118569977D01*
X155912759Y-118569976D01*
X155912761Y-118569975D01*
X156073175Y-118521314D01*
X156073176Y-118521314D01*
X156073179Y-118521313D01*
X156198196Y-118509000D01*
X156281804Y-118509000D01*
X156406821Y-118521313D01*
X156406821Y-118521313D01*
G37*
G36*
X141166821Y-118521313D02*
X141166824Y-118521314D01*
X141166825Y-118521314D01*
X141327239Y-118569975D01*
X141327241Y-118569976D01*
X141327244Y-118569977D01*
X141475078Y-118648995D01*
X141604659Y-118755341D01*
X141711005Y-118884922D01*
X141790023Y-119032756D01*
X141790024Y-119032759D01*
X141790025Y-119032761D01*
X141835206Y-119181703D01*
X141838687Y-119193179D01*
X141855117Y-119360000D01*
X141838687Y-119526821D01*
X141838686Y-119526824D01*
X141838686Y-119526825D01*
X141806289Y-119633625D01*
X141790023Y-119687244D01*
X141711005Y-119835078D01*
X141604659Y-119964659D01*
X141475078Y-120071005D01*
X141327244Y-120150023D01*
X141327241Y-120150024D01*
X141327239Y-120150025D01*
X141166825Y-120198686D01*
X141166824Y-120198686D01*
X141166821Y-120198687D01*
X141041804Y-120211000D01*
X140958196Y-120211000D01*
X140833179Y-120198687D01*
X140833176Y-120198686D01*
X140833175Y-120198686D01*
X140672761Y-120150025D01*
X140672759Y-120150024D01*
X140672756Y-120150023D01*
X140524922Y-120071005D01*
X140395341Y-119964659D01*
X140288995Y-119835078D01*
X140209977Y-119687244D01*
X140193712Y-119633625D01*
X140161314Y-119526825D01*
X140161314Y-119526824D01*
X140161313Y-119526821D01*
X140144883Y-119360000D01*
X140161313Y-119193179D01*
X140164794Y-119181703D01*
X140209975Y-119032761D01*
X140209976Y-119032759D01*
X140209977Y-119032756D01*
X140288995Y-118884922D01*
X140395341Y-118755341D01*
X140524922Y-118648995D01*
X140672756Y-118569977D01*
X140672759Y-118569976D01*
X140672761Y-118569975D01*
X140833175Y-118521314D01*
X140833176Y-118521314D01*
X140833179Y-118521313D01*
X140958196Y-118509000D01*
X141041804Y-118509000D01*
X141166821Y-118521313D01*
X141166821Y-118521313D01*
G37*
G36*
X160166821Y-116781313D02*
X160166824Y-116781314D01*
X160166825Y-116781314D01*
X160327239Y-116829975D01*
X160327241Y-116829976D01*
X160327244Y-116829977D01*
X160475078Y-116908995D01*
X160604659Y-117015341D01*
X160711005Y-117144922D01*
X160790023Y-117292756D01*
X160790024Y-117292759D01*
X160790025Y-117292761D01*
X160830036Y-117424659D01*
X160838687Y-117453179D01*
X160855117Y-117620000D01*
X160838687Y-117786821D01*
X160790023Y-117947244D01*
X160711005Y-118095078D01*
X160604659Y-118224659D01*
X160475078Y-118331005D01*
X160327244Y-118410023D01*
X160327241Y-118410024D01*
X160327239Y-118410025D01*
X160166825Y-118458686D01*
X160166824Y-118458686D01*
X160166821Y-118458687D01*
X160041804Y-118471000D01*
X159958196Y-118471000D01*
X159833179Y-118458687D01*
X159833176Y-118458686D01*
X159833175Y-118458686D01*
X159672761Y-118410025D01*
X159672759Y-118410024D01*
X159672756Y-118410023D01*
X159524922Y-118331005D01*
X159395341Y-118224659D01*
X159288995Y-118095078D01*
X159209977Y-117947244D01*
X159161313Y-117786821D01*
X159144883Y-117620000D01*
X159161313Y-117453179D01*
X159169964Y-117424659D01*
X159209975Y-117292761D01*
X159209976Y-117292759D01*
X159209977Y-117292756D01*
X159288995Y-117144922D01*
X159395341Y-117015341D01*
X159524922Y-116908995D01*
X159672756Y-116829977D01*
X159672759Y-116829976D01*
X159672761Y-116829975D01*
X159833175Y-116781314D01*
X159833176Y-116781314D01*
X159833179Y-116781313D01*
X159958196Y-116769000D01*
X160041804Y-116769000D01*
X160166821Y-116781313D01*
X160166821Y-116781313D01*
G37*
G36*
X156406821Y-115981313D02*
X156406824Y-115981314D01*
X156406825Y-115981314D01*
X156567239Y-116029975D01*
X156567241Y-116029976D01*
X156567244Y-116029977D01*
X156715078Y-116108995D01*
X156844659Y-116215341D01*
X156951005Y-116344922D01*
X157030023Y-116492756D01*
X157078687Y-116653179D01*
X157095117Y-116820000D01*
X157078687Y-116986821D01*
X157078686Y-116986824D01*
X157078686Y-116986825D01*
X157030728Y-117144922D01*
X157030023Y-117147244D01*
X156951005Y-117295078D01*
X156844659Y-117424659D01*
X156715078Y-117531005D01*
X156567244Y-117610023D01*
X156567241Y-117610024D01*
X156567239Y-117610025D01*
X156406825Y-117658686D01*
X156406824Y-117658686D01*
X156406821Y-117658687D01*
X156281804Y-117671000D01*
X156198196Y-117671000D01*
X156073179Y-117658687D01*
X156073176Y-117658686D01*
X156073175Y-117658686D01*
X155912761Y-117610025D01*
X155912759Y-117610024D01*
X155912756Y-117610023D01*
X155764922Y-117531005D01*
X155635341Y-117424659D01*
X155528995Y-117295078D01*
X155449977Y-117147244D01*
X155449273Y-117144922D01*
X155401314Y-116986825D01*
X155401314Y-116986824D01*
X155401313Y-116986821D01*
X155384883Y-116820000D01*
X155401313Y-116653179D01*
X155449977Y-116492756D01*
X155528995Y-116344922D01*
X155635341Y-116215341D01*
X155764922Y-116108995D01*
X155912756Y-116029977D01*
X155912759Y-116029976D01*
X155912761Y-116029975D01*
X156073175Y-115981314D01*
X156073176Y-115981314D01*
X156073179Y-115981313D01*
X156198196Y-115969000D01*
X156281804Y-115969000D01*
X156406821Y-115981313D01*
X156406821Y-115981313D01*
G37*
G36*
X141166821Y-115981313D02*
X141166824Y-115981314D01*
X141166825Y-115981314D01*
X141327239Y-116029975D01*
X141327241Y-116029976D01*
X141327244Y-116029977D01*
X141475078Y-116108995D01*
X141604659Y-116215341D01*
X141711005Y-116344922D01*
X141790023Y-116492756D01*
X141838687Y-116653179D01*
X141855117Y-116820000D01*
X141838687Y-116986821D01*
X141838686Y-116986824D01*
X141838686Y-116986825D01*
X141790728Y-117144922D01*
X141790023Y-117147244D01*
X141711005Y-117295078D01*
X141604659Y-117424659D01*
X141475078Y-117531005D01*
X141327244Y-117610023D01*
X141327241Y-117610024D01*
X141327239Y-117610025D01*
X141166825Y-117658686D01*
X141166824Y-117658686D01*
X141166821Y-117658687D01*
X141041804Y-117671000D01*
X140958196Y-117671000D01*
X140833179Y-117658687D01*
X140833176Y-117658686D01*
X140833175Y-117658686D01*
X140672761Y-117610025D01*
X140672759Y-117610024D01*
X140672756Y-117610023D01*
X140524922Y-117531005D01*
X140395341Y-117424659D01*
X140288995Y-117295078D01*
X140209977Y-117147244D01*
X140209273Y-117144922D01*
X140161314Y-116986825D01*
X140161314Y-116986824D01*
X140161313Y-116986821D01*
X140144883Y-116820000D01*
X140161313Y-116653179D01*
X140209977Y-116492756D01*
X140288995Y-116344922D01*
X140395341Y-116215341D01*
X140524922Y-116108995D01*
X140672756Y-116029977D01*
X140672759Y-116029976D01*
X140672761Y-116029975D01*
X140833175Y-115981314D01*
X140833176Y-115981314D01*
X140833179Y-115981313D01*
X140958196Y-115969000D01*
X141041804Y-115969000D01*
X141166821Y-115981313D01*
X141166821Y-115981313D01*
G37*
G36*
X170762812Y-115133624D02*
X170926784Y-115201544D01*
X171074354Y-115300147D01*
X171199853Y-115425646D01*
X171298456Y-115573216D01*
X171366376Y-115737188D01*
X171401000Y-115911259D01*
X171401000Y-116088741D01*
X171366376Y-116262812D01*
X171298456Y-116426784D01*
X171199853Y-116574354D01*
X171074354Y-116699853D01*
X170926784Y-116798456D01*
X170762812Y-116866376D01*
X170588741Y-116901000D01*
X170411259Y-116901000D01*
X170237188Y-116866376D01*
X170073216Y-116798456D01*
X169925646Y-116699853D01*
X169800147Y-116574354D01*
X169701544Y-116426784D01*
X169633624Y-116262812D01*
X169599000Y-116088741D01*
X169599000Y-115911259D01*
X169633624Y-115737188D01*
X169701544Y-115573216D01*
X169800147Y-115425646D01*
X169925646Y-115300147D01*
X170073216Y-115201544D01*
X170237188Y-115133624D01*
X170411259Y-115099000D01*
X170588741Y-115099000D01*
X170762812Y-115133624D01*
X170762812Y-115133624D01*
G37*
G36*
X174262812Y-115133624D02*
X174426784Y-115201544D01*
X174574354Y-115300147D01*
X174699853Y-115425646D01*
X174798456Y-115573216D01*
X174866376Y-115737188D01*
X174901000Y-115911259D01*
X174901000Y-116088741D01*
X174866376Y-116262812D01*
X174798456Y-116426784D01*
X174699853Y-116574354D01*
X174574354Y-116699853D01*
X174426784Y-116798456D01*
X174262812Y-116866376D01*
X174088741Y-116901000D01*
X173911259Y-116901000D01*
X173737188Y-116866376D01*
X173573216Y-116798456D01*
X173425646Y-116699853D01*
X173300147Y-116574354D01*
X173201544Y-116426784D01*
X173133624Y-116262812D01*
X173099000Y-116088741D01*
X173099000Y-115911259D01*
X173133624Y-115737188D01*
X173201544Y-115573216D01*
X173300147Y-115425646D01*
X173425646Y-115300147D01*
X173573216Y-115201544D01*
X173737188Y-115133624D01*
X173911259Y-115099000D01*
X174088741Y-115099000D01*
X174262812Y-115133624D01*
X174262812Y-115133624D01*
G37*
G36*
X184262812Y-115133624D02*
X184426784Y-115201544D01*
X184574354Y-115300147D01*
X184699853Y-115425646D01*
X184798456Y-115573216D01*
X184866376Y-115737188D01*
X184901000Y-115911259D01*
X184901000Y-116088741D01*
X184866376Y-116262812D01*
X184798456Y-116426784D01*
X184699853Y-116574354D01*
X184574354Y-116699853D01*
X184426784Y-116798456D01*
X184262812Y-116866376D01*
X184088741Y-116901000D01*
X183911259Y-116901000D01*
X183737188Y-116866376D01*
X183573216Y-116798456D01*
X183425646Y-116699853D01*
X183300147Y-116574354D01*
X183201544Y-116426784D01*
X183133624Y-116262812D01*
X183099000Y-116088741D01*
X183099000Y-115911259D01*
X183133624Y-115737188D01*
X183201544Y-115573216D01*
X183300147Y-115425646D01*
X183425646Y-115300147D01*
X183573216Y-115201544D01*
X183737188Y-115133624D01*
X183911259Y-115099000D01*
X184088741Y-115099000D01*
X184262812Y-115133624D01*
X184262812Y-115133624D01*
G37*
G36*
X180762812Y-115133624D02*
X180926784Y-115201544D01*
X181074354Y-115300147D01*
X181199853Y-115425646D01*
X181298456Y-115573216D01*
X181366376Y-115737188D01*
X181401000Y-115911259D01*
X181401000Y-116088741D01*
X181366376Y-116262812D01*
X181298456Y-116426784D01*
X181199853Y-116574354D01*
X181074354Y-116699853D01*
X180926784Y-116798456D01*
X180762812Y-116866376D01*
X180588741Y-116901000D01*
X180411259Y-116901000D01*
X180237188Y-116866376D01*
X180073216Y-116798456D01*
X179925646Y-116699853D01*
X179800147Y-116574354D01*
X179701544Y-116426784D01*
X179633624Y-116262812D01*
X179599000Y-116088741D01*
X179599000Y-115911259D01*
X179633624Y-115737188D01*
X179701544Y-115573216D01*
X179800147Y-115425646D01*
X179925646Y-115300147D01*
X180073216Y-115201544D01*
X180237188Y-115133624D01*
X180411259Y-115099000D01*
X180588741Y-115099000D01*
X180762812Y-115133624D01*
X180762812Y-115133624D01*
G37*
G36*
X164262812Y-115133624D02*
X164426784Y-115201544D01*
X164574354Y-115300147D01*
X164699853Y-115425646D01*
X164798456Y-115573216D01*
X164866376Y-115737188D01*
X164901000Y-115911259D01*
X164901000Y-116088741D01*
X164866376Y-116262812D01*
X164798456Y-116426784D01*
X164699853Y-116574354D01*
X164574354Y-116699853D01*
X164426784Y-116798456D01*
X164262812Y-116866376D01*
X164088741Y-116901000D01*
X163911259Y-116901000D01*
X163737188Y-116866376D01*
X163573216Y-116798456D01*
X163425646Y-116699853D01*
X163300147Y-116574354D01*
X163201544Y-116426784D01*
X163133624Y-116262812D01*
X163099000Y-116088741D01*
X163099000Y-115911259D01*
X163133624Y-115737188D01*
X163201544Y-115573216D01*
X163300147Y-115425646D01*
X163425646Y-115300147D01*
X163573216Y-115201544D01*
X163737188Y-115133624D01*
X163911259Y-115099000D01*
X164088741Y-115099000D01*
X164262812Y-115133624D01*
X164262812Y-115133624D01*
G37*
G36*
X190762812Y-115133624D02*
X190926784Y-115201544D01*
X191074354Y-115300147D01*
X191199853Y-115425646D01*
X191298456Y-115573216D01*
X191366376Y-115737188D01*
X191401000Y-115911259D01*
X191401000Y-116088741D01*
X191366376Y-116262812D01*
X191298456Y-116426784D01*
X191199853Y-116574354D01*
X191074354Y-116699853D01*
X190926784Y-116798456D01*
X190762812Y-116866376D01*
X190588741Y-116901000D01*
X190411259Y-116901000D01*
X190237188Y-116866376D01*
X190073216Y-116798456D01*
X189925646Y-116699853D01*
X189800147Y-116574354D01*
X189701544Y-116426784D01*
X189633624Y-116262812D01*
X189599000Y-116088741D01*
X189599000Y-115911259D01*
X189633624Y-115737188D01*
X189701544Y-115573216D01*
X189800147Y-115425646D01*
X189925646Y-115300147D01*
X190073216Y-115201544D01*
X190237188Y-115133624D01*
X190411259Y-115099000D01*
X190588741Y-115099000D01*
X190762812Y-115133624D01*
X190762812Y-115133624D01*
G37*
G36*
X141166821Y-113441313D02*
X141166824Y-113441314D01*
X141166825Y-113441314D01*
X141327239Y-113489975D01*
X141327241Y-113489976D01*
X141327244Y-113489977D01*
X141475078Y-113568995D01*
X141604659Y-113675341D01*
X141711005Y-113804922D01*
X141790023Y-113952756D01*
X141838687Y-114113179D01*
X141855117Y-114280000D01*
X141838687Y-114446821D01*
X141790023Y-114607244D01*
X141711005Y-114755078D01*
X141604659Y-114884659D01*
X141475078Y-114991005D01*
X141327244Y-115070023D01*
X141327241Y-115070024D01*
X141327239Y-115070025D01*
X141166825Y-115118686D01*
X141166824Y-115118686D01*
X141166821Y-115118687D01*
X141041804Y-115131000D01*
X140958196Y-115131000D01*
X140833179Y-115118687D01*
X140833176Y-115118686D01*
X140833175Y-115118686D01*
X140672761Y-115070025D01*
X140672759Y-115070024D01*
X140672756Y-115070023D01*
X140524922Y-114991005D01*
X140395341Y-114884659D01*
X140288995Y-114755078D01*
X140209977Y-114607244D01*
X140161313Y-114446821D01*
X140144883Y-114280000D01*
X140161313Y-114113179D01*
X140209977Y-113952756D01*
X140288995Y-113804922D01*
X140395341Y-113675341D01*
X140524922Y-113568995D01*
X140672756Y-113489977D01*
X140672759Y-113489976D01*
X140672761Y-113489975D01*
X140833175Y-113441314D01*
X140833176Y-113441314D01*
X140833179Y-113441313D01*
X140958196Y-113429000D01*
X141041804Y-113429000D01*
X141166821Y-113441313D01*
X141166821Y-113441313D01*
G37*
G36*
X156406821Y-113441313D02*
X156406824Y-113441314D01*
X156406825Y-113441314D01*
X156567239Y-113489975D01*
X156567241Y-113489976D01*
X156567244Y-113489977D01*
X156715078Y-113568995D01*
X156844659Y-113675341D01*
X156951005Y-113804922D01*
X157030023Y-113952756D01*
X157078687Y-114113179D01*
X157095117Y-114280000D01*
X157078687Y-114446821D01*
X157030023Y-114607244D01*
X156951005Y-114755078D01*
X156844659Y-114884659D01*
X156715078Y-114991005D01*
X156567244Y-115070023D01*
X156567241Y-115070024D01*
X156567239Y-115070025D01*
X156406825Y-115118686D01*
X156406824Y-115118686D01*
X156406821Y-115118687D01*
X156281804Y-115131000D01*
X156198196Y-115131000D01*
X156073179Y-115118687D01*
X156073176Y-115118686D01*
X156073175Y-115118686D01*
X155912761Y-115070025D01*
X155912759Y-115070024D01*
X155912756Y-115070023D01*
X155764922Y-114991005D01*
X155635341Y-114884659D01*
X155528995Y-114755078D01*
X155449977Y-114607244D01*
X155401313Y-114446821D01*
X155384883Y-114280000D01*
X155401313Y-114113179D01*
X155449977Y-113952756D01*
X155528995Y-113804922D01*
X155635341Y-113675341D01*
X155764922Y-113568995D01*
X155912756Y-113489977D01*
X155912759Y-113489976D01*
X155912761Y-113489975D01*
X156073175Y-113441314D01*
X156073176Y-113441314D01*
X156073179Y-113441313D01*
X156198196Y-113429000D01*
X156281804Y-113429000D01*
X156406821Y-113441313D01*
X156406821Y-113441313D01*
G37*
G36*
X164262812Y-111633624D02*
X164426784Y-111701544D01*
X164574354Y-111800147D01*
X164699853Y-111925646D01*
X164798456Y-112073216D01*
X164866376Y-112237188D01*
X164901000Y-112411259D01*
X164901000Y-112588741D01*
X164866376Y-112762812D01*
X164798456Y-112926784D01*
X164699853Y-113074354D01*
X164574354Y-113199853D01*
X164426784Y-113298456D01*
X164262812Y-113366376D01*
X164088741Y-113401000D01*
X163911259Y-113401000D01*
X163737188Y-113366376D01*
X163573216Y-113298456D01*
X163425646Y-113199853D01*
X163300147Y-113074354D01*
X163201544Y-112926784D01*
X163133624Y-112762812D01*
X163099000Y-112588741D01*
X163099000Y-112411259D01*
X163133624Y-112237188D01*
X163201544Y-112073216D01*
X163300147Y-111925646D01*
X163425646Y-111800147D01*
X163573216Y-111701544D01*
X163737188Y-111633624D01*
X163911259Y-111599000D01*
X164088741Y-111599000D01*
X164262812Y-111633624D01*
X164262812Y-111633624D01*
G37*
G36*
X170762812Y-111633624D02*
X170926784Y-111701544D01*
X171074354Y-111800147D01*
X171199853Y-111925646D01*
X171298456Y-112073216D01*
X171366376Y-112237188D01*
X171401000Y-112411259D01*
X171401000Y-112588741D01*
X171366376Y-112762812D01*
X171298456Y-112926784D01*
X171199853Y-113074354D01*
X171074354Y-113199853D01*
X170926784Y-113298456D01*
X170762812Y-113366376D01*
X170588741Y-113401000D01*
X170411259Y-113401000D01*
X170237188Y-113366376D01*
X170073216Y-113298456D01*
X169925646Y-113199853D01*
X169800147Y-113074354D01*
X169701544Y-112926784D01*
X169633624Y-112762812D01*
X169599000Y-112588741D01*
X169599000Y-112411259D01*
X169633624Y-112237188D01*
X169701544Y-112073216D01*
X169800147Y-111925646D01*
X169925646Y-111800147D01*
X170073216Y-111701544D01*
X170237188Y-111633624D01*
X170411259Y-111599000D01*
X170588741Y-111599000D01*
X170762812Y-111633624D01*
X170762812Y-111633624D01*
G37*
G36*
X180762812Y-111633624D02*
X180926784Y-111701544D01*
X181074354Y-111800147D01*
X181199853Y-111925646D01*
X181298456Y-112073216D01*
X181366376Y-112237188D01*
X181401000Y-112411259D01*
X181401000Y-112588741D01*
X181366376Y-112762812D01*
X181298456Y-112926784D01*
X181199853Y-113074354D01*
X181074354Y-113199853D01*
X180926784Y-113298456D01*
X180762812Y-113366376D01*
X180588741Y-113401000D01*
X180411259Y-113401000D01*
X180237188Y-113366376D01*
X180073216Y-113298456D01*
X179925646Y-113199853D01*
X179800147Y-113074354D01*
X179701544Y-112926784D01*
X179633624Y-112762812D01*
X179599000Y-112588741D01*
X179599000Y-112411259D01*
X179633624Y-112237188D01*
X179701544Y-112073216D01*
X179800147Y-111925646D01*
X179925646Y-111800147D01*
X180073216Y-111701544D01*
X180237188Y-111633624D01*
X180411259Y-111599000D01*
X180588741Y-111599000D01*
X180762812Y-111633624D01*
X180762812Y-111633624D01*
G37*
G36*
X174262812Y-111633624D02*
X174426784Y-111701544D01*
X174574354Y-111800147D01*
X174699853Y-111925646D01*
X174798456Y-112073216D01*
X174866376Y-112237188D01*
X174901000Y-112411259D01*
X174901000Y-112588741D01*
X174866376Y-112762812D01*
X174798456Y-112926784D01*
X174699853Y-113074354D01*
X174574354Y-113199853D01*
X174426784Y-113298456D01*
X174262812Y-113366376D01*
X174088741Y-113401000D01*
X173911259Y-113401000D01*
X173737188Y-113366376D01*
X173573216Y-113298456D01*
X173425646Y-113199853D01*
X173300147Y-113074354D01*
X173201544Y-112926784D01*
X173133624Y-112762812D01*
X173099000Y-112588741D01*
X173099000Y-112411259D01*
X173133624Y-112237188D01*
X173201544Y-112073216D01*
X173300147Y-111925646D01*
X173425646Y-111800147D01*
X173573216Y-111701544D01*
X173737188Y-111633624D01*
X173911259Y-111599000D01*
X174088741Y-111599000D01*
X174262812Y-111633624D01*
X174262812Y-111633624D01*
G37*
G36*
X190762812Y-111633624D02*
X190926784Y-111701544D01*
X191074354Y-111800147D01*
X191199853Y-111925646D01*
X191298456Y-112073216D01*
X191366376Y-112237188D01*
X191401000Y-112411259D01*
X191401000Y-112588741D01*
X191366376Y-112762812D01*
X191298456Y-112926784D01*
X191199853Y-113074354D01*
X191074354Y-113199853D01*
X190926784Y-113298456D01*
X190762812Y-113366376D01*
X190588741Y-113401000D01*
X190411259Y-113401000D01*
X190237188Y-113366376D01*
X190073216Y-113298456D01*
X189925646Y-113199853D01*
X189800147Y-113074354D01*
X189701544Y-112926784D01*
X189633624Y-112762812D01*
X189599000Y-112588741D01*
X189599000Y-112411259D01*
X189633624Y-112237188D01*
X189701544Y-112073216D01*
X189800147Y-111925646D01*
X189925646Y-111800147D01*
X190073216Y-111701544D01*
X190237188Y-111633624D01*
X190411259Y-111599000D01*
X190588741Y-111599000D01*
X190762812Y-111633624D01*
X190762812Y-111633624D01*
G37*
G36*
X184262812Y-111633624D02*
X184426784Y-111701544D01*
X184574354Y-111800147D01*
X184699853Y-111925646D01*
X184798456Y-112073216D01*
X184866376Y-112237188D01*
X184901000Y-112411259D01*
X184901000Y-112588741D01*
X184866376Y-112762812D01*
X184798456Y-112926784D01*
X184699853Y-113074354D01*
X184574354Y-113199853D01*
X184426784Y-113298456D01*
X184262812Y-113366376D01*
X184088741Y-113401000D01*
X183911259Y-113401000D01*
X183737188Y-113366376D01*
X183573216Y-113298456D01*
X183425646Y-113199853D01*
X183300147Y-113074354D01*
X183201544Y-112926784D01*
X183133624Y-112762812D01*
X183099000Y-112588741D01*
X183099000Y-112411259D01*
X183133624Y-112237188D01*
X183201544Y-112073216D01*
X183300147Y-111925646D01*
X183425646Y-111800147D01*
X183573216Y-111701544D01*
X183737188Y-111633624D01*
X183911259Y-111599000D01*
X184088741Y-111599000D01*
X184262812Y-111633624D01*
X184262812Y-111633624D01*
G37*
G36*
X141166821Y-110901313D02*
X141166824Y-110901314D01*
X141166825Y-110901314D01*
X141327239Y-110949975D01*
X141327241Y-110949976D01*
X141327244Y-110949977D01*
X141475078Y-111028995D01*
X141604659Y-111135341D01*
X141711005Y-111264922D01*
X141790023Y-111412756D01*
X141838687Y-111573179D01*
X141855117Y-111740000D01*
X141838687Y-111906821D01*
X141838686Y-111906824D01*
X141838686Y-111906825D01*
X141832977Y-111925646D01*
X141790023Y-112067244D01*
X141711005Y-112215078D01*
X141604659Y-112344659D01*
X141475078Y-112451005D01*
X141327244Y-112530023D01*
X141327241Y-112530024D01*
X141327239Y-112530025D01*
X141166825Y-112578686D01*
X141166824Y-112578686D01*
X141166821Y-112578687D01*
X141041804Y-112591000D01*
X140958196Y-112591000D01*
X140833179Y-112578687D01*
X140833176Y-112578686D01*
X140833175Y-112578686D01*
X140672761Y-112530025D01*
X140672759Y-112530024D01*
X140672756Y-112530023D01*
X140524922Y-112451005D01*
X140395341Y-112344659D01*
X140288995Y-112215078D01*
X140209977Y-112067244D01*
X140167024Y-111925646D01*
X140161314Y-111906825D01*
X140161314Y-111906824D01*
X140161313Y-111906821D01*
X140144883Y-111740000D01*
X140161313Y-111573179D01*
X140209977Y-111412756D01*
X140288995Y-111264922D01*
X140395341Y-111135341D01*
X140524922Y-111028995D01*
X140672756Y-110949977D01*
X140672759Y-110949976D01*
X140672761Y-110949975D01*
X140833175Y-110901314D01*
X140833176Y-110901314D01*
X140833179Y-110901313D01*
X140958196Y-110889000D01*
X141041804Y-110889000D01*
X141166821Y-110901313D01*
X141166821Y-110901313D01*
G37*
G36*
X156406821Y-110901313D02*
X156406824Y-110901314D01*
X156406825Y-110901314D01*
X156567239Y-110949975D01*
X156567241Y-110949976D01*
X156567244Y-110949977D01*
X156715078Y-111028995D01*
X156844659Y-111135341D01*
X156951005Y-111264922D01*
X157030023Y-111412756D01*
X157078687Y-111573179D01*
X157095117Y-111740000D01*
X157078687Y-111906821D01*
X157078686Y-111906824D01*
X157078686Y-111906825D01*
X157072977Y-111925646D01*
X157030023Y-112067244D01*
X156951005Y-112215078D01*
X156844659Y-112344659D01*
X156715078Y-112451005D01*
X156567244Y-112530023D01*
X156567241Y-112530024D01*
X156567239Y-112530025D01*
X156406825Y-112578686D01*
X156406824Y-112578686D01*
X156406821Y-112578687D01*
X156281804Y-112591000D01*
X156198196Y-112591000D01*
X156073179Y-112578687D01*
X156073176Y-112578686D01*
X156073175Y-112578686D01*
X155912761Y-112530025D01*
X155912759Y-112530024D01*
X155912756Y-112530023D01*
X155764922Y-112451005D01*
X155635341Y-112344659D01*
X155528995Y-112215078D01*
X155449977Y-112067244D01*
X155407024Y-111925646D01*
X155401314Y-111906825D01*
X155401314Y-111906824D01*
X155401313Y-111906821D01*
X155384883Y-111740000D01*
X155401313Y-111573179D01*
X155449977Y-111412756D01*
X155528995Y-111264922D01*
X155635341Y-111135341D01*
X155764922Y-111028995D01*
X155912756Y-110949977D01*
X155912759Y-110949976D01*
X155912761Y-110949975D01*
X156073175Y-110901314D01*
X156073176Y-110901314D01*
X156073179Y-110901313D01*
X156198196Y-110889000D01*
X156281804Y-110889000D01*
X156406821Y-110901313D01*
X156406821Y-110901313D01*
G37*
G36*
X160248228Y-109181703D02*
X160403100Y-109245853D01*
X160542481Y-109338985D01*
X160661015Y-109457519D01*
X160754147Y-109596900D01*
X160818297Y-109751772D01*
X160851000Y-109916184D01*
X160851000Y-110083816D01*
X160818297Y-110248228D01*
X160754147Y-110403100D01*
X160661015Y-110542481D01*
X160542481Y-110661015D01*
X160403100Y-110754147D01*
X160248228Y-110818297D01*
X160083816Y-110851000D01*
X159916184Y-110851000D01*
X159751772Y-110818297D01*
X159596900Y-110754147D01*
X159457519Y-110661015D01*
X159338985Y-110542481D01*
X159245853Y-110403100D01*
X159181703Y-110248228D01*
X159149000Y-110083816D01*
X159149000Y-109916184D01*
X159181703Y-109751772D01*
X159245853Y-109596900D01*
X159338985Y-109457519D01*
X159457519Y-109338985D01*
X159596900Y-109245853D01*
X159751772Y-109181703D01*
X159916184Y-109149000D01*
X160083816Y-109149000D01*
X160248228Y-109181703D01*
X160248228Y-109181703D01*
G37*
G36*
X156406821Y-108361313D02*
X156406824Y-108361314D01*
X156406825Y-108361314D01*
X156567239Y-108409975D01*
X156567241Y-108409976D01*
X156567244Y-108409977D01*
X156715078Y-108488995D01*
X156844659Y-108595341D01*
X156951005Y-108724922D01*
X157030023Y-108872756D01*
X157078687Y-109033179D01*
X157095117Y-109200000D01*
X157078687Y-109366821D01*
X157030023Y-109527244D01*
X156951005Y-109675078D01*
X156844659Y-109804659D01*
X156715078Y-109911005D01*
X156567244Y-109990023D01*
X156567241Y-109990024D01*
X156567239Y-109990025D01*
X156406825Y-110038686D01*
X156406824Y-110038686D01*
X156406821Y-110038687D01*
X156281804Y-110051000D01*
X156198196Y-110051000D01*
X156073179Y-110038687D01*
X156073176Y-110038686D01*
X156073175Y-110038686D01*
X155912761Y-109990025D01*
X155912759Y-109990024D01*
X155912756Y-109990023D01*
X155764922Y-109911005D01*
X155635341Y-109804659D01*
X155528995Y-109675078D01*
X155449977Y-109527244D01*
X155401313Y-109366821D01*
X155384883Y-109200000D01*
X155401313Y-109033179D01*
X155449977Y-108872756D01*
X155528995Y-108724922D01*
X155635341Y-108595341D01*
X155764922Y-108488995D01*
X155912756Y-108409977D01*
X155912759Y-108409976D01*
X155912761Y-108409975D01*
X156073175Y-108361314D01*
X156073176Y-108361314D01*
X156073179Y-108361313D01*
X156198196Y-108349000D01*
X156281804Y-108349000D01*
X156406821Y-108361313D01*
X156406821Y-108361313D01*
G37*
G36*
X141166821Y-108361313D02*
X141166824Y-108361314D01*
X141166825Y-108361314D01*
X141327239Y-108409975D01*
X141327241Y-108409976D01*
X141327244Y-108409977D01*
X141475078Y-108488995D01*
X141604659Y-108595341D01*
X141711005Y-108724922D01*
X141790023Y-108872756D01*
X141838687Y-109033179D01*
X141855117Y-109200000D01*
X141838687Y-109366821D01*
X141790023Y-109527244D01*
X141711005Y-109675078D01*
X141604659Y-109804659D01*
X141475078Y-109911005D01*
X141327244Y-109990023D01*
X141327241Y-109990024D01*
X141327239Y-109990025D01*
X141166825Y-110038686D01*
X141166824Y-110038686D01*
X141166821Y-110038687D01*
X141041804Y-110051000D01*
X140958196Y-110051000D01*
X140833179Y-110038687D01*
X140833176Y-110038686D01*
X140833175Y-110038686D01*
X140672761Y-109990025D01*
X140672759Y-109990024D01*
X140672756Y-109990023D01*
X140524922Y-109911005D01*
X140395341Y-109804659D01*
X140288995Y-109675078D01*
X140209977Y-109527244D01*
X140161313Y-109366821D01*
X140144883Y-109200000D01*
X140161313Y-109033179D01*
X140209977Y-108872756D01*
X140288995Y-108724922D01*
X140395341Y-108595341D01*
X140524922Y-108488995D01*
X140672756Y-108409977D01*
X140672759Y-108409976D01*
X140672761Y-108409975D01*
X140833175Y-108361314D01*
X140833176Y-108361314D01*
X140833179Y-108361313D01*
X140958196Y-108349000D01*
X141041804Y-108349000D01*
X141166821Y-108361313D01*
X141166821Y-108361313D01*
G37*
G36*
X164262812Y-107133624D02*
X164426784Y-107201544D01*
X164574354Y-107300147D01*
X164699853Y-107425646D01*
X164798456Y-107573216D01*
X164866376Y-107737188D01*
X164901000Y-107911259D01*
X164901000Y-108088741D01*
X164866376Y-108262812D01*
X164798456Y-108426784D01*
X164699853Y-108574354D01*
X164574354Y-108699853D01*
X164426784Y-108798456D01*
X164262812Y-108866376D01*
X164088741Y-108901000D01*
X163911259Y-108901000D01*
X163737188Y-108866376D01*
X163573216Y-108798456D01*
X163425646Y-108699853D01*
X163300147Y-108574354D01*
X163201544Y-108426784D01*
X163133624Y-108262812D01*
X163099000Y-108088741D01*
X163099000Y-107911259D01*
X163133624Y-107737188D01*
X163201544Y-107573216D01*
X163300147Y-107425646D01*
X163425646Y-107300147D01*
X163573216Y-107201544D01*
X163737188Y-107133624D01*
X163911259Y-107099000D01*
X164088741Y-107099000D01*
X164262812Y-107133624D01*
X164262812Y-107133624D01*
G37*
G36*
X180762812Y-107133624D02*
X180926784Y-107201544D01*
X181074354Y-107300147D01*
X181199853Y-107425646D01*
X181298456Y-107573216D01*
X181366376Y-107737188D01*
X181401000Y-107911259D01*
X181401000Y-108088741D01*
X181366376Y-108262812D01*
X181298456Y-108426784D01*
X181199853Y-108574354D01*
X181074354Y-108699853D01*
X180926784Y-108798456D01*
X180762812Y-108866376D01*
X180588741Y-108901000D01*
X180411259Y-108901000D01*
X180237188Y-108866376D01*
X180073216Y-108798456D01*
X179925646Y-108699853D01*
X179800147Y-108574354D01*
X179701544Y-108426784D01*
X179633624Y-108262812D01*
X179599000Y-108088741D01*
X179599000Y-107911259D01*
X179633624Y-107737188D01*
X179701544Y-107573216D01*
X179800147Y-107425646D01*
X179925646Y-107300147D01*
X180073216Y-107201544D01*
X180237188Y-107133624D01*
X180411259Y-107099000D01*
X180588741Y-107099000D01*
X180762812Y-107133624D01*
X180762812Y-107133624D01*
G37*
G36*
X174262812Y-107133624D02*
X174426784Y-107201544D01*
X174574354Y-107300147D01*
X174699853Y-107425646D01*
X174798456Y-107573216D01*
X174866376Y-107737188D01*
X174901000Y-107911259D01*
X174901000Y-108088741D01*
X174866376Y-108262812D01*
X174798456Y-108426784D01*
X174699853Y-108574354D01*
X174574354Y-108699853D01*
X174426784Y-108798456D01*
X174262812Y-108866376D01*
X174088741Y-108901000D01*
X173911259Y-108901000D01*
X173737188Y-108866376D01*
X173573216Y-108798456D01*
X173425646Y-108699853D01*
X173300147Y-108574354D01*
X173201544Y-108426784D01*
X173133624Y-108262812D01*
X173099000Y-108088741D01*
X173099000Y-107911259D01*
X173133624Y-107737188D01*
X173201544Y-107573216D01*
X173300147Y-107425646D01*
X173425646Y-107300147D01*
X173573216Y-107201544D01*
X173737188Y-107133624D01*
X173911259Y-107099000D01*
X174088741Y-107099000D01*
X174262812Y-107133624D01*
X174262812Y-107133624D01*
G37*
G36*
X190762812Y-107133624D02*
X190926784Y-107201544D01*
X191074354Y-107300147D01*
X191199853Y-107425646D01*
X191298456Y-107573216D01*
X191366376Y-107737188D01*
X191401000Y-107911259D01*
X191401000Y-108088741D01*
X191366376Y-108262812D01*
X191298456Y-108426784D01*
X191199853Y-108574354D01*
X191074354Y-108699853D01*
X190926784Y-108798456D01*
X190762812Y-108866376D01*
X190588741Y-108901000D01*
X190411259Y-108901000D01*
X190237188Y-108866376D01*
X190073216Y-108798456D01*
X189925646Y-108699853D01*
X189800147Y-108574354D01*
X189701544Y-108426784D01*
X189633624Y-108262812D01*
X189599000Y-108088741D01*
X189599000Y-107911259D01*
X189633624Y-107737188D01*
X189701544Y-107573216D01*
X189800147Y-107425646D01*
X189925646Y-107300147D01*
X190073216Y-107201544D01*
X190237188Y-107133624D01*
X190411259Y-107099000D01*
X190588741Y-107099000D01*
X190762812Y-107133624D01*
X190762812Y-107133624D01*
G37*
G36*
X170762812Y-107133624D02*
X170926784Y-107201544D01*
X171074354Y-107300147D01*
X171199853Y-107425646D01*
X171298456Y-107573216D01*
X171366376Y-107737188D01*
X171401000Y-107911259D01*
X171401000Y-108088741D01*
X171366376Y-108262812D01*
X171298456Y-108426784D01*
X171199853Y-108574354D01*
X171074354Y-108699853D01*
X170926784Y-108798456D01*
X170762812Y-108866376D01*
X170588741Y-108901000D01*
X170411259Y-108901000D01*
X170237188Y-108866376D01*
X170073216Y-108798456D01*
X169925646Y-108699853D01*
X169800147Y-108574354D01*
X169701544Y-108426784D01*
X169633624Y-108262812D01*
X169599000Y-108088741D01*
X169599000Y-107911259D01*
X169633624Y-107737188D01*
X169701544Y-107573216D01*
X169800147Y-107425646D01*
X169925646Y-107300147D01*
X170073216Y-107201544D01*
X170237188Y-107133624D01*
X170411259Y-107099000D01*
X170588741Y-107099000D01*
X170762812Y-107133624D01*
X170762812Y-107133624D01*
G37*
G36*
X184262812Y-107133624D02*
X184426784Y-107201544D01*
X184574354Y-107300147D01*
X184699853Y-107425646D01*
X184798456Y-107573216D01*
X184866376Y-107737188D01*
X184901000Y-107911259D01*
X184901000Y-108088741D01*
X184866376Y-108262812D01*
X184798456Y-108426784D01*
X184699853Y-108574354D01*
X184574354Y-108699853D01*
X184426784Y-108798456D01*
X184262812Y-108866376D01*
X184088741Y-108901000D01*
X183911259Y-108901000D01*
X183737188Y-108866376D01*
X183573216Y-108798456D01*
X183425646Y-108699853D01*
X183300147Y-108574354D01*
X183201544Y-108426784D01*
X183133624Y-108262812D01*
X183099000Y-108088741D01*
X183099000Y-107911259D01*
X183133624Y-107737188D01*
X183201544Y-107573216D01*
X183300147Y-107425646D01*
X183425646Y-107300147D01*
X183573216Y-107201544D01*
X183737188Y-107133624D01*
X183911259Y-107099000D01*
X184088741Y-107099000D01*
X184262812Y-107133624D01*
X184262812Y-107133624D01*
G37*
G36*
X141166821Y-105821313D02*
X141166824Y-105821314D01*
X141166825Y-105821314D01*
X141327239Y-105869975D01*
X141327241Y-105869976D01*
X141327244Y-105869977D01*
X141475078Y-105948995D01*
X141604659Y-106055341D01*
X141711005Y-106184922D01*
X141790023Y-106332756D01*
X141838687Y-106493179D01*
X141855117Y-106660000D01*
X141838687Y-106826821D01*
X141790023Y-106987244D01*
X141711005Y-107135078D01*
X141604659Y-107264659D01*
X141475078Y-107371005D01*
X141327244Y-107450023D01*
X141327241Y-107450024D01*
X141327239Y-107450025D01*
X141166825Y-107498686D01*
X141166824Y-107498686D01*
X141166821Y-107498687D01*
X141041804Y-107511000D01*
X140958196Y-107511000D01*
X140833179Y-107498687D01*
X140833176Y-107498686D01*
X140833175Y-107498686D01*
X140672761Y-107450025D01*
X140672759Y-107450024D01*
X140672756Y-107450023D01*
X140524922Y-107371005D01*
X140395341Y-107264659D01*
X140288995Y-107135078D01*
X140209977Y-106987244D01*
X140161313Y-106826821D01*
X140144883Y-106660000D01*
X140161313Y-106493179D01*
X140209977Y-106332756D01*
X140288995Y-106184922D01*
X140395341Y-106055341D01*
X140524922Y-105948995D01*
X140672756Y-105869977D01*
X140672759Y-105869976D01*
X140672761Y-105869975D01*
X140833175Y-105821314D01*
X140833176Y-105821314D01*
X140833179Y-105821313D01*
X140958196Y-105809000D01*
X141041804Y-105809000D01*
X141166821Y-105821313D01*
X141166821Y-105821313D01*
G37*
G36*
X156406821Y-105821313D02*
X156406824Y-105821314D01*
X156406825Y-105821314D01*
X156567239Y-105869975D01*
X156567241Y-105869976D01*
X156567244Y-105869977D01*
X156715078Y-105948995D01*
X156844659Y-106055341D01*
X156951005Y-106184922D01*
X157030023Y-106332756D01*
X157078687Y-106493179D01*
X157095117Y-106660000D01*
X157078687Y-106826821D01*
X157030023Y-106987244D01*
X156951005Y-107135078D01*
X156844659Y-107264659D01*
X156715078Y-107371005D01*
X156567244Y-107450023D01*
X156567241Y-107450024D01*
X156567239Y-107450025D01*
X156406825Y-107498686D01*
X156406824Y-107498686D01*
X156406821Y-107498687D01*
X156281804Y-107511000D01*
X156198196Y-107511000D01*
X156073179Y-107498687D01*
X156073176Y-107498686D01*
X156073175Y-107498686D01*
X155912761Y-107450025D01*
X155912759Y-107450024D01*
X155912756Y-107450023D01*
X155764922Y-107371005D01*
X155635341Y-107264659D01*
X155528995Y-107135078D01*
X155449977Y-106987244D01*
X155401313Y-106826821D01*
X155384883Y-106660000D01*
X155401313Y-106493179D01*
X155449977Y-106332756D01*
X155528995Y-106184922D01*
X155635341Y-106055341D01*
X155764922Y-105948995D01*
X155912756Y-105869977D01*
X155912759Y-105869976D01*
X155912761Y-105869975D01*
X156073175Y-105821314D01*
X156073176Y-105821314D01*
X156073179Y-105821313D01*
X156198196Y-105809000D01*
X156281804Y-105809000D01*
X156406821Y-105821313D01*
X156406821Y-105821313D01*
G37*
G36*
X141166821Y-103281313D02*
X141166824Y-103281314D01*
X141166825Y-103281314D01*
X141327239Y-103329975D01*
X141327241Y-103329976D01*
X141327244Y-103329977D01*
X141475078Y-103408995D01*
X141604659Y-103515341D01*
X141711005Y-103644922D01*
X141790023Y-103792756D01*
X141790024Y-103792759D01*
X141790025Y-103792761D01*
X141827465Y-103916184D01*
X141838687Y-103953179D01*
X141855117Y-104120000D01*
X141838687Y-104286821D01*
X141838686Y-104286824D01*
X141838686Y-104286825D01*
X141826427Y-104327239D01*
X141790023Y-104447244D01*
X141711005Y-104595078D01*
X141604659Y-104724659D01*
X141475078Y-104831005D01*
X141327244Y-104910023D01*
X141327241Y-104910024D01*
X141327239Y-104910025D01*
X141166825Y-104958686D01*
X141166824Y-104958686D01*
X141166821Y-104958687D01*
X141041804Y-104971000D01*
X140958196Y-104971000D01*
X140833179Y-104958687D01*
X140833176Y-104958686D01*
X140833175Y-104958686D01*
X140672761Y-104910025D01*
X140672759Y-104910024D01*
X140672756Y-104910023D01*
X140524922Y-104831005D01*
X140395341Y-104724659D01*
X140288995Y-104595078D01*
X140209977Y-104447244D01*
X140173574Y-104327239D01*
X140161314Y-104286825D01*
X140161314Y-104286824D01*
X140161313Y-104286821D01*
X140144883Y-104120000D01*
X140161313Y-103953179D01*
X140172535Y-103916184D01*
X140209975Y-103792761D01*
X140209976Y-103792759D01*
X140209977Y-103792756D01*
X140288995Y-103644922D01*
X140395341Y-103515341D01*
X140524922Y-103408995D01*
X140672756Y-103329977D01*
X140672759Y-103329976D01*
X140672761Y-103329975D01*
X140833175Y-103281314D01*
X140833176Y-103281314D01*
X140833179Y-103281313D01*
X140958196Y-103269000D01*
X141041804Y-103269000D01*
X141166821Y-103281313D01*
X141166821Y-103281313D01*
G37*
G36*
X156406821Y-103281313D02*
X156406824Y-103281314D01*
X156406825Y-103281314D01*
X156567239Y-103329975D01*
X156567241Y-103329976D01*
X156567244Y-103329977D01*
X156715078Y-103408995D01*
X156844659Y-103515341D01*
X156951005Y-103644922D01*
X157030023Y-103792756D01*
X157030024Y-103792759D01*
X157030025Y-103792761D01*
X157067465Y-103916184D01*
X157078687Y-103953179D01*
X157095117Y-104120000D01*
X157078687Y-104286821D01*
X157078686Y-104286824D01*
X157078686Y-104286825D01*
X157066427Y-104327239D01*
X157030023Y-104447244D01*
X156951005Y-104595078D01*
X156844659Y-104724659D01*
X156715078Y-104831005D01*
X156567244Y-104910023D01*
X156567241Y-104910024D01*
X156567239Y-104910025D01*
X156406825Y-104958686D01*
X156406824Y-104958686D01*
X156406821Y-104958687D01*
X156281804Y-104971000D01*
X156198196Y-104971000D01*
X156073179Y-104958687D01*
X156073176Y-104958686D01*
X156073175Y-104958686D01*
X155912761Y-104910025D01*
X155912759Y-104910024D01*
X155912756Y-104910023D01*
X155764922Y-104831005D01*
X155635341Y-104724659D01*
X155528995Y-104595078D01*
X155449977Y-104447244D01*
X155413574Y-104327239D01*
X155401314Y-104286825D01*
X155401314Y-104286824D01*
X155401313Y-104286821D01*
X155384883Y-104120000D01*
X155401313Y-103953179D01*
X155412535Y-103916184D01*
X155449975Y-103792761D01*
X155449976Y-103792759D01*
X155449977Y-103792756D01*
X155528995Y-103644922D01*
X155635341Y-103515341D01*
X155764922Y-103408995D01*
X155912756Y-103329977D01*
X155912759Y-103329976D01*
X155912761Y-103329975D01*
X156073175Y-103281314D01*
X156073176Y-103281314D01*
X156073179Y-103281313D01*
X156198196Y-103269000D01*
X156281804Y-103269000D01*
X156406821Y-103281313D01*
X156406821Y-103281313D01*
G37*
G36*
X183248228Y-103181703D02*
X183403100Y-103245853D01*
X183542481Y-103338985D01*
X183661015Y-103457519D01*
X183754147Y-103596900D01*
X183818297Y-103751772D01*
X183851000Y-103916184D01*
X183851000Y-104083816D01*
X183818297Y-104248228D01*
X183754147Y-104403100D01*
X183661015Y-104542481D01*
X183542481Y-104661015D01*
X183403100Y-104754147D01*
X183248228Y-104818297D01*
X183083816Y-104851000D01*
X182916184Y-104851000D01*
X182751772Y-104818297D01*
X182596900Y-104754147D01*
X182457519Y-104661015D01*
X182338985Y-104542481D01*
X182245853Y-104403100D01*
X182181703Y-104248228D01*
X182149000Y-104083816D01*
X182149000Y-103916184D01*
X182181703Y-103751772D01*
X182245853Y-103596900D01*
X182338985Y-103457519D01*
X182457519Y-103338985D01*
X182596900Y-103245853D01*
X182751772Y-103181703D01*
X182916184Y-103149000D01*
X183083816Y-103149000D01*
X183248228Y-103181703D01*
X183248228Y-103181703D01*
G37*
G36*
X172166821Y-103161313D02*
X172166824Y-103161314D01*
X172166825Y-103161314D01*
X172327239Y-103209975D01*
X172327241Y-103209976D01*
X172327244Y-103209977D01*
X172475078Y-103288995D01*
X172604659Y-103395341D01*
X172711005Y-103524922D01*
X172790023Y-103672756D01*
X172790024Y-103672759D01*
X172790025Y-103672761D01*
X172838686Y-103833175D01*
X172838687Y-103833179D01*
X172855117Y-104000000D01*
X172838687Y-104166821D01*
X172838686Y-104166824D01*
X172838686Y-104166825D01*
X172802286Y-104286821D01*
X172790023Y-104327244D01*
X172711005Y-104475078D01*
X172604659Y-104604659D01*
X172475078Y-104711005D01*
X172327244Y-104790023D01*
X172327241Y-104790024D01*
X172327239Y-104790025D01*
X172166825Y-104838686D01*
X172166824Y-104838686D01*
X172166821Y-104838687D01*
X172041804Y-104851000D01*
X171958196Y-104851000D01*
X171833179Y-104838687D01*
X171833176Y-104838686D01*
X171833175Y-104838686D01*
X171672761Y-104790025D01*
X171672759Y-104790024D01*
X171672756Y-104790023D01*
X171524922Y-104711005D01*
X171395341Y-104604659D01*
X171288995Y-104475078D01*
X171209977Y-104327244D01*
X171197715Y-104286821D01*
X171161314Y-104166825D01*
X171161314Y-104166824D01*
X171161313Y-104166821D01*
X171144883Y-104000000D01*
X171161313Y-103833179D01*
X171161314Y-103833175D01*
X171209975Y-103672761D01*
X171209976Y-103672759D01*
X171209977Y-103672756D01*
X171288995Y-103524922D01*
X171395341Y-103395341D01*
X171524922Y-103288995D01*
X171672756Y-103209977D01*
X171672759Y-103209976D01*
X171672761Y-103209975D01*
X171833175Y-103161314D01*
X171833176Y-103161314D01*
X171833179Y-103161313D01*
X171958196Y-103149000D01*
X172041804Y-103149000D01*
X172166821Y-103161313D01*
X172166821Y-103161313D01*
G37*
G36*
X190786821Y-103161313D02*
X190786824Y-103161314D01*
X190786825Y-103161314D01*
X190947239Y-103209975D01*
X190947241Y-103209976D01*
X190947244Y-103209977D01*
X191095078Y-103288995D01*
X191224659Y-103395341D01*
X191331005Y-103524922D01*
X191410023Y-103672756D01*
X191410024Y-103672759D01*
X191410025Y-103672761D01*
X191458686Y-103833175D01*
X191458687Y-103833179D01*
X191475117Y-104000000D01*
X191458687Y-104166821D01*
X191458686Y-104166824D01*
X191458686Y-104166825D01*
X191422286Y-104286821D01*
X191410023Y-104327244D01*
X191331005Y-104475078D01*
X191224659Y-104604659D01*
X191095078Y-104711005D01*
X190947244Y-104790023D01*
X190947241Y-104790024D01*
X190947239Y-104790025D01*
X190786825Y-104838686D01*
X190786824Y-104838686D01*
X190786821Y-104838687D01*
X190661804Y-104851000D01*
X190578196Y-104851000D01*
X190453179Y-104838687D01*
X190453176Y-104838686D01*
X190453175Y-104838686D01*
X190292761Y-104790025D01*
X190292759Y-104790024D01*
X190292756Y-104790023D01*
X190144922Y-104711005D01*
X190015341Y-104604659D01*
X189908995Y-104475078D01*
X189829977Y-104327244D01*
X189817715Y-104286821D01*
X189781314Y-104166825D01*
X189781314Y-104166824D01*
X189781313Y-104166821D01*
X189764883Y-104000000D01*
X189781313Y-103833179D01*
X189781314Y-103833175D01*
X189829975Y-103672761D01*
X189829976Y-103672759D01*
X189829977Y-103672756D01*
X189908995Y-103524922D01*
X190015341Y-103395341D01*
X190144922Y-103288995D01*
X190292756Y-103209977D01*
X190292759Y-103209976D01*
X190292761Y-103209975D01*
X190453175Y-103161314D01*
X190453176Y-103161314D01*
X190453179Y-103161313D01*
X190578196Y-103149000D01*
X190661804Y-103149000D01*
X190786821Y-103161313D01*
X190786821Y-103161313D01*
G37*
G36*
X179868228Y-103181703D02*
X180023100Y-103245853D01*
X180162481Y-103338985D01*
X180281015Y-103457519D01*
X180374147Y-103596900D01*
X180438297Y-103751772D01*
X180471000Y-103916184D01*
X180471000Y-104083816D01*
X180438297Y-104248228D01*
X180374147Y-104403100D01*
X180281015Y-104542481D01*
X180162481Y-104661015D01*
X180023100Y-104754147D01*
X179868228Y-104818297D01*
X179703816Y-104851000D01*
X179536184Y-104851000D01*
X179371772Y-104818297D01*
X179216900Y-104754147D01*
X179077519Y-104661015D01*
X178958985Y-104542481D01*
X178865853Y-104403100D01*
X178801703Y-104248228D01*
X178769000Y-104083816D01*
X178769000Y-103916184D01*
X178801703Y-103751772D01*
X178865853Y-103596900D01*
X178958985Y-103457519D01*
X179077519Y-103338985D01*
X179216900Y-103245853D01*
X179371772Y-103181703D01*
X179536184Y-103149000D01*
X179703816Y-103149000D01*
X179868228Y-103181703D01*
X179868228Y-103181703D01*
G37*
G36*
X156406821Y-100741313D02*
X156406824Y-100741314D01*
X156406825Y-100741314D01*
X156567239Y-100789975D01*
X156567241Y-100789976D01*
X156567244Y-100789977D01*
X156715078Y-100868995D01*
X156844659Y-100975341D01*
X156951005Y-101104922D01*
X157030023Y-101252756D01*
X157078687Y-101413179D01*
X157095117Y-101580000D01*
X157078687Y-101746821D01*
X157030023Y-101907244D01*
X156951005Y-102055078D01*
X156844659Y-102184659D01*
X156715078Y-102291005D01*
X156567244Y-102370023D01*
X156567241Y-102370024D01*
X156567239Y-102370025D01*
X156406825Y-102418686D01*
X156406824Y-102418686D01*
X156406821Y-102418687D01*
X156281804Y-102431000D01*
X156198196Y-102431000D01*
X156073179Y-102418687D01*
X156073176Y-102418686D01*
X156073175Y-102418686D01*
X155912761Y-102370025D01*
X155912759Y-102370024D01*
X155912756Y-102370023D01*
X155764922Y-102291005D01*
X155635341Y-102184659D01*
X155528995Y-102055078D01*
X155449977Y-101907244D01*
X155401313Y-101746821D01*
X155384883Y-101580000D01*
X155401313Y-101413179D01*
X155449977Y-101252756D01*
X155528995Y-101104922D01*
X155635341Y-100975341D01*
X155764922Y-100868995D01*
X155912756Y-100789977D01*
X155912759Y-100789976D01*
X155912761Y-100789975D01*
X156073175Y-100741314D01*
X156073176Y-100741314D01*
X156073179Y-100741313D01*
X156198196Y-100729000D01*
X156281804Y-100729000D01*
X156406821Y-100741313D01*
X156406821Y-100741313D01*
G37*
G36*
X141166821Y-100741313D02*
X141166824Y-100741314D01*
X141166825Y-100741314D01*
X141327239Y-100789975D01*
X141327241Y-100789976D01*
X141327244Y-100789977D01*
X141475078Y-100868995D01*
X141604659Y-100975341D01*
X141711005Y-101104922D01*
X141790023Y-101252756D01*
X141838687Y-101413179D01*
X141855117Y-101580000D01*
X141838687Y-101746821D01*
X141790023Y-101907244D01*
X141711005Y-102055078D01*
X141604659Y-102184659D01*
X141475078Y-102291005D01*
X141327244Y-102370023D01*
X141327241Y-102370024D01*
X141327239Y-102370025D01*
X141166825Y-102418686D01*
X141166824Y-102418686D01*
X141166821Y-102418687D01*
X141041804Y-102431000D01*
X140958196Y-102431000D01*
X140833179Y-102418687D01*
X140833176Y-102418686D01*
X140833175Y-102418686D01*
X140672761Y-102370025D01*
X140672759Y-102370024D01*
X140672756Y-102370023D01*
X140524922Y-102291005D01*
X140395341Y-102184659D01*
X140288995Y-102055078D01*
X140209977Y-101907244D01*
X140161313Y-101746821D01*
X140144883Y-101580000D01*
X140161313Y-101413179D01*
X140209977Y-101252756D01*
X140288995Y-101104922D01*
X140395341Y-100975341D01*
X140524922Y-100868995D01*
X140672756Y-100789977D01*
X140672759Y-100789976D01*
X140672761Y-100789975D01*
X140833175Y-100741314D01*
X140833176Y-100741314D01*
X140833179Y-100741313D01*
X140958196Y-100729000D01*
X141041804Y-100729000D01*
X141166821Y-100741313D01*
X141166821Y-100741313D01*
G37*
G36*
X190868228Y-99181703D02*
X191023100Y-99245853D01*
X191162481Y-99338985D01*
X191281015Y-99457519D01*
X191374147Y-99596900D01*
X191438297Y-99751772D01*
X191471000Y-99916184D01*
X191471000Y-100083816D01*
X191438297Y-100248228D01*
X191374147Y-100403100D01*
X191281015Y-100542481D01*
X191162481Y-100661015D01*
X191023100Y-100754147D01*
X190868228Y-100818297D01*
X190703816Y-100851000D01*
X190536184Y-100851000D01*
X190371772Y-100818297D01*
X190216900Y-100754147D01*
X190077519Y-100661015D01*
X189958985Y-100542481D01*
X189865853Y-100403100D01*
X189801703Y-100248228D01*
X189769000Y-100083816D01*
X189769000Y-99916184D01*
X189801703Y-99751772D01*
X189865853Y-99596900D01*
X189958985Y-99457519D01*
X190077519Y-99338985D01*
X190216900Y-99245853D01*
X190371772Y-99181703D01*
X190536184Y-99149000D01*
X190703816Y-99149000D01*
X190868228Y-99181703D01*
X190868228Y-99181703D01*
G37*
G36*
X183166821Y-99161313D02*
X183166824Y-99161314D01*
X183166825Y-99161314D01*
X183327239Y-99209975D01*
X183327241Y-99209976D01*
X183327244Y-99209977D01*
X183475078Y-99288995D01*
X183604659Y-99395341D01*
X183711005Y-99524922D01*
X183790023Y-99672756D01*
X183790024Y-99672759D01*
X183790025Y-99672761D01*
X183837730Y-99830023D01*
X183838687Y-99833179D01*
X183855117Y-100000000D01*
X183838687Y-100166821D01*
X183838686Y-100166824D01*
X183838686Y-100166825D01*
X183813993Y-100248228D01*
X183790023Y-100327244D01*
X183711005Y-100475078D01*
X183604659Y-100604659D01*
X183475078Y-100711005D01*
X183327244Y-100790023D01*
X183327241Y-100790024D01*
X183327239Y-100790025D01*
X183166825Y-100838686D01*
X183166824Y-100838686D01*
X183166821Y-100838687D01*
X183041804Y-100851000D01*
X182958196Y-100851000D01*
X182833179Y-100838687D01*
X182833176Y-100838686D01*
X182833175Y-100838686D01*
X182672761Y-100790025D01*
X182672759Y-100790024D01*
X182672756Y-100790023D01*
X182524922Y-100711005D01*
X182395341Y-100604659D01*
X182288995Y-100475078D01*
X182209977Y-100327244D01*
X182186008Y-100248228D01*
X182161314Y-100166825D01*
X182161314Y-100166824D01*
X182161313Y-100166821D01*
X182144883Y-100000000D01*
X182161313Y-99833179D01*
X182162270Y-99830023D01*
X182209975Y-99672761D01*
X182209976Y-99672759D01*
X182209977Y-99672756D01*
X182288995Y-99524922D01*
X182395341Y-99395341D01*
X182524922Y-99288995D01*
X182672756Y-99209977D01*
X182672759Y-99209976D01*
X182672761Y-99209975D01*
X182833175Y-99161314D01*
X182833176Y-99161314D01*
X182833179Y-99161313D01*
X182958196Y-99149000D01*
X183041804Y-99149000D01*
X183166821Y-99161313D01*
X183166821Y-99161313D01*
G37*
G36*
X164248228Y-99181703D02*
X164403100Y-99245853D01*
X164542481Y-99338985D01*
X164661015Y-99457519D01*
X164754147Y-99596900D01*
X164818297Y-99751772D01*
X164851000Y-99916184D01*
X164851000Y-100083816D01*
X164818297Y-100248228D01*
X164754147Y-100403100D01*
X164661015Y-100542481D01*
X164542481Y-100661015D01*
X164403100Y-100754147D01*
X164248228Y-100818297D01*
X164083816Y-100851000D01*
X163916184Y-100851000D01*
X163751772Y-100818297D01*
X163596900Y-100754147D01*
X163457519Y-100661015D01*
X163338985Y-100542481D01*
X163245853Y-100403100D01*
X163181703Y-100248228D01*
X163149000Y-100083816D01*
X163149000Y-99916184D01*
X163181703Y-99751772D01*
X163245853Y-99596900D01*
X163338985Y-99457519D01*
X163457519Y-99338985D01*
X163596900Y-99245853D01*
X163751772Y-99181703D01*
X163916184Y-99149000D01*
X164083816Y-99149000D01*
X164248228Y-99181703D01*
X164248228Y-99181703D01*
G37*
G36*
X171786821Y-99161313D02*
X171786824Y-99161314D01*
X171786825Y-99161314D01*
X171947239Y-99209975D01*
X171947241Y-99209976D01*
X171947244Y-99209977D01*
X172095078Y-99288995D01*
X172224659Y-99395341D01*
X172331005Y-99524922D01*
X172410023Y-99672756D01*
X172410024Y-99672759D01*
X172410025Y-99672761D01*
X172457730Y-99830023D01*
X172458687Y-99833179D01*
X172475117Y-100000000D01*
X172458687Y-100166821D01*
X172458686Y-100166824D01*
X172458686Y-100166825D01*
X172433993Y-100248228D01*
X172410023Y-100327244D01*
X172331005Y-100475078D01*
X172224659Y-100604659D01*
X172095078Y-100711005D01*
X171947244Y-100790023D01*
X171947241Y-100790024D01*
X171947239Y-100790025D01*
X171786825Y-100838686D01*
X171786824Y-100838686D01*
X171786821Y-100838687D01*
X171661804Y-100851000D01*
X171578196Y-100851000D01*
X171453179Y-100838687D01*
X171453176Y-100838686D01*
X171453175Y-100838686D01*
X171292761Y-100790025D01*
X171292759Y-100790024D01*
X171292756Y-100790023D01*
X171144922Y-100711005D01*
X171015341Y-100604659D01*
X170908995Y-100475078D01*
X170829977Y-100327244D01*
X170806008Y-100248228D01*
X170781314Y-100166825D01*
X170781314Y-100166824D01*
X170781313Y-100166821D01*
X170764883Y-100000000D01*
X170781313Y-99833179D01*
X170782270Y-99830023D01*
X170829975Y-99672761D01*
X170829976Y-99672759D01*
X170829977Y-99672756D01*
X170908995Y-99524922D01*
X171015341Y-99395341D01*
X171144922Y-99288995D01*
X171292756Y-99209977D01*
X171292759Y-99209976D01*
X171292761Y-99209975D01*
X171453175Y-99161314D01*
X171453176Y-99161314D01*
X171453179Y-99161313D01*
X171578196Y-99149000D01*
X171661804Y-99149000D01*
X171786821Y-99161313D01*
X171786821Y-99161313D01*
G37*
G36*
X156406821Y-98201313D02*
X156406824Y-98201314D01*
X156406825Y-98201314D01*
X156567239Y-98249975D01*
X156567241Y-98249976D01*
X156567244Y-98249977D01*
X156715078Y-98328995D01*
X156844659Y-98435341D01*
X156951005Y-98564922D01*
X157030023Y-98712756D01*
X157078687Y-98873179D01*
X157095117Y-99040000D01*
X157078687Y-99206821D01*
X157078686Y-99206824D01*
X157078686Y-99206825D01*
X157038596Y-99338985D01*
X157030023Y-99367244D01*
X156951005Y-99515078D01*
X156844659Y-99644659D01*
X156715078Y-99751005D01*
X156567244Y-99830023D01*
X156567241Y-99830024D01*
X156567239Y-99830025D01*
X156406825Y-99878686D01*
X156406824Y-99878686D01*
X156406821Y-99878687D01*
X156281804Y-99891000D01*
X156198196Y-99891000D01*
X156073179Y-99878687D01*
X156073176Y-99878686D01*
X156073175Y-99878686D01*
X155912761Y-99830025D01*
X155912759Y-99830024D01*
X155912756Y-99830023D01*
X155764922Y-99751005D01*
X155635341Y-99644659D01*
X155528995Y-99515078D01*
X155449977Y-99367244D01*
X155441405Y-99338985D01*
X155401314Y-99206825D01*
X155401314Y-99206824D01*
X155401313Y-99206821D01*
X155384883Y-99040000D01*
X155401313Y-98873179D01*
X155449977Y-98712756D01*
X155528995Y-98564922D01*
X155635341Y-98435341D01*
X155764922Y-98328995D01*
X155912756Y-98249977D01*
X155912759Y-98249976D01*
X155912761Y-98249975D01*
X156073175Y-98201314D01*
X156073176Y-98201314D01*
X156073179Y-98201313D01*
X156198196Y-98189000D01*
X156281804Y-98189000D01*
X156406821Y-98201313D01*
X156406821Y-98201313D01*
G37*
G36*
X141166821Y-98201313D02*
X141166824Y-98201314D01*
X141166825Y-98201314D01*
X141327239Y-98249975D01*
X141327241Y-98249976D01*
X141327244Y-98249977D01*
X141475078Y-98328995D01*
X141604659Y-98435341D01*
X141711005Y-98564922D01*
X141790023Y-98712756D01*
X141838687Y-98873179D01*
X141855117Y-99040000D01*
X141838687Y-99206821D01*
X141838686Y-99206824D01*
X141838686Y-99206825D01*
X141798596Y-99338985D01*
X141790023Y-99367244D01*
X141711005Y-99515078D01*
X141604659Y-99644659D01*
X141475078Y-99751005D01*
X141327244Y-99830023D01*
X141327241Y-99830024D01*
X141327239Y-99830025D01*
X141166825Y-99878686D01*
X141166824Y-99878686D01*
X141166821Y-99878687D01*
X141041804Y-99891000D01*
X140958196Y-99891000D01*
X140833179Y-99878687D01*
X140833176Y-99878686D01*
X140833175Y-99878686D01*
X140672761Y-99830025D01*
X140672759Y-99830024D01*
X140672756Y-99830023D01*
X140524922Y-99751005D01*
X140395341Y-99644659D01*
X140288995Y-99515078D01*
X140209977Y-99367244D01*
X140201405Y-99338985D01*
X140161314Y-99206825D01*
X140161314Y-99206824D01*
X140161313Y-99206821D01*
X140144883Y-99040000D01*
X140161313Y-98873179D01*
X140209977Y-98712756D01*
X140288995Y-98564922D01*
X140395341Y-98435341D01*
X140524922Y-98328995D01*
X140672756Y-98249977D01*
X140672759Y-98249976D01*
X140672761Y-98249975D01*
X140833175Y-98201314D01*
X140833176Y-98201314D01*
X140833179Y-98201313D01*
X140958196Y-98189000D01*
X141041804Y-98189000D01*
X141166821Y-98201313D01*
X141166821Y-98201313D01*
G37*
G36*
X190762812Y-95633624D02*
X190926784Y-95701544D01*
X191074354Y-95800147D01*
X191199853Y-95925646D01*
X191298456Y-96073216D01*
X191366376Y-96237188D01*
X191401000Y-96411259D01*
X191401000Y-96588741D01*
X191366376Y-96762812D01*
X191298456Y-96926784D01*
X191199853Y-97074354D01*
X191074354Y-97199853D01*
X190926784Y-97298456D01*
X190762812Y-97366376D01*
X190588741Y-97401000D01*
X190411259Y-97401000D01*
X190237188Y-97366376D01*
X190073216Y-97298456D01*
X189925646Y-97199853D01*
X189800147Y-97074354D01*
X189701544Y-96926784D01*
X189633624Y-96762812D01*
X189599000Y-96588741D01*
X189599000Y-96411259D01*
X189633624Y-96237188D01*
X189701544Y-96073216D01*
X189800147Y-95925646D01*
X189925646Y-95800147D01*
X190073216Y-95701544D01*
X190237188Y-95633624D01*
X190411259Y-95599000D01*
X190588741Y-95599000D01*
X190762812Y-95633624D01*
X190762812Y-95633624D01*
G37*
G36*
X164262812Y-95633624D02*
X164426784Y-95701544D01*
X164574354Y-95800147D01*
X164699853Y-95925646D01*
X164798456Y-96073216D01*
X164866376Y-96237188D01*
X164901000Y-96411259D01*
X164901000Y-96588741D01*
X164866376Y-96762812D01*
X164798456Y-96926784D01*
X164699853Y-97074354D01*
X164574354Y-97199853D01*
X164426784Y-97298456D01*
X164262812Y-97366376D01*
X164088741Y-97401000D01*
X163911259Y-97401000D01*
X163737188Y-97366376D01*
X163573216Y-97298456D01*
X163425646Y-97199853D01*
X163300147Y-97074354D01*
X163201544Y-96926784D01*
X163133624Y-96762812D01*
X163099000Y-96588741D01*
X163099000Y-96411259D01*
X163133624Y-96237188D01*
X163201544Y-96073216D01*
X163300147Y-95925646D01*
X163425646Y-95800147D01*
X163573216Y-95701544D01*
X163737188Y-95633624D01*
X163911259Y-95599000D01*
X164088741Y-95599000D01*
X164262812Y-95633624D01*
X164262812Y-95633624D01*
G37*
G36*
X170762812Y-95633624D02*
X170926784Y-95701544D01*
X171074354Y-95800147D01*
X171199853Y-95925646D01*
X171298456Y-96073216D01*
X171366376Y-96237188D01*
X171401000Y-96411259D01*
X171401000Y-96588741D01*
X171366376Y-96762812D01*
X171298456Y-96926784D01*
X171199853Y-97074354D01*
X171074354Y-97199853D01*
X170926784Y-97298456D01*
X170762812Y-97366376D01*
X170588741Y-97401000D01*
X170411259Y-97401000D01*
X170237188Y-97366376D01*
X170073216Y-97298456D01*
X169925646Y-97199853D01*
X169800147Y-97074354D01*
X169701544Y-96926784D01*
X169633624Y-96762812D01*
X169599000Y-96588741D01*
X169599000Y-96411259D01*
X169633624Y-96237188D01*
X169701544Y-96073216D01*
X169800147Y-95925646D01*
X169925646Y-95800147D01*
X170073216Y-95701544D01*
X170237188Y-95633624D01*
X170411259Y-95599000D01*
X170588741Y-95599000D01*
X170762812Y-95633624D01*
X170762812Y-95633624D01*
G37*
G36*
X184262812Y-95633624D02*
X184426784Y-95701544D01*
X184574354Y-95800147D01*
X184699853Y-95925646D01*
X184798456Y-96073216D01*
X184866376Y-96237188D01*
X184901000Y-96411259D01*
X184901000Y-96588741D01*
X184866376Y-96762812D01*
X184798456Y-96926784D01*
X184699853Y-97074354D01*
X184574354Y-97199853D01*
X184426784Y-97298456D01*
X184262812Y-97366376D01*
X184088741Y-97401000D01*
X183911259Y-97401000D01*
X183737188Y-97366376D01*
X183573216Y-97298456D01*
X183425646Y-97199853D01*
X183300147Y-97074354D01*
X183201544Y-96926784D01*
X183133624Y-96762812D01*
X183099000Y-96588741D01*
X183099000Y-96411259D01*
X183133624Y-96237188D01*
X183201544Y-96073216D01*
X183300147Y-95925646D01*
X183425646Y-95800147D01*
X183573216Y-95701544D01*
X183737188Y-95633624D01*
X183911259Y-95599000D01*
X184088741Y-95599000D01*
X184262812Y-95633624D01*
X184262812Y-95633624D01*
G37*
G36*
X156406821Y-95661313D02*
X156406824Y-95661314D01*
X156406825Y-95661314D01*
X156567239Y-95709975D01*
X156567241Y-95709976D01*
X156567244Y-95709977D01*
X156715078Y-95788995D01*
X156844659Y-95895341D01*
X156951005Y-96024922D01*
X157030023Y-96172756D01*
X157030024Y-96172759D01*
X157030025Y-96172761D01*
X157078686Y-96333175D01*
X157078687Y-96333179D01*
X157095117Y-96500000D01*
X157078687Y-96666821D01*
X157078686Y-96666824D01*
X157078686Y-96666825D01*
X157049569Y-96762812D01*
X157030023Y-96827244D01*
X156951005Y-96975078D01*
X156844659Y-97104659D01*
X156715078Y-97211005D01*
X156567244Y-97290023D01*
X156567241Y-97290024D01*
X156567239Y-97290025D01*
X156406825Y-97338686D01*
X156406824Y-97338686D01*
X156406821Y-97338687D01*
X156281804Y-97351000D01*
X156198196Y-97351000D01*
X156073179Y-97338687D01*
X156073176Y-97338686D01*
X156073175Y-97338686D01*
X155912761Y-97290025D01*
X155912759Y-97290024D01*
X155912756Y-97290023D01*
X155764922Y-97211005D01*
X155635341Y-97104659D01*
X155528995Y-96975078D01*
X155449977Y-96827244D01*
X155430432Y-96762812D01*
X155401314Y-96666825D01*
X155401314Y-96666824D01*
X155401313Y-96666821D01*
X155384883Y-96500000D01*
X155401313Y-96333179D01*
X155401314Y-96333175D01*
X155449975Y-96172761D01*
X155449976Y-96172759D01*
X155449977Y-96172756D01*
X155528995Y-96024922D01*
X155635341Y-95895341D01*
X155764922Y-95788995D01*
X155912756Y-95709977D01*
X155912759Y-95709976D01*
X155912761Y-95709975D01*
X156073175Y-95661314D01*
X156073176Y-95661314D01*
X156073179Y-95661313D01*
X156198196Y-95649000D01*
X156281804Y-95649000D01*
X156406821Y-95661313D01*
X156406821Y-95661313D01*
G37*
G36*
X141851000Y-97351000D02*
X140149000Y-97351000D01*
X140149000Y-95649000D01*
X141851000Y-95649000D01*
X141851000Y-97351000D01*
X141851000Y-97351000D01*
G37*
G36*
X136851000Y-94851000D02*
X135149000Y-94851000D01*
X135149000Y-93149000D01*
X136851000Y-93149000D01*
X136851000Y-94851000D01*
X136851000Y-94851000D01*
G37*
G36*
X164262812Y-91133624D02*
X164426784Y-91201544D01*
X164574354Y-91300147D01*
X164699853Y-91425646D01*
X164798456Y-91573216D01*
X164866376Y-91737188D01*
X164901000Y-91911259D01*
X164901000Y-92088741D01*
X164866376Y-92262812D01*
X164798456Y-92426784D01*
X164699853Y-92574354D01*
X164574354Y-92699853D01*
X164426784Y-92798456D01*
X164262812Y-92866376D01*
X164088741Y-92901000D01*
X163911259Y-92901000D01*
X163737188Y-92866376D01*
X163573216Y-92798456D01*
X163425646Y-92699853D01*
X163300147Y-92574354D01*
X163201544Y-92426784D01*
X163133624Y-92262812D01*
X163099000Y-92088741D01*
X163099000Y-91911259D01*
X163133624Y-91737188D01*
X163201544Y-91573216D01*
X163300147Y-91425646D01*
X163425646Y-91300147D01*
X163573216Y-91201544D01*
X163737188Y-91133624D01*
X163911259Y-91099000D01*
X164088741Y-91099000D01*
X164262812Y-91133624D01*
X164262812Y-91133624D01*
G37*
G36*
X190762812Y-91133624D02*
X190926784Y-91201544D01*
X191074354Y-91300147D01*
X191199853Y-91425646D01*
X191298456Y-91573216D01*
X191366376Y-91737188D01*
X191401000Y-91911259D01*
X191401000Y-92088741D01*
X191366376Y-92262812D01*
X191298456Y-92426784D01*
X191199853Y-92574354D01*
X191074354Y-92699853D01*
X190926784Y-92798456D01*
X190762812Y-92866376D01*
X190588741Y-92901000D01*
X190411259Y-92901000D01*
X190237188Y-92866376D01*
X190073216Y-92798456D01*
X189925646Y-92699853D01*
X189800147Y-92574354D01*
X189701544Y-92426784D01*
X189633624Y-92262812D01*
X189599000Y-92088741D01*
X189599000Y-91911259D01*
X189633624Y-91737188D01*
X189701544Y-91573216D01*
X189800147Y-91425646D01*
X189925646Y-91300147D01*
X190073216Y-91201544D01*
X190237188Y-91133624D01*
X190411259Y-91099000D01*
X190588741Y-91099000D01*
X190762812Y-91133624D01*
X190762812Y-91133624D01*
G37*
G36*
X170762812Y-91133624D02*
X170926784Y-91201544D01*
X171074354Y-91300147D01*
X171199853Y-91425646D01*
X171298456Y-91573216D01*
X171366376Y-91737188D01*
X171401000Y-91911259D01*
X171401000Y-92088741D01*
X171366376Y-92262812D01*
X171298456Y-92426784D01*
X171199853Y-92574354D01*
X171074354Y-92699853D01*
X170926784Y-92798456D01*
X170762812Y-92866376D01*
X170588741Y-92901000D01*
X170411259Y-92901000D01*
X170237188Y-92866376D01*
X170073216Y-92798456D01*
X169925646Y-92699853D01*
X169800147Y-92574354D01*
X169701544Y-92426784D01*
X169633624Y-92262812D01*
X169599000Y-92088741D01*
X169599000Y-91911259D01*
X169633624Y-91737188D01*
X169701544Y-91573216D01*
X169800147Y-91425646D01*
X169925646Y-91300147D01*
X170073216Y-91201544D01*
X170237188Y-91133624D01*
X170411259Y-91099000D01*
X170588741Y-91099000D01*
X170762812Y-91133624D01*
X170762812Y-91133624D01*
G37*
G36*
X184262812Y-91133624D02*
X184426784Y-91201544D01*
X184574354Y-91300147D01*
X184699853Y-91425646D01*
X184798456Y-91573216D01*
X184866376Y-91737188D01*
X184901000Y-91911259D01*
X184901000Y-92088741D01*
X184866376Y-92262812D01*
X184798456Y-92426784D01*
X184699853Y-92574354D01*
X184574354Y-92699853D01*
X184426784Y-92798456D01*
X184262812Y-92866376D01*
X184088741Y-92901000D01*
X183911259Y-92901000D01*
X183737188Y-92866376D01*
X183573216Y-92798456D01*
X183425646Y-92699853D01*
X183300147Y-92574354D01*
X183201544Y-92426784D01*
X183133624Y-92262812D01*
X183099000Y-92088741D01*
X183099000Y-91911259D01*
X183133624Y-91737188D01*
X183201544Y-91573216D01*
X183300147Y-91425646D01*
X183425646Y-91300147D01*
X183573216Y-91201544D01*
X183737188Y-91133624D01*
X183911259Y-91099000D01*
X184088741Y-91099000D01*
X184262812Y-91133624D01*
X184262812Y-91133624D01*
G37*
G36*
X113321000Y-88321000D02*
X110679000Y-88321000D01*
X110679000Y-85679000D01*
X113321000Y-85679000D01*
X113321000Y-88321000D01*
X113321000Y-88321000D01*
G37*
G36*
X124321000Y-88321000D02*
X121679000Y-88321000D01*
X121679000Y-85679000D01*
X124321000Y-85679000D01*
X124321000Y-88321000D01*
X124321000Y-88321000D01*
G37*
G36*
X136166821Y-85541313D02*
X136166824Y-85541314D01*
X136166825Y-85541314D01*
X136327239Y-85589975D01*
X136327241Y-85589976D01*
X136327244Y-85589977D01*
X136475078Y-85668995D01*
X136604659Y-85775341D01*
X136711005Y-85904922D01*
X136790023Y-86052756D01*
X136790024Y-86052759D01*
X136790025Y-86052761D01*
X136801089Y-86089235D01*
X136838687Y-86213179D01*
X136855117Y-86380000D01*
X136838687Y-86546821D01*
X136838686Y-86546824D01*
X136838686Y-86546825D01*
X136791088Y-86703736D01*
X136790023Y-86707244D01*
X136711005Y-86855078D01*
X136604659Y-86984659D01*
X136475078Y-87091005D01*
X136327244Y-87170023D01*
X136327241Y-87170024D01*
X136327239Y-87170025D01*
X136166825Y-87218686D01*
X136166824Y-87218686D01*
X136166821Y-87218687D01*
X136041804Y-87231000D01*
X135958196Y-87231000D01*
X135833179Y-87218687D01*
X135833176Y-87218686D01*
X135833175Y-87218686D01*
X135672761Y-87170025D01*
X135672759Y-87170024D01*
X135672756Y-87170023D01*
X135524922Y-87091005D01*
X135395341Y-86984659D01*
X135288995Y-86855078D01*
X135209977Y-86707244D01*
X135208913Y-86703736D01*
X135161314Y-86546825D01*
X135161314Y-86546824D01*
X135161313Y-86546821D01*
X135144883Y-86380000D01*
X135161313Y-86213179D01*
X135198911Y-86089235D01*
X135209975Y-86052761D01*
X135209976Y-86052759D01*
X135209977Y-86052756D01*
X135288995Y-85904922D01*
X135395341Y-85775341D01*
X135524922Y-85668995D01*
X135672756Y-85589977D01*
X135672759Y-85589976D01*
X135672761Y-85589975D01*
X135833175Y-85541314D01*
X135833176Y-85541314D01*
X135833179Y-85541313D01*
X135958196Y-85529000D01*
X136041804Y-85529000D01*
X136166821Y-85541313D01*
X136166821Y-85541313D01*
G37*
G36*
X128224271Y-85128816D02*
X128389152Y-85197112D01*
X128537542Y-85296264D01*
X128663736Y-85422458D01*
X128762888Y-85570848D01*
X128831184Y-85735729D01*
X128866000Y-85910765D01*
X128866000Y-86089235D01*
X128831184Y-86264271D01*
X128762888Y-86429152D01*
X128663736Y-86577542D01*
X128537542Y-86703736D01*
X128389152Y-86802888D01*
X128224271Y-86871184D01*
X128049235Y-86906000D01*
X127870765Y-86906000D01*
X127695729Y-86871184D01*
X127530848Y-86802888D01*
X127382458Y-86703736D01*
X127256264Y-86577542D01*
X127157112Y-86429152D01*
X127088816Y-86264271D01*
X127054000Y-86089235D01*
X127054000Y-85910765D01*
X127088816Y-85735729D01*
X127157112Y-85570848D01*
X127256264Y-85422458D01*
X127382458Y-85296264D01*
X127530848Y-85197112D01*
X127695729Y-85128816D01*
X127870765Y-85094000D01*
X128049235Y-85094000D01*
X128224271Y-85128816D01*
X128224271Y-85128816D01*
G37*
G36*
X130764271Y-85128816D02*
X130929152Y-85197112D01*
X131077542Y-85296264D01*
X131203736Y-85422458D01*
X131302888Y-85570848D01*
X131371184Y-85735729D01*
X131406000Y-85910765D01*
X131406000Y-86089235D01*
X131371184Y-86264271D01*
X131302888Y-86429152D01*
X131203736Y-86577542D01*
X131077542Y-86703736D01*
X130929152Y-86802888D01*
X130764271Y-86871184D01*
X130589235Y-86906000D01*
X130410765Y-86906000D01*
X130235729Y-86871184D01*
X130070848Y-86802888D01*
X129922458Y-86703736D01*
X129796264Y-86577542D01*
X129697112Y-86429152D01*
X129628816Y-86264271D01*
X129594000Y-86089235D01*
X129594000Y-85910765D01*
X129628816Y-85735729D01*
X129697112Y-85570848D01*
X129796264Y-85422458D01*
X129922458Y-85296264D01*
X130070848Y-85197112D01*
X130235729Y-85128816D01*
X130410765Y-85094000D01*
X130589235Y-85094000D01*
X130764271Y-85128816D01*
X130764271Y-85128816D01*
G37*
G36*
X147264271Y-83448816D02*
X147429152Y-83517112D01*
X147577542Y-83616264D01*
X147703736Y-83742458D01*
X147802888Y-83890848D01*
X147871184Y-84055729D01*
X147906000Y-84230765D01*
X147906000Y-84409235D01*
X147871184Y-84584271D01*
X147802888Y-84749152D01*
X147703736Y-84897542D01*
X147577542Y-85023736D01*
X147429152Y-85122888D01*
X147264271Y-85191184D01*
X147089235Y-85226000D01*
X146910765Y-85226000D01*
X146735729Y-85191184D01*
X146570848Y-85122888D01*
X146422458Y-85023736D01*
X146296264Y-84897542D01*
X146197112Y-84749152D01*
X146128816Y-84584271D01*
X146094000Y-84409235D01*
X146094000Y-84230765D01*
X146128816Y-84055729D01*
X146197112Y-83890848D01*
X146296264Y-83742458D01*
X146422458Y-83616264D01*
X146570848Y-83517112D01*
X146735729Y-83448816D01*
X146910765Y-83414000D01*
X147089235Y-83414000D01*
X147264271Y-83448816D01*
X147264271Y-83448816D01*
G37*
G36*
X121816000Y-83736000D02*
X120004000Y-83736000D01*
X120004000Y-81924000D01*
X121816000Y-81924000D01*
X121816000Y-83736000D01*
X121816000Y-83736000D01*
G37*
G36*
X137094271Y-80918816D02*
X137259152Y-80987112D01*
X137407542Y-81086264D01*
X137533736Y-81212458D01*
X137632888Y-81360848D01*
X137701184Y-81525729D01*
X137736000Y-81700765D01*
X137736000Y-81879235D01*
X137701184Y-82054271D01*
X137632888Y-82219152D01*
X137533736Y-82367542D01*
X137407542Y-82493736D01*
X137259152Y-82592888D01*
X137094271Y-82661184D01*
X136919235Y-82696000D01*
X136740765Y-82696000D01*
X136565729Y-82661184D01*
X136400848Y-82592888D01*
X136252458Y-82493736D01*
X136126264Y-82367542D01*
X136027112Y-82219152D01*
X135958816Y-82054271D01*
X135924000Y-81879235D01*
X135924000Y-81700765D01*
X135958816Y-81525729D01*
X136027112Y-81360848D01*
X136126264Y-81212458D01*
X136252458Y-81086264D01*
X136400848Y-80987112D01*
X136565729Y-80918816D01*
X136740765Y-80884000D01*
X136919235Y-80884000D01*
X137094271Y-80918816D01*
X137094271Y-80918816D01*
G37*
G36*
X147264271Y-80908816D02*
X147429152Y-80977112D01*
X147577542Y-81076264D01*
X147703736Y-81202458D01*
X147802888Y-81350848D01*
X147871184Y-81515729D01*
X147906000Y-81690765D01*
X147906000Y-81869235D01*
X147871184Y-82044271D01*
X147802888Y-82209152D01*
X147703736Y-82357542D01*
X147577542Y-82483736D01*
X147429152Y-82582888D01*
X147264271Y-82651184D01*
X147089235Y-82686000D01*
X146910765Y-82686000D01*
X146735729Y-82651184D01*
X146570848Y-82582888D01*
X146422458Y-82483736D01*
X146296264Y-82357542D01*
X146197112Y-82209152D01*
X146128816Y-82044271D01*
X146094000Y-81869235D01*
X146094000Y-81690765D01*
X146128816Y-81515729D01*
X146197112Y-81350848D01*
X146296264Y-81202458D01*
X146422458Y-81076264D01*
X146570848Y-80977112D01*
X146735729Y-80908816D01*
X146910765Y-80874000D01*
X147089235Y-80874000D01*
X147264271Y-80908816D01*
X147264271Y-80908816D01*
G37*
G36*
X121816000Y-81196000D02*
X120004000Y-81196000D01*
X120004000Y-79384000D01*
X121816000Y-79384000D01*
X121816000Y-81196000D01*
X121816000Y-81196000D01*
G37*
G36*
X137094271Y-78378816D02*
X137259152Y-78447112D01*
X137407542Y-78546264D01*
X137533736Y-78672458D01*
X137632888Y-78820848D01*
X137701184Y-78985729D01*
X137736000Y-79160765D01*
X137736000Y-79339235D01*
X137701184Y-79514271D01*
X137632888Y-79679152D01*
X137533736Y-79827542D01*
X137407542Y-79953736D01*
X137259152Y-80052888D01*
X137094271Y-80121184D01*
X136919235Y-80156000D01*
X136740765Y-80156000D01*
X136565729Y-80121184D01*
X136400848Y-80052888D01*
X136252458Y-79953736D01*
X136126264Y-79827542D01*
X136027112Y-79679152D01*
X135958816Y-79514271D01*
X135924000Y-79339235D01*
X135924000Y-79160765D01*
X135958816Y-78985729D01*
X136027112Y-78820848D01*
X136126264Y-78672458D01*
X136252458Y-78546264D01*
X136400848Y-78447112D01*
X136565729Y-78378816D01*
X136740765Y-78344000D01*
X136919235Y-78344000D01*
X137094271Y-78378816D01*
X137094271Y-78378816D01*
G37*
G36*
X147264271Y-78368816D02*
X147429152Y-78437112D01*
X147577542Y-78536264D01*
X147703736Y-78662458D01*
X147802888Y-78810848D01*
X147871184Y-78975729D01*
X147906000Y-79150765D01*
X147906000Y-79329235D01*
X147871184Y-79504271D01*
X147802888Y-79669152D01*
X147703736Y-79817542D01*
X147577542Y-79943736D01*
X147429152Y-80042888D01*
X147264271Y-80111184D01*
X147089235Y-80146000D01*
X146910765Y-80146000D01*
X146735729Y-80111184D01*
X146570848Y-80042888D01*
X146422458Y-79943736D01*
X146296264Y-79817542D01*
X146197112Y-79669152D01*
X146128816Y-79504271D01*
X146094000Y-79329235D01*
X146094000Y-79150765D01*
X146128816Y-78975729D01*
X146197112Y-78810848D01*
X146296264Y-78662458D01*
X146422458Y-78536264D01*
X146570848Y-78437112D01*
X146735729Y-78368816D01*
X146910765Y-78334000D01*
X147089235Y-78334000D01*
X147264271Y-78368816D01*
X147264271Y-78368816D01*
G37*
G36*
X121816000Y-78656000D02*
X120004000Y-78656000D01*
X120004000Y-76844000D01*
X121816000Y-76844000D01*
X121816000Y-78656000D01*
X121816000Y-78656000D01*
G37*
G36*
X137094271Y-75838816D02*
X137259152Y-75907112D01*
X137407542Y-76006264D01*
X137533736Y-76132458D01*
X137632888Y-76280848D01*
X137701184Y-76445729D01*
X137736000Y-76620765D01*
X137736000Y-76799235D01*
X137701184Y-76974271D01*
X137632888Y-77139152D01*
X137533736Y-77287542D01*
X137407542Y-77413736D01*
X137259152Y-77512888D01*
X137094271Y-77581184D01*
X136919235Y-77616000D01*
X136740765Y-77616000D01*
X136565729Y-77581184D01*
X136400848Y-77512888D01*
X136252458Y-77413736D01*
X136126264Y-77287542D01*
X136027112Y-77139152D01*
X135958816Y-76974271D01*
X135924000Y-76799235D01*
X135924000Y-76620765D01*
X135958816Y-76445729D01*
X136027112Y-76280848D01*
X136126264Y-76132458D01*
X136252458Y-76006264D01*
X136400848Y-75907112D01*
X136565729Y-75838816D01*
X136740765Y-75804000D01*
X136919235Y-75804000D01*
X137094271Y-75838816D01*
X137094271Y-75838816D01*
G37*
G36*
X147264271Y-75828816D02*
X147429152Y-75897112D01*
X147577542Y-75996264D01*
X147703736Y-76122458D01*
X147802888Y-76270848D01*
X147871184Y-76435729D01*
X147906000Y-76610765D01*
X147906000Y-76789235D01*
X147871184Y-76964271D01*
X147802888Y-77129152D01*
X147703736Y-77277542D01*
X147577542Y-77403736D01*
X147429152Y-77502888D01*
X147264271Y-77571184D01*
X147089235Y-77606000D01*
X146910765Y-77606000D01*
X146735729Y-77571184D01*
X146570848Y-77502888D01*
X146422458Y-77403736D01*
X146296264Y-77277542D01*
X146197112Y-77129152D01*
X146128816Y-76964271D01*
X146094000Y-76789235D01*
X146094000Y-76610765D01*
X146128816Y-76435729D01*
X146197112Y-76270848D01*
X146296264Y-76122458D01*
X146422458Y-75996264D01*
X146570848Y-75897112D01*
X146735729Y-75828816D01*
X146910765Y-75794000D01*
X147089235Y-75794000D01*
X147264271Y-75828816D01*
X147264271Y-75828816D01*
G37*
G36*
X121816000Y-76116000D02*
X120004000Y-76116000D01*
X120004000Y-74304000D01*
X121816000Y-74304000D01*
X121816000Y-76116000D01*
X121816000Y-76116000D01*
G37*
G36*
X137094271Y-73298816D02*
X137259152Y-73367112D01*
X137407542Y-73466264D01*
X137533736Y-73592458D01*
X137632888Y-73740848D01*
X137701184Y-73905729D01*
X137736000Y-74080765D01*
X137736000Y-74259235D01*
X137701184Y-74434271D01*
X137632888Y-74599152D01*
X137533736Y-74747542D01*
X137407542Y-74873736D01*
X137259152Y-74972888D01*
X137094271Y-75041184D01*
X136919235Y-75076000D01*
X136740765Y-75076000D01*
X136565729Y-75041184D01*
X136400848Y-74972888D01*
X136252458Y-74873736D01*
X136126264Y-74747542D01*
X136027112Y-74599152D01*
X135958816Y-74434271D01*
X135924000Y-74259235D01*
X135924000Y-74080765D01*
X135958816Y-73905729D01*
X136027112Y-73740848D01*
X136126264Y-73592458D01*
X136252458Y-73466264D01*
X136400848Y-73367112D01*
X136565729Y-73298816D01*
X136740765Y-73264000D01*
X136919235Y-73264000D01*
X137094271Y-73298816D01*
X137094271Y-73298816D01*
G37*
G36*
X147264271Y-73288816D02*
X147429152Y-73357112D01*
X147577542Y-73456264D01*
X147703736Y-73582458D01*
X147802888Y-73730848D01*
X147871184Y-73895729D01*
X147906000Y-74070765D01*
X147906000Y-74249235D01*
X147871184Y-74424271D01*
X147802888Y-74589152D01*
X147703736Y-74737542D01*
X147577542Y-74863736D01*
X147429152Y-74962888D01*
X147264271Y-75031184D01*
X147089235Y-75066000D01*
X146910765Y-75066000D01*
X146735729Y-75031184D01*
X146570848Y-74962888D01*
X146422458Y-74863736D01*
X146296264Y-74737542D01*
X146197112Y-74589152D01*
X146128816Y-74424271D01*
X146094000Y-74249235D01*
X146094000Y-74070765D01*
X146128816Y-73895729D01*
X146197112Y-73730848D01*
X146296264Y-73582458D01*
X146422458Y-73456264D01*
X146570848Y-73357112D01*
X146735729Y-73288816D01*
X146910765Y-73254000D01*
X147089235Y-73254000D01*
X147264271Y-73288816D01*
X147264271Y-73288816D01*
G37*
G36*
X121816000Y-73576000D02*
X120004000Y-73576000D01*
X120004000Y-71764000D01*
X121816000Y-71764000D01*
X121816000Y-73576000D01*
X121816000Y-73576000D01*
G37*
G36*
X147264271Y-70748816D02*
X147429152Y-70817112D01*
X147577542Y-70916264D01*
X147703736Y-71042458D01*
X147802888Y-71190848D01*
X147871184Y-71355729D01*
X147906000Y-71530765D01*
X147906000Y-71709235D01*
X147871184Y-71884271D01*
X147802888Y-72049152D01*
X147703736Y-72197542D01*
X147577542Y-72323736D01*
X147429152Y-72422888D01*
X147264271Y-72491184D01*
X147089235Y-72526000D01*
X146910765Y-72526000D01*
X146735729Y-72491184D01*
X146570848Y-72422888D01*
X146422458Y-72323736D01*
X146296264Y-72197542D01*
X146197112Y-72049152D01*
X146128816Y-71884271D01*
X146094000Y-71709235D01*
X146094000Y-71530765D01*
X146128816Y-71355729D01*
X146197112Y-71190848D01*
X146296264Y-71042458D01*
X146422458Y-70916264D01*
X146570848Y-70817112D01*
X146735729Y-70748816D01*
X146910765Y-70714000D01*
X147089235Y-70714000D01*
X147264271Y-70748816D01*
X147264271Y-70748816D01*
G37*
G36*
X121816000Y-71036000D02*
X120004000Y-71036000D01*
X120004000Y-69224000D01*
X121816000Y-69224000D01*
X121816000Y-71036000D01*
X121816000Y-71036000D01*
G37*
G36*
X147264271Y-68208816D02*
X147429152Y-68277112D01*
X147577542Y-68376264D01*
X147703736Y-68502458D01*
X147802888Y-68650848D01*
X147871184Y-68815729D01*
X147906000Y-68990765D01*
X147906000Y-69169235D01*
X147871184Y-69344271D01*
X147802888Y-69509152D01*
X147703736Y-69657542D01*
X147577542Y-69783736D01*
X147429152Y-69882888D01*
X147264271Y-69951184D01*
X147089235Y-69986000D01*
X146910765Y-69986000D01*
X146735729Y-69951184D01*
X146570848Y-69882888D01*
X146422458Y-69783736D01*
X146296264Y-69657542D01*
X146197112Y-69509152D01*
X146128816Y-69344271D01*
X146094000Y-69169235D01*
X146094000Y-68990765D01*
X146128816Y-68815729D01*
X146197112Y-68650848D01*
X146296264Y-68502458D01*
X146422458Y-68376264D01*
X146570848Y-68277112D01*
X146735729Y-68208816D01*
X146910765Y-68174000D01*
X147089235Y-68174000D01*
X147264271Y-68208816D01*
X147264271Y-68208816D01*
G37*
G36*
X129777142Y-68218242D02*
X129925102Y-68279530D01*
X130058258Y-68368502D01*
X130171498Y-68481742D01*
X130260470Y-68614898D01*
X130321758Y-68762858D01*
X130353000Y-68919925D01*
X130353000Y-69080075D01*
X130321758Y-69237142D01*
X130277383Y-69344271D01*
X130260471Y-69385100D01*
X130171499Y-69518257D01*
X130058257Y-69631499D01*
X129992130Y-69675683D01*
X129925102Y-69720470D01*
X129777142Y-69781758D01*
X129620075Y-69813000D01*
X129459925Y-69813000D01*
X129302858Y-69781758D01*
X129154898Y-69720470D01*
X129087870Y-69675683D01*
X129021743Y-69631499D01*
X128908501Y-69518257D01*
X128819529Y-69385100D01*
X128802617Y-69344271D01*
X128758242Y-69237142D01*
X128727000Y-69080075D01*
X128727000Y-68919925D01*
X128758242Y-68762858D01*
X128819530Y-68614898D01*
X128908502Y-68481742D01*
X129021742Y-68368502D01*
X129154898Y-68279530D01*
X129302858Y-68218242D01*
X129459925Y-68187000D01*
X129620075Y-68187000D01*
X129777142Y-68218242D01*
X129777142Y-68218242D01*
G37*
G36*
X132317142Y-68218242D02*
X132465102Y-68279530D01*
X132598258Y-68368502D01*
X132711498Y-68481742D01*
X132800470Y-68614898D01*
X132861758Y-68762858D01*
X132893000Y-68919925D01*
X132893000Y-69080075D01*
X132861758Y-69237142D01*
X132817383Y-69344271D01*
X132800471Y-69385100D01*
X132711499Y-69518257D01*
X132598257Y-69631499D01*
X132532130Y-69675683D01*
X132465102Y-69720470D01*
X132317142Y-69781758D01*
X132160075Y-69813000D01*
X131999925Y-69813000D01*
X131842858Y-69781758D01*
X131694898Y-69720470D01*
X131627870Y-69675683D01*
X131561743Y-69631499D01*
X131448501Y-69518257D01*
X131359529Y-69385100D01*
X131342617Y-69344271D01*
X131298242Y-69237142D01*
X131267000Y-69080075D01*
X131267000Y-68919925D01*
X131298242Y-68762858D01*
X131359530Y-68614898D01*
X131448502Y-68481742D01*
X131561742Y-68368502D01*
X131694898Y-68279530D01*
X131842858Y-68218242D01*
X131999925Y-68187000D01*
X132160075Y-68187000D01*
X132317142Y-68218242D01*
X132317142Y-68218242D01*
G37*
G36*
X127813000Y-69813000D02*
X126187000Y-69813000D01*
X126187000Y-68187000D01*
X127813000Y-68187000D01*
X127813000Y-69813000D01*
X127813000Y-69813000D01*
G37*
G36*
X134857142Y-68218242D02*
X135005102Y-68279530D01*
X135138258Y-68368502D01*
X135251498Y-68481742D01*
X135340470Y-68614898D01*
X135401758Y-68762858D01*
X135433000Y-68919925D01*
X135433000Y-69080075D01*
X135401758Y-69237142D01*
X135357383Y-69344271D01*
X135340471Y-69385100D01*
X135251499Y-69518257D01*
X135138257Y-69631499D01*
X135072130Y-69675683D01*
X135005102Y-69720470D01*
X134857142Y-69781758D01*
X134700075Y-69813000D01*
X134539925Y-69813000D01*
X134382858Y-69781758D01*
X134234898Y-69720470D01*
X134167870Y-69675683D01*
X134101743Y-69631499D01*
X133988501Y-69518257D01*
X133899529Y-69385100D01*
X133882617Y-69344271D01*
X133838242Y-69237142D01*
X133807000Y-69080075D01*
X133807000Y-68919925D01*
X133838242Y-68762858D01*
X133899530Y-68614898D01*
X133988502Y-68481742D01*
X134101742Y-68368502D01*
X134234898Y-68279530D01*
X134382858Y-68218242D01*
X134539925Y-68187000D01*
X134700075Y-68187000D01*
X134857142Y-68218242D01*
X134857142Y-68218242D01*
G37*
G36*
X147264271Y-65668816D02*
X147429152Y-65737112D01*
X147577542Y-65836264D01*
X147703736Y-65962458D01*
X147802888Y-66110848D01*
X147871184Y-66275729D01*
X147906000Y-66450765D01*
X147906000Y-66629235D01*
X147871184Y-66804271D01*
X147802888Y-66969152D01*
X147703736Y-67117542D01*
X147577542Y-67243736D01*
X147429152Y-67342888D01*
X147264271Y-67411184D01*
X147089235Y-67446000D01*
X146910765Y-67446000D01*
X146735729Y-67411184D01*
X146570848Y-67342888D01*
X146422458Y-67243736D01*
X146296264Y-67117542D01*
X146197112Y-66969152D01*
X146128816Y-66804271D01*
X146094000Y-66629235D01*
X146094000Y-66450765D01*
X146128816Y-66275729D01*
X146197112Y-66110848D01*
X146296264Y-65962458D01*
X146422458Y-65836264D01*
X146570848Y-65737112D01*
X146735729Y-65668816D01*
X146910765Y-65634000D01*
X147089235Y-65634000D01*
X147264271Y-65668816D01*
X147264271Y-65668816D01*
G37*
G36*
X134857142Y-65678242D02*
X135005102Y-65739530D01*
X135138258Y-65828502D01*
X135251498Y-65941742D01*
X135340470Y-66074898D01*
X135401758Y-66222858D01*
X135433000Y-66379925D01*
X135433000Y-66540075D01*
X135401758Y-66697142D01*
X135357383Y-66804271D01*
X135340471Y-66845100D01*
X135251499Y-66978257D01*
X135138257Y-67091499D01*
X135072130Y-67135683D01*
X135005102Y-67180470D01*
X134857142Y-67241758D01*
X134700075Y-67273000D01*
X134539925Y-67273000D01*
X134382858Y-67241758D01*
X134234898Y-67180470D01*
X134167870Y-67135683D01*
X134101743Y-67091499D01*
X133988501Y-66978257D01*
X133899529Y-66845100D01*
X133882617Y-66804271D01*
X133838242Y-66697142D01*
X133807000Y-66540075D01*
X133807000Y-66379925D01*
X133838242Y-66222858D01*
X133899530Y-66074898D01*
X133988502Y-65941742D01*
X134101742Y-65828502D01*
X134234898Y-65739530D01*
X134382858Y-65678242D01*
X134539925Y-65647000D01*
X134700075Y-65647000D01*
X134857142Y-65678242D01*
X134857142Y-65678242D01*
G37*
G36*
X127237142Y-65678242D02*
X127385102Y-65739530D01*
X127518258Y-65828502D01*
X127631498Y-65941742D01*
X127720470Y-66074898D01*
X127781758Y-66222858D01*
X127813000Y-66379925D01*
X127813000Y-66540075D01*
X127781758Y-66697142D01*
X127737383Y-66804271D01*
X127720471Y-66845100D01*
X127631499Y-66978257D01*
X127518257Y-67091499D01*
X127452130Y-67135683D01*
X127385102Y-67180470D01*
X127237142Y-67241758D01*
X127080075Y-67273000D01*
X126919925Y-67273000D01*
X126762858Y-67241758D01*
X126614898Y-67180470D01*
X126547870Y-67135683D01*
X126481743Y-67091499D01*
X126368501Y-66978257D01*
X126279529Y-66845100D01*
X126262617Y-66804271D01*
X126218242Y-66697142D01*
X126187000Y-66540075D01*
X126187000Y-66379925D01*
X126218242Y-66222858D01*
X126279530Y-66074898D01*
X126368502Y-65941742D01*
X126481742Y-65828502D01*
X126614898Y-65739530D01*
X126762858Y-65678242D01*
X126919925Y-65647000D01*
X127080075Y-65647000D01*
X127237142Y-65678242D01*
X127237142Y-65678242D01*
G37*
G36*
X129777142Y-65678242D02*
X129925102Y-65739530D01*
X130058258Y-65828502D01*
X130171498Y-65941742D01*
X130260470Y-66074898D01*
X130321758Y-66222858D01*
X130353000Y-66379925D01*
X130353000Y-66540075D01*
X130321758Y-66697142D01*
X130277383Y-66804271D01*
X130260471Y-66845100D01*
X130171499Y-66978257D01*
X130058257Y-67091499D01*
X129992130Y-67135683D01*
X129925102Y-67180470D01*
X129777142Y-67241758D01*
X129620075Y-67273000D01*
X129459925Y-67273000D01*
X129302858Y-67241758D01*
X129154898Y-67180470D01*
X129087870Y-67135683D01*
X129021743Y-67091499D01*
X128908501Y-66978257D01*
X128819529Y-66845100D01*
X128802617Y-66804271D01*
X128758242Y-66697142D01*
X128727000Y-66540075D01*
X128727000Y-66379925D01*
X128758242Y-66222858D01*
X128819530Y-66074898D01*
X128908502Y-65941742D01*
X129021742Y-65828502D01*
X129154898Y-65739530D01*
X129302858Y-65678242D01*
X129459925Y-65647000D01*
X129620075Y-65647000D01*
X129777142Y-65678242D01*
X129777142Y-65678242D01*
G37*
G36*
X132317142Y-65678242D02*
X132465102Y-65739530D01*
X132598258Y-65828502D01*
X132711498Y-65941742D01*
X132800470Y-66074898D01*
X132861758Y-66222858D01*
X132893000Y-66379925D01*
X132893000Y-66540075D01*
X132861758Y-66697142D01*
X132817383Y-66804271D01*
X132800471Y-66845100D01*
X132711499Y-66978257D01*
X132598257Y-67091499D01*
X132532130Y-67135683D01*
X132465102Y-67180470D01*
X132317142Y-67241758D01*
X132160075Y-67273000D01*
X131999925Y-67273000D01*
X131842858Y-67241758D01*
X131694898Y-67180470D01*
X131627870Y-67135683D01*
X131561743Y-67091499D01*
X131448501Y-66978257D01*
X131359529Y-66845100D01*
X131342617Y-66804271D01*
X131298242Y-66697142D01*
X131267000Y-66540075D01*
X131267000Y-66379925D01*
X131298242Y-66222858D01*
X131359530Y-66074898D01*
X131448502Y-65941742D01*
X131561742Y-65828502D01*
X131694898Y-65739530D01*
X131842858Y-65678242D01*
X131999925Y-65647000D01*
X132160075Y-65647000D01*
X132317142Y-65678242D01*
X132317142Y-65678242D01*
G37*
G36*
X147264271Y-63128816D02*
X147429152Y-63197112D01*
X147577542Y-63296264D01*
X147703736Y-63422458D01*
X147802888Y-63570848D01*
X147871184Y-63735729D01*
X147906000Y-63910765D01*
X147906000Y-64089235D01*
X147871184Y-64264271D01*
X147802888Y-64429152D01*
X147703736Y-64577542D01*
X147577542Y-64703736D01*
X147429152Y-64802888D01*
X147264271Y-64871184D01*
X147089235Y-64906000D01*
X146910765Y-64906000D01*
X146735729Y-64871184D01*
X146570848Y-64802888D01*
X146422458Y-64703736D01*
X146296264Y-64577542D01*
X146197112Y-64429152D01*
X146128816Y-64264271D01*
X146094000Y-64089235D01*
X146094000Y-63910765D01*
X146128816Y-63735729D01*
X146197112Y-63570848D01*
X146296264Y-63422458D01*
X146422458Y-63296264D01*
X146570848Y-63197112D01*
X146735729Y-63128816D01*
X146910765Y-63094000D01*
X147089235Y-63094000D01*
X147264271Y-63128816D01*
X147264271Y-63128816D01*
G37*
G36*
X147264271Y-60588816D02*
X147429152Y-60657112D01*
X147577542Y-60756264D01*
X147703736Y-60882458D01*
X147802888Y-61030848D01*
X147871184Y-61195729D01*
X147906000Y-61370765D01*
X147906000Y-61549235D01*
X147871184Y-61724271D01*
X147802888Y-61889152D01*
X147703736Y-62037542D01*
X147577542Y-62163736D01*
X147429152Y-62262888D01*
X147264271Y-62331184D01*
X147089235Y-62366000D01*
X146910765Y-62366000D01*
X146735729Y-62331184D01*
X146570848Y-62262888D01*
X146422458Y-62163736D01*
X146296264Y-62037542D01*
X146197112Y-61889152D01*
X146128816Y-61724271D01*
X146094000Y-61549235D01*
X146094000Y-61370765D01*
X146128816Y-61195729D01*
X146197112Y-61030848D01*
X146296264Y-60882458D01*
X146422458Y-60756264D01*
X146570848Y-60657112D01*
X146735729Y-60588816D01*
X146910765Y-60554000D01*
X147089235Y-60554000D01*
X147264271Y-60588816D01*
X147264271Y-60588816D01*
G37*
G36*
X147264271Y-58048816D02*
X147429152Y-58117112D01*
X147577542Y-58216264D01*
X147703736Y-58342458D01*
X147802888Y-58490848D01*
X147871184Y-58655729D01*
X147906000Y-58830765D01*
X147906000Y-59009235D01*
X147871184Y-59184271D01*
X147802888Y-59349152D01*
X147703736Y-59497542D01*
X147577542Y-59623736D01*
X147429152Y-59722888D01*
X147264271Y-59791184D01*
X147089235Y-59826000D01*
X146910765Y-59826000D01*
X146735729Y-59791184D01*
X146570848Y-59722888D01*
X146422458Y-59623736D01*
X146296264Y-59497542D01*
X146197112Y-59349152D01*
X146128816Y-59184271D01*
X146094000Y-59009235D01*
X146094000Y-58830765D01*
X146128816Y-58655729D01*
X146197112Y-58490848D01*
X146296264Y-58342458D01*
X146422458Y-58216264D01*
X146570848Y-58117112D01*
X146735729Y-58048816D01*
X146910765Y-58014000D01*
X147089235Y-58014000D01*
X147264271Y-58048816D01*
X147264271Y-58048816D01*
G37*
G36*
X143166821Y-55781313D02*
X143166824Y-55781314D01*
X143166825Y-55781314D01*
X143327239Y-55829975D01*
X143327241Y-55829976D01*
X143327244Y-55829977D01*
X143475078Y-55908995D01*
X143604659Y-56015341D01*
X143711005Y-56144922D01*
X143790023Y-56292756D01*
X143838687Y-56453179D01*
X143855117Y-56620000D01*
X143838687Y-56786821D01*
X143790023Y-56947244D01*
X143711005Y-57095078D01*
X143604659Y-57224659D01*
X143475078Y-57331005D01*
X143327244Y-57410023D01*
X143327241Y-57410024D01*
X143327239Y-57410025D01*
X143166825Y-57458686D01*
X143166824Y-57458686D01*
X143166821Y-57458687D01*
X143041804Y-57471000D01*
X142958196Y-57471000D01*
X142833179Y-57458687D01*
X142833176Y-57458686D01*
X142833175Y-57458686D01*
X142672761Y-57410025D01*
X142672759Y-57410024D01*
X142672756Y-57410023D01*
X142524922Y-57331005D01*
X142395341Y-57224659D01*
X142288995Y-57095078D01*
X142209977Y-56947244D01*
X142161313Y-56786821D01*
X142144883Y-56620000D01*
X142161313Y-56453179D01*
X142209977Y-56292756D01*
X142288995Y-56144922D01*
X142395341Y-56015341D01*
X142524922Y-55908995D01*
X142672756Y-55829977D01*
X142672759Y-55829976D01*
X142672761Y-55829975D01*
X142833175Y-55781314D01*
X142833176Y-55781314D01*
X142833179Y-55781313D01*
X142958196Y-55769000D01*
X143041804Y-55769000D01*
X143166821Y-55781313D01*
X143166821Y-55781313D01*
G37*
G36*
X147264271Y-55508816D02*
X147429152Y-55577112D01*
X147577542Y-55676264D01*
X147703736Y-55802458D01*
X147802888Y-55950848D01*
X147871184Y-56115729D01*
X147906000Y-56290765D01*
X147906000Y-56469235D01*
X147871184Y-56644271D01*
X147802888Y-56809152D01*
X147703736Y-56957542D01*
X147577542Y-57083736D01*
X147429152Y-57182888D01*
X147264271Y-57251184D01*
X147089235Y-57286000D01*
X146910765Y-57286000D01*
X146735729Y-57251184D01*
X146570848Y-57182888D01*
X146422458Y-57083736D01*
X146296264Y-56957542D01*
X146197112Y-56809152D01*
X146128816Y-56644271D01*
X146094000Y-56469235D01*
X146094000Y-56290765D01*
X146128816Y-56115729D01*
X146197112Y-55950848D01*
X146296264Y-55802458D01*
X146422458Y-55676264D01*
X146570848Y-55577112D01*
X146735729Y-55508816D01*
X146910765Y-55474000D01*
X147089235Y-55474000D01*
X147264271Y-55508816D01*
X147264271Y-55508816D01*
G37*
G36*
X119264271Y-53128816D02*
X119429152Y-53197112D01*
X119577542Y-53296264D01*
X119703736Y-53422458D01*
X119802888Y-53570848D01*
X119871184Y-53735729D01*
X119906000Y-53910765D01*
X119906000Y-54089235D01*
X119871184Y-54264271D01*
X119802888Y-54429152D01*
X119703736Y-54577542D01*
X119577542Y-54703736D01*
X119429152Y-54802888D01*
X119264271Y-54871184D01*
X119089235Y-54906000D01*
X118910765Y-54906000D01*
X118735729Y-54871184D01*
X118570848Y-54802888D01*
X118422458Y-54703736D01*
X118296264Y-54577542D01*
X118197112Y-54429152D01*
X118128816Y-54264271D01*
X118094000Y-54089235D01*
X118094000Y-53910765D01*
X118128816Y-53735729D01*
X118197112Y-53570848D01*
X118296264Y-53422458D01*
X118422458Y-53296264D01*
X118570848Y-53197112D01*
X118735729Y-53128816D01*
X118910765Y-53094000D01*
X119089235Y-53094000D01*
X119264271Y-53128816D01*
X119264271Y-53128816D01*
G37*
G36*
X103264271Y-53128816D02*
X103429152Y-53197112D01*
X103577542Y-53296264D01*
X103703736Y-53422458D01*
X103802888Y-53570848D01*
X103871184Y-53735729D01*
X103906000Y-53910765D01*
X103906000Y-54089235D01*
X103871184Y-54264271D01*
X103802888Y-54429152D01*
X103703736Y-54577542D01*
X103577542Y-54703736D01*
X103429152Y-54802888D01*
X103264271Y-54871184D01*
X103089235Y-54906000D01*
X102910765Y-54906000D01*
X102735729Y-54871184D01*
X102570848Y-54802888D01*
X102422458Y-54703736D01*
X102296264Y-54577542D01*
X102197112Y-54429152D01*
X102128816Y-54264271D01*
X102094000Y-54089235D01*
X102094000Y-53910765D01*
X102128816Y-53735729D01*
X102197112Y-53570848D01*
X102296264Y-53422458D01*
X102422458Y-53296264D01*
X102570848Y-53197112D01*
X102735729Y-53128816D01*
X102910765Y-53094000D01*
X103089235Y-53094000D01*
X103264271Y-53128816D01*
X103264271Y-53128816D01*
G37*
G36*
X147264271Y-52968816D02*
X147429152Y-53037112D01*
X147577542Y-53136264D01*
X147703736Y-53262458D01*
X147802888Y-53410848D01*
X147871184Y-53575729D01*
X147906000Y-53750765D01*
X147906000Y-53929235D01*
X147871184Y-54104271D01*
X147802888Y-54269152D01*
X147703736Y-54417542D01*
X147577542Y-54543736D01*
X147429152Y-54642888D01*
X147264271Y-54711184D01*
X147089235Y-54746000D01*
X146910765Y-54746000D01*
X146735729Y-54711184D01*
X146570848Y-54642888D01*
X146422458Y-54543736D01*
X146296264Y-54417542D01*
X146197112Y-54269152D01*
X146128816Y-54104271D01*
X146094000Y-53929235D01*
X146094000Y-53750765D01*
X146128816Y-53575729D01*
X146197112Y-53410848D01*
X146296264Y-53262458D01*
X146422458Y-53136264D01*
X146570848Y-53037112D01*
X146735729Y-52968816D01*
X146910765Y-52934000D01*
X147089235Y-52934000D01*
X147264271Y-52968816D01*
X147264271Y-52968816D01*
G37*
G36*
X147264271Y-50428816D02*
X147429152Y-50497112D01*
X147577542Y-50596264D01*
X147703736Y-50722458D01*
X147802888Y-50870848D01*
X147871184Y-51035729D01*
X147906000Y-51210765D01*
X147906000Y-51389235D01*
X147871184Y-51564271D01*
X147802888Y-51729152D01*
X147703736Y-51877542D01*
X147577542Y-52003736D01*
X147429152Y-52102888D01*
X147264271Y-52171184D01*
X147089235Y-52206000D01*
X146910765Y-52206000D01*
X146735729Y-52171184D01*
X146570848Y-52102888D01*
X146422458Y-52003736D01*
X146296264Y-51877542D01*
X146197112Y-51729152D01*
X146128816Y-51564271D01*
X146094000Y-51389235D01*
X146094000Y-51210765D01*
X146128816Y-51035729D01*
X146197112Y-50870848D01*
X146296264Y-50722458D01*
X146422458Y-50596264D01*
X146570848Y-50497112D01*
X146735729Y-50428816D01*
X146910765Y-50394000D01*
X147089235Y-50394000D01*
X147264271Y-50428816D01*
X147264271Y-50428816D01*
G37*
G36*
X143248228Y-48181703D02*
X143403100Y-48245853D01*
X143542481Y-48338985D01*
X143661015Y-48457519D01*
X143754147Y-48596900D01*
X143818297Y-48751772D01*
X143851000Y-48916184D01*
X143851000Y-49083816D01*
X143818297Y-49248228D01*
X143754147Y-49403100D01*
X143661015Y-49542481D01*
X143542481Y-49661015D01*
X143403100Y-49754147D01*
X143248228Y-49818297D01*
X143083816Y-49851000D01*
X142916184Y-49851000D01*
X142751772Y-49818297D01*
X142596900Y-49754147D01*
X142457519Y-49661015D01*
X142338985Y-49542481D01*
X142245853Y-49403100D01*
X142181703Y-49248228D01*
X142149000Y-49083816D01*
X142149000Y-48916184D01*
X142181703Y-48751772D01*
X142245853Y-48596900D01*
X142338985Y-48457519D01*
X142457519Y-48338985D01*
X142596900Y-48245853D01*
X142751772Y-48181703D01*
X142916184Y-48149000D01*
X143083816Y-48149000D01*
X143248228Y-48181703D01*
X143248228Y-48181703D01*
G37*
G36*
X147264271Y-47888816D02*
X147429152Y-47957112D01*
X147577542Y-48056264D01*
X147703736Y-48182458D01*
X147802888Y-48330848D01*
X147871184Y-48495729D01*
X147906000Y-48670765D01*
X147906000Y-48849235D01*
X147871184Y-49024271D01*
X147802888Y-49189152D01*
X147703736Y-49337542D01*
X147577542Y-49463736D01*
X147429152Y-49562888D01*
X147264271Y-49631184D01*
X147089235Y-49666000D01*
X146910765Y-49666000D01*
X146735729Y-49631184D01*
X146570848Y-49562888D01*
X146422458Y-49463736D01*
X146296264Y-49337542D01*
X146197112Y-49189152D01*
X146128816Y-49024271D01*
X146094000Y-48849235D01*
X146094000Y-48670765D01*
X146128816Y-48495729D01*
X146197112Y-48330848D01*
X146296264Y-48182458D01*
X146422458Y-48056264D01*
X146570848Y-47957112D01*
X146735729Y-47888816D01*
X146910765Y-47854000D01*
X147089235Y-47854000D01*
X147264271Y-47888816D01*
X147264271Y-47888816D01*
G37*
G36*
X147264271Y-45348816D02*
X147429152Y-45417112D01*
X147577542Y-45516264D01*
X147703736Y-45642458D01*
X147802888Y-45790848D01*
X147871184Y-45955729D01*
X147906000Y-46130765D01*
X147906000Y-46309235D01*
X147871184Y-46484271D01*
X147802888Y-46649152D01*
X147703736Y-46797542D01*
X147577542Y-46923736D01*
X147429152Y-47022888D01*
X147264271Y-47091184D01*
X147089235Y-47126000D01*
X146910765Y-47126000D01*
X146735729Y-47091184D01*
X146570848Y-47022888D01*
X146422458Y-46923736D01*
X146296264Y-46797542D01*
X146197112Y-46649152D01*
X146128816Y-46484271D01*
X146094000Y-46309235D01*
X146094000Y-46130765D01*
X146128816Y-45955729D01*
X146197112Y-45790848D01*
X146296264Y-45642458D01*
X146422458Y-45516264D01*
X146570848Y-45417112D01*
X146735729Y-45348816D01*
X146910765Y-45314000D01*
X147089235Y-45314000D01*
X147264271Y-45348816D01*
X147264271Y-45348816D01*
G37*
M02*
