M48
;DRILL file {KiCad 5.0.1} date Fri 08 Feb 2019 15:04:23 CET
;FORMAT={-:-/ absolute / inch / decimal}
FMAT,2
INCH,TZ
T1C0.0157
T2C0.0300
T3C0.0315
T4C0.0394
T5C0.0398
%
G90
G05
M72
T1
X4.3207Y-3.878
X4.8425Y-3.3268
X5.0197Y-4.2323
X5.0591Y-2.9331
X5.315Y-4.5472
X5.374Y-3.4061
X5.4331Y-3.4061
X5.4921Y-4.9409
X5.501Y-4.1929
X5.501Y-4.2913
X5.5906Y-2.4911
X5.5906Y-2.6575
X5.5906Y-3.7008
X5.5906Y-3.8189
X5.5906Y-4.1535
X5.689Y-3.6811
X5.689Y-3.7205
X5.7874Y-3.8976
X5.9055Y-3.6811
X5.9055Y-3.7205
X6.3189Y-3.749
T2
X4.9409Y-2.6756
X4.9409Y-2.7756
X5.0409Y-2.6756
X5.0409Y-2.7756
X5.1409Y-2.6756
X5.1409Y-2.7756
X5.2409Y-2.6756
X5.2409Y-2.7756
T3
X6.378Y-3.937
X6.678Y-3.937
X6.2205Y-4.7244
X6.2205Y-5.0244
X4.7197Y-4.1339
X5.0197Y-4.1339
X6.6929Y-4.0945
X6.9929Y-4.0945
X6.2205Y-5.1181
X6.2205Y-5.4181
X6.2205Y-4.3307
X6.2205Y-4.6307
X5.4134Y-3.7992
X5.4134Y-3.8992
X5.4134Y-3.9992
X5.4134Y-4.0992
X5.4134Y-4.1992
X5.4134Y-4.2992
X5.4134Y-4.3992
X5.4134Y-4.4992
X5.4134Y-4.5992
X5.4134Y-4.6992
X5.4134Y-4.7992
X5.4134Y-4.8992
X5.4134Y-4.9992
X5.4134Y-5.0992
X5.4134Y-5.1992
X6.0134Y-3.7992
X6.0134Y-3.8992
X6.0134Y-3.9992
X6.0134Y-4.0992
X6.0134Y-4.1992
X6.0134Y-4.2992
X6.0134Y-4.3992
X6.0134Y-4.4992
X6.0134Y-4.5992
X6.0134Y-4.6992
X6.0134Y-4.7992
X6.0134Y-4.8992
X6.0134Y-4.9992
X6.0134Y-5.0992
X6.0134Y-5.1992
X7.126Y-3.937
X7.426Y-3.937
X5.5906Y-1.9291
X5.5906Y-2.2291
X7.126Y-4.0945
X7.426Y-4.0945
X7.5984Y-5.0787
X7.5984Y-5.3787
T4
X7.1654Y-3.622
X7.1654Y-3.7992
X7.4213Y-3.622
X7.4213Y-3.7992
X6.7717Y-4.5669
X6.7717Y-4.7441
X7.0276Y-4.5669
X7.0276Y-4.7441
X6.378Y-4.8819
X6.378Y-5.0591
X6.6339Y-4.8819
X6.6339Y-5.0591
X6.378Y-4.252
X6.378Y-4.4291
X6.6339Y-4.252
X6.6339Y-4.4291
X7.1654Y-4.5669
X7.1654Y-4.7441
X7.4213Y-4.5669
X7.4213Y-4.7441
X6.378Y-3.622
X6.378Y-3.7992
X6.6339Y-3.622
X6.6339Y-3.7992
X6.378Y-4.5669
X6.378Y-4.7441
X6.6339Y-4.5669
X6.6339Y-4.7441
X7.1654Y-5.1969
X7.1654Y-5.374
X7.4213Y-5.1969
X7.4213Y-5.374
X7.1654Y-4.8819
X7.1654Y-5.0591
X7.4213Y-4.8819
X7.4213Y-5.0591
X6.378Y-5.1969
X6.378Y-5.374
X6.6339Y-5.1969
X6.6339Y-5.374
X6.7717Y-4.8819
X6.7717Y-5.0591
X7.0276Y-4.8819
X7.0276Y-5.0591
X6.7717Y-5.1969
X6.7717Y-5.374
X7.0276Y-5.1969
X7.0276Y-5.374
X7.1654Y-4.252
X7.1654Y-4.4291
X7.4213Y-4.252
X7.4213Y-4.4291
X6.7717Y-4.252
X6.7717Y-4.4291
X7.0276Y-4.252
X7.0276Y-4.4291
T5
X3.5287Y-3.9406
X3.6287Y-3.9406
X3.7287Y-3.9406
X3.8287Y-3.9406
X3.9287Y-3.9406
X4.0287Y-3.9406
X5.7874Y-1.8197
X5.7874Y-1.9197
X5.7874Y-2.0197
X5.7874Y-2.1197
X5.7874Y-2.2197
X5.7874Y-2.3197
X5.7874Y-2.4197
X5.7874Y-2.5197
X5.7874Y-2.6197
X5.7874Y-2.7197
X5.7874Y-2.8197
X5.7874Y-2.9197
X5.7874Y-3.0197
X5.7874Y-3.1197
X5.7874Y-3.2197
X5.7874Y-3.3197
X5.2689Y-3.0776
X5.2689Y-3.1776
X5.2689Y-3.2776
X5.2689Y-3.3776
X4.4079Y-4.1339
X4.5079Y-4.1339
X4.4685Y-4.8819
X5.0984Y-4.8819
T0
M30
