G04 #@! TF.GenerationSoftware,KiCad,Pcbnew,5.0.1*
G04 #@! TF.CreationDate,2019-02-08T15:06:07+01:00*
G04 #@! TF.ProjectId,arduinowalkietalkie,61726475696E6F77616C6B696574616C,1*
G04 #@! TF.SameCoordinates,Original*
G04 #@! TF.FileFunction,Copper,L2,Bot,Signal*
G04 #@! TF.FilePolarity,Positive*
%FSLAX46Y46*%
G04 Gerber Fmt 4.6, Leading zero omitted, Abs format (unit mm)*
G04 Created by KiCad (PCBNEW 5.0.1) date Fri 08 Feb 2019 15:06:07 CET*
%MOMM*%
%LPD*%
G01*
G04 APERTURE LIST*
G04 #@! TA.AperFunction,ComponentPad*
%ADD10C,1.710000*%
G04 #@! TD*
G04 #@! TA.AperFunction,ComponentPad*
%ADD11C,1.600000*%
G04 #@! TD*
G04 #@! TA.AperFunction,ComponentPad*
%ADD12O,1.600000X1.600000*%
G04 #@! TD*
G04 #@! TA.AperFunction,ComponentPad*
%ADD13R,1.600000X1.600000*%
G04 #@! TD*
G04 #@! TA.AperFunction,ComponentPad*
%ADD14R,1.710000X1.710000*%
G04 #@! TD*
G04 #@! TA.AperFunction,ComponentPad*
%ADD15C,1.700000*%
G04 #@! TD*
G04 #@! TA.AperFunction,ComponentPad*
%ADD16C,1.524000*%
G04 #@! TD*
G04 #@! TA.AperFunction,ComponentPad*
%ADD17R,1.524000X1.524000*%
G04 #@! TD*
G04 #@! TA.AperFunction,ViaPad*
%ADD18C,0.800000*%
G04 #@! TD*
G04 #@! TA.AperFunction,Conductor*
%ADD19C,0.250000*%
G04 #@! TD*
G04 #@! TA.AperFunction,Conductor*
%ADD20C,0.254000*%
G04 #@! TD*
G04 APERTURE END LIST*
D10*
G04 #@! TO.P,BZ1,2*
G04 #@! TO.N,GND*
X129500000Y-124000000D03*
G04 #@! TO.P,BZ1,1*
G04 #@! TO.N,Net-(A1-Pad7)*
X113500000Y-124000000D03*
G04 #@! TD*
D11*
G04 #@! TO.P,R4,1*
G04 #@! TO.N,Net-(R3-Pad2)*
X158000000Y-130000000D03*
D12*
G04 #@! TO.P,R4,2*
G04 #@! TO.N,Net-(A1-Pad19)*
X158000000Y-137620000D03*
G04 #@! TD*
G04 #@! TO.P,R3,2*
G04 #@! TO.N,Net-(R3-Pad2)*
X158000000Y-127620000D03*
D11*
G04 #@! TO.P,R3,1*
G04 #@! TO.N,Net-(R2-Pad2)*
X158000000Y-120000000D03*
G04 #@! TD*
G04 #@! TO.P,R2,1*
G04 #@! TO.N,Net-(R2-Pad1)*
X158000000Y-110000000D03*
D12*
G04 #@! TO.P,R2,2*
G04 #@! TO.N,Net-(R2-Pad2)*
X158000000Y-117620000D03*
G04 #@! TD*
G04 #@! TO.P,R1,2*
G04 #@! TO.N,GND*
X169620000Y-100000000D03*
D11*
G04 #@! TO.P,R1,1*
G04 #@! TO.N,Net-(R1-Pad1)*
X162000000Y-100000000D03*
G04 #@! TD*
G04 #@! TO.P,R5,1*
G04 #@! TO.N,Net-(R5-Pad1)*
X177620000Y-104000000D03*
D12*
G04 #@! TO.P,R5,2*
G04 #@! TO.N,Net-(R5-Pad2)*
X170000000Y-104000000D03*
G04 #@! TD*
G04 #@! TO.P,R6,2*
G04 #@! TO.N,Net-(R6-Pad2)*
X181000000Y-100000000D03*
D11*
G04 #@! TO.P,R6,1*
G04 #@! TO.N,GND*
X188620000Y-100000000D03*
G04 #@! TD*
G04 #@! TO.P,R7,1*
G04 #@! TO.N,Net-(R5-Pad1)*
X181000000Y-104000000D03*
D12*
G04 #@! TO.P,R7,2*
G04 #@! TO.N,GND*
X188620000Y-104000000D03*
G04 #@! TD*
G04 #@! TO.P,R8,2*
G04 #@! TO.N,Net-(A1-Pad19)*
X193000000Y-136620000D03*
D11*
G04 #@! TO.P,R8,1*
G04 #@! TO.N,+5V*
X193000000Y-129000000D03*
G04 #@! TD*
G04 #@! TO.P,R9,1*
G04 #@! TO.N,Net-(R9-Pad1)*
X142000000Y-49000000D03*
D12*
G04 #@! TO.P,R9,2*
G04 #@! TO.N,Net-(A1-Pad8)*
X142000000Y-56620000D03*
G04 #@! TD*
G04 #@! TO.P,A1,16*
G04 #@! TO.N,SCK*
X152740000Y-132060000D03*
G04 #@! TO.P,A1,15*
G04 #@! TO.N,MISO*
X137500000Y-132060000D03*
G04 #@! TO.P,A1,30*
G04 #@! TO.N,+5V*
X152740000Y-96500000D03*
G04 #@! TO.P,A1,14*
G04 #@! TO.N,MOSI*
X137500000Y-129520000D03*
G04 #@! TO.P,A1,29*
G04 #@! TO.N,GND*
X152740000Y-99040000D03*
G04 #@! TO.P,A1,13*
G04 #@! TO.N,Net-(A1-Pad13)*
X137500000Y-126980000D03*
G04 #@! TO.P,A1,28*
G04 #@! TO.N,Net-(A1-Pad28)*
X152740000Y-101580000D03*
G04 #@! TO.P,A1,12*
G04 #@! TO.N,Net-(A1-Pad12)*
X137500000Y-124440000D03*
G04 #@! TO.P,A1,27*
G04 #@! TO.N,Net-(A1-Pad27)*
X152740000Y-104120000D03*
G04 #@! TO.P,A1,11*
G04 #@! TO.N,Net-(A1-Pad11)*
X137500000Y-121900000D03*
G04 #@! TO.P,A1,26*
G04 #@! TO.N,Net-(A1-Pad26)*
X152740000Y-106660000D03*
G04 #@! TO.P,A1,10*
G04 #@! TO.N,Net-(A1-Pad10)*
X137500000Y-119360000D03*
G04 #@! TO.P,A1,25*
G04 #@! TO.N,Net-(A1-Pad25)*
X152740000Y-109200000D03*
G04 #@! TO.P,A1,9*
G04 #@! TO.N,Net-(A1-Pad9)*
X137500000Y-116820000D03*
G04 #@! TO.P,A1,24*
G04 #@! TO.N,SCL*
X152740000Y-111740000D03*
G04 #@! TO.P,A1,8*
G04 #@! TO.N,Net-(A1-Pad8)*
X137500000Y-114280000D03*
G04 #@! TO.P,A1,23*
G04 #@! TO.N,SDA*
X152740000Y-114280000D03*
G04 #@! TO.P,A1,7*
G04 #@! TO.N,Net-(A1-Pad7)*
X137500000Y-111740000D03*
G04 #@! TO.P,A1,22*
G04 #@! TO.N,Net-(A1-Pad22)*
X152740000Y-116820000D03*
G04 #@! TO.P,A1,6*
G04 #@! TO.N,Net-(A1-Pad6)*
X137500000Y-109200000D03*
G04 #@! TO.P,A1,21*
G04 #@! TO.N,Net-(A1-Pad21)*
X152740000Y-119360000D03*
G04 #@! TO.P,A1,5*
G04 #@! TO.N,Net-(A1-Pad5)*
X137500000Y-106660000D03*
G04 #@! TO.P,A1,20*
G04 #@! TO.N,Net-(A1-Pad20)*
X152740000Y-121900000D03*
G04 #@! TO.P,A1,4*
G04 #@! TO.N,Net-(A1-Pad4)*
X137500000Y-104120000D03*
G04 #@! TO.P,A1,19*
G04 #@! TO.N,Net-(A1-Pad19)*
X152740000Y-124440000D03*
G04 #@! TO.P,A1,3*
G04 #@! TO.N,Net-(A1-Pad3)*
X137500000Y-101580000D03*
G04 #@! TO.P,A1,18*
G04 #@! TO.N,Net-(A1-Pad18)*
X152740000Y-126980000D03*
G04 #@! TO.P,A1,2*
G04 #@! TO.N,Net-(A1-Pad2)*
X137500000Y-99040000D03*
G04 #@! TO.P,A1,17*
G04 #@! TO.N,Net-(A1-Pad17)*
X152740000Y-129520000D03*
D13*
G04 #@! TO.P,A1,1*
G04 #@! TO.N,Net-(A1-Pad1)*
X137500000Y-96500000D03*
G04 #@! TD*
D10*
G04 #@! TO.P,BMP1,4*
G04 #@! TO.N,SDA*
X133830000Y-78170000D03*
G04 #@! TO.P,BMP1,3*
G04 #@! TO.N,SCL*
X133830000Y-80710000D03*
G04 #@! TO.P,BMP1,2*
G04 #@! TO.N,GND*
X133830000Y-83250000D03*
G04 #@! TO.P,BMP1,1*
G04 #@! TO.N,+5V*
X133830000Y-85790000D03*
G04 #@! TD*
D14*
G04 #@! TO.P,CC1,6*
G04 #@! TO.N,Net-(CC1-Pad6)*
X89630000Y-100090000D03*
G04 #@! TO.P,CC1,5*
G04 #@! TO.N,Net-(CC1-Pad5)*
X92170000Y-100090000D03*
G04 #@! TO.P,CC1,4*
G04 #@! TO.N,Net-(BT1-Pad2)*
X94710000Y-100090000D03*
G04 #@! TO.P,CC1,3*
G04 #@! TO.N,Net-(A1-Pad20)*
X97250000Y-100090000D03*
G04 #@! TO.P,CC1,2*
G04 #@! TO.N,GND*
X99790000Y-100090000D03*
G04 #@! TO.P,CC1,1*
G04 #@! TO.N,Net-(A1-Pad27)*
X102330000Y-100090000D03*
G04 #@! TD*
D12*
G04 #@! TO.P,D1,2*
G04 #@! TO.N,Net-(D1-Pad2)*
X119880000Y-105000000D03*
D13*
G04 #@! TO.P,D1,1*
G04 #@! TO.N,+5V*
X127500000Y-105000000D03*
G04 #@! TD*
D10*
G04 #@! TO.P,JP1,2*
G04 #@! TO.N,Net-(D1-Pad2)*
X114500000Y-105000000D03*
G04 #@! TO.P,JP1,1*
G04 #@! TO.N,Net-(CC1-Pad6)*
X111960000Y-105000000D03*
G04 #@! TD*
D15*
G04 #@! TO.P,SW1,1*
G04 #@! TO.N,+5V*
X162000000Y-92000000D03*
G04 #@! TO.P,SW1,2*
G04 #@! TO.N,Net-(SW1-Pad2)*
X168500000Y-92000000D03*
G04 #@! TO.P,SW1,3*
G04 #@! TO.N,Net-(R1-Pad1)*
X162000000Y-96500000D03*
G04 #@! TO.P,SW1,4*
G04 #@! TO.N,Net-(A1-Pad6)*
X168500000Y-96500000D03*
G04 #@! TD*
G04 #@! TO.P,SW2,1*
G04 #@! TO.N,Net-(SW2-Pad1)*
X162000000Y-108000000D03*
G04 #@! TO.P,SW2,2*
G04 #@! TO.N,Net-(R5-Pad2)*
X168500000Y-108000000D03*
G04 #@! TO.P,SW2,3*
G04 #@! TO.N,Net-(R2-Pad1)*
X162000000Y-112500000D03*
G04 #@! TO.P,SW2,4*
G04 #@! TO.N,Net-(SW2-Pad4)*
X168500000Y-112500000D03*
G04 #@! TD*
G04 #@! TO.P,SW3,1*
G04 #@! TO.N,Net-(SW3-Pad1)*
X162000000Y-116000000D03*
G04 #@! TO.P,SW3,2*
G04 #@! TO.N,Net-(R5-Pad2)*
X168500000Y-116000000D03*
G04 #@! TO.P,SW3,3*
G04 #@! TO.N,Net-(R2-Pad2)*
X162000000Y-120500000D03*
G04 #@! TO.P,SW3,4*
G04 #@! TO.N,Net-(SW3-Pad4)*
X168500000Y-120500000D03*
G04 #@! TD*
G04 #@! TO.P,SW4,1*
G04 #@! TO.N,Net-(SW4-Pad1)*
X162000000Y-124000000D03*
G04 #@! TO.P,SW4,2*
G04 #@! TO.N,Net-(R5-Pad2)*
X168500000Y-124000000D03*
G04 #@! TO.P,SW4,3*
G04 #@! TO.N,Net-(R3-Pad2)*
X162000000Y-128500000D03*
G04 #@! TO.P,SW4,4*
G04 #@! TO.N,Net-(SW4-Pad4)*
X168500000Y-128500000D03*
G04 #@! TD*
G04 #@! TO.P,SW5,1*
G04 #@! TO.N,Net-(SW5-Pad1)*
X162000000Y-132000000D03*
G04 #@! TO.P,SW5,2*
G04 #@! TO.N,Net-(R5-Pad2)*
X168500000Y-132000000D03*
G04 #@! TO.P,SW5,3*
G04 #@! TO.N,Net-(A1-Pad19)*
X162000000Y-136500000D03*
G04 #@! TO.P,SW5,4*
G04 #@! TO.N,Net-(SW5-Pad4)*
X168500000Y-136500000D03*
G04 #@! TD*
G04 #@! TO.P,SW6,1*
G04 #@! TO.N,Net-(SW6-Pad1)*
X172000000Y-108000000D03*
G04 #@! TO.P,SW6,2*
G04 #@! TO.N,Net-(R5-Pad1)*
X178500000Y-108000000D03*
G04 #@! TO.P,SW6,3*
G04 #@! TO.N,Net-(R2-Pad1)*
X172000000Y-112500000D03*
G04 #@! TO.P,SW6,4*
G04 #@! TO.N,Net-(SW6-Pad4)*
X178500000Y-112500000D03*
G04 #@! TD*
G04 #@! TO.P,SW7,1*
G04 #@! TO.N,Net-(SW7-Pad1)*
X172000000Y-116000000D03*
G04 #@! TO.P,SW7,2*
G04 #@! TO.N,Net-(R5-Pad1)*
X178500000Y-116000000D03*
G04 #@! TO.P,SW7,3*
G04 #@! TO.N,Net-(R2-Pad2)*
X172000000Y-120500000D03*
G04 #@! TO.P,SW7,4*
G04 #@! TO.N,Net-(SW7-Pad4)*
X178500000Y-120500000D03*
G04 #@! TD*
G04 #@! TO.P,SW8,1*
G04 #@! TO.N,Net-(SW8-Pad1)*
X172000000Y-124000000D03*
G04 #@! TO.P,SW8,2*
G04 #@! TO.N,Net-(R5-Pad1)*
X178500000Y-124000000D03*
G04 #@! TO.P,SW8,3*
G04 #@! TO.N,Net-(R3-Pad2)*
X172000000Y-128500000D03*
G04 #@! TO.P,SW8,4*
G04 #@! TO.N,Net-(SW8-Pad4)*
X178500000Y-128500000D03*
G04 #@! TD*
G04 #@! TO.P,SW9,1*
G04 #@! TO.N,Net-(SW9-Pad1)*
X172000000Y-132000000D03*
G04 #@! TO.P,SW9,2*
G04 #@! TO.N,Net-(R5-Pad1)*
X178500000Y-132000000D03*
G04 #@! TO.P,SW9,3*
G04 #@! TO.N,Net-(A1-Pad19)*
X172000000Y-136500000D03*
G04 #@! TO.P,SW9,4*
G04 #@! TO.N,Net-(SW9-Pad4)*
X178500000Y-136500000D03*
G04 #@! TD*
G04 #@! TO.P,SW10,1*
G04 #@! TO.N,+5V*
X182000000Y-92000000D03*
G04 #@! TO.P,SW10,2*
G04 #@! TO.N,Net-(SW10-Pad2)*
X188500000Y-92000000D03*
G04 #@! TO.P,SW10,3*
G04 #@! TO.N,Net-(R6-Pad2)*
X182000000Y-96500000D03*
G04 #@! TO.P,SW10,4*
G04 #@! TO.N,Net-(A1-Pad5)*
X188500000Y-96500000D03*
G04 #@! TD*
G04 #@! TO.P,SW11,1*
G04 #@! TO.N,Net-(SW11-Pad1)*
X182000000Y-108000000D03*
G04 #@! TO.P,SW11,2*
G04 #@! TO.N,GND*
X188500000Y-108000000D03*
G04 #@! TO.P,SW11,3*
G04 #@! TO.N,Net-(R2-Pad1)*
X182000000Y-112500000D03*
G04 #@! TO.P,SW11,4*
G04 #@! TO.N,Net-(SW11-Pad4)*
X188500000Y-112500000D03*
G04 #@! TD*
G04 #@! TO.P,SW12,1*
G04 #@! TO.N,Net-(SW12-Pad1)*
X182000000Y-116000000D03*
G04 #@! TO.P,SW12,2*
G04 #@! TO.N,GND*
X188500000Y-116000000D03*
G04 #@! TO.P,SW12,3*
G04 #@! TO.N,Net-(R2-Pad2)*
X182000000Y-120500000D03*
G04 #@! TO.P,SW12,4*
G04 #@! TO.N,Net-(SW12-Pad4)*
X188500000Y-120500000D03*
G04 #@! TD*
G04 #@! TO.P,SW13,1*
G04 #@! TO.N,Net-(SW13-Pad1)*
X182000000Y-124000000D03*
G04 #@! TO.P,SW13,2*
G04 #@! TO.N,GND*
X188500000Y-124000000D03*
G04 #@! TO.P,SW13,3*
G04 #@! TO.N,Net-(R3-Pad2)*
X182000000Y-128500000D03*
G04 #@! TO.P,SW13,4*
G04 #@! TO.N,Net-(SW13-Pad4)*
X188500000Y-128500000D03*
G04 #@! TD*
G04 #@! TO.P,SW14,1*
G04 #@! TO.N,Net-(SW14-Pad1)*
X182000000Y-132000000D03*
G04 #@! TO.P,SW14,2*
G04 #@! TO.N,GND*
X188500000Y-132000000D03*
G04 #@! TO.P,SW14,3*
G04 #@! TO.N,Net-(A1-Pad19)*
X182000000Y-136500000D03*
G04 #@! TO.P,SW14,4*
G04 #@! TO.N,Net-(SW14-Pad4)*
X188500000Y-136500000D03*
G04 #@! TD*
D10*
G04 #@! TO.P,TFT1,16*
G04 #@! TO.N,GND*
X147000000Y-84320000D03*
G04 #@! TO.P,TFT1,15*
G04 #@! TO.N,Net-(A1-Pad17)*
X147000000Y-81780000D03*
G04 #@! TO.P,TFT1,14*
G04 #@! TO.N,Net-(TFT1-Pad14)*
X147000000Y-79240000D03*
G04 #@! TO.P,TFT1,13*
G04 #@! TO.N,Net-(TFT1-Pad13)*
X147000000Y-76700000D03*
G04 #@! TO.P,TFT1,12*
G04 #@! TO.N,Net-(TFT1-Pad12)*
X147000000Y-74160000D03*
G04 #@! TO.P,TFT1,11*
G04 #@! TO.N,Net-(A1-Pad12)*
X147000000Y-71620000D03*
G04 #@! TO.P,TFT1,10*
G04 #@! TO.N,Net-(A1-Pad11)*
X147000000Y-69080000D03*
G04 #@! TO.P,TFT1,9*
G04 #@! TO.N,MOSI*
X147000000Y-66540000D03*
G04 #@! TO.P,TFT1,8*
G04 #@! TO.N,SCK*
X147000000Y-64000000D03*
G04 #@! TO.P,TFT1,7*
G04 #@! TO.N,Net-(A1-Pad13)*
X147000000Y-61460000D03*
G04 #@! TO.P,TFT1,6*
G04 #@! TO.N,Net-(TFT1-Pad6)*
X147000000Y-58920000D03*
G04 #@! TO.P,TFT1,5*
G04 #@! TO.N,Net-(TFT1-Pad5)*
X147000000Y-56380000D03*
G04 #@! TO.P,TFT1,4*
G04 #@! TO.N,Net-(TFT1-Pad4)*
X147000000Y-53840000D03*
G04 #@! TO.P,TFT1,3*
G04 #@! TO.N,Net-(TFT1-Pad3)*
X147000000Y-51300000D03*
G04 #@! TO.P,TFT1,2*
G04 #@! TO.N,Net-(R9-Pad1)*
X147000000Y-48760000D03*
G04 #@! TO.P,TFT1,1*
G04 #@! TO.N,GND*
X147000000Y-46220000D03*
G04 #@! TD*
D16*
G04 #@! TO.P,U1,8*
G04 #@! TO.N,Net-(U1-Pad8)*
X133120000Y-67960000D03*
G04 #@! TO.P,U1,7*
G04 #@! TO.N,MISO*
X133120000Y-70500000D03*
G04 #@! TO.P,U1,6*
G04 #@! TO.N,MOSI*
X130580000Y-67960000D03*
G04 #@! TO.P,U1,5*
G04 #@! TO.N,SCK*
X130580000Y-70500000D03*
G04 #@! TO.P,U1,4*
G04 #@! TO.N,Net-(A1-Pad9)*
X128040000Y-67960000D03*
G04 #@! TO.P,U1,3*
G04 #@! TO.N,Net-(A1-Pad10)*
X128040000Y-70500000D03*
G04 #@! TO.P,U1,2*
G04 #@! TO.N,Net-(A1-Pad17)*
X125500000Y-67960000D03*
D17*
G04 #@! TO.P,U1,1*
G04 #@! TO.N,GND*
X125500000Y-70500000D03*
G04 #@! TD*
D18*
G04 #@! TO.N,Net-(A1-Pad17)*
X128500000Y-74500000D03*
X160500000Y-95225000D03*
G04 #@! TO.N,Net-(A1-Pad20)*
X109746402Y-98500000D03*
G04 #@! TO.N,Net-(A1-Pad5)*
X150000000Y-93500000D03*
X144500000Y-93500000D03*
X139725000Y-106500000D03*
G04 #@! TO.N,Net-(A1-Pad6)*
X150000000Y-94500000D03*
X144500000Y-94500000D03*
X139725000Y-109000000D03*
G04 #@! TO.N,Net-(A1-Pad7)*
X135000000Y-115500000D03*
G04 #@! TO.N,SDA*
X138000000Y-86515000D03*
G04 #@! TO.N,Net-(A1-Pad8)*
X142000000Y-63275000D03*
X142000000Y-67500000D03*
X142000000Y-94000000D03*
X142000000Y-97000000D03*
X142000000Y-105500000D03*
G04 #@! TO.N,SCL*
X136500000Y-86515000D03*
G04 #@! TO.N,Net-(A1-Pad10)*
X123000000Y-84500000D03*
G04 #@! TO.N,Net-(A1-Pad27)*
X127500000Y-107500000D03*
G04 #@! TO.N,GND*
X147000000Y-99000000D03*
X139500000Y-125500000D03*
G04 #@! TD*
D19*
G04 #@! TO.N,Net-(A1-Pad17)*
X139720000Y-74500000D02*
X147000000Y-81780000D01*
X128500000Y-74500000D02*
X139720000Y-74500000D01*
X148209152Y-81780000D02*
X147000000Y-81780000D01*
X153519002Y-81780000D02*
X148209152Y-81780000D01*
X163175001Y-92549999D02*
X163175001Y-91435999D01*
X163175001Y-91435999D02*
X153519002Y-81780000D01*
X160500000Y-95225000D02*
X163175001Y-92549999D01*
G04 #@! TO.N,Net-(A1-Pad20)*
X132021401Y-120774999D02*
X109746402Y-98500000D01*
X152740000Y-121900000D02*
X151614999Y-120774999D01*
X151614999Y-120774999D02*
X132021401Y-120774999D01*
G04 #@! TO.N,Net-(A1-Pad5)*
X150000000Y-93500000D02*
X149434315Y-93500000D01*
X149434315Y-93500000D02*
X144500000Y-93500000D01*
X137660000Y-106500000D02*
X137500000Y-106660000D01*
X139725000Y-106500000D02*
X137660000Y-106500000D01*
G04 #@! TO.N,Net-(A1-Pad6)*
X150000000Y-94500000D02*
X144500000Y-94500000D01*
X137700000Y-109000000D02*
X137500000Y-109200000D01*
X139725000Y-109000000D02*
X137700000Y-109000000D01*
G04 #@! TO.N,Net-(A1-Pad7)*
X135000000Y-114240000D02*
X137500000Y-111740000D01*
X135000000Y-115500000D02*
X135000000Y-114240000D01*
G04 #@! TO.N,SDA*
X154600272Y-112419728D02*
X153539999Y-113480001D01*
X154600272Y-101775270D02*
X154600272Y-112419728D01*
X153280001Y-100454999D02*
X154600272Y-101775270D01*
X147381997Y-100454999D02*
X153280001Y-100454999D01*
X143774999Y-96848001D02*
X147381997Y-100454999D01*
X143774999Y-92289999D02*
X143774999Y-96848001D01*
X153539999Y-113480001D02*
X152740000Y-114280000D01*
X138000000Y-86515000D02*
X143774999Y-92289999D01*
G04 #@! TO.N,Net-(A1-Pad8)*
X142000000Y-63275000D02*
X142000000Y-67500000D01*
X142000000Y-94000000D02*
X142000000Y-97000000D01*
X142000000Y-109780000D02*
X137500000Y-114280000D01*
X142000000Y-105500000D02*
X142000000Y-109780000D01*
G04 #@! TO.N,SCL*
X154150262Y-110329738D02*
X154150262Y-103865260D01*
X154150262Y-103865260D02*
X153280001Y-102994999D01*
X153280001Y-102994999D02*
X146921997Y-102994999D01*
X152740000Y-111740000D02*
X154150262Y-110329738D01*
X146921997Y-102994999D02*
X136500000Y-92573002D01*
X136500000Y-92573002D02*
X136500000Y-86515000D01*
G04 #@! TO.N,Net-(A1-Pad10)*
X137500000Y-119360000D02*
X123000000Y-104860000D01*
X123000000Y-104860000D02*
X123000000Y-84500000D01*
G04 #@! TO.N,Net-(A1-Pad27)*
X151608630Y-104120000D02*
X152740000Y-104120000D01*
X142306998Y-104120000D02*
X151608630Y-104120000D01*
X140926998Y-105500000D02*
X142306998Y-104120000D01*
X137000000Y-105500000D02*
X140926998Y-105500000D01*
X134425001Y-108074999D02*
X137000000Y-105500000D01*
X128074999Y-108074999D02*
X134425001Y-108074999D01*
X127500000Y-107500000D02*
X128074999Y-108074999D01*
G04 #@! TO.N,GND*
X126512000Y-70500000D02*
X125500000Y-70500000D01*
X126587001Y-70424999D02*
X126512000Y-70500000D01*
X126587001Y-66632999D02*
X126587001Y-70424999D01*
X147000000Y-46220000D02*
X126587001Y-66632999D01*
X125500000Y-74920000D02*
X125500000Y-70500000D01*
X133830000Y-83250000D02*
X125500000Y-74920000D01*
X134900000Y-84320000D02*
X133830000Y-83250000D01*
X147000000Y-84320000D02*
X134900000Y-84320000D01*
X132620848Y-83250000D02*
X133830000Y-83250000D01*
X115525000Y-83250000D02*
X132620848Y-83250000D01*
X99790000Y-98985000D02*
X115525000Y-83250000D01*
X99790000Y-100090000D02*
X99790000Y-98985000D01*
X152700000Y-99000000D02*
X152740000Y-99040000D01*
X147000000Y-99000000D02*
X152700000Y-99000000D01*
X130354999Y-124854999D02*
X129500000Y-124000000D01*
X131065001Y-125565001D02*
X130354999Y-124854999D01*
X138040001Y-125565001D02*
X131065001Y-125565001D01*
X138105002Y-125500000D02*
X138040001Y-125565001D01*
X139500000Y-125500000D02*
X138105002Y-125500000D01*
G04 #@! TO.N,+5V*
X157240000Y-92000000D02*
X152740000Y-96500000D01*
X162000000Y-92000000D02*
X157240000Y-92000000D01*
X128550000Y-105000000D02*
X127500000Y-105000000D01*
X133830000Y-99720000D02*
X128550000Y-105000000D01*
X133830000Y-85790000D02*
X133830000Y-99720000D01*
X135039152Y-85790000D02*
X133830000Y-85790000D01*
X143363002Y-85790000D02*
X135039152Y-85790000D01*
X152740000Y-95166998D02*
X143363002Y-85790000D01*
X152740000Y-96500000D02*
X152740000Y-95166998D01*
G04 #@! TO.N,Net-(R2-Pad2)*
X182000000Y-120500000D02*
X180500000Y-119000000D01*
X173500000Y-119000000D02*
X172000000Y-120500000D01*
X180500000Y-119000000D02*
X173500000Y-119000000D01*
X172000000Y-120500000D02*
X170500000Y-119000000D01*
X163500000Y-119000000D02*
X162000000Y-120500000D01*
X170500000Y-119000000D02*
X163500000Y-119000000D01*
G04 #@! TO.N,Net-(R2-Pad1)*
X182000000Y-112500000D02*
X180500000Y-111000000D01*
X173500000Y-111000000D02*
X172000000Y-112500000D01*
X180500000Y-111000000D02*
X173500000Y-111000000D01*
X172000000Y-112500000D02*
X170500000Y-111000000D01*
X163500000Y-111000000D02*
X162000000Y-112500000D01*
X170500000Y-111000000D02*
X163500000Y-111000000D01*
G04 #@! TO.N,Net-(R3-Pad2)*
X162000000Y-128500000D02*
X163500000Y-127000000D01*
X170500000Y-127000000D02*
X172000000Y-128500000D01*
X163500000Y-127000000D02*
X170500000Y-127000000D01*
X172000000Y-128500000D02*
X173500000Y-127000000D01*
X180500000Y-127000000D02*
X182000000Y-128500000D01*
X173500000Y-127000000D02*
X180500000Y-127000000D01*
G04 #@! TD*
D20*
G04 #@! TO.N,+5V*
G36*
X195519918Y-40800594D02*
X196011944Y-40979191D01*
X196449692Y-41266192D01*
X196809668Y-41646190D01*
X197072576Y-42098821D01*
X197227220Y-42609416D01*
X197265001Y-43032743D01*
X197265000Y-136957298D01*
X197199405Y-137519918D01*
X197020809Y-138011944D01*
X196733810Y-138449689D01*
X196353807Y-138809670D01*
X195901180Y-139072576D01*
X195390584Y-139227220D01*
X194967269Y-139265000D01*
X89042702Y-139265000D01*
X88480082Y-139199405D01*
X87988056Y-139020809D01*
X87550311Y-138733810D01*
X87190330Y-138353807D01*
X86927424Y-137901180D01*
X86842264Y-137620000D01*
X156536887Y-137620000D01*
X156648260Y-138179909D01*
X156965423Y-138654577D01*
X157440091Y-138971740D01*
X157858667Y-139055000D01*
X158141333Y-139055000D01*
X158559909Y-138971740D01*
X159034577Y-138654577D01*
X159351740Y-138179909D01*
X159463113Y-137620000D01*
X159351740Y-137060091D01*
X159034577Y-136585423D01*
X158559909Y-136268260D01*
X158239945Y-136204615D01*
X160515000Y-136204615D01*
X160515000Y-136795385D01*
X160741078Y-137341185D01*
X161158815Y-137758922D01*
X161704615Y-137985000D01*
X162295385Y-137985000D01*
X162841185Y-137758922D01*
X163258922Y-137341185D01*
X163485000Y-136795385D01*
X163485000Y-136204615D01*
X167015000Y-136204615D01*
X167015000Y-136795385D01*
X167241078Y-137341185D01*
X167658815Y-137758922D01*
X168204615Y-137985000D01*
X168795385Y-137985000D01*
X169341185Y-137758922D01*
X169758922Y-137341185D01*
X169985000Y-136795385D01*
X169985000Y-136204615D01*
X170515000Y-136204615D01*
X170515000Y-136795385D01*
X170741078Y-137341185D01*
X171158815Y-137758922D01*
X171704615Y-137985000D01*
X172295385Y-137985000D01*
X172841185Y-137758922D01*
X173258922Y-137341185D01*
X173485000Y-136795385D01*
X173485000Y-136204615D01*
X177015000Y-136204615D01*
X177015000Y-136795385D01*
X177241078Y-137341185D01*
X177658815Y-137758922D01*
X178204615Y-137985000D01*
X178795385Y-137985000D01*
X179341185Y-137758922D01*
X179758922Y-137341185D01*
X179985000Y-136795385D01*
X179985000Y-136204615D01*
X180515000Y-136204615D01*
X180515000Y-136795385D01*
X180741078Y-137341185D01*
X181158815Y-137758922D01*
X181704615Y-137985000D01*
X182295385Y-137985000D01*
X182841185Y-137758922D01*
X183258922Y-137341185D01*
X183485000Y-136795385D01*
X183485000Y-136204615D01*
X187015000Y-136204615D01*
X187015000Y-136795385D01*
X187241078Y-137341185D01*
X187658815Y-137758922D01*
X188204615Y-137985000D01*
X188795385Y-137985000D01*
X189341185Y-137758922D01*
X189758922Y-137341185D01*
X189985000Y-136795385D01*
X189985000Y-136620000D01*
X191536887Y-136620000D01*
X191648260Y-137179909D01*
X191965423Y-137654577D01*
X192440091Y-137971740D01*
X192858667Y-138055000D01*
X193141333Y-138055000D01*
X193559909Y-137971740D01*
X194034577Y-137654577D01*
X194351740Y-137179909D01*
X194463113Y-136620000D01*
X194351740Y-136060091D01*
X194034577Y-135585423D01*
X193559909Y-135268260D01*
X193141333Y-135185000D01*
X192858667Y-135185000D01*
X192440091Y-135268260D01*
X191965423Y-135585423D01*
X191648260Y-136060091D01*
X191536887Y-136620000D01*
X189985000Y-136620000D01*
X189985000Y-136204615D01*
X189758922Y-135658815D01*
X189341185Y-135241078D01*
X188795385Y-135015000D01*
X188204615Y-135015000D01*
X187658815Y-135241078D01*
X187241078Y-135658815D01*
X187015000Y-136204615D01*
X183485000Y-136204615D01*
X183258922Y-135658815D01*
X182841185Y-135241078D01*
X182295385Y-135015000D01*
X181704615Y-135015000D01*
X181158815Y-135241078D01*
X180741078Y-135658815D01*
X180515000Y-136204615D01*
X179985000Y-136204615D01*
X179758922Y-135658815D01*
X179341185Y-135241078D01*
X178795385Y-135015000D01*
X178204615Y-135015000D01*
X177658815Y-135241078D01*
X177241078Y-135658815D01*
X177015000Y-136204615D01*
X173485000Y-136204615D01*
X173258922Y-135658815D01*
X172841185Y-135241078D01*
X172295385Y-135015000D01*
X171704615Y-135015000D01*
X171158815Y-135241078D01*
X170741078Y-135658815D01*
X170515000Y-136204615D01*
X169985000Y-136204615D01*
X169758922Y-135658815D01*
X169341185Y-135241078D01*
X168795385Y-135015000D01*
X168204615Y-135015000D01*
X167658815Y-135241078D01*
X167241078Y-135658815D01*
X167015000Y-136204615D01*
X163485000Y-136204615D01*
X163258922Y-135658815D01*
X162841185Y-135241078D01*
X162295385Y-135015000D01*
X161704615Y-135015000D01*
X161158815Y-135241078D01*
X160741078Y-135658815D01*
X160515000Y-136204615D01*
X158239945Y-136204615D01*
X158141333Y-136185000D01*
X157858667Y-136185000D01*
X157440091Y-136268260D01*
X156965423Y-136585423D01*
X156648260Y-137060091D01*
X156536887Y-137620000D01*
X86842264Y-137620000D01*
X86772780Y-137390584D01*
X86735000Y-136967269D01*
X86735000Y-123703621D01*
X112010000Y-123703621D01*
X112010000Y-124296379D01*
X112236839Y-124844017D01*
X112655983Y-125263161D01*
X113203621Y-125490000D01*
X113796379Y-125490000D01*
X114344017Y-125263161D01*
X114763161Y-124844017D01*
X114990000Y-124296379D01*
X114990000Y-123703621D01*
X114763161Y-123155983D01*
X114344017Y-122736839D01*
X113796379Y-122510000D01*
X113203621Y-122510000D01*
X112655983Y-122736839D01*
X112236839Y-123155983D01*
X112010000Y-123703621D01*
X86735000Y-123703621D01*
X86735000Y-99235000D01*
X88127560Y-99235000D01*
X88127560Y-100945000D01*
X88176843Y-101192765D01*
X88317191Y-101402809D01*
X88527235Y-101543157D01*
X88775000Y-101592440D01*
X90485000Y-101592440D01*
X90732765Y-101543157D01*
X90900000Y-101431413D01*
X91067235Y-101543157D01*
X91315000Y-101592440D01*
X93025000Y-101592440D01*
X93272765Y-101543157D01*
X93440000Y-101431413D01*
X93607235Y-101543157D01*
X93855000Y-101592440D01*
X95565000Y-101592440D01*
X95812765Y-101543157D01*
X95980000Y-101431413D01*
X96147235Y-101543157D01*
X96395000Y-101592440D01*
X98105000Y-101592440D01*
X98352765Y-101543157D01*
X98520000Y-101431413D01*
X98687235Y-101543157D01*
X98935000Y-101592440D01*
X100645000Y-101592440D01*
X100892765Y-101543157D01*
X101060000Y-101431413D01*
X101227235Y-101543157D01*
X101475000Y-101592440D01*
X103185000Y-101592440D01*
X103432765Y-101543157D01*
X103642809Y-101402809D01*
X103783157Y-101192765D01*
X103832440Y-100945000D01*
X103832440Y-99235000D01*
X103783157Y-98987235D01*
X103642809Y-98777191D01*
X103432765Y-98636843D01*
X103185000Y-98587560D01*
X101475000Y-98587560D01*
X101227235Y-98636843D01*
X101184209Y-98665593D01*
X115839803Y-84010000D01*
X122082689Y-84010000D01*
X121965000Y-84294126D01*
X121965000Y-84705874D01*
X122122569Y-85086280D01*
X122240001Y-85203712D01*
X122240000Y-104785153D01*
X122225112Y-104860000D01*
X122240000Y-104934847D01*
X122240000Y-104934851D01*
X122284096Y-105156536D01*
X122452071Y-105407929D01*
X122515530Y-105450331D01*
X136101312Y-119036114D01*
X136036887Y-119360000D01*
X136148260Y-119919909D01*
X136211797Y-120014999D01*
X132336203Y-120014999D01*
X117321204Y-105000000D01*
X118416887Y-105000000D01*
X118528260Y-105559909D01*
X118845423Y-106034577D01*
X119320091Y-106351740D01*
X119738667Y-106435000D01*
X120021333Y-106435000D01*
X120439909Y-106351740D01*
X120914577Y-106034577D01*
X121231740Y-105559909D01*
X121343113Y-105000000D01*
X121231740Y-104440091D01*
X120914577Y-103965423D01*
X120439909Y-103648260D01*
X120021333Y-103565000D01*
X119738667Y-103565000D01*
X119320091Y-103648260D01*
X118845423Y-103965423D01*
X118528260Y-104440091D01*
X118416887Y-105000000D01*
X117321204Y-105000000D01*
X110781402Y-98460199D01*
X110781402Y-98294126D01*
X110623833Y-97913720D01*
X110332682Y-97622569D01*
X109952276Y-97465000D01*
X109540528Y-97465000D01*
X109160122Y-97622569D01*
X108868971Y-97913720D01*
X108711402Y-98294126D01*
X108711402Y-98705874D01*
X108868971Y-99086280D01*
X109160122Y-99377431D01*
X109540528Y-99535000D01*
X109706601Y-99535000D01*
X113834497Y-103662896D01*
X113655983Y-103736839D01*
X113236839Y-104155983D01*
X113230000Y-104172494D01*
X113223161Y-104155983D01*
X112804017Y-103736839D01*
X112256379Y-103510000D01*
X111663621Y-103510000D01*
X111115983Y-103736839D01*
X110696839Y-104155983D01*
X110470000Y-104703621D01*
X110470000Y-105296379D01*
X110696839Y-105844017D01*
X111115983Y-106263161D01*
X111663621Y-106490000D01*
X112256379Y-106490000D01*
X112804017Y-106263161D01*
X113223161Y-105844017D01*
X113230000Y-105827506D01*
X113236839Y-105844017D01*
X113655983Y-106263161D01*
X114203621Y-106490000D01*
X114796379Y-106490000D01*
X115344017Y-106263161D01*
X115763161Y-105844017D01*
X115837104Y-105665503D01*
X131431071Y-121259471D01*
X131473472Y-121322928D01*
X131536928Y-121365328D01*
X131724863Y-121490903D01*
X131773006Y-121500479D01*
X131946549Y-121534999D01*
X131946553Y-121534999D01*
X132021401Y-121549887D01*
X132096249Y-121534999D01*
X136109490Y-121534999D01*
X136036887Y-121900000D01*
X136148260Y-122459909D01*
X136465423Y-122934577D01*
X136817758Y-123170000D01*
X136465423Y-123405423D01*
X136148260Y-123880091D01*
X136036887Y-124440000D01*
X136109490Y-124805001D01*
X131379803Y-124805001D01*
X130955199Y-124380397D01*
X130990000Y-124296379D01*
X130990000Y-123703621D01*
X130763161Y-123155983D01*
X130344017Y-122736839D01*
X129796379Y-122510000D01*
X129203621Y-122510000D01*
X128655983Y-122736839D01*
X128236839Y-123155983D01*
X128010000Y-123703621D01*
X128010000Y-124296379D01*
X128236839Y-124844017D01*
X128655983Y-125263161D01*
X129203621Y-125490000D01*
X129796379Y-125490000D01*
X129880397Y-125455199D01*
X130474673Y-126049476D01*
X130517072Y-126112930D01*
X130580525Y-126155328D01*
X130580527Y-126155330D01*
X130624932Y-126185000D01*
X130768464Y-126280905D01*
X130990149Y-126325001D01*
X130990153Y-126325001D01*
X131065000Y-126339889D01*
X131139847Y-126325001D01*
X136211797Y-126325001D01*
X136148260Y-126420091D01*
X136036887Y-126980000D01*
X136148260Y-127539909D01*
X136465423Y-128014577D01*
X136817758Y-128250000D01*
X136465423Y-128485423D01*
X136148260Y-128960091D01*
X136036887Y-129520000D01*
X136148260Y-130079909D01*
X136465423Y-130554577D01*
X136817758Y-130790000D01*
X136465423Y-131025423D01*
X136148260Y-131500091D01*
X136036887Y-132060000D01*
X136148260Y-132619909D01*
X136465423Y-133094577D01*
X136940091Y-133411740D01*
X137358667Y-133495000D01*
X137641333Y-133495000D01*
X138059909Y-133411740D01*
X138534577Y-133094577D01*
X138851740Y-132619909D01*
X138963113Y-132060000D01*
X138851740Y-131500091D01*
X138534577Y-131025423D01*
X138182242Y-130790000D01*
X138534577Y-130554577D01*
X138851740Y-130079909D01*
X138963113Y-129520000D01*
X138851740Y-128960091D01*
X138534577Y-128485423D01*
X138182242Y-128250000D01*
X138534577Y-128014577D01*
X138851740Y-127539909D01*
X138963113Y-126980000D01*
X138851740Y-126420091D01*
X138744771Y-126260000D01*
X138796289Y-126260000D01*
X138913720Y-126377431D01*
X139294126Y-126535000D01*
X139705874Y-126535000D01*
X140086280Y-126377431D01*
X140377431Y-126086280D01*
X140535000Y-125705874D01*
X140535000Y-125294126D01*
X140377431Y-124913720D01*
X140086280Y-124622569D01*
X139705874Y-124465000D01*
X139294126Y-124465000D01*
X138927972Y-124616666D01*
X138963113Y-124440000D01*
X138851740Y-123880091D01*
X138534577Y-123405423D01*
X138182242Y-123170000D01*
X138534577Y-122934577D01*
X138851740Y-122459909D01*
X138963113Y-121900000D01*
X138890510Y-121534999D01*
X151300198Y-121534999D01*
X151341312Y-121576113D01*
X151276887Y-121900000D01*
X151388260Y-122459909D01*
X151705423Y-122934577D01*
X152057758Y-123170000D01*
X151705423Y-123405423D01*
X151388260Y-123880091D01*
X151276887Y-124440000D01*
X151388260Y-124999909D01*
X151705423Y-125474577D01*
X152057758Y-125710000D01*
X151705423Y-125945423D01*
X151388260Y-126420091D01*
X151276887Y-126980000D01*
X151388260Y-127539909D01*
X151705423Y-128014577D01*
X152057758Y-128250000D01*
X151705423Y-128485423D01*
X151388260Y-128960091D01*
X151276887Y-129520000D01*
X151388260Y-130079909D01*
X151705423Y-130554577D01*
X152057758Y-130790000D01*
X151705423Y-131025423D01*
X151388260Y-131500091D01*
X151276887Y-132060000D01*
X151388260Y-132619909D01*
X151705423Y-133094577D01*
X152180091Y-133411740D01*
X152598667Y-133495000D01*
X152881333Y-133495000D01*
X153299909Y-133411740D01*
X153774577Y-133094577D01*
X154091740Y-132619909D01*
X154203113Y-132060000D01*
X154132423Y-131704615D01*
X160515000Y-131704615D01*
X160515000Y-132295385D01*
X160741078Y-132841185D01*
X161158815Y-133258922D01*
X161704615Y-133485000D01*
X162295385Y-133485000D01*
X162841185Y-133258922D01*
X163258922Y-132841185D01*
X163485000Y-132295385D01*
X163485000Y-131704615D01*
X167015000Y-131704615D01*
X167015000Y-132295385D01*
X167241078Y-132841185D01*
X167658815Y-133258922D01*
X168204615Y-133485000D01*
X168795385Y-133485000D01*
X169341185Y-133258922D01*
X169758922Y-132841185D01*
X169985000Y-132295385D01*
X169985000Y-131704615D01*
X170515000Y-131704615D01*
X170515000Y-132295385D01*
X170741078Y-132841185D01*
X171158815Y-133258922D01*
X171704615Y-133485000D01*
X172295385Y-133485000D01*
X172841185Y-133258922D01*
X173258922Y-132841185D01*
X173485000Y-132295385D01*
X173485000Y-131704615D01*
X177015000Y-131704615D01*
X177015000Y-132295385D01*
X177241078Y-132841185D01*
X177658815Y-133258922D01*
X178204615Y-133485000D01*
X178795385Y-133485000D01*
X179341185Y-133258922D01*
X179758922Y-132841185D01*
X179985000Y-132295385D01*
X179985000Y-131704615D01*
X180515000Y-131704615D01*
X180515000Y-132295385D01*
X180741078Y-132841185D01*
X181158815Y-133258922D01*
X181704615Y-133485000D01*
X182295385Y-133485000D01*
X182841185Y-133258922D01*
X183258922Y-132841185D01*
X183485000Y-132295385D01*
X183485000Y-131704615D01*
X187015000Y-131704615D01*
X187015000Y-132295385D01*
X187241078Y-132841185D01*
X187658815Y-133258922D01*
X188204615Y-133485000D01*
X188795385Y-133485000D01*
X189341185Y-133258922D01*
X189758922Y-132841185D01*
X189985000Y-132295385D01*
X189985000Y-131704615D01*
X189758922Y-131158815D01*
X189341185Y-130741078D01*
X188795385Y-130515000D01*
X188204615Y-130515000D01*
X187658815Y-130741078D01*
X187241078Y-131158815D01*
X187015000Y-131704615D01*
X183485000Y-131704615D01*
X183258922Y-131158815D01*
X182841185Y-130741078D01*
X182295385Y-130515000D01*
X181704615Y-130515000D01*
X181158815Y-130741078D01*
X180741078Y-131158815D01*
X180515000Y-131704615D01*
X179985000Y-131704615D01*
X179758922Y-131158815D01*
X179341185Y-130741078D01*
X178795385Y-130515000D01*
X178204615Y-130515000D01*
X177658815Y-130741078D01*
X177241078Y-131158815D01*
X177015000Y-131704615D01*
X173485000Y-131704615D01*
X173258922Y-131158815D01*
X172841185Y-130741078D01*
X172295385Y-130515000D01*
X171704615Y-130515000D01*
X171158815Y-130741078D01*
X170741078Y-131158815D01*
X170515000Y-131704615D01*
X169985000Y-131704615D01*
X169758922Y-131158815D01*
X169341185Y-130741078D01*
X168795385Y-130515000D01*
X168204615Y-130515000D01*
X167658815Y-130741078D01*
X167241078Y-131158815D01*
X167015000Y-131704615D01*
X163485000Y-131704615D01*
X163258922Y-131158815D01*
X162841185Y-130741078D01*
X162295385Y-130515000D01*
X161704615Y-130515000D01*
X161158815Y-130741078D01*
X160741078Y-131158815D01*
X160515000Y-131704615D01*
X154132423Y-131704615D01*
X154091740Y-131500091D01*
X153774577Y-131025423D01*
X153422242Y-130790000D01*
X153774577Y-130554577D01*
X154091740Y-130079909D01*
X154203113Y-129520000D01*
X154091740Y-128960091D01*
X153774577Y-128485423D01*
X153422242Y-128250000D01*
X153774577Y-128014577D01*
X154038224Y-127620000D01*
X156536887Y-127620000D01*
X156648260Y-128179909D01*
X156965423Y-128654577D01*
X157175595Y-128795009D01*
X156783466Y-129187138D01*
X156565000Y-129714561D01*
X156565000Y-130285439D01*
X156783466Y-130812862D01*
X157187138Y-131216534D01*
X157714561Y-131435000D01*
X158285439Y-131435000D01*
X158812862Y-131216534D01*
X159216534Y-130812862D01*
X159435000Y-130285439D01*
X159435000Y-130007745D01*
X192171861Y-130007745D01*
X192245995Y-130253864D01*
X192783223Y-130446965D01*
X193353454Y-130419778D01*
X193754005Y-130253864D01*
X193828139Y-130007745D01*
X193000000Y-129179605D01*
X192171861Y-130007745D01*
X159435000Y-130007745D01*
X159435000Y-129714561D01*
X159216534Y-129187138D01*
X158824405Y-128795009D01*
X159034577Y-128654577D01*
X159335231Y-128204615D01*
X160515000Y-128204615D01*
X160515000Y-128795385D01*
X160741078Y-129341185D01*
X161158815Y-129758922D01*
X161704615Y-129985000D01*
X162295385Y-129985000D01*
X162841185Y-129758922D01*
X163258922Y-129341185D01*
X163485000Y-128795385D01*
X163485000Y-128204615D01*
X163451372Y-128123430D01*
X163814803Y-127760000D01*
X167199166Y-127760000D01*
X167015000Y-128204615D01*
X167015000Y-128795385D01*
X167241078Y-129341185D01*
X167658815Y-129758922D01*
X168204615Y-129985000D01*
X168795385Y-129985000D01*
X169341185Y-129758922D01*
X169758922Y-129341185D01*
X169985000Y-128795385D01*
X169985000Y-128204615D01*
X169800834Y-127760000D01*
X170185199Y-127760000D01*
X170548628Y-128123430D01*
X170515000Y-128204615D01*
X170515000Y-128795385D01*
X170741078Y-129341185D01*
X171158815Y-129758922D01*
X171704615Y-129985000D01*
X172295385Y-129985000D01*
X172841185Y-129758922D01*
X173258922Y-129341185D01*
X173485000Y-128795385D01*
X173485000Y-128204615D01*
X173451372Y-128123430D01*
X173814803Y-127760000D01*
X177199166Y-127760000D01*
X177015000Y-128204615D01*
X177015000Y-128795385D01*
X177241078Y-129341185D01*
X177658815Y-129758922D01*
X178204615Y-129985000D01*
X178795385Y-129985000D01*
X179341185Y-129758922D01*
X179758922Y-129341185D01*
X179985000Y-128795385D01*
X179985000Y-128204615D01*
X179800834Y-127760000D01*
X180185199Y-127760000D01*
X180548628Y-128123430D01*
X180515000Y-128204615D01*
X180515000Y-128795385D01*
X180741078Y-129341185D01*
X181158815Y-129758922D01*
X181704615Y-129985000D01*
X182295385Y-129985000D01*
X182841185Y-129758922D01*
X183258922Y-129341185D01*
X183485000Y-128795385D01*
X183485000Y-128204615D01*
X187015000Y-128204615D01*
X187015000Y-128795385D01*
X187241078Y-129341185D01*
X187658815Y-129758922D01*
X188204615Y-129985000D01*
X188795385Y-129985000D01*
X189341185Y-129758922D01*
X189758922Y-129341185D01*
X189985000Y-128795385D01*
X189985000Y-128783223D01*
X191553035Y-128783223D01*
X191580222Y-129353454D01*
X191746136Y-129754005D01*
X191992255Y-129828139D01*
X192820395Y-129000000D01*
X193179605Y-129000000D01*
X194007745Y-129828139D01*
X194253864Y-129754005D01*
X194446965Y-129216777D01*
X194419778Y-128646546D01*
X194253864Y-128245995D01*
X194007745Y-128171861D01*
X193179605Y-129000000D01*
X192820395Y-129000000D01*
X191992255Y-128171861D01*
X191746136Y-128245995D01*
X191553035Y-128783223D01*
X189985000Y-128783223D01*
X189985000Y-128204615D01*
X189897038Y-127992255D01*
X192171861Y-127992255D01*
X193000000Y-128820395D01*
X193828139Y-127992255D01*
X193754005Y-127746136D01*
X193216777Y-127553035D01*
X192646546Y-127580222D01*
X192245995Y-127746136D01*
X192171861Y-127992255D01*
X189897038Y-127992255D01*
X189758922Y-127658815D01*
X189341185Y-127241078D01*
X188795385Y-127015000D01*
X188204615Y-127015000D01*
X187658815Y-127241078D01*
X187241078Y-127658815D01*
X187015000Y-128204615D01*
X183485000Y-128204615D01*
X183258922Y-127658815D01*
X182841185Y-127241078D01*
X182295385Y-127015000D01*
X181704615Y-127015000D01*
X181623430Y-127048628D01*
X181090331Y-126515530D01*
X181047929Y-126452071D01*
X180796537Y-126284096D01*
X180574852Y-126240000D01*
X180574847Y-126240000D01*
X180500000Y-126225112D01*
X180425153Y-126240000D01*
X173574846Y-126240000D01*
X173499999Y-126225112D01*
X173425152Y-126240000D01*
X173425148Y-126240000D01*
X173203463Y-126284096D01*
X173203461Y-126284097D01*
X173203462Y-126284097D01*
X173015526Y-126409671D01*
X173015524Y-126409673D01*
X172952071Y-126452071D01*
X172909673Y-126515524D01*
X172376570Y-127048628D01*
X172295385Y-127015000D01*
X171704615Y-127015000D01*
X171623430Y-127048628D01*
X171090331Y-126515530D01*
X171047929Y-126452071D01*
X170796537Y-126284096D01*
X170574852Y-126240000D01*
X170574847Y-126240000D01*
X170500000Y-126225112D01*
X170425153Y-126240000D01*
X163574846Y-126240000D01*
X163499999Y-126225112D01*
X163425152Y-126240000D01*
X163425148Y-126240000D01*
X163203463Y-126284096D01*
X163203461Y-126284097D01*
X163203462Y-126284097D01*
X163015526Y-126409671D01*
X163015524Y-126409673D01*
X162952071Y-126452071D01*
X162909673Y-126515524D01*
X162376570Y-127048628D01*
X162295385Y-127015000D01*
X161704615Y-127015000D01*
X161158815Y-127241078D01*
X160741078Y-127658815D01*
X160515000Y-128204615D01*
X159335231Y-128204615D01*
X159351740Y-128179909D01*
X159463113Y-127620000D01*
X159351740Y-127060091D01*
X159034577Y-126585423D01*
X158559909Y-126268260D01*
X158141333Y-126185000D01*
X157858667Y-126185000D01*
X157440091Y-126268260D01*
X156965423Y-126585423D01*
X156648260Y-127060091D01*
X156536887Y-127620000D01*
X154038224Y-127620000D01*
X154091740Y-127539909D01*
X154203113Y-126980000D01*
X154091740Y-126420091D01*
X153774577Y-125945423D01*
X153422242Y-125710000D01*
X153774577Y-125474577D01*
X154091740Y-124999909D01*
X154203113Y-124440000D01*
X154091740Y-123880091D01*
X153974491Y-123704615D01*
X160515000Y-123704615D01*
X160515000Y-124295385D01*
X160741078Y-124841185D01*
X161158815Y-125258922D01*
X161704615Y-125485000D01*
X162295385Y-125485000D01*
X162841185Y-125258922D01*
X163258922Y-124841185D01*
X163485000Y-124295385D01*
X163485000Y-123704615D01*
X167015000Y-123704615D01*
X167015000Y-124295385D01*
X167241078Y-124841185D01*
X167658815Y-125258922D01*
X168204615Y-125485000D01*
X168795385Y-125485000D01*
X169341185Y-125258922D01*
X169758922Y-124841185D01*
X169985000Y-124295385D01*
X169985000Y-123704615D01*
X170515000Y-123704615D01*
X170515000Y-124295385D01*
X170741078Y-124841185D01*
X171158815Y-125258922D01*
X171704615Y-125485000D01*
X172295385Y-125485000D01*
X172841185Y-125258922D01*
X173258922Y-124841185D01*
X173485000Y-124295385D01*
X173485000Y-123704615D01*
X177015000Y-123704615D01*
X177015000Y-124295385D01*
X177241078Y-124841185D01*
X177658815Y-125258922D01*
X178204615Y-125485000D01*
X178795385Y-125485000D01*
X179341185Y-125258922D01*
X179758922Y-124841185D01*
X179985000Y-124295385D01*
X179985000Y-123704615D01*
X180515000Y-123704615D01*
X180515000Y-124295385D01*
X180741078Y-124841185D01*
X181158815Y-125258922D01*
X181704615Y-125485000D01*
X182295385Y-125485000D01*
X182841185Y-125258922D01*
X183258922Y-124841185D01*
X183485000Y-124295385D01*
X183485000Y-123704615D01*
X187015000Y-123704615D01*
X187015000Y-124295385D01*
X187241078Y-124841185D01*
X187658815Y-125258922D01*
X188204615Y-125485000D01*
X188795385Y-125485000D01*
X189341185Y-125258922D01*
X189758922Y-124841185D01*
X189985000Y-124295385D01*
X189985000Y-123704615D01*
X189758922Y-123158815D01*
X189341185Y-122741078D01*
X188795385Y-122515000D01*
X188204615Y-122515000D01*
X187658815Y-122741078D01*
X187241078Y-123158815D01*
X187015000Y-123704615D01*
X183485000Y-123704615D01*
X183258922Y-123158815D01*
X182841185Y-122741078D01*
X182295385Y-122515000D01*
X181704615Y-122515000D01*
X181158815Y-122741078D01*
X180741078Y-123158815D01*
X180515000Y-123704615D01*
X179985000Y-123704615D01*
X179758922Y-123158815D01*
X179341185Y-122741078D01*
X178795385Y-122515000D01*
X178204615Y-122515000D01*
X177658815Y-122741078D01*
X177241078Y-123158815D01*
X177015000Y-123704615D01*
X173485000Y-123704615D01*
X173258922Y-123158815D01*
X172841185Y-122741078D01*
X172295385Y-122515000D01*
X171704615Y-122515000D01*
X171158815Y-122741078D01*
X170741078Y-123158815D01*
X170515000Y-123704615D01*
X169985000Y-123704615D01*
X169758922Y-123158815D01*
X169341185Y-122741078D01*
X168795385Y-122515000D01*
X168204615Y-122515000D01*
X167658815Y-122741078D01*
X167241078Y-123158815D01*
X167015000Y-123704615D01*
X163485000Y-123704615D01*
X163258922Y-123158815D01*
X162841185Y-122741078D01*
X162295385Y-122515000D01*
X161704615Y-122515000D01*
X161158815Y-122741078D01*
X160741078Y-123158815D01*
X160515000Y-123704615D01*
X153974491Y-123704615D01*
X153774577Y-123405423D01*
X153422242Y-123170000D01*
X153774577Y-122934577D01*
X154091740Y-122459909D01*
X154203113Y-121900000D01*
X154091740Y-121340091D01*
X153774577Y-120865423D01*
X153422242Y-120630000D01*
X153774577Y-120394577D01*
X154091740Y-119919909D01*
X154203113Y-119360000D01*
X154091740Y-118800091D01*
X153774577Y-118325423D01*
X153422242Y-118090000D01*
X153774577Y-117854577D01*
X153931316Y-117620000D01*
X156536887Y-117620000D01*
X156648260Y-118179909D01*
X156965423Y-118654577D01*
X157175595Y-118795009D01*
X156783466Y-119187138D01*
X156565000Y-119714561D01*
X156565000Y-120285439D01*
X156783466Y-120812862D01*
X157187138Y-121216534D01*
X157714561Y-121435000D01*
X158285439Y-121435000D01*
X158812862Y-121216534D01*
X159216534Y-120812862D01*
X159435000Y-120285439D01*
X159435000Y-120204615D01*
X160515000Y-120204615D01*
X160515000Y-120795385D01*
X160741078Y-121341185D01*
X161158815Y-121758922D01*
X161704615Y-121985000D01*
X162295385Y-121985000D01*
X162841185Y-121758922D01*
X163258922Y-121341185D01*
X163485000Y-120795385D01*
X163485000Y-120204615D01*
X163451372Y-120123430D01*
X163814803Y-119760000D01*
X167199166Y-119760000D01*
X167015000Y-120204615D01*
X167015000Y-120795385D01*
X167241078Y-121341185D01*
X167658815Y-121758922D01*
X168204615Y-121985000D01*
X168795385Y-121985000D01*
X169341185Y-121758922D01*
X169758922Y-121341185D01*
X169985000Y-120795385D01*
X169985000Y-120204615D01*
X169800834Y-119760000D01*
X170185199Y-119760000D01*
X170548628Y-120123430D01*
X170515000Y-120204615D01*
X170515000Y-120795385D01*
X170741078Y-121341185D01*
X171158815Y-121758922D01*
X171704615Y-121985000D01*
X172295385Y-121985000D01*
X172841185Y-121758922D01*
X173258922Y-121341185D01*
X173485000Y-120795385D01*
X173485000Y-120204615D01*
X173451372Y-120123430D01*
X173814803Y-119760000D01*
X177199166Y-119760000D01*
X177015000Y-120204615D01*
X177015000Y-120795385D01*
X177241078Y-121341185D01*
X177658815Y-121758922D01*
X178204615Y-121985000D01*
X178795385Y-121985000D01*
X179341185Y-121758922D01*
X179758922Y-121341185D01*
X179985000Y-120795385D01*
X179985000Y-120204615D01*
X179800834Y-119760000D01*
X180185199Y-119760000D01*
X180548628Y-120123430D01*
X180515000Y-120204615D01*
X180515000Y-120795385D01*
X180741078Y-121341185D01*
X181158815Y-121758922D01*
X181704615Y-121985000D01*
X182295385Y-121985000D01*
X182841185Y-121758922D01*
X183258922Y-121341185D01*
X183485000Y-120795385D01*
X183485000Y-120204615D01*
X187015000Y-120204615D01*
X187015000Y-120795385D01*
X187241078Y-121341185D01*
X187658815Y-121758922D01*
X188204615Y-121985000D01*
X188795385Y-121985000D01*
X189341185Y-121758922D01*
X189758922Y-121341185D01*
X189985000Y-120795385D01*
X189985000Y-120204615D01*
X189758922Y-119658815D01*
X189341185Y-119241078D01*
X188795385Y-119015000D01*
X188204615Y-119015000D01*
X187658815Y-119241078D01*
X187241078Y-119658815D01*
X187015000Y-120204615D01*
X183485000Y-120204615D01*
X183258922Y-119658815D01*
X182841185Y-119241078D01*
X182295385Y-119015000D01*
X181704615Y-119015000D01*
X181623430Y-119048628D01*
X181090331Y-118515530D01*
X181047929Y-118452071D01*
X180796537Y-118284096D01*
X180574852Y-118240000D01*
X180574847Y-118240000D01*
X180500000Y-118225112D01*
X180425153Y-118240000D01*
X173574846Y-118240000D01*
X173499999Y-118225112D01*
X173425152Y-118240000D01*
X173425148Y-118240000D01*
X173203463Y-118284096D01*
X173203461Y-118284097D01*
X173203462Y-118284097D01*
X173015526Y-118409671D01*
X173015524Y-118409673D01*
X172952071Y-118452071D01*
X172909673Y-118515524D01*
X172376570Y-119048628D01*
X172295385Y-119015000D01*
X171704615Y-119015000D01*
X171623430Y-119048628D01*
X171090331Y-118515530D01*
X171047929Y-118452071D01*
X170796537Y-118284096D01*
X170574852Y-118240000D01*
X170574847Y-118240000D01*
X170500000Y-118225112D01*
X170425153Y-118240000D01*
X163574846Y-118240000D01*
X163499999Y-118225112D01*
X163425152Y-118240000D01*
X163425148Y-118240000D01*
X163203463Y-118284096D01*
X163203461Y-118284097D01*
X163203462Y-118284097D01*
X163015526Y-118409671D01*
X163015524Y-118409673D01*
X162952071Y-118452071D01*
X162909673Y-118515524D01*
X162376570Y-119048628D01*
X162295385Y-119015000D01*
X161704615Y-119015000D01*
X161158815Y-119241078D01*
X160741078Y-119658815D01*
X160515000Y-120204615D01*
X159435000Y-120204615D01*
X159435000Y-119714561D01*
X159216534Y-119187138D01*
X158824405Y-118795009D01*
X159034577Y-118654577D01*
X159351740Y-118179909D01*
X159463113Y-117620000D01*
X159351740Y-117060091D01*
X159034577Y-116585423D01*
X158559909Y-116268260D01*
X158141333Y-116185000D01*
X157858667Y-116185000D01*
X157440091Y-116268260D01*
X156965423Y-116585423D01*
X156648260Y-117060091D01*
X156536887Y-117620000D01*
X153931316Y-117620000D01*
X154091740Y-117379909D01*
X154203113Y-116820000D01*
X154091740Y-116260091D01*
X153774577Y-115785423D01*
X153653640Y-115704615D01*
X160515000Y-115704615D01*
X160515000Y-116295385D01*
X160741078Y-116841185D01*
X161158815Y-117258922D01*
X161704615Y-117485000D01*
X162295385Y-117485000D01*
X162841185Y-117258922D01*
X163258922Y-116841185D01*
X163485000Y-116295385D01*
X163485000Y-115704615D01*
X167015000Y-115704615D01*
X167015000Y-116295385D01*
X167241078Y-116841185D01*
X167658815Y-117258922D01*
X168204615Y-117485000D01*
X168795385Y-117485000D01*
X169341185Y-117258922D01*
X169758922Y-116841185D01*
X169985000Y-116295385D01*
X169985000Y-115704615D01*
X170515000Y-115704615D01*
X170515000Y-116295385D01*
X170741078Y-116841185D01*
X171158815Y-117258922D01*
X171704615Y-117485000D01*
X172295385Y-117485000D01*
X172841185Y-117258922D01*
X173258922Y-116841185D01*
X173485000Y-116295385D01*
X173485000Y-115704615D01*
X177015000Y-115704615D01*
X177015000Y-116295385D01*
X177241078Y-116841185D01*
X177658815Y-117258922D01*
X178204615Y-117485000D01*
X178795385Y-117485000D01*
X179341185Y-117258922D01*
X179758922Y-116841185D01*
X179985000Y-116295385D01*
X179985000Y-115704615D01*
X180515000Y-115704615D01*
X180515000Y-116295385D01*
X180741078Y-116841185D01*
X181158815Y-117258922D01*
X181704615Y-117485000D01*
X182295385Y-117485000D01*
X182841185Y-117258922D01*
X183258922Y-116841185D01*
X183485000Y-116295385D01*
X183485000Y-115704615D01*
X187015000Y-115704615D01*
X187015000Y-116295385D01*
X187241078Y-116841185D01*
X187658815Y-117258922D01*
X188204615Y-117485000D01*
X188795385Y-117485000D01*
X189341185Y-117258922D01*
X189758922Y-116841185D01*
X189985000Y-116295385D01*
X189985000Y-115704615D01*
X189758922Y-115158815D01*
X189341185Y-114741078D01*
X188795385Y-114515000D01*
X188204615Y-114515000D01*
X187658815Y-114741078D01*
X187241078Y-115158815D01*
X187015000Y-115704615D01*
X183485000Y-115704615D01*
X183258922Y-115158815D01*
X182841185Y-114741078D01*
X182295385Y-114515000D01*
X181704615Y-114515000D01*
X181158815Y-114741078D01*
X180741078Y-115158815D01*
X180515000Y-115704615D01*
X179985000Y-115704615D01*
X179758922Y-115158815D01*
X179341185Y-114741078D01*
X178795385Y-114515000D01*
X178204615Y-114515000D01*
X177658815Y-114741078D01*
X177241078Y-115158815D01*
X177015000Y-115704615D01*
X173485000Y-115704615D01*
X173258922Y-115158815D01*
X172841185Y-114741078D01*
X172295385Y-114515000D01*
X171704615Y-114515000D01*
X171158815Y-114741078D01*
X170741078Y-115158815D01*
X170515000Y-115704615D01*
X169985000Y-115704615D01*
X169758922Y-115158815D01*
X169341185Y-114741078D01*
X168795385Y-114515000D01*
X168204615Y-114515000D01*
X167658815Y-114741078D01*
X167241078Y-115158815D01*
X167015000Y-115704615D01*
X163485000Y-115704615D01*
X163258922Y-115158815D01*
X162841185Y-114741078D01*
X162295385Y-114515000D01*
X161704615Y-114515000D01*
X161158815Y-114741078D01*
X160741078Y-115158815D01*
X160515000Y-115704615D01*
X153653640Y-115704615D01*
X153422242Y-115550000D01*
X153774577Y-115314577D01*
X154091740Y-114839909D01*
X154203113Y-114280000D01*
X154138688Y-113956113D01*
X155084747Y-113010055D01*
X155148201Y-112967657D01*
X155190599Y-112904204D01*
X155190601Y-112904202D01*
X155316175Y-112716266D01*
X155316176Y-112716265D01*
X155360272Y-112494580D01*
X155360272Y-112494576D01*
X155375160Y-112419729D01*
X155360272Y-112344882D01*
X155360272Y-112204615D01*
X160515000Y-112204615D01*
X160515000Y-112795385D01*
X160741078Y-113341185D01*
X161158815Y-113758922D01*
X161704615Y-113985000D01*
X162295385Y-113985000D01*
X162841185Y-113758922D01*
X163258922Y-113341185D01*
X163485000Y-112795385D01*
X163485000Y-112204615D01*
X163451372Y-112123430D01*
X163814803Y-111760000D01*
X167199166Y-111760000D01*
X167015000Y-112204615D01*
X167015000Y-112795385D01*
X167241078Y-113341185D01*
X167658815Y-113758922D01*
X168204615Y-113985000D01*
X168795385Y-113985000D01*
X169341185Y-113758922D01*
X169758922Y-113341185D01*
X169985000Y-112795385D01*
X169985000Y-112204615D01*
X169800834Y-111760000D01*
X170185199Y-111760000D01*
X170548628Y-112123430D01*
X170515000Y-112204615D01*
X170515000Y-112795385D01*
X170741078Y-113341185D01*
X171158815Y-113758922D01*
X171704615Y-113985000D01*
X172295385Y-113985000D01*
X172841185Y-113758922D01*
X173258922Y-113341185D01*
X173485000Y-112795385D01*
X173485000Y-112204615D01*
X173451372Y-112123430D01*
X173814803Y-111760000D01*
X177199166Y-111760000D01*
X177015000Y-112204615D01*
X177015000Y-112795385D01*
X177241078Y-113341185D01*
X177658815Y-113758922D01*
X178204615Y-113985000D01*
X178795385Y-113985000D01*
X179341185Y-113758922D01*
X179758922Y-113341185D01*
X179985000Y-112795385D01*
X179985000Y-112204615D01*
X179800834Y-111760000D01*
X180185199Y-111760000D01*
X180548628Y-112123430D01*
X180515000Y-112204615D01*
X180515000Y-112795385D01*
X180741078Y-113341185D01*
X181158815Y-113758922D01*
X181704615Y-113985000D01*
X182295385Y-113985000D01*
X182841185Y-113758922D01*
X183258922Y-113341185D01*
X183485000Y-112795385D01*
X183485000Y-112204615D01*
X187015000Y-112204615D01*
X187015000Y-112795385D01*
X187241078Y-113341185D01*
X187658815Y-113758922D01*
X188204615Y-113985000D01*
X188795385Y-113985000D01*
X189341185Y-113758922D01*
X189758922Y-113341185D01*
X189985000Y-112795385D01*
X189985000Y-112204615D01*
X189758922Y-111658815D01*
X189341185Y-111241078D01*
X188795385Y-111015000D01*
X188204615Y-111015000D01*
X187658815Y-111241078D01*
X187241078Y-111658815D01*
X187015000Y-112204615D01*
X183485000Y-112204615D01*
X183258922Y-111658815D01*
X182841185Y-111241078D01*
X182295385Y-111015000D01*
X181704615Y-111015000D01*
X181623430Y-111048628D01*
X181090331Y-110515530D01*
X181047929Y-110452071D01*
X180796537Y-110284096D01*
X180574852Y-110240000D01*
X180574847Y-110240000D01*
X180500000Y-110225112D01*
X180425153Y-110240000D01*
X173574846Y-110240000D01*
X173499999Y-110225112D01*
X173425152Y-110240000D01*
X173425148Y-110240000D01*
X173203463Y-110284096D01*
X173172178Y-110305000D01*
X173015526Y-110409671D01*
X173015524Y-110409673D01*
X172952071Y-110452071D01*
X172909673Y-110515524D01*
X172376570Y-111048628D01*
X172295385Y-111015000D01*
X171704615Y-111015000D01*
X171623430Y-111048628D01*
X171090331Y-110515530D01*
X171047929Y-110452071D01*
X170796537Y-110284096D01*
X170574852Y-110240000D01*
X170574847Y-110240000D01*
X170500000Y-110225112D01*
X170425153Y-110240000D01*
X163574846Y-110240000D01*
X163499999Y-110225112D01*
X163425152Y-110240000D01*
X163425148Y-110240000D01*
X163203463Y-110284096D01*
X163172178Y-110305000D01*
X163015526Y-110409671D01*
X163015524Y-110409673D01*
X162952071Y-110452071D01*
X162909673Y-110515524D01*
X162376570Y-111048628D01*
X162295385Y-111015000D01*
X161704615Y-111015000D01*
X161158815Y-111241078D01*
X160741078Y-111658815D01*
X160515000Y-112204615D01*
X155360272Y-112204615D01*
X155360272Y-109714561D01*
X156565000Y-109714561D01*
X156565000Y-110285439D01*
X156783466Y-110812862D01*
X157187138Y-111216534D01*
X157714561Y-111435000D01*
X158285439Y-111435000D01*
X158812862Y-111216534D01*
X159216534Y-110812862D01*
X159435000Y-110285439D01*
X159435000Y-109714561D01*
X159216534Y-109187138D01*
X158812862Y-108783466D01*
X158285439Y-108565000D01*
X157714561Y-108565000D01*
X157187138Y-108783466D01*
X156783466Y-109187138D01*
X156565000Y-109714561D01*
X155360272Y-109714561D01*
X155360272Y-107704615D01*
X160515000Y-107704615D01*
X160515000Y-108295385D01*
X160741078Y-108841185D01*
X161158815Y-109258922D01*
X161704615Y-109485000D01*
X162295385Y-109485000D01*
X162841185Y-109258922D01*
X163258922Y-108841185D01*
X163485000Y-108295385D01*
X163485000Y-107704615D01*
X167015000Y-107704615D01*
X167015000Y-108295385D01*
X167241078Y-108841185D01*
X167658815Y-109258922D01*
X168204615Y-109485000D01*
X168795385Y-109485000D01*
X169341185Y-109258922D01*
X169758922Y-108841185D01*
X169985000Y-108295385D01*
X169985000Y-107704615D01*
X170515000Y-107704615D01*
X170515000Y-108295385D01*
X170741078Y-108841185D01*
X171158815Y-109258922D01*
X171704615Y-109485000D01*
X172295385Y-109485000D01*
X172841185Y-109258922D01*
X173258922Y-108841185D01*
X173485000Y-108295385D01*
X173485000Y-107704615D01*
X177015000Y-107704615D01*
X177015000Y-108295385D01*
X177241078Y-108841185D01*
X177658815Y-109258922D01*
X178204615Y-109485000D01*
X178795385Y-109485000D01*
X179341185Y-109258922D01*
X179758922Y-108841185D01*
X179985000Y-108295385D01*
X179985000Y-107704615D01*
X180515000Y-107704615D01*
X180515000Y-108295385D01*
X180741078Y-108841185D01*
X181158815Y-109258922D01*
X181704615Y-109485000D01*
X182295385Y-109485000D01*
X182841185Y-109258922D01*
X183258922Y-108841185D01*
X183485000Y-108295385D01*
X183485000Y-107704615D01*
X187015000Y-107704615D01*
X187015000Y-108295385D01*
X187241078Y-108841185D01*
X187658815Y-109258922D01*
X188204615Y-109485000D01*
X188795385Y-109485000D01*
X189341185Y-109258922D01*
X189758922Y-108841185D01*
X189985000Y-108295385D01*
X189985000Y-107704615D01*
X189758922Y-107158815D01*
X189341185Y-106741078D01*
X188795385Y-106515000D01*
X188204615Y-106515000D01*
X187658815Y-106741078D01*
X187241078Y-107158815D01*
X187015000Y-107704615D01*
X183485000Y-107704615D01*
X183258922Y-107158815D01*
X182841185Y-106741078D01*
X182295385Y-106515000D01*
X181704615Y-106515000D01*
X181158815Y-106741078D01*
X180741078Y-107158815D01*
X180515000Y-107704615D01*
X179985000Y-107704615D01*
X179758922Y-107158815D01*
X179341185Y-106741078D01*
X178795385Y-106515000D01*
X178204615Y-106515000D01*
X177658815Y-106741078D01*
X177241078Y-107158815D01*
X177015000Y-107704615D01*
X173485000Y-107704615D01*
X173258922Y-107158815D01*
X172841185Y-106741078D01*
X172295385Y-106515000D01*
X171704615Y-106515000D01*
X171158815Y-106741078D01*
X170741078Y-107158815D01*
X170515000Y-107704615D01*
X169985000Y-107704615D01*
X169758922Y-107158815D01*
X169341185Y-106741078D01*
X168795385Y-106515000D01*
X168204615Y-106515000D01*
X167658815Y-106741078D01*
X167241078Y-107158815D01*
X167015000Y-107704615D01*
X163485000Y-107704615D01*
X163258922Y-107158815D01*
X162841185Y-106741078D01*
X162295385Y-106515000D01*
X161704615Y-106515000D01*
X161158815Y-106741078D01*
X160741078Y-107158815D01*
X160515000Y-107704615D01*
X155360272Y-107704615D01*
X155360272Y-104000000D01*
X168536887Y-104000000D01*
X168648260Y-104559909D01*
X168965423Y-105034577D01*
X169440091Y-105351740D01*
X169858667Y-105435000D01*
X170141333Y-105435000D01*
X170559909Y-105351740D01*
X171034577Y-105034577D01*
X171351740Y-104559909D01*
X171463113Y-104000000D01*
X171406336Y-103714561D01*
X176185000Y-103714561D01*
X176185000Y-104285439D01*
X176403466Y-104812862D01*
X176807138Y-105216534D01*
X177334561Y-105435000D01*
X177905439Y-105435000D01*
X178432862Y-105216534D01*
X178836534Y-104812862D01*
X179055000Y-104285439D01*
X179055000Y-103714561D01*
X179565000Y-103714561D01*
X179565000Y-104285439D01*
X179783466Y-104812862D01*
X180187138Y-105216534D01*
X180714561Y-105435000D01*
X181285439Y-105435000D01*
X181812862Y-105216534D01*
X182216534Y-104812862D01*
X182435000Y-104285439D01*
X182435000Y-104000000D01*
X187156887Y-104000000D01*
X187268260Y-104559909D01*
X187585423Y-105034577D01*
X188060091Y-105351740D01*
X188478667Y-105435000D01*
X188761333Y-105435000D01*
X189179909Y-105351740D01*
X189654577Y-105034577D01*
X189971740Y-104559909D01*
X190083113Y-104000000D01*
X189971740Y-103440091D01*
X189654577Y-102965423D01*
X189179909Y-102648260D01*
X188761333Y-102565000D01*
X188478667Y-102565000D01*
X188060091Y-102648260D01*
X187585423Y-102965423D01*
X187268260Y-103440091D01*
X187156887Y-104000000D01*
X182435000Y-104000000D01*
X182435000Y-103714561D01*
X182216534Y-103187138D01*
X181812862Y-102783466D01*
X181285439Y-102565000D01*
X180714561Y-102565000D01*
X180187138Y-102783466D01*
X179783466Y-103187138D01*
X179565000Y-103714561D01*
X179055000Y-103714561D01*
X178836534Y-103187138D01*
X178432862Y-102783466D01*
X177905439Y-102565000D01*
X177334561Y-102565000D01*
X176807138Y-102783466D01*
X176403466Y-103187138D01*
X176185000Y-103714561D01*
X171406336Y-103714561D01*
X171351740Y-103440091D01*
X171034577Y-102965423D01*
X170559909Y-102648260D01*
X170141333Y-102565000D01*
X169858667Y-102565000D01*
X169440091Y-102648260D01*
X168965423Y-102965423D01*
X168648260Y-103440091D01*
X168536887Y-104000000D01*
X155360272Y-104000000D01*
X155360272Y-101850116D01*
X155375160Y-101775269D01*
X155360272Y-101700422D01*
X155360272Y-101700418D01*
X155316176Y-101478733D01*
X155148201Y-101227341D01*
X155084745Y-101184941D01*
X153870332Y-99970529D01*
X153857216Y-99950899D01*
X154015131Y-99714561D01*
X160565000Y-99714561D01*
X160565000Y-100285439D01*
X160783466Y-100812862D01*
X161187138Y-101216534D01*
X161714561Y-101435000D01*
X162285439Y-101435000D01*
X162812862Y-101216534D01*
X163216534Y-100812862D01*
X163435000Y-100285439D01*
X163435000Y-100000000D01*
X168156887Y-100000000D01*
X168268260Y-100559909D01*
X168585423Y-101034577D01*
X169060091Y-101351740D01*
X169478667Y-101435000D01*
X169761333Y-101435000D01*
X170179909Y-101351740D01*
X170654577Y-101034577D01*
X170971740Y-100559909D01*
X171083113Y-100000000D01*
X179536887Y-100000000D01*
X179648260Y-100559909D01*
X179965423Y-101034577D01*
X180440091Y-101351740D01*
X180858667Y-101435000D01*
X181141333Y-101435000D01*
X181559909Y-101351740D01*
X182034577Y-101034577D01*
X182351740Y-100559909D01*
X182463113Y-100000000D01*
X182406336Y-99714561D01*
X187185000Y-99714561D01*
X187185000Y-100285439D01*
X187403466Y-100812862D01*
X187807138Y-101216534D01*
X188334561Y-101435000D01*
X188905439Y-101435000D01*
X189432862Y-101216534D01*
X189836534Y-100812862D01*
X190055000Y-100285439D01*
X190055000Y-99714561D01*
X189836534Y-99187138D01*
X189432862Y-98783466D01*
X188905439Y-98565000D01*
X188334561Y-98565000D01*
X187807138Y-98783466D01*
X187403466Y-99187138D01*
X187185000Y-99714561D01*
X182406336Y-99714561D01*
X182351740Y-99440091D01*
X182034577Y-98965423D01*
X181559909Y-98648260D01*
X181141333Y-98565000D01*
X180858667Y-98565000D01*
X180440091Y-98648260D01*
X179965423Y-98965423D01*
X179648260Y-99440091D01*
X179536887Y-100000000D01*
X171083113Y-100000000D01*
X170971740Y-99440091D01*
X170654577Y-98965423D01*
X170179909Y-98648260D01*
X169761333Y-98565000D01*
X169478667Y-98565000D01*
X169060091Y-98648260D01*
X168585423Y-98965423D01*
X168268260Y-99440091D01*
X168156887Y-100000000D01*
X163435000Y-100000000D01*
X163435000Y-99714561D01*
X163216534Y-99187138D01*
X162812862Y-98783466D01*
X162285439Y-98565000D01*
X161714561Y-98565000D01*
X161187138Y-98783466D01*
X160783466Y-99187138D01*
X160565000Y-99714561D01*
X154015131Y-99714561D01*
X154091740Y-99599909D01*
X154203113Y-99040000D01*
X154091740Y-98480091D01*
X153774577Y-98005423D01*
X153390892Y-97749053D01*
X153595134Y-97652389D01*
X153971041Y-97237423D01*
X154131904Y-96849039D01*
X154009915Y-96627000D01*
X152867000Y-96627000D01*
X152867000Y-96647000D01*
X152613000Y-96647000D01*
X152613000Y-96627000D01*
X151470085Y-96627000D01*
X151348096Y-96849039D01*
X151508959Y-97237423D01*
X151884866Y-97652389D01*
X152089108Y-97749053D01*
X151705423Y-98005423D01*
X151548684Y-98240000D01*
X147703711Y-98240000D01*
X147586280Y-98122569D01*
X147205874Y-97965000D01*
X146794126Y-97965000D01*
X146413720Y-98122569D01*
X146269045Y-98267244D01*
X144534999Y-96533200D01*
X144534999Y-96150961D01*
X151348096Y-96150961D01*
X151470085Y-96373000D01*
X152613000Y-96373000D01*
X152613000Y-95229371D01*
X152867000Y-95229371D01*
X152867000Y-96373000D01*
X154009915Y-96373000D01*
X154131904Y-96150961D01*
X153971041Y-95762577D01*
X153595134Y-95347611D01*
X153089041Y-95108086D01*
X152867000Y-95229371D01*
X152613000Y-95229371D01*
X152390959Y-95108086D01*
X151884866Y-95347611D01*
X151508959Y-95762577D01*
X151348096Y-96150961D01*
X144534999Y-96150961D01*
X144534999Y-95535000D01*
X144705874Y-95535000D01*
X145086280Y-95377431D01*
X145203711Y-95260000D01*
X149296289Y-95260000D01*
X149413720Y-95377431D01*
X149794126Y-95535000D01*
X150205874Y-95535000D01*
X150586280Y-95377431D01*
X150877431Y-95086280D01*
X151035000Y-94705874D01*
X151035000Y-94294126D01*
X150913169Y-94000000D01*
X151035000Y-93705874D01*
X151035000Y-93294126D01*
X150877431Y-92913720D01*
X150586280Y-92622569D01*
X150205874Y-92465000D01*
X149794126Y-92465000D01*
X149413720Y-92622569D01*
X149296289Y-92740000D01*
X145203711Y-92740000D01*
X145086280Y-92622569D01*
X144705874Y-92465000D01*
X144534999Y-92465000D01*
X144534999Y-92364846D01*
X144549887Y-92289999D01*
X144534999Y-92215152D01*
X144534999Y-92215147D01*
X144490903Y-91993462D01*
X144342445Y-91771279D01*
X160503282Y-91771279D01*
X160529685Y-92361458D01*
X160704741Y-92784080D01*
X160956042Y-92864353D01*
X161820395Y-92000000D01*
X160956042Y-91135647D01*
X160704741Y-91215920D01*
X160503282Y-91771279D01*
X144342445Y-91771279D01*
X144322928Y-91742070D01*
X144259472Y-91699670D01*
X139035000Y-86475199D01*
X139035000Y-86309126D01*
X138877431Y-85928720D01*
X138586280Y-85637569D01*
X138205874Y-85480000D01*
X137794126Y-85480000D01*
X137413720Y-85637569D01*
X137250000Y-85801289D01*
X137086280Y-85637569D01*
X136705874Y-85480000D01*
X136294126Y-85480000D01*
X135913720Y-85637569D01*
X135622569Y-85928720D01*
X135465000Y-86309126D01*
X135465000Y-86720874D01*
X135622569Y-87101280D01*
X135740001Y-87218712D01*
X135740000Y-92498155D01*
X135725112Y-92573002D01*
X135740000Y-92647849D01*
X135740000Y-92647853D01*
X135784096Y-92869538D01*
X135952071Y-93120931D01*
X136015530Y-93163333D01*
X137904757Y-95052560D01*
X136700000Y-95052560D01*
X136452235Y-95101843D01*
X136242191Y-95242191D01*
X136101843Y-95452235D01*
X136052560Y-95700000D01*
X136052560Y-97300000D01*
X136101843Y-97547765D01*
X136242191Y-97757809D01*
X136452235Y-97898157D01*
X136586106Y-97924785D01*
X136465423Y-98005423D01*
X136148260Y-98480091D01*
X136036887Y-99040000D01*
X136148260Y-99599909D01*
X136465423Y-100074577D01*
X136817758Y-100310000D01*
X136465423Y-100545423D01*
X136148260Y-101020091D01*
X136036887Y-101580000D01*
X136148260Y-102139909D01*
X136465423Y-102614577D01*
X136817758Y-102850000D01*
X136465423Y-103085423D01*
X136148260Y-103560091D01*
X136036887Y-104120000D01*
X136148260Y-104679909D01*
X136387396Y-105037802D01*
X134110200Y-107314999D01*
X128535000Y-107314999D01*
X128535000Y-107294126D01*
X128377431Y-106913720D01*
X128086280Y-106622569D01*
X127705874Y-106465000D01*
X127294126Y-106465000D01*
X126913720Y-106622569D01*
X126622569Y-106913720D01*
X126477866Y-107263065D01*
X124500551Y-105285750D01*
X126065000Y-105285750D01*
X126065000Y-105926310D01*
X126161673Y-106159699D01*
X126340302Y-106338327D01*
X126573691Y-106435000D01*
X127214250Y-106435000D01*
X127373000Y-106276250D01*
X127373000Y-105127000D01*
X127627000Y-105127000D01*
X127627000Y-106276250D01*
X127785750Y-106435000D01*
X128426309Y-106435000D01*
X128659698Y-106338327D01*
X128838327Y-106159699D01*
X128935000Y-105926310D01*
X128935000Y-105285750D01*
X128776250Y-105127000D01*
X127627000Y-105127000D01*
X127373000Y-105127000D01*
X126223750Y-105127000D01*
X126065000Y-105285750D01*
X124500551Y-105285750D01*
X123760000Y-104545199D01*
X123760000Y-104073690D01*
X126065000Y-104073690D01*
X126065000Y-104714250D01*
X126223750Y-104873000D01*
X127373000Y-104873000D01*
X127373000Y-103723750D01*
X127627000Y-103723750D01*
X127627000Y-104873000D01*
X128776250Y-104873000D01*
X128935000Y-104714250D01*
X128935000Y-104073690D01*
X128838327Y-103840301D01*
X128659698Y-103661673D01*
X128426309Y-103565000D01*
X127785750Y-103565000D01*
X127627000Y-103723750D01*
X127373000Y-103723750D01*
X127214250Y-103565000D01*
X126573691Y-103565000D01*
X126340302Y-103661673D01*
X126161673Y-103840301D01*
X126065000Y-104073690D01*
X123760000Y-104073690D01*
X123760000Y-86837579D01*
X132962026Y-86837579D01*
X133042912Y-87089398D01*
X133600084Y-87291693D01*
X134192259Y-87265368D01*
X134617088Y-87089398D01*
X134697974Y-86837579D01*
X133830000Y-85969605D01*
X132962026Y-86837579D01*
X123760000Y-86837579D01*
X123760000Y-85560084D01*
X132328307Y-85560084D01*
X132354632Y-86152259D01*
X132530602Y-86577088D01*
X132782421Y-86657974D01*
X133650395Y-85790000D01*
X132782421Y-84922026D01*
X132530602Y-85002912D01*
X132328307Y-85560084D01*
X123760000Y-85560084D01*
X123760000Y-85203711D01*
X123877431Y-85086280D01*
X124035000Y-84705874D01*
X124035000Y-84294126D01*
X123917311Y-84010000D01*
X132532038Y-84010000D01*
X132566839Y-84094017D01*
X132985983Y-84513161D01*
X133029832Y-84531324D01*
X132962026Y-84742421D01*
X133830000Y-85610395D01*
X133844143Y-85596253D01*
X134023748Y-85775858D01*
X134009605Y-85790000D01*
X134877579Y-86657974D01*
X135129398Y-86577088D01*
X135331693Y-86019916D01*
X135305368Y-85427741D01*
X135161329Y-85080000D01*
X145702038Y-85080000D01*
X145736839Y-85164017D01*
X146155983Y-85583161D01*
X146703621Y-85810000D01*
X147296379Y-85810000D01*
X147844017Y-85583161D01*
X148263161Y-85164017D01*
X148490000Y-84616379D01*
X148490000Y-84023621D01*
X148263161Y-83475983D01*
X147844017Y-83056839D01*
X147827506Y-83050000D01*
X147844017Y-83043161D01*
X148263161Y-82624017D01*
X148297962Y-82540000D01*
X153204201Y-82540000D01*
X161324122Y-90659922D01*
X161215920Y-90704741D01*
X161135647Y-90956042D01*
X162000000Y-91820395D01*
X162014143Y-91806253D01*
X162193748Y-91985858D01*
X162179605Y-92000000D01*
X162193748Y-92014143D01*
X162014143Y-92193748D01*
X162000000Y-92179605D01*
X161135647Y-93043958D01*
X161215920Y-93295259D01*
X161317934Y-93332265D01*
X160460199Y-94190000D01*
X160294126Y-94190000D01*
X159913720Y-94347569D01*
X159622569Y-94638720D01*
X159465000Y-95019126D01*
X159465000Y-95430874D01*
X159622569Y-95811280D01*
X159913720Y-96102431D01*
X160294126Y-96260000D01*
X160515000Y-96260000D01*
X160515000Y-96795385D01*
X160741078Y-97341185D01*
X161158815Y-97758922D01*
X161704615Y-97985000D01*
X162295385Y-97985000D01*
X162841185Y-97758922D01*
X163258922Y-97341185D01*
X163485000Y-96795385D01*
X163485000Y-96204615D01*
X167015000Y-96204615D01*
X167015000Y-96795385D01*
X167241078Y-97341185D01*
X167658815Y-97758922D01*
X168204615Y-97985000D01*
X168795385Y-97985000D01*
X169341185Y-97758922D01*
X169758922Y-97341185D01*
X169985000Y-96795385D01*
X169985000Y-96204615D01*
X180515000Y-96204615D01*
X180515000Y-96795385D01*
X180741078Y-97341185D01*
X181158815Y-97758922D01*
X181704615Y-97985000D01*
X182295385Y-97985000D01*
X182841185Y-97758922D01*
X183258922Y-97341185D01*
X183485000Y-96795385D01*
X183485000Y-96204615D01*
X187015000Y-96204615D01*
X187015000Y-96795385D01*
X187241078Y-97341185D01*
X187658815Y-97758922D01*
X188204615Y-97985000D01*
X188795385Y-97985000D01*
X189341185Y-97758922D01*
X189758922Y-97341185D01*
X189985000Y-96795385D01*
X189985000Y-96204615D01*
X189758922Y-95658815D01*
X189341185Y-95241078D01*
X188795385Y-95015000D01*
X188204615Y-95015000D01*
X187658815Y-95241078D01*
X187241078Y-95658815D01*
X187015000Y-96204615D01*
X183485000Y-96204615D01*
X183258922Y-95658815D01*
X182841185Y-95241078D01*
X182295385Y-95015000D01*
X181704615Y-95015000D01*
X181158815Y-95241078D01*
X180741078Y-95658815D01*
X180515000Y-96204615D01*
X169985000Y-96204615D01*
X169758922Y-95658815D01*
X169341185Y-95241078D01*
X168795385Y-95015000D01*
X168204615Y-95015000D01*
X167658815Y-95241078D01*
X167241078Y-95658815D01*
X167015000Y-96204615D01*
X163485000Y-96204615D01*
X163258922Y-95658815D01*
X162841185Y-95241078D01*
X162295385Y-95015000D01*
X161784801Y-95015000D01*
X163659474Y-93140328D01*
X163722930Y-93097928D01*
X163875536Y-92869538D01*
X163890905Y-92846537D01*
X163930425Y-92647854D01*
X163935001Y-92624851D01*
X163935001Y-92624847D01*
X163949889Y-92549999D01*
X163935001Y-92475151D01*
X163935001Y-91704615D01*
X167015000Y-91704615D01*
X167015000Y-92295385D01*
X167241078Y-92841185D01*
X167658815Y-93258922D01*
X168204615Y-93485000D01*
X168795385Y-93485000D01*
X169341185Y-93258922D01*
X169556149Y-93043958D01*
X181135647Y-93043958D01*
X181215920Y-93295259D01*
X181771279Y-93496718D01*
X182361458Y-93470315D01*
X182784080Y-93295259D01*
X182864353Y-93043958D01*
X182000000Y-92179605D01*
X181135647Y-93043958D01*
X169556149Y-93043958D01*
X169758922Y-92841185D01*
X169985000Y-92295385D01*
X169985000Y-91771279D01*
X180503282Y-91771279D01*
X180529685Y-92361458D01*
X180704741Y-92784080D01*
X180956042Y-92864353D01*
X181820395Y-92000000D01*
X182179605Y-92000000D01*
X183043958Y-92864353D01*
X183295259Y-92784080D01*
X183496718Y-92228721D01*
X183473271Y-91704615D01*
X187015000Y-91704615D01*
X187015000Y-92295385D01*
X187241078Y-92841185D01*
X187658815Y-93258922D01*
X188204615Y-93485000D01*
X188795385Y-93485000D01*
X189341185Y-93258922D01*
X189758922Y-92841185D01*
X189985000Y-92295385D01*
X189985000Y-91704615D01*
X189758922Y-91158815D01*
X189341185Y-90741078D01*
X188795385Y-90515000D01*
X188204615Y-90515000D01*
X187658815Y-90741078D01*
X187241078Y-91158815D01*
X187015000Y-91704615D01*
X183473271Y-91704615D01*
X183470315Y-91638542D01*
X183295259Y-91215920D01*
X183043958Y-91135647D01*
X182179605Y-92000000D01*
X181820395Y-92000000D01*
X180956042Y-91135647D01*
X180704741Y-91215920D01*
X180503282Y-91771279D01*
X169985000Y-91771279D01*
X169985000Y-91704615D01*
X169758922Y-91158815D01*
X169556149Y-90956042D01*
X181135647Y-90956042D01*
X182000000Y-91820395D01*
X182864353Y-90956042D01*
X182784080Y-90704741D01*
X182228721Y-90503282D01*
X181638542Y-90529685D01*
X181215920Y-90704741D01*
X181135647Y-90956042D01*
X169556149Y-90956042D01*
X169341185Y-90741078D01*
X168795385Y-90515000D01*
X168204615Y-90515000D01*
X167658815Y-90741078D01*
X167241078Y-91158815D01*
X167015000Y-91704615D01*
X163935001Y-91704615D01*
X163935001Y-91510847D01*
X163949889Y-91435999D01*
X163935001Y-91361151D01*
X163935001Y-91361147D01*
X163890905Y-91139462D01*
X163890905Y-91139461D01*
X163765330Y-90951526D01*
X163722930Y-90888070D01*
X163659474Y-90845670D01*
X154109333Y-81295530D01*
X154066931Y-81232071D01*
X153815539Y-81064096D01*
X153593854Y-81020000D01*
X153593849Y-81020000D01*
X153519002Y-81005112D01*
X153444155Y-81020000D01*
X148297962Y-81020000D01*
X148263161Y-80935983D01*
X147844017Y-80516839D01*
X147827506Y-80510000D01*
X147844017Y-80503161D01*
X148263161Y-80084017D01*
X148490000Y-79536379D01*
X148490000Y-78943621D01*
X148263161Y-78395983D01*
X147844017Y-77976839D01*
X147827506Y-77970000D01*
X147844017Y-77963161D01*
X148263161Y-77544017D01*
X148490000Y-76996379D01*
X148490000Y-76403621D01*
X148263161Y-75855983D01*
X147844017Y-75436839D01*
X147827506Y-75430000D01*
X147844017Y-75423161D01*
X148263161Y-75004017D01*
X148490000Y-74456379D01*
X148490000Y-73863621D01*
X148263161Y-73315983D01*
X147844017Y-72896839D01*
X147827506Y-72890000D01*
X147844017Y-72883161D01*
X148263161Y-72464017D01*
X148490000Y-71916379D01*
X148490000Y-71323621D01*
X148263161Y-70775983D01*
X147844017Y-70356839D01*
X147827506Y-70350000D01*
X147844017Y-70343161D01*
X148263161Y-69924017D01*
X148490000Y-69376379D01*
X148490000Y-68783621D01*
X148263161Y-68235983D01*
X147844017Y-67816839D01*
X147827506Y-67810000D01*
X147844017Y-67803161D01*
X148263161Y-67384017D01*
X148490000Y-66836379D01*
X148490000Y-66243621D01*
X148263161Y-65695983D01*
X147844017Y-65276839D01*
X147827506Y-65270000D01*
X147844017Y-65263161D01*
X148263161Y-64844017D01*
X148490000Y-64296379D01*
X148490000Y-63703621D01*
X148263161Y-63155983D01*
X147844017Y-62736839D01*
X147827506Y-62730000D01*
X147844017Y-62723161D01*
X148263161Y-62304017D01*
X148490000Y-61756379D01*
X148490000Y-61163621D01*
X148263161Y-60615983D01*
X147844017Y-60196839D01*
X147827506Y-60190000D01*
X147844017Y-60183161D01*
X148263161Y-59764017D01*
X148490000Y-59216379D01*
X148490000Y-58623621D01*
X148263161Y-58075983D01*
X147844017Y-57656839D01*
X147827506Y-57650000D01*
X147844017Y-57643161D01*
X148263161Y-57224017D01*
X148490000Y-56676379D01*
X148490000Y-56083621D01*
X148263161Y-55535983D01*
X147844017Y-55116839D01*
X147827506Y-55110000D01*
X147844017Y-55103161D01*
X148263161Y-54684017D01*
X148490000Y-54136379D01*
X148490000Y-53543621D01*
X148263161Y-52995983D01*
X147844017Y-52576839D01*
X147827506Y-52570000D01*
X147844017Y-52563161D01*
X148263161Y-52144017D01*
X148490000Y-51596379D01*
X148490000Y-51003621D01*
X148263161Y-50455983D01*
X147844017Y-50036839D01*
X147827506Y-50030000D01*
X147844017Y-50023161D01*
X148263161Y-49604017D01*
X148490000Y-49056379D01*
X148490000Y-48463621D01*
X148263161Y-47915983D01*
X147844017Y-47496839D01*
X147827506Y-47490000D01*
X147844017Y-47483161D01*
X148263161Y-47064017D01*
X148490000Y-46516379D01*
X148490000Y-45923621D01*
X148263161Y-45375983D01*
X147844017Y-44956839D01*
X147296379Y-44730000D01*
X146703621Y-44730000D01*
X146155983Y-44956839D01*
X145736839Y-45375983D01*
X145510000Y-45923621D01*
X145510000Y-46516379D01*
X145544801Y-46600397D01*
X143433722Y-48711476D01*
X143216534Y-48187138D01*
X142812862Y-47783466D01*
X142285439Y-47565000D01*
X141714561Y-47565000D01*
X141187138Y-47783466D01*
X140783466Y-48187138D01*
X140565000Y-48714561D01*
X140565000Y-49285439D01*
X140783466Y-49812862D01*
X141187138Y-50216534D01*
X141711476Y-50433722D01*
X126102531Y-66042668D01*
X126039072Y-66085070D01*
X125871097Y-66336463D01*
X125827001Y-66558148D01*
X125827001Y-66558152D01*
X125822371Y-66581428D01*
X125777881Y-66563000D01*
X125222119Y-66563000D01*
X124708663Y-66775680D01*
X124315680Y-67168663D01*
X124103000Y-67682119D01*
X124103000Y-68237881D01*
X124315680Y-68751337D01*
X124668690Y-69104347D01*
X124490235Y-69139843D01*
X124280191Y-69280191D01*
X124139843Y-69490235D01*
X124090560Y-69738000D01*
X124090560Y-71262000D01*
X124139843Y-71509765D01*
X124280191Y-71719809D01*
X124490235Y-71860157D01*
X124738000Y-71909440D01*
X124740001Y-71909440D01*
X124740000Y-74845153D01*
X124725112Y-74920000D01*
X124740000Y-74994847D01*
X124740000Y-74994851D01*
X124784096Y-75216536D01*
X124952071Y-75467929D01*
X125015530Y-75510331D01*
X131995198Y-82490000D01*
X115599846Y-82490000D01*
X115524999Y-82475112D01*
X115450152Y-82490000D01*
X115450148Y-82490000D01*
X115228463Y-82534096D01*
X115228461Y-82534097D01*
X115228462Y-82534097D01*
X115040526Y-82659671D01*
X115040524Y-82659673D01*
X114977071Y-82702071D01*
X114934673Y-82765524D01*
X99305528Y-98394671D01*
X99242072Y-98437071D01*
X99199672Y-98500527D01*
X99199671Y-98500528D01*
X99141518Y-98587560D01*
X98935000Y-98587560D01*
X98687235Y-98636843D01*
X98520000Y-98748587D01*
X98352765Y-98636843D01*
X98105000Y-98587560D01*
X96395000Y-98587560D01*
X96147235Y-98636843D01*
X95980000Y-98748587D01*
X95812765Y-98636843D01*
X95565000Y-98587560D01*
X93855000Y-98587560D01*
X93607235Y-98636843D01*
X93440000Y-98748587D01*
X93272765Y-98636843D01*
X93025000Y-98587560D01*
X91315000Y-98587560D01*
X91067235Y-98636843D01*
X90900000Y-98748587D01*
X90732765Y-98636843D01*
X90485000Y-98587560D01*
X88775000Y-98587560D01*
X88527235Y-98636843D01*
X88317191Y-98777191D01*
X88176843Y-98987235D01*
X88127560Y-99235000D01*
X86735000Y-99235000D01*
X86735000Y-43042702D01*
X86800594Y-42480082D01*
X86979191Y-41988056D01*
X87266192Y-41550308D01*
X87646190Y-41190332D01*
X88098821Y-40927424D01*
X88609416Y-40772780D01*
X89032732Y-40735000D01*
X194957298Y-40735000D01*
X195519918Y-40800594D01*
X195519918Y-40800594D01*
G37*
X195519918Y-40800594D02*
X196011944Y-40979191D01*
X196449692Y-41266192D01*
X196809668Y-41646190D01*
X197072576Y-42098821D01*
X197227220Y-42609416D01*
X197265001Y-43032743D01*
X197265000Y-136957298D01*
X197199405Y-137519918D01*
X197020809Y-138011944D01*
X196733810Y-138449689D01*
X196353807Y-138809670D01*
X195901180Y-139072576D01*
X195390584Y-139227220D01*
X194967269Y-139265000D01*
X89042702Y-139265000D01*
X88480082Y-139199405D01*
X87988056Y-139020809D01*
X87550311Y-138733810D01*
X87190330Y-138353807D01*
X86927424Y-137901180D01*
X86842264Y-137620000D01*
X156536887Y-137620000D01*
X156648260Y-138179909D01*
X156965423Y-138654577D01*
X157440091Y-138971740D01*
X157858667Y-139055000D01*
X158141333Y-139055000D01*
X158559909Y-138971740D01*
X159034577Y-138654577D01*
X159351740Y-138179909D01*
X159463113Y-137620000D01*
X159351740Y-137060091D01*
X159034577Y-136585423D01*
X158559909Y-136268260D01*
X158239945Y-136204615D01*
X160515000Y-136204615D01*
X160515000Y-136795385D01*
X160741078Y-137341185D01*
X161158815Y-137758922D01*
X161704615Y-137985000D01*
X162295385Y-137985000D01*
X162841185Y-137758922D01*
X163258922Y-137341185D01*
X163485000Y-136795385D01*
X163485000Y-136204615D01*
X167015000Y-136204615D01*
X167015000Y-136795385D01*
X167241078Y-137341185D01*
X167658815Y-137758922D01*
X168204615Y-137985000D01*
X168795385Y-137985000D01*
X169341185Y-137758922D01*
X169758922Y-137341185D01*
X169985000Y-136795385D01*
X169985000Y-136204615D01*
X170515000Y-136204615D01*
X170515000Y-136795385D01*
X170741078Y-137341185D01*
X171158815Y-137758922D01*
X171704615Y-137985000D01*
X172295385Y-137985000D01*
X172841185Y-137758922D01*
X173258922Y-137341185D01*
X173485000Y-136795385D01*
X173485000Y-136204615D01*
X177015000Y-136204615D01*
X177015000Y-136795385D01*
X177241078Y-137341185D01*
X177658815Y-137758922D01*
X178204615Y-137985000D01*
X178795385Y-137985000D01*
X179341185Y-137758922D01*
X179758922Y-137341185D01*
X179985000Y-136795385D01*
X179985000Y-136204615D01*
X180515000Y-136204615D01*
X180515000Y-136795385D01*
X180741078Y-137341185D01*
X181158815Y-137758922D01*
X181704615Y-137985000D01*
X182295385Y-137985000D01*
X182841185Y-137758922D01*
X183258922Y-137341185D01*
X183485000Y-136795385D01*
X183485000Y-136204615D01*
X187015000Y-136204615D01*
X187015000Y-136795385D01*
X187241078Y-137341185D01*
X187658815Y-137758922D01*
X188204615Y-137985000D01*
X188795385Y-137985000D01*
X189341185Y-137758922D01*
X189758922Y-137341185D01*
X189985000Y-136795385D01*
X189985000Y-136620000D01*
X191536887Y-136620000D01*
X191648260Y-137179909D01*
X191965423Y-137654577D01*
X192440091Y-137971740D01*
X192858667Y-138055000D01*
X193141333Y-138055000D01*
X193559909Y-137971740D01*
X194034577Y-137654577D01*
X194351740Y-137179909D01*
X194463113Y-136620000D01*
X194351740Y-136060091D01*
X194034577Y-135585423D01*
X193559909Y-135268260D01*
X193141333Y-135185000D01*
X192858667Y-135185000D01*
X192440091Y-135268260D01*
X191965423Y-135585423D01*
X191648260Y-136060091D01*
X191536887Y-136620000D01*
X189985000Y-136620000D01*
X189985000Y-136204615D01*
X189758922Y-135658815D01*
X189341185Y-135241078D01*
X188795385Y-135015000D01*
X188204615Y-135015000D01*
X187658815Y-135241078D01*
X187241078Y-135658815D01*
X187015000Y-136204615D01*
X183485000Y-136204615D01*
X183258922Y-135658815D01*
X182841185Y-135241078D01*
X182295385Y-135015000D01*
X181704615Y-135015000D01*
X181158815Y-135241078D01*
X180741078Y-135658815D01*
X180515000Y-136204615D01*
X179985000Y-136204615D01*
X179758922Y-135658815D01*
X179341185Y-135241078D01*
X178795385Y-135015000D01*
X178204615Y-135015000D01*
X177658815Y-135241078D01*
X177241078Y-135658815D01*
X177015000Y-136204615D01*
X173485000Y-136204615D01*
X173258922Y-135658815D01*
X172841185Y-135241078D01*
X172295385Y-135015000D01*
X171704615Y-135015000D01*
X171158815Y-135241078D01*
X170741078Y-135658815D01*
X170515000Y-136204615D01*
X169985000Y-136204615D01*
X169758922Y-135658815D01*
X169341185Y-135241078D01*
X168795385Y-135015000D01*
X168204615Y-135015000D01*
X167658815Y-135241078D01*
X167241078Y-135658815D01*
X167015000Y-136204615D01*
X163485000Y-136204615D01*
X163258922Y-135658815D01*
X162841185Y-135241078D01*
X162295385Y-135015000D01*
X161704615Y-135015000D01*
X161158815Y-135241078D01*
X160741078Y-135658815D01*
X160515000Y-136204615D01*
X158239945Y-136204615D01*
X158141333Y-136185000D01*
X157858667Y-136185000D01*
X157440091Y-136268260D01*
X156965423Y-136585423D01*
X156648260Y-137060091D01*
X156536887Y-137620000D01*
X86842264Y-137620000D01*
X86772780Y-137390584D01*
X86735000Y-136967269D01*
X86735000Y-123703621D01*
X112010000Y-123703621D01*
X112010000Y-124296379D01*
X112236839Y-124844017D01*
X112655983Y-125263161D01*
X113203621Y-125490000D01*
X113796379Y-125490000D01*
X114344017Y-125263161D01*
X114763161Y-124844017D01*
X114990000Y-124296379D01*
X114990000Y-123703621D01*
X114763161Y-123155983D01*
X114344017Y-122736839D01*
X113796379Y-122510000D01*
X113203621Y-122510000D01*
X112655983Y-122736839D01*
X112236839Y-123155983D01*
X112010000Y-123703621D01*
X86735000Y-123703621D01*
X86735000Y-99235000D01*
X88127560Y-99235000D01*
X88127560Y-100945000D01*
X88176843Y-101192765D01*
X88317191Y-101402809D01*
X88527235Y-101543157D01*
X88775000Y-101592440D01*
X90485000Y-101592440D01*
X90732765Y-101543157D01*
X90900000Y-101431413D01*
X91067235Y-101543157D01*
X91315000Y-101592440D01*
X93025000Y-101592440D01*
X93272765Y-101543157D01*
X93440000Y-101431413D01*
X93607235Y-101543157D01*
X93855000Y-101592440D01*
X95565000Y-101592440D01*
X95812765Y-101543157D01*
X95980000Y-101431413D01*
X96147235Y-101543157D01*
X96395000Y-101592440D01*
X98105000Y-101592440D01*
X98352765Y-101543157D01*
X98520000Y-101431413D01*
X98687235Y-101543157D01*
X98935000Y-101592440D01*
X100645000Y-101592440D01*
X100892765Y-101543157D01*
X101060000Y-101431413D01*
X101227235Y-101543157D01*
X101475000Y-101592440D01*
X103185000Y-101592440D01*
X103432765Y-101543157D01*
X103642809Y-101402809D01*
X103783157Y-101192765D01*
X103832440Y-100945000D01*
X103832440Y-99235000D01*
X103783157Y-98987235D01*
X103642809Y-98777191D01*
X103432765Y-98636843D01*
X103185000Y-98587560D01*
X101475000Y-98587560D01*
X101227235Y-98636843D01*
X101184209Y-98665593D01*
X115839803Y-84010000D01*
X122082689Y-84010000D01*
X121965000Y-84294126D01*
X121965000Y-84705874D01*
X122122569Y-85086280D01*
X122240001Y-85203712D01*
X122240000Y-104785153D01*
X122225112Y-104860000D01*
X122240000Y-104934847D01*
X122240000Y-104934851D01*
X122284096Y-105156536D01*
X122452071Y-105407929D01*
X122515530Y-105450331D01*
X136101312Y-119036114D01*
X136036887Y-119360000D01*
X136148260Y-119919909D01*
X136211797Y-120014999D01*
X132336203Y-120014999D01*
X117321204Y-105000000D01*
X118416887Y-105000000D01*
X118528260Y-105559909D01*
X118845423Y-106034577D01*
X119320091Y-106351740D01*
X119738667Y-106435000D01*
X120021333Y-106435000D01*
X120439909Y-106351740D01*
X120914577Y-106034577D01*
X121231740Y-105559909D01*
X121343113Y-105000000D01*
X121231740Y-104440091D01*
X120914577Y-103965423D01*
X120439909Y-103648260D01*
X120021333Y-103565000D01*
X119738667Y-103565000D01*
X119320091Y-103648260D01*
X118845423Y-103965423D01*
X118528260Y-104440091D01*
X118416887Y-105000000D01*
X117321204Y-105000000D01*
X110781402Y-98460199D01*
X110781402Y-98294126D01*
X110623833Y-97913720D01*
X110332682Y-97622569D01*
X109952276Y-97465000D01*
X109540528Y-97465000D01*
X109160122Y-97622569D01*
X108868971Y-97913720D01*
X108711402Y-98294126D01*
X108711402Y-98705874D01*
X108868971Y-99086280D01*
X109160122Y-99377431D01*
X109540528Y-99535000D01*
X109706601Y-99535000D01*
X113834497Y-103662896D01*
X113655983Y-103736839D01*
X113236839Y-104155983D01*
X113230000Y-104172494D01*
X113223161Y-104155983D01*
X112804017Y-103736839D01*
X112256379Y-103510000D01*
X111663621Y-103510000D01*
X111115983Y-103736839D01*
X110696839Y-104155983D01*
X110470000Y-104703621D01*
X110470000Y-105296379D01*
X110696839Y-105844017D01*
X111115983Y-106263161D01*
X111663621Y-106490000D01*
X112256379Y-106490000D01*
X112804017Y-106263161D01*
X113223161Y-105844017D01*
X113230000Y-105827506D01*
X113236839Y-105844017D01*
X113655983Y-106263161D01*
X114203621Y-106490000D01*
X114796379Y-106490000D01*
X115344017Y-106263161D01*
X115763161Y-105844017D01*
X115837104Y-105665503D01*
X131431071Y-121259471D01*
X131473472Y-121322928D01*
X131536928Y-121365328D01*
X131724863Y-121490903D01*
X131773006Y-121500479D01*
X131946549Y-121534999D01*
X131946553Y-121534999D01*
X132021401Y-121549887D01*
X132096249Y-121534999D01*
X136109490Y-121534999D01*
X136036887Y-121900000D01*
X136148260Y-122459909D01*
X136465423Y-122934577D01*
X136817758Y-123170000D01*
X136465423Y-123405423D01*
X136148260Y-123880091D01*
X136036887Y-124440000D01*
X136109490Y-124805001D01*
X131379803Y-124805001D01*
X130955199Y-124380397D01*
X130990000Y-124296379D01*
X130990000Y-123703621D01*
X130763161Y-123155983D01*
X130344017Y-122736839D01*
X129796379Y-122510000D01*
X129203621Y-122510000D01*
X128655983Y-122736839D01*
X128236839Y-123155983D01*
X128010000Y-123703621D01*
X128010000Y-124296379D01*
X128236839Y-124844017D01*
X128655983Y-125263161D01*
X129203621Y-125490000D01*
X129796379Y-125490000D01*
X129880397Y-125455199D01*
X130474673Y-126049476D01*
X130517072Y-126112930D01*
X130580525Y-126155328D01*
X130580527Y-126155330D01*
X130624932Y-126185000D01*
X130768464Y-126280905D01*
X130990149Y-126325001D01*
X130990153Y-126325001D01*
X131065000Y-126339889D01*
X131139847Y-126325001D01*
X136211797Y-126325001D01*
X136148260Y-126420091D01*
X136036887Y-126980000D01*
X136148260Y-127539909D01*
X136465423Y-128014577D01*
X136817758Y-128250000D01*
X136465423Y-128485423D01*
X136148260Y-128960091D01*
X136036887Y-129520000D01*
X136148260Y-130079909D01*
X136465423Y-130554577D01*
X136817758Y-130790000D01*
X136465423Y-131025423D01*
X136148260Y-131500091D01*
X136036887Y-132060000D01*
X136148260Y-132619909D01*
X136465423Y-133094577D01*
X136940091Y-133411740D01*
X137358667Y-133495000D01*
X137641333Y-133495000D01*
X138059909Y-133411740D01*
X138534577Y-133094577D01*
X138851740Y-132619909D01*
X138963113Y-132060000D01*
X138851740Y-131500091D01*
X138534577Y-131025423D01*
X138182242Y-130790000D01*
X138534577Y-130554577D01*
X138851740Y-130079909D01*
X138963113Y-129520000D01*
X138851740Y-128960091D01*
X138534577Y-128485423D01*
X138182242Y-128250000D01*
X138534577Y-128014577D01*
X138851740Y-127539909D01*
X138963113Y-126980000D01*
X138851740Y-126420091D01*
X138744771Y-126260000D01*
X138796289Y-126260000D01*
X138913720Y-126377431D01*
X139294126Y-126535000D01*
X139705874Y-126535000D01*
X140086280Y-126377431D01*
X140377431Y-126086280D01*
X140535000Y-125705874D01*
X140535000Y-125294126D01*
X140377431Y-124913720D01*
X140086280Y-124622569D01*
X139705874Y-124465000D01*
X139294126Y-124465000D01*
X138927972Y-124616666D01*
X138963113Y-124440000D01*
X138851740Y-123880091D01*
X138534577Y-123405423D01*
X138182242Y-123170000D01*
X138534577Y-122934577D01*
X138851740Y-122459909D01*
X138963113Y-121900000D01*
X138890510Y-121534999D01*
X151300198Y-121534999D01*
X151341312Y-121576113D01*
X151276887Y-121900000D01*
X151388260Y-122459909D01*
X151705423Y-122934577D01*
X152057758Y-123170000D01*
X151705423Y-123405423D01*
X151388260Y-123880091D01*
X151276887Y-124440000D01*
X151388260Y-124999909D01*
X151705423Y-125474577D01*
X152057758Y-125710000D01*
X151705423Y-125945423D01*
X151388260Y-126420091D01*
X151276887Y-126980000D01*
X151388260Y-127539909D01*
X151705423Y-128014577D01*
X152057758Y-128250000D01*
X151705423Y-128485423D01*
X151388260Y-128960091D01*
X151276887Y-129520000D01*
X151388260Y-130079909D01*
X151705423Y-130554577D01*
X152057758Y-130790000D01*
X151705423Y-131025423D01*
X151388260Y-131500091D01*
X151276887Y-132060000D01*
X151388260Y-132619909D01*
X151705423Y-133094577D01*
X152180091Y-133411740D01*
X152598667Y-133495000D01*
X152881333Y-133495000D01*
X153299909Y-133411740D01*
X153774577Y-133094577D01*
X154091740Y-132619909D01*
X154203113Y-132060000D01*
X154132423Y-131704615D01*
X160515000Y-131704615D01*
X160515000Y-132295385D01*
X160741078Y-132841185D01*
X161158815Y-133258922D01*
X161704615Y-133485000D01*
X162295385Y-133485000D01*
X162841185Y-133258922D01*
X163258922Y-132841185D01*
X163485000Y-132295385D01*
X163485000Y-131704615D01*
X167015000Y-131704615D01*
X167015000Y-132295385D01*
X167241078Y-132841185D01*
X167658815Y-133258922D01*
X168204615Y-133485000D01*
X168795385Y-133485000D01*
X169341185Y-133258922D01*
X169758922Y-132841185D01*
X169985000Y-132295385D01*
X169985000Y-131704615D01*
X170515000Y-131704615D01*
X170515000Y-132295385D01*
X170741078Y-132841185D01*
X171158815Y-133258922D01*
X171704615Y-133485000D01*
X172295385Y-133485000D01*
X172841185Y-133258922D01*
X173258922Y-132841185D01*
X173485000Y-132295385D01*
X173485000Y-131704615D01*
X177015000Y-131704615D01*
X177015000Y-132295385D01*
X177241078Y-132841185D01*
X177658815Y-133258922D01*
X178204615Y-133485000D01*
X178795385Y-133485000D01*
X179341185Y-133258922D01*
X179758922Y-132841185D01*
X179985000Y-132295385D01*
X179985000Y-131704615D01*
X180515000Y-131704615D01*
X180515000Y-132295385D01*
X180741078Y-132841185D01*
X181158815Y-133258922D01*
X181704615Y-133485000D01*
X182295385Y-133485000D01*
X182841185Y-133258922D01*
X183258922Y-132841185D01*
X183485000Y-132295385D01*
X183485000Y-131704615D01*
X187015000Y-131704615D01*
X187015000Y-132295385D01*
X187241078Y-132841185D01*
X187658815Y-133258922D01*
X188204615Y-133485000D01*
X188795385Y-133485000D01*
X189341185Y-133258922D01*
X189758922Y-132841185D01*
X189985000Y-132295385D01*
X189985000Y-131704615D01*
X189758922Y-131158815D01*
X189341185Y-130741078D01*
X188795385Y-130515000D01*
X188204615Y-130515000D01*
X187658815Y-130741078D01*
X187241078Y-131158815D01*
X187015000Y-131704615D01*
X183485000Y-131704615D01*
X183258922Y-131158815D01*
X182841185Y-130741078D01*
X182295385Y-130515000D01*
X181704615Y-130515000D01*
X181158815Y-130741078D01*
X180741078Y-131158815D01*
X180515000Y-131704615D01*
X179985000Y-131704615D01*
X179758922Y-131158815D01*
X179341185Y-130741078D01*
X178795385Y-130515000D01*
X178204615Y-130515000D01*
X177658815Y-130741078D01*
X177241078Y-131158815D01*
X177015000Y-131704615D01*
X173485000Y-131704615D01*
X173258922Y-131158815D01*
X172841185Y-130741078D01*
X172295385Y-130515000D01*
X171704615Y-130515000D01*
X171158815Y-130741078D01*
X170741078Y-131158815D01*
X170515000Y-131704615D01*
X169985000Y-131704615D01*
X169758922Y-131158815D01*
X169341185Y-130741078D01*
X168795385Y-130515000D01*
X168204615Y-130515000D01*
X167658815Y-130741078D01*
X167241078Y-131158815D01*
X167015000Y-131704615D01*
X163485000Y-131704615D01*
X163258922Y-131158815D01*
X162841185Y-130741078D01*
X162295385Y-130515000D01*
X161704615Y-130515000D01*
X161158815Y-130741078D01*
X160741078Y-131158815D01*
X160515000Y-131704615D01*
X154132423Y-131704615D01*
X154091740Y-131500091D01*
X153774577Y-131025423D01*
X153422242Y-130790000D01*
X153774577Y-130554577D01*
X154091740Y-130079909D01*
X154203113Y-129520000D01*
X154091740Y-128960091D01*
X153774577Y-128485423D01*
X153422242Y-128250000D01*
X153774577Y-128014577D01*
X154038224Y-127620000D01*
X156536887Y-127620000D01*
X156648260Y-128179909D01*
X156965423Y-128654577D01*
X157175595Y-128795009D01*
X156783466Y-129187138D01*
X156565000Y-129714561D01*
X156565000Y-130285439D01*
X156783466Y-130812862D01*
X157187138Y-131216534D01*
X157714561Y-131435000D01*
X158285439Y-131435000D01*
X158812862Y-131216534D01*
X159216534Y-130812862D01*
X159435000Y-130285439D01*
X159435000Y-130007745D01*
X192171861Y-130007745D01*
X192245995Y-130253864D01*
X192783223Y-130446965D01*
X193353454Y-130419778D01*
X193754005Y-130253864D01*
X193828139Y-130007745D01*
X193000000Y-129179605D01*
X192171861Y-130007745D01*
X159435000Y-130007745D01*
X159435000Y-129714561D01*
X159216534Y-129187138D01*
X158824405Y-128795009D01*
X159034577Y-128654577D01*
X159335231Y-128204615D01*
X160515000Y-128204615D01*
X160515000Y-128795385D01*
X160741078Y-129341185D01*
X161158815Y-129758922D01*
X161704615Y-129985000D01*
X162295385Y-129985000D01*
X162841185Y-129758922D01*
X163258922Y-129341185D01*
X163485000Y-128795385D01*
X163485000Y-128204615D01*
X163451372Y-128123430D01*
X163814803Y-127760000D01*
X167199166Y-127760000D01*
X167015000Y-128204615D01*
X167015000Y-128795385D01*
X167241078Y-129341185D01*
X167658815Y-129758922D01*
X168204615Y-129985000D01*
X168795385Y-129985000D01*
X169341185Y-129758922D01*
X169758922Y-129341185D01*
X169985000Y-128795385D01*
X169985000Y-128204615D01*
X169800834Y-127760000D01*
X170185199Y-127760000D01*
X170548628Y-128123430D01*
X170515000Y-128204615D01*
X170515000Y-128795385D01*
X170741078Y-129341185D01*
X171158815Y-129758922D01*
X171704615Y-129985000D01*
X172295385Y-129985000D01*
X172841185Y-129758922D01*
X173258922Y-129341185D01*
X173485000Y-128795385D01*
X173485000Y-128204615D01*
X173451372Y-128123430D01*
X173814803Y-127760000D01*
X177199166Y-127760000D01*
X177015000Y-128204615D01*
X177015000Y-128795385D01*
X177241078Y-129341185D01*
X177658815Y-129758922D01*
X178204615Y-129985000D01*
X178795385Y-129985000D01*
X179341185Y-129758922D01*
X179758922Y-129341185D01*
X179985000Y-128795385D01*
X179985000Y-128204615D01*
X179800834Y-127760000D01*
X180185199Y-127760000D01*
X180548628Y-128123430D01*
X180515000Y-128204615D01*
X180515000Y-128795385D01*
X180741078Y-129341185D01*
X181158815Y-129758922D01*
X181704615Y-129985000D01*
X182295385Y-129985000D01*
X182841185Y-129758922D01*
X183258922Y-129341185D01*
X183485000Y-128795385D01*
X183485000Y-128204615D01*
X187015000Y-128204615D01*
X187015000Y-128795385D01*
X187241078Y-129341185D01*
X187658815Y-129758922D01*
X188204615Y-129985000D01*
X188795385Y-129985000D01*
X189341185Y-129758922D01*
X189758922Y-129341185D01*
X189985000Y-128795385D01*
X189985000Y-128783223D01*
X191553035Y-128783223D01*
X191580222Y-129353454D01*
X191746136Y-129754005D01*
X191992255Y-129828139D01*
X192820395Y-129000000D01*
X193179605Y-129000000D01*
X194007745Y-129828139D01*
X194253864Y-129754005D01*
X194446965Y-129216777D01*
X194419778Y-128646546D01*
X194253864Y-128245995D01*
X194007745Y-128171861D01*
X193179605Y-129000000D01*
X192820395Y-129000000D01*
X191992255Y-128171861D01*
X191746136Y-128245995D01*
X191553035Y-128783223D01*
X189985000Y-128783223D01*
X189985000Y-128204615D01*
X189897038Y-127992255D01*
X192171861Y-127992255D01*
X193000000Y-128820395D01*
X193828139Y-127992255D01*
X193754005Y-127746136D01*
X193216777Y-127553035D01*
X192646546Y-127580222D01*
X192245995Y-127746136D01*
X192171861Y-127992255D01*
X189897038Y-127992255D01*
X189758922Y-127658815D01*
X189341185Y-127241078D01*
X188795385Y-127015000D01*
X188204615Y-127015000D01*
X187658815Y-127241078D01*
X187241078Y-127658815D01*
X187015000Y-128204615D01*
X183485000Y-128204615D01*
X183258922Y-127658815D01*
X182841185Y-127241078D01*
X182295385Y-127015000D01*
X181704615Y-127015000D01*
X181623430Y-127048628D01*
X181090331Y-126515530D01*
X181047929Y-126452071D01*
X180796537Y-126284096D01*
X180574852Y-126240000D01*
X180574847Y-126240000D01*
X180500000Y-126225112D01*
X180425153Y-126240000D01*
X173574846Y-126240000D01*
X173499999Y-126225112D01*
X173425152Y-126240000D01*
X173425148Y-126240000D01*
X173203463Y-126284096D01*
X173203461Y-126284097D01*
X173203462Y-126284097D01*
X173015526Y-126409671D01*
X173015524Y-126409673D01*
X172952071Y-126452071D01*
X172909673Y-126515524D01*
X172376570Y-127048628D01*
X172295385Y-127015000D01*
X171704615Y-127015000D01*
X171623430Y-127048628D01*
X171090331Y-126515530D01*
X171047929Y-126452071D01*
X170796537Y-126284096D01*
X170574852Y-126240000D01*
X170574847Y-126240000D01*
X170500000Y-126225112D01*
X170425153Y-126240000D01*
X163574846Y-126240000D01*
X163499999Y-126225112D01*
X163425152Y-126240000D01*
X163425148Y-126240000D01*
X163203463Y-126284096D01*
X163203461Y-126284097D01*
X163203462Y-126284097D01*
X163015526Y-126409671D01*
X163015524Y-126409673D01*
X162952071Y-126452071D01*
X162909673Y-126515524D01*
X162376570Y-127048628D01*
X162295385Y-127015000D01*
X161704615Y-127015000D01*
X161158815Y-127241078D01*
X160741078Y-127658815D01*
X160515000Y-128204615D01*
X159335231Y-128204615D01*
X159351740Y-128179909D01*
X159463113Y-127620000D01*
X159351740Y-127060091D01*
X159034577Y-126585423D01*
X158559909Y-126268260D01*
X158141333Y-126185000D01*
X157858667Y-126185000D01*
X157440091Y-126268260D01*
X156965423Y-126585423D01*
X156648260Y-127060091D01*
X156536887Y-127620000D01*
X154038224Y-127620000D01*
X154091740Y-127539909D01*
X154203113Y-126980000D01*
X154091740Y-126420091D01*
X153774577Y-125945423D01*
X153422242Y-125710000D01*
X153774577Y-125474577D01*
X154091740Y-124999909D01*
X154203113Y-124440000D01*
X154091740Y-123880091D01*
X153974491Y-123704615D01*
X160515000Y-123704615D01*
X160515000Y-124295385D01*
X160741078Y-124841185D01*
X161158815Y-125258922D01*
X161704615Y-125485000D01*
X162295385Y-125485000D01*
X162841185Y-125258922D01*
X163258922Y-124841185D01*
X163485000Y-124295385D01*
X163485000Y-123704615D01*
X167015000Y-123704615D01*
X167015000Y-124295385D01*
X167241078Y-124841185D01*
X167658815Y-125258922D01*
X168204615Y-125485000D01*
X168795385Y-125485000D01*
X169341185Y-125258922D01*
X169758922Y-124841185D01*
X169985000Y-124295385D01*
X169985000Y-123704615D01*
X170515000Y-123704615D01*
X170515000Y-124295385D01*
X170741078Y-124841185D01*
X171158815Y-125258922D01*
X171704615Y-125485000D01*
X172295385Y-125485000D01*
X172841185Y-125258922D01*
X173258922Y-124841185D01*
X173485000Y-124295385D01*
X173485000Y-123704615D01*
X177015000Y-123704615D01*
X177015000Y-124295385D01*
X177241078Y-124841185D01*
X177658815Y-125258922D01*
X178204615Y-125485000D01*
X178795385Y-125485000D01*
X179341185Y-125258922D01*
X179758922Y-124841185D01*
X179985000Y-124295385D01*
X179985000Y-123704615D01*
X180515000Y-123704615D01*
X180515000Y-124295385D01*
X180741078Y-124841185D01*
X181158815Y-125258922D01*
X181704615Y-125485000D01*
X182295385Y-125485000D01*
X182841185Y-125258922D01*
X183258922Y-124841185D01*
X183485000Y-124295385D01*
X183485000Y-123704615D01*
X187015000Y-123704615D01*
X187015000Y-124295385D01*
X187241078Y-124841185D01*
X187658815Y-125258922D01*
X188204615Y-125485000D01*
X188795385Y-125485000D01*
X189341185Y-125258922D01*
X189758922Y-124841185D01*
X189985000Y-124295385D01*
X189985000Y-123704615D01*
X189758922Y-123158815D01*
X189341185Y-122741078D01*
X188795385Y-122515000D01*
X188204615Y-122515000D01*
X187658815Y-122741078D01*
X187241078Y-123158815D01*
X187015000Y-123704615D01*
X183485000Y-123704615D01*
X183258922Y-123158815D01*
X182841185Y-122741078D01*
X182295385Y-122515000D01*
X181704615Y-122515000D01*
X181158815Y-122741078D01*
X180741078Y-123158815D01*
X180515000Y-123704615D01*
X179985000Y-123704615D01*
X179758922Y-123158815D01*
X179341185Y-122741078D01*
X178795385Y-122515000D01*
X178204615Y-122515000D01*
X177658815Y-122741078D01*
X177241078Y-123158815D01*
X177015000Y-123704615D01*
X173485000Y-123704615D01*
X173258922Y-123158815D01*
X172841185Y-122741078D01*
X172295385Y-122515000D01*
X171704615Y-122515000D01*
X171158815Y-122741078D01*
X170741078Y-123158815D01*
X170515000Y-123704615D01*
X169985000Y-123704615D01*
X169758922Y-123158815D01*
X169341185Y-122741078D01*
X168795385Y-122515000D01*
X168204615Y-122515000D01*
X167658815Y-122741078D01*
X167241078Y-123158815D01*
X167015000Y-123704615D01*
X163485000Y-123704615D01*
X163258922Y-123158815D01*
X162841185Y-122741078D01*
X162295385Y-122515000D01*
X161704615Y-122515000D01*
X161158815Y-122741078D01*
X160741078Y-123158815D01*
X160515000Y-123704615D01*
X153974491Y-123704615D01*
X153774577Y-123405423D01*
X153422242Y-123170000D01*
X153774577Y-122934577D01*
X154091740Y-122459909D01*
X154203113Y-121900000D01*
X154091740Y-121340091D01*
X153774577Y-120865423D01*
X153422242Y-120630000D01*
X153774577Y-120394577D01*
X154091740Y-119919909D01*
X154203113Y-119360000D01*
X154091740Y-118800091D01*
X153774577Y-118325423D01*
X153422242Y-118090000D01*
X153774577Y-117854577D01*
X153931316Y-117620000D01*
X156536887Y-117620000D01*
X156648260Y-118179909D01*
X156965423Y-118654577D01*
X157175595Y-118795009D01*
X156783466Y-119187138D01*
X156565000Y-119714561D01*
X156565000Y-120285439D01*
X156783466Y-120812862D01*
X157187138Y-121216534D01*
X157714561Y-121435000D01*
X158285439Y-121435000D01*
X158812862Y-121216534D01*
X159216534Y-120812862D01*
X159435000Y-120285439D01*
X159435000Y-120204615D01*
X160515000Y-120204615D01*
X160515000Y-120795385D01*
X160741078Y-121341185D01*
X161158815Y-121758922D01*
X161704615Y-121985000D01*
X162295385Y-121985000D01*
X162841185Y-121758922D01*
X163258922Y-121341185D01*
X163485000Y-120795385D01*
X163485000Y-120204615D01*
X163451372Y-120123430D01*
X163814803Y-119760000D01*
X167199166Y-119760000D01*
X167015000Y-120204615D01*
X167015000Y-120795385D01*
X167241078Y-121341185D01*
X167658815Y-121758922D01*
X168204615Y-121985000D01*
X168795385Y-121985000D01*
X169341185Y-121758922D01*
X169758922Y-121341185D01*
X169985000Y-120795385D01*
X169985000Y-120204615D01*
X169800834Y-119760000D01*
X170185199Y-119760000D01*
X170548628Y-120123430D01*
X170515000Y-120204615D01*
X170515000Y-120795385D01*
X170741078Y-121341185D01*
X171158815Y-121758922D01*
X171704615Y-121985000D01*
X172295385Y-121985000D01*
X172841185Y-121758922D01*
X173258922Y-121341185D01*
X173485000Y-120795385D01*
X173485000Y-120204615D01*
X173451372Y-120123430D01*
X173814803Y-119760000D01*
X177199166Y-119760000D01*
X177015000Y-120204615D01*
X177015000Y-120795385D01*
X177241078Y-121341185D01*
X177658815Y-121758922D01*
X178204615Y-121985000D01*
X178795385Y-121985000D01*
X179341185Y-121758922D01*
X179758922Y-121341185D01*
X179985000Y-120795385D01*
X179985000Y-120204615D01*
X179800834Y-119760000D01*
X180185199Y-119760000D01*
X180548628Y-120123430D01*
X180515000Y-120204615D01*
X180515000Y-120795385D01*
X180741078Y-121341185D01*
X181158815Y-121758922D01*
X181704615Y-121985000D01*
X182295385Y-121985000D01*
X182841185Y-121758922D01*
X183258922Y-121341185D01*
X183485000Y-120795385D01*
X183485000Y-120204615D01*
X187015000Y-120204615D01*
X187015000Y-120795385D01*
X187241078Y-121341185D01*
X187658815Y-121758922D01*
X188204615Y-121985000D01*
X188795385Y-121985000D01*
X189341185Y-121758922D01*
X189758922Y-121341185D01*
X189985000Y-120795385D01*
X189985000Y-120204615D01*
X189758922Y-119658815D01*
X189341185Y-119241078D01*
X188795385Y-119015000D01*
X188204615Y-119015000D01*
X187658815Y-119241078D01*
X187241078Y-119658815D01*
X187015000Y-120204615D01*
X183485000Y-120204615D01*
X183258922Y-119658815D01*
X182841185Y-119241078D01*
X182295385Y-119015000D01*
X181704615Y-119015000D01*
X181623430Y-119048628D01*
X181090331Y-118515530D01*
X181047929Y-118452071D01*
X180796537Y-118284096D01*
X180574852Y-118240000D01*
X180574847Y-118240000D01*
X180500000Y-118225112D01*
X180425153Y-118240000D01*
X173574846Y-118240000D01*
X173499999Y-118225112D01*
X173425152Y-118240000D01*
X173425148Y-118240000D01*
X173203463Y-118284096D01*
X173203461Y-118284097D01*
X173203462Y-118284097D01*
X173015526Y-118409671D01*
X173015524Y-118409673D01*
X172952071Y-118452071D01*
X172909673Y-118515524D01*
X172376570Y-119048628D01*
X172295385Y-119015000D01*
X171704615Y-119015000D01*
X171623430Y-119048628D01*
X171090331Y-118515530D01*
X171047929Y-118452071D01*
X170796537Y-118284096D01*
X170574852Y-118240000D01*
X170574847Y-118240000D01*
X170500000Y-118225112D01*
X170425153Y-118240000D01*
X163574846Y-118240000D01*
X163499999Y-118225112D01*
X163425152Y-118240000D01*
X163425148Y-118240000D01*
X163203463Y-118284096D01*
X163203461Y-118284097D01*
X163203462Y-118284097D01*
X163015526Y-118409671D01*
X163015524Y-118409673D01*
X162952071Y-118452071D01*
X162909673Y-118515524D01*
X162376570Y-119048628D01*
X162295385Y-119015000D01*
X161704615Y-119015000D01*
X161158815Y-119241078D01*
X160741078Y-119658815D01*
X160515000Y-120204615D01*
X159435000Y-120204615D01*
X159435000Y-119714561D01*
X159216534Y-119187138D01*
X158824405Y-118795009D01*
X159034577Y-118654577D01*
X159351740Y-118179909D01*
X159463113Y-117620000D01*
X159351740Y-117060091D01*
X159034577Y-116585423D01*
X158559909Y-116268260D01*
X158141333Y-116185000D01*
X157858667Y-116185000D01*
X157440091Y-116268260D01*
X156965423Y-116585423D01*
X156648260Y-117060091D01*
X156536887Y-117620000D01*
X153931316Y-117620000D01*
X154091740Y-117379909D01*
X154203113Y-116820000D01*
X154091740Y-116260091D01*
X153774577Y-115785423D01*
X153653640Y-115704615D01*
X160515000Y-115704615D01*
X160515000Y-116295385D01*
X160741078Y-116841185D01*
X161158815Y-117258922D01*
X161704615Y-117485000D01*
X162295385Y-117485000D01*
X162841185Y-117258922D01*
X163258922Y-116841185D01*
X163485000Y-116295385D01*
X163485000Y-115704615D01*
X167015000Y-115704615D01*
X167015000Y-116295385D01*
X167241078Y-116841185D01*
X167658815Y-117258922D01*
X168204615Y-117485000D01*
X168795385Y-117485000D01*
X169341185Y-117258922D01*
X169758922Y-116841185D01*
X169985000Y-116295385D01*
X169985000Y-115704615D01*
X170515000Y-115704615D01*
X170515000Y-116295385D01*
X170741078Y-116841185D01*
X171158815Y-117258922D01*
X171704615Y-117485000D01*
X172295385Y-117485000D01*
X172841185Y-117258922D01*
X173258922Y-116841185D01*
X173485000Y-116295385D01*
X173485000Y-115704615D01*
X177015000Y-115704615D01*
X177015000Y-116295385D01*
X177241078Y-116841185D01*
X177658815Y-117258922D01*
X178204615Y-117485000D01*
X178795385Y-117485000D01*
X179341185Y-117258922D01*
X179758922Y-116841185D01*
X179985000Y-116295385D01*
X179985000Y-115704615D01*
X180515000Y-115704615D01*
X180515000Y-116295385D01*
X180741078Y-116841185D01*
X181158815Y-117258922D01*
X181704615Y-117485000D01*
X182295385Y-117485000D01*
X182841185Y-117258922D01*
X183258922Y-116841185D01*
X183485000Y-116295385D01*
X183485000Y-115704615D01*
X187015000Y-115704615D01*
X187015000Y-116295385D01*
X187241078Y-116841185D01*
X187658815Y-117258922D01*
X188204615Y-117485000D01*
X188795385Y-117485000D01*
X189341185Y-117258922D01*
X189758922Y-116841185D01*
X189985000Y-116295385D01*
X189985000Y-115704615D01*
X189758922Y-115158815D01*
X189341185Y-114741078D01*
X188795385Y-114515000D01*
X188204615Y-114515000D01*
X187658815Y-114741078D01*
X187241078Y-115158815D01*
X187015000Y-115704615D01*
X183485000Y-115704615D01*
X183258922Y-115158815D01*
X182841185Y-114741078D01*
X182295385Y-114515000D01*
X181704615Y-114515000D01*
X181158815Y-114741078D01*
X180741078Y-115158815D01*
X180515000Y-115704615D01*
X179985000Y-115704615D01*
X179758922Y-115158815D01*
X179341185Y-114741078D01*
X178795385Y-114515000D01*
X178204615Y-114515000D01*
X177658815Y-114741078D01*
X177241078Y-115158815D01*
X177015000Y-115704615D01*
X173485000Y-115704615D01*
X173258922Y-115158815D01*
X172841185Y-114741078D01*
X172295385Y-114515000D01*
X171704615Y-114515000D01*
X171158815Y-114741078D01*
X170741078Y-115158815D01*
X170515000Y-115704615D01*
X169985000Y-115704615D01*
X169758922Y-115158815D01*
X169341185Y-114741078D01*
X168795385Y-114515000D01*
X168204615Y-114515000D01*
X167658815Y-114741078D01*
X167241078Y-115158815D01*
X167015000Y-115704615D01*
X163485000Y-115704615D01*
X163258922Y-115158815D01*
X162841185Y-114741078D01*
X162295385Y-114515000D01*
X161704615Y-114515000D01*
X161158815Y-114741078D01*
X160741078Y-115158815D01*
X160515000Y-115704615D01*
X153653640Y-115704615D01*
X153422242Y-115550000D01*
X153774577Y-115314577D01*
X154091740Y-114839909D01*
X154203113Y-114280000D01*
X154138688Y-113956113D01*
X155084747Y-113010055D01*
X155148201Y-112967657D01*
X155190599Y-112904204D01*
X155190601Y-112904202D01*
X155316175Y-112716266D01*
X155316176Y-112716265D01*
X155360272Y-112494580D01*
X155360272Y-112494576D01*
X155375160Y-112419729D01*
X155360272Y-112344882D01*
X155360272Y-112204615D01*
X160515000Y-112204615D01*
X160515000Y-112795385D01*
X160741078Y-113341185D01*
X161158815Y-113758922D01*
X161704615Y-113985000D01*
X162295385Y-113985000D01*
X162841185Y-113758922D01*
X163258922Y-113341185D01*
X163485000Y-112795385D01*
X163485000Y-112204615D01*
X163451372Y-112123430D01*
X163814803Y-111760000D01*
X167199166Y-111760000D01*
X167015000Y-112204615D01*
X167015000Y-112795385D01*
X167241078Y-113341185D01*
X167658815Y-113758922D01*
X168204615Y-113985000D01*
X168795385Y-113985000D01*
X169341185Y-113758922D01*
X169758922Y-113341185D01*
X169985000Y-112795385D01*
X169985000Y-112204615D01*
X169800834Y-111760000D01*
X170185199Y-111760000D01*
X170548628Y-112123430D01*
X170515000Y-112204615D01*
X170515000Y-112795385D01*
X170741078Y-113341185D01*
X171158815Y-113758922D01*
X171704615Y-113985000D01*
X172295385Y-113985000D01*
X172841185Y-113758922D01*
X173258922Y-113341185D01*
X173485000Y-112795385D01*
X173485000Y-112204615D01*
X173451372Y-112123430D01*
X173814803Y-111760000D01*
X177199166Y-111760000D01*
X177015000Y-112204615D01*
X177015000Y-112795385D01*
X177241078Y-113341185D01*
X177658815Y-113758922D01*
X178204615Y-113985000D01*
X178795385Y-113985000D01*
X179341185Y-113758922D01*
X179758922Y-113341185D01*
X179985000Y-112795385D01*
X179985000Y-112204615D01*
X179800834Y-111760000D01*
X180185199Y-111760000D01*
X180548628Y-112123430D01*
X180515000Y-112204615D01*
X180515000Y-112795385D01*
X180741078Y-113341185D01*
X181158815Y-113758922D01*
X181704615Y-113985000D01*
X182295385Y-113985000D01*
X182841185Y-113758922D01*
X183258922Y-113341185D01*
X183485000Y-112795385D01*
X183485000Y-112204615D01*
X187015000Y-112204615D01*
X187015000Y-112795385D01*
X187241078Y-113341185D01*
X187658815Y-113758922D01*
X188204615Y-113985000D01*
X188795385Y-113985000D01*
X189341185Y-113758922D01*
X189758922Y-113341185D01*
X189985000Y-112795385D01*
X189985000Y-112204615D01*
X189758922Y-111658815D01*
X189341185Y-111241078D01*
X188795385Y-111015000D01*
X188204615Y-111015000D01*
X187658815Y-111241078D01*
X187241078Y-111658815D01*
X187015000Y-112204615D01*
X183485000Y-112204615D01*
X183258922Y-111658815D01*
X182841185Y-111241078D01*
X182295385Y-111015000D01*
X181704615Y-111015000D01*
X181623430Y-111048628D01*
X181090331Y-110515530D01*
X181047929Y-110452071D01*
X180796537Y-110284096D01*
X180574852Y-110240000D01*
X180574847Y-110240000D01*
X180500000Y-110225112D01*
X180425153Y-110240000D01*
X173574846Y-110240000D01*
X173499999Y-110225112D01*
X173425152Y-110240000D01*
X173425148Y-110240000D01*
X173203463Y-110284096D01*
X173172178Y-110305000D01*
X173015526Y-110409671D01*
X173015524Y-110409673D01*
X172952071Y-110452071D01*
X172909673Y-110515524D01*
X172376570Y-111048628D01*
X172295385Y-111015000D01*
X171704615Y-111015000D01*
X171623430Y-111048628D01*
X171090331Y-110515530D01*
X171047929Y-110452071D01*
X170796537Y-110284096D01*
X170574852Y-110240000D01*
X170574847Y-110240000D01*
X170500000Y-110225112D01*
X170425153Y-110240000D01*
X163574846Y-110240000D01*
X163499999Y-110225112D01*
X163425152Y-110240000D01*
X163425148Y-110240000D01*
X163203463Y-110284096D01*
X163172178Y-110305000D01*
X163015526Y-110409671D01*
X163015524Y-110409673D01*
X162952071Y-110452071D01*
X162909673Y-110515524D01*
X162376570Y-111048628D01*
X162295385Y-111015000D01*
X161704615Y-111015000D01*
X161158815Y-111241078D01*
X160741078Y-111658815D01*
X160515000Y-112204615D01*
X155360272Y-112204615D01*
X155360272Y-109714561D01*
X156565000Y-109714561D01*
X156565000Y-110285439D01*
X156783466Y-110812862D01*
X157187138Y-111216534D01*
X157714561Y-111435000D01*
X158285439Y-111435000D01*
X158812862Y-111216534D01*
X159216534Y-110812862D01*
X159435000Y-110285439D01*
X159435000Y-109714561D01*
X159216534Y-109187138D01*
X158812862Y-108783466D01*
X158285439Y-108565000D01*
X157714561Y-108565000D01*
X157187138Y-108783466D01*
X156783466Y-109187138D01*
X156565000Y-109714561D01*
X155360272Y-109714561D01*
X155360272Y-107704615D01*
X160515000Y-107704615D01*
X160515000Y-108295385D01*
X160741078Y-108841185D01*
X161158815Y-109258922D01*
X161704615Y-109485000D01*
X162295385Y-109485000D01*
X162841185Y-109258922D01*
X163258922Y-108841185D01*
X163485000Y-108295385D01*
X163485000Y-107704615D01*
X167015000Y-107704615D01*
X167015000Y-108295385D01*
X167241078Y-108841185D01*
X167658815Y-109258922D01*
X168204615Y-109485000D01*
X168795385Y-109485000D01*
X169341185Y-109258922D01*
X169758922Y-108841185D01*
X169985000Y-108295385D01*
X169985000Y-107704615D01*
X170515000Y-107704615D01*
X170515000Y-108295385D01*
X170741078Y-108841185D01*
X171158815Y-109258922D01*
X171704615Y-109485000D01*
X172295385Y-109485000D01*
X172841185Y-109258922D01*
X173258922Y-108841185D01*
X173485000Y-108295385D01*
X173485000Y-107704615D01*
X177015000Y-107704615D01*
X177015000Y-108295385D01*
X177241078Y-108841185D01*
X177658815Y-109258922D01*
X178204615Y-109485000D01*
X178795385Y-109485000D01*
X179341185Y-109258922D01*
X179758922Y-108841185D01*
X179985000Y-108295385D01*
X179985000Y-107704615D01*
X180515000Y-107704615D01*
X180515000Y-108295385D01*
X180741078Y-108841185D01*
X181158815Y-109258922D01*
X181704615Y-109485000D01*
X182295385Y-109485000D01*
X182841185Y-109258922D01*
X183258922Y-108841185D01*
X183485000Y-108295385D01*
X183485000Y-107704615D01*
X187015000Y-107704615D01*
X187015000Y-108295385D01*
X187241078Y-108841185D01*
X187658815Y-109258922D01*
X188204615Y-109485000D01*
X188795385Y-109485000D01*
X189341185Y-109258922D01*
X189758922Y-108841185D01*
X189985000Y-108295385D01*
X189985000Y-107704615D01*
X189758922Y-107158815D01*
X189341185Y-106741078D01*
X188795385Y-106515000D01*
X188204615Y-106515000D01*
X187658815Y-106741078D01*
X187241078Y-107158815D01*
X187015000Y-107704615D01*
X183485000Y-107704615D01*
X183258922Y-107158815D01*
X182841185Y-106741078D01*
X182295385Y-106515000D01*
X181704615Y-106515000D01*
X181158815Y-106741078D01*
X180741078Y-107158815D01*
X180515000Y-107704615D01*
X179985000Y-107704615D01*
X179758922Y-107158815D01*
X179341185Y-106741078D01*
X178795385Y-106515000D01*
X178204615Y-106515000D01*
X177658815Y-106741078D01*
X177241078Y-107158815D01*
X177015000Y-107704615D01*
X173485000Y-107704615D01*
X173258922Y-107158815D01*
X172841185Y-106741078D01*
X172295385Y-106515000D01*
X171704615Y-106515000D01*
X171158815Y-106741078D01*
X170741078Y-107158815D01*
X170515000Y-107704615D01*
X169985000Y-107704615D01*
X169758922Y-107158815D01*
X169341185Y-106741078D01*
X168795385Y-106515000D01*
X168204615Y-106515000D01*
X167658815Y-106741078D01*
X167241078Y-107158815D01*
X167015000Y-107704615D01*
X163485000Y-107704615D01*
X163258922Y-107158815D01*
X162841185Y-106741078D01*
X162295385Y-106515000D01*
X161704615Y-106515000D01*
X161158815Y-106741078D01*
X160741078Y-107158815D01*
X160515000Y-107704615D01*
X155360272Y-107704615D01*
X155360272Y-104000000D01*
X168536887Y-104000000D01*
X168648260Y-104559909D01*
X168965423Y-105034577D01*
X169440091Y-105351740D01*
X169858667Y-105435000D01*
X170141333Y-105435000D01*
X170559909Y-105351740D01*
X171034577Y-105034577D01*
X171351740Y-104559909D01*
X171463113Y-104000000D01*
X171406336Y-103714561D01*
X176185000Y-103714561D01*
X176185000Y-104285439D01*
X176403466Y-104812862D01*
X176807138Y-105216534D01*
X177334561Y-105435000D01*
X177905439Y-105435000D01*
X178432862Y-105216534D01*
X178836534Y-104812862D01*
X179055000Y-104285439D01*
X179055000Y-103714561D01*
X179565000Y-103714561D01*
X179565000Y-104285439D01*
X179783466Y-104812862D01*
X180187138Y-105216534D01*
X180714561Y-105435000D01*
X181285439Y-105435000D01*
X181812862Y-105216534D01*
X182216534Y-104812862D01*
X182435000Y-104285439D01*
X182435000Y-104000000D01*
X187156887Y-104000000D01*
X187268260Y-104559909D01*
X187585423Y-105034577D01*
X188060091Y-105351740D01*
X188478667Y-105435000D01*
X188761333Y-105435000D01*
X189179909Y-105351740D01*
X189654577Y-105034577D01*
X189971740Y-104559909D01*
X190083113Y-104000000D01*
X189971740Y-103440091D01*
X189654577Y-102965423D01*
X189179909Y-102648260D01*
X188761333Y-102565000D01*
X188478667Y-102565000D01*
X188060091Y-102648260D01*
X187585423Y-102965423D01*
X187268260Y-103440091D01*
X187156887Y-104000000D01*
X182435000Y-104000000D01*
X182435000Y-103714561D01*
X182216534Y-103187138D01*
X181812862Y-102783466D01*
X181285439Y-102565000D01*
X180714561Y-102565000D01*
X180187138Y-102783466D01*
X179783466Y-103187138D01*
X179565000Y-103714561D01*
X179055000Y-103714561D01*
X178836534Y-103187138D01*
X178432862Y-102783466D01*
X177905439Y-102565000D01*
X177334561Y-102565000D01*
X176807138Y-102783466D01*
X176403466Y-103187138D01*
X176185000Y-103714561D01*
X171406336Y-103714561D01*
X171351740Y-103440091D01*
X171034577Y-102965423D01*
X170559909Y-102648260D01*
X170141333Y-102565000D01*
X169858667Y-102565000D01*
X169440091Y-102648260D01*
X168965423Y-102965423D01*
X168648260Y-103440091D01*
X168536887Y-104000000D01*
X155360272Y-104000000D01*
X155360272Y-101850116D01*
X155375160Y-101775269D01*
X155360272Y-101700422D01*
X155360272Y-101700418D01*
X155316176Y-101478733D01*
X155148201Y-101227341D01*
X155084745Y-101184941D01*
X153870332Y-99970529D01*
X153857216Y-99950899D01*
X154015131Y-99714561D01*
X160565000Y-99714561D01*
X160565000Y-100285439D01*
X160783466Y-100812862D01*
X161187138Y-101216534D01*
X161714561Y-101435000D01*
X162285439Y-101435000D01*
X162812862Y-101216534D01*
X163216534Y-100812862D01*
X163435000Y-100285439D01*
X163435000Y-100000000D01*
X168156887Y-100000000D01*
X168268260Y-100559909D01*
X168585423Y-101034577D01*
X169060091Y-101351740D01*
X169478667Y-101435000D01*
X169761333Y-101435000D01*
X170179909Y-101351740D01*
X170654577Y-101034577D01*
X170971740Y-100559909D01*
X171083113Y-100000000D01*
X179536887Y-100000000D01*
X179648260Y-100559909D01*
X179965423Y-101034577D01*
X180440091Y-101351740D01*
X180858667Y-101435000D01*
X181141333Y-101435000D01*
X181559909Y-101351740D01*
X182034577Y-101034577D01*
X182351740Y-100559909D01*
X182463113Y-100000000D01*
X182406336Y-99714561D01*
X187185000Y-99714561D01*
X187185000Y-100285439D01*
X187403466Y-100812862D01*
X187807138Y-101216534D01*
X188334561Y-101435000D01*
X188905439Y-101435000D01*
X189432862Y-101216534D01*
X189836534Y-100812862D01*
X190055000Y-100285439D01*
X190055000Y-99714561D01*
X189836534Y-99187138D01*
X189432862Y-98783466D01*
X188905439Y-98565000D01*
X188334561Y-98565000D01*
X187807138Y-98783466D01*
X187403466Y-99187138D01*
X187185000Y-99714561D01*
X182406336Y-99714561D01*
X182351740Y-99440091D01*
X182034577Y-98965423D01*
X181559909Y-98648260D01*
X181141333Y-98565000D01*
X180858667Y-98565000D01*
X180440091Y-98648260D01*
X179965423Y-98965423D01*
X179648260Y-99440091D01*
X179536887Y-100000000D01*
X171083113Y-100000000D01*
X170971740Y-99440091D01*
X170654577Y-98965423D01*
X170179909Y-98648260D01*
X169761333Y-98565000D01*
X169478667Y-98565000D01*
X169060091Y-98648260D01*
X168585423Y-98965423D01*
X168268260Y-99440091D01*
X168156887Y-100000000D01*
X163435000Y-100000000D01*
X163435000Y-99714561D01*
X163216534Y-99187138D01*
X162812862Y-98783466D01*
X162285439Y-98565000D01*
X161714561Y-98565000D01*
X161187138Y-98783466D01*
X160783466Y-99187138D01*
X160565000Y-99714561D01*
X154015131Y-99714561D01*
X154091740Y-99599909D01*
X154203113Y-99040000D01*
X154091740Y-98480091D01*
X153774577Y-98005423D01*
X153390892Y-97749053D01*
X153595134Y-97652389D01*
X153971041Y-97237423D01*
X154131904Y-96849039D01*
X154009915Y-96627000D01*
X152867000Y-96627000D01*
X152867000Y-96647000D01*
X152613000Y-96647000D01*
X152613000Y-96627000D01*
X151470085Y-96627000D01*
X151348096Y-96849039D01*
X151508959Y-97237423D01*
X151884866Y-97652389D01*
X152089108Y-97749053D01*
X151705423Y-98005423D01*
X151548684Y-98240000D01*
X147703711Y-98240000D01*
X147586280Y-98122569D01*
X147205874Y-97965000D01*
X146794126Y-97965000D01*
X146413720Y-98122569D01*
X146269045Y-98267244D01*
X144534999Y-96533200D01*
X144534999Y-96150961D01*
X151348096Y-96150961D01*
X151470085Y-96373000D01*
X152613000Y-96373000D01*
X152613000Y-95229371D01*
X152867000Y-95229371D01*
X152867000Y-96373000D01*
X154009915Y-96373000D01*
X154131904Y-96150961D01*
X153971041Y-95762577D01*
X153595134Y-95347611D01*
X153089041Y-95108086D01*
X152867000Y-95229371D01*
X152613000Y-95229371D01*
X152390959Y-95108086D01*
X151884866Y-95347611D01*
X151508959Y-95762577D01*
X151348096Y-96150961D01*
X144534999Y-96150961D01*
X144534999Y-95535000D01*
X144705874Y-95535000D01*
X145086280Y-95377431D01*
X145203711Y-95260000D01*
X149296289Y-95260000D01*
X149413720Y-95377431D01*
X149794126Y-95535000D01*
X150205874Y-95535000D01*
X150586280Y-95377431D01*
X150877431Y-95086280D01*
X151035000Y-94705874D01*
X151035000Y-94294126D01*
X150913169Y-94000000D01*
X151035000Y-93705874D01*
X151035000Y-93294126D01*
X150877431Y-92913720D01*
X150586280Y-92622569D01*
X150205874Y-92465000D01*
X149794126Y-92465000D01*
X149413720Y-92622569D01*
X149296289Y-92740000D01*
X145203711Y-92740000D01*
X145086280Y-92622569D01*
X144705874Y-92465000D01*
X144534999Y-92465000D01*
X144534999Y-92364846D01*
X144549887Y-92289999D01*
X144534999Y-92215152D01*
X144534999Y-92215147D01*
X144490903Y-91993462D01*
X144342445Y-91771279D01*
X160503282Y-91771279D01*
X160529685Y-92361458D01*
X160704741Y-92784080D01*
X160956042Y-92864353D01*
X161820395Y-92000000D01*
X160956042Y-91135647D01*
X160704741Y-91215920D01*
X160503282Y-91771279D01*
X144342445Y-91771279D01*
X144322928Y-91742070D01*
X144259472Y-91699670D01*
X139035000Y-86475199D01*
X139035000Y-86309126D01*
X138877431Y-85928720D01*
X138586280Y-85637569D01*
X138205874Y-85480000D01*
X137794126Y-85480000D01*
X137413720Y-85637569D01*
X137250000Y-85801289D01*
X137086280Y-85637569D01*
X136705874Y-85480000D01*
X136294126Y-85480000D01*
X135913720Y-85637569D01*
X135622569Y-85928720D01*
X135465000Y-86309126D01*
X135465000Y-86720874D01*
X135622569Y-87101280D01*
X135740001Y-87218712D01*
X135740000Y-92498155D01*
X135725112Y-92573002D01*
X135740000Y-92647849D01*
X135740000Y-92647853D01*
X135784096Y-92869538D01*
X135952071Y-93120931D01*
X136015530Y-93163333D01*
X137904757Y-95052560D01*
X136700000Y-95052560D01*
X136452235Y-95101843D01*
X136242191Y-95242191D01*
X136101843Y-95452235D01*
X136052560Y-95700000D01*
X136052560Y-97300000D01*
X136101843Y-97547765D01*
X136242191Y-97757809D01*
X136452235Y-97898157D01*
X136586106Y-97924785D01*
X136465423Y-98005423D01*
X136148260Y-98480091D01*
X136036887Y-99040000D01*
X136148260Y-99599909D01*
X136465423Y-100074577D01*
X136817758Y-100310000D01*
X136465423Y-100545423D01*
X136148260Y-101020091D01*
X136036887Y-101580000D01*
X136148260Y-102139909D01*
X136465423Y-102614577D01*
X136817758Y-102850000D01*
X136465423Y-103085423D01*
X136148260Y-103560091D01*
X136036887Y-104120000D01*
X136148260Y-104679909D01*
X136387396Y-105037802D01*
X134110200Y-107314999D01*
X128535000Y-107314999D01*
X128535000Y-107294126D01*
X128377431Y-106913720D01*
X128086280Y-106622569D01*
X127705874Y-106465000D01*
X127294126Y-106465000D01*
X126913720Y-106622569D01*
X126622569Y-106913720D01*
X126477866Y-107263065D01*
X124500551Y-105285750D01*
X126065000Y-105285750D01*
X126065000Y-105926310D01*
X126161673Y-106159699D01*
X126340302Y-106338327D01*
X126573691Y-106435000D01*
X127214250Y-106435000D01*
X127373000Y-106276250D01*
X127373000Y-105127000D01*
X127627000Y-105127000D01*
X127627000Y-106276250D01*
X127785750Y-106435000D01*
X128426309Y-106435000D01*
X128659698Y-106338327D01*
X128838327Y-106159699D01*
X128935000Y-105926310D01*
X128935000Y-105285750D01*
X128776250Y-105127000D01*
X127627000Y-105127000D01*
X127373000Y-105127000D01*
X126223750Y-105127000D01*
X126065000Y-105285750D01*
X124500551Y-105285750D01*
X123760000Y-104545199D01*
X123760000Y-104073690D01*
X126065000Y-104073690D01*
X126065000Y-104714250D01*
X126223750Y-104873000D01*
X127373000Y-104873000D01*
X127373000Y-103723750D01*
X127627000Y-103723750D01*
X127627000Y-104873000D01*
X128776250Y-104873000D01*
X128935000Y-104714250D01*
X128935000Y-104073690D01*
X128838327Y-103840301D01*
X128659698Y-103661673D01*
X128426309Y-103565000D01*
X127785750Y-103565000D01*
X127627000Y-103723750D01*
X127373000Y-103723750D01*
X127214250Y-103565000D01*
X126573691Y-103565000D01*
X126340302Y-103661673D01*
X126161673Y-103840301D01*
X126065000Y-104073690D01*
X123760000Y-104073690D01*
X123760000Y-86837579D01*
X132962026Y-86837579D01*
X133042912Y-87089398D01*
X133600084Y-87291693D01*
X134192259Y-87265368D01*
X134617088Y-87089398D01*
X134697974Y-86837579D01*
X133830000Y-85969605D01*
X132962026Y-86837579D01*
X123760000Y-86837579D01*
X123760000Y-85560084D01*
X132328307Y-85560084D01*
X132354632Y-86152259D01*
X132530602Y-86577088D01*
X132782421Y-86657974D01*
X133650395Y-85790000D01*
X132782421Y-84922026D01*
X132530602Y-85002912D01*
X132328307Y-85560084D01*
X123760000Y-85560084D01*
X123760000Y-85203711D01*
X123877431Y-85086280D01*
X124035000Y-84705874D01*
X124035000Y-84294126D01*
X123917311Y-84010000D01*
X132532038Y-84010000D01*
X132566839Y-84094017D01*
X132985983Y-84513161D01*
X133029832Y-84531324D01*
X132962026Y-84742421D01*
X133830000Y-85610395D01*
X133844143Y-85596253D01*
X134023748Y-85775858D01*
X134009605Y-85790000D01*
X134877579Y-86657974D01*
X135129398Y-86577088D01*
X135331693Y-86019916D01*
X135305368Y-85427741D01*
X135161329Y-85080000D01*
X145702038Y-85080000D01*
X145736839Y-85164017D01*
X146155983Y-85583161D01*
X146703621Y-85810000D01*
X147296379Y-85810000D01*
X147844017Y-85583161D01*
X148263161Y-85164017D01*
X148490000Y-84616379D01*
X148490000Y-84023621D01*
X148263161Y-83475983D01*
X147844017Y-83056839D01*
X147827506Y-83050000D01*
X147844017Y-83043161D01*
X148263161Y-82624017D01*
X148297962Y-82540000D01*
X153204201Y-82540000D01*
X161324122Y-90659922D01*
X161215920Y-90704741D01*
X161135647Y-90956042D01*
X162000000Y-91820395D01*
X162014143Y-91806253D01*
X162193748Y-91985858D01*
X162179605Y-92000000D01*
X162193748Y-92014143D01*
X162014143Y-92193748D01*
X162000000Y-92179605D01*
X161135647Y-93043958D01*
X161215920Y-93295259D01*
X161317934Y-93332265D01*
X160460199Y-94190000D01*
X160294126Y-94190000D01*
X159913720Y-94347569D01*
X159622569Y-94638720D01*
X159465000Y-95019126D01*
X159465000Y-95430874D01*
X159622569Y-95811280D01*
X159913720Y-96102431D01*
X160294126Y-96260000D01*
X160515000Y-96260000D01*
X160515000Y-96795385D01*
X160741078Y-97341185D01*
X161158815Y-97758922D01*
X161704615Y-97985000D01*
X162295385Y-97985000D01*
X162841185Y-97758922D01*
X163258922Y-97341185D01*
X163485000Y-96795385D01*
X163485000Y-96204615D01*
X167015000Y-96204615D01*
X167015000Y-96795385D01*
X167241078Y-97341185D01*
X167658815Y-97758922D01*
X168204615Y-97985000D01*
X168795385Y-97985000D01*
X169341185Y-97758922D01*
X169758922Y-97341185D01*
X169985000Y-96795385D01*
X169985000Y-96204615D01*
X180515000Y-96204615D01*
X180515000Y-96795385D01*
X180741078Y-97341185D01*
X181158815Y-97758922D01*
X181704615Y-97985000D01*
X182295385Y-97985000D01*
X182841185Y-97758922D01*
X183258922Y-97341185D01*
X183485000Y-96795385D01*
X183485000Y-96204615D01*
X187015000Y-96204615D01*
X187015000Y-96795385D01*
X187241078Y-97341185D01*
X187658815Y-97758922D01*
X188204615Y-97985000D01*
X188795385Y-97985000D01*
X189341185Y-97758922D01*
X189758922Y-97341185D01*
X189985000Y-96795385D01*
X189985000Y-96204615D01*
X189758922Y-95658815D01*
X189341185Y-95241078D01*
X188795385Y-95015000D01*
X188204615Y-95015000D01*
X187658815Y-95241078D01*
X187241078Y-95658815D01*
X187015000Y-96204615D01*
X183485000Y-96204615D01*
X183258922Y-95658815D01*
X182841185Y-95241078D01*
X182295385Y-95015000D01*
X181704615Y-95015000D01*
X181158815Y-95241078D01*
X180741078Y-95658815D01*
X180515000Y-96204615D01*
X169985000Y-96204615D01*
X169758922Y-95658815D01*
X169341185Y-95241078D01*
X168795385Y-95015000D01*
X168204615Y-95015000D01*
X167658815Y-95241078D01*
X167241078Y-95658815D01*
X167015000Y-96204615D01*
X163485000Y-96204615D01*
X163258922Y-95658815D01*
X162841185Y-95241078D01*
X162295385Y-95015000D01*
X161784801Y-95015000D01*
X163659474Y-93140328D01*
X163722930Y-93097928D01*
X163875536Y-92869538D01*
X163890905Y-92846537D01*
X163930425Y-92647854D01*
X163935001Y-92624851D01*
X163935001Y-92624847D01*
X163949889Y-92549999D01*
X163935001Y-92475151D01*
X163935001Y-91704615D01*
X167015000Y-91704615D01*
X167015000Y-92295385D01*
X167241078Y-92841185D01*
X167658815Y-93258922D01*
X168204615Y-93485000D01*
X168795385Y-93485000D01*
X169341185Y-93258922D01*
X169556149Y-93043958D01*
X181135647Y-93043958D01*
X181215920Y-93295259D01*
X181771279Y-93496718D01*
X182361458Y-93470315D01*
X182784080Y-93295259D01*
X182864353Y-93043958D01*
X182000000Y-92179605D01*
X181135647Y-93043958D01*
X169556149Y-93043958D01*
X169758922Y-92841185D01*
X169985000Y-92295385D01*
X169985000Y-91771279D01*
X180503282Y-91771279D01*
X180529685Y-92361458D01*
X180704741Y-92784080D01*
X180956042Y-92864353D01*
X181820395Y-92000000D01*
X182179605Y-92000000D01*
X183043958Y-92864353D01*
X183295259Y-92784080D01*
X183496718Y-92228721D01*
X183473271Y-91704615D01*
X187015000Y-91704615D01*
X187015000Y-92295385D01*
X187241078Y-92841185D01*
X187658815Y-93258922D01*
X188204615Y-93485000D01*
X188795385Y-93485000D01*
X189341185Y-93258922D01*
X189758922Y-92841185D01*
X189985000Y-92295385D01*
X189985000Y-91704615D01*
X189758922Y-91158815D01*
X189341185Y-90741078D01*
X188795385Y-90515000D01*
X188204615Y-90515000D01*
X187658815Y-90741078D01*
X187241078Y-91158815D01*
X187015000Y-91704615D01*
X183473271Y-91704615D01*
X183470315Y-91638542D01*
X183295259Y-91215920D01*
X183043958Y-91135647D01*
X182179605Y-92000000D01*
X181820395Y-92000000D01*
X180956042Y-91135647D01*
X180704741Y-91215920D01*
X180503282Y-91771279D01*
X169985000Y-91771279D01*
X169985000Y-91704615D01*
X169758922Y-91158815D01*
X169556149Y-90956042D01*
X181135647Y-90956042D01*
X182000000Y-91820395D01*
X182864353Y-90956042D01*
X182784080Y-90704741D01*
X182228721Y-90503282D01*
X181638542Y-90529685D01*
X181215920Y-90704741D01*
X181135647Y-90956042D01*
X169556149Y-90956042D01*
X169341185Y-90741078D01*
X168795385Y-90515000D01*
X168204615Y-90515000D01*
X167658815Y-90741078D01*
X167241078Y-91158815D01*
X167015000Y-91704615D01*
X163935001Y-91704615D01*
X163935001Y-91510847D01*
X163949889Y-91435999D01*
X163935001Y-91361151D01*
X163935001Y-91361147D01*
X163890905Y-91139462D01*
X163890905Y-91139461D01*
X163765330Y-90951526D01*
X163722930Y-90888070D01*
X163659474Y-90845670D01*
X154109333Y-81295530D01*
X154066931Y-81232071D01*
X153815539Y-81064096D01*
X153593854Y-81020000D01*
X153593849Y-81020000D01*
X153519002Y-81005112D01*
X153444155Y-81020000D01*
X148297962Y-81020000D01*
X148263161Y-80935983D01*
X147844017Y-80516839D01*
X147827506Y-80510000D01*
X147844017Y-80503161D01*
X148263161Y-80084017D01*
X148490000Y-79536379D01*
X148490000Y-78943621D01*
X148263161Y-78395983D01*
X147844017Y-77976839D01*
X147827506Y-77970000D01*
X147844017Y-77963161D01*
X148263161Y-77544017D01*
X148490000Y-76996379D01*
X148490000Y-76403621D01*
X148263161Y-75855983D01*
X147844017Y-75436839D01*
X147827506Y-75430000D01*
X147844017Y-75423161D01*
X148263161Y-75004017D01*
X148490000Y-74456379D01*
X148490000Y-73863621D01*
X148263161Y-73315983D01*
X147844017Y-72896839D01*
X147827506Y-72890000D01*
X147844017Y-72883161D01*
X148263161Y-72464017D01*
X148490000Y-71916379D01*
X148490000Y-71323621D01*
X148263161Y-70775983D01*
X147844017Y-70356839D01*
X147827506Y-70350000D01*
X147844017Y-70343161D01*
X148263161Y-69924017D01*
X148490000Y-69376379D01*
X148490000Y-68783621D01*
X148263161Y-68235983D01*
X147844017Y-67816839D01*
X147827506Y-67810000D01*
X147844017Y-67803161D01*
X148263161Y-67384017D01*
X148490000Y-66836379D01*
X148490000Y-66243621D01*
X148263161Y-65695983D01*
X147844017Y-65276839D01*
X147827506Y-65270000D01*
X147844017Y-65263161D01*
X148263161Y-64844017D01*
X148490000Y-64296379D01*
X148490000Y-63703621D01*
X148263161Y-63155983D01*
X147844017Y-62736839D01*
X147827506Y-62730000D01*
X147844017Y-62723161D01*
X148263161Y-62304017D01*
X148490000Y-61756379D01*
X148490000Y-61163621D01*
X148263161Y-60615983D01*
X147844017Y-60196839D01*
X147827506Y-60190000D01*
X147844017Y-60183161D01*
X148263161Y-59764017D01*
X148490000Y-59216379D01*
X148490000Y-58623621D01*
X148263161Y-58075983D01*
X147844017Y-57656839D01*
X147827506Y-57650000D01*
X147844017Y-57643161D01*
X148263161Y-57224017D01*
X148490000Y-56676379D01*
X148490000Y-56083621D01*
X148263161Y-55535983D01*
X147844017Y-55116839D01*
X147827506Y-55110000D01*
X147844017Y-55103161D01*
X148263161Y-54684017D01*
X148490000Y-54136379D01*
X148490000Y-53543621D01*
X148263161Y-52995983D01*
X147844017Y-52576839D01*
X147827506Y-52570000D01*
X147844017Y-52563161D01*
X148263161Y-52144017D01*
X148490000Y-51596379D01*
X148490000Y-51003621D01*
X148263161Y-50455983D01*
X147844017Y-50036839D01*
X147827506Y-50030000D01*
X147844017Y-50023161D01*
X148263161Y-49604017D01*
X148490000Y-49056379D01*
X148490000Y-48463621D01*
X148263161Y-47915983D01*
X147844017Y-47496839D01*
X147827506Y-47490000D01*
X147844017Y-47483161D01*
X148263161Y-47064017D01*
X148490000Y-46516379D01*
X148490000Y-45923621D01*
X148263161Y-45375983D01*
X147844017Y-44956839D01*
X147296379Y-44730000D01*
X146703621Y-44730000D01*
X146155983Y-44956839D01*
X145736839Y-45375983D01*
X145510000Y-45923621D01*
X145510000Y-46516379D01*
X145544801Y-46600397D01*
X143433722Y-48711476D01*
X143216534Y-48187138D01*
X142812862Y-47783466D01*
X142285439Y-47565000D01*
X141714561Y-47565000D01*
X141187138Y-47783466D01*
X140783466Y-48187138D01*
X140565000Y-48714561D01*
X140565000Y-49285439D01*
X140783466Y-49812862D01*
X141187138Y-50216534D01*
X141711476Y-50433722D01*
X126102531Y-66042668D01*
X126039072Y-66085070D01*
X125871097Y-66336463D01*
X125827001Y-66558148D01*
X125827001Y-66558152D01*
X125822371Y-66581428D01*
X125777881Y-66563000D01*
X125222119Y-66563000D01*
X124708663Y-66775680D01*
X124315680Y-67168663D01*
X124103000Y-67682119D01*
X124103000Y-68237881D01*
X124315680Y-68751337D01*
X124668690Y-69104347D01*
X124490235Y-69139843D01*
X124280191Y-69280191D01*
X124139843Y-69490235D01*
X124090560Y-69738000D01*
X124090560Y-71262000D01*
X124139843Y-71509765D01*
X124280191Y-71719809D01*
X124490235Y-71860157D01*
X124738000Y-71909440D01*
X124740001Y-71909440D01*
X124740000Y-74845153D01*
X124725112Y-74920000D01*
X124740000Y-74994847D01*
X124740000Y-74994851D01*
X124784096Y-75216536D01*
X124952071Y-75467929D01*
X125015530Y-75510331D01*
X131995198Y-82490000D01*
X115599846Y-82490000D01*
X115524999Y-82475112D01*
X115450152Y-82490000D01*
X115450148Y-82490000D01*
X115228463Y-82534096D01*
X115228461Y-82534097D01*
X115228462Y-82534097D01*
X115040526Y-82659671D01*
X115040524Y-82659673D01*
X114977071Y-82702071D01*
X114934673Y-82765524D01*
X99305528Y-98394671D01*
X99242072Y-98437071D01*
X99199672Y-98500527D01*
X99199671Y-98500528D01*
X99141518Y-98587560D01*
X98935000Y-98587560D01*
X98687235Y-98636843D01*
X98520000Y-98748587D01*
X98352765Y-98636843D01*
X98105000Y-98587560D01*
X96395000Y-98587560D01*
X96147235Y-98636843D01*
X95980000Y-98748587D01*
X95812765Y-98636843D01*
X95565000Y-98587560D01*
X93855000Y-98587560D01*
X93607235Y-98636843D01*
X93440000Y-98748587D01*
X93272765Y-98636843D01*
X93025000Y-98587560D01*
X91315000Y-98587560D01*
X91067235Y-98636843D01*
X90900000Y-98748587D01*
X90732765Y-98636843D01*
X90485000Y-98587560D01*
X88775000Y-98587560D01*
X88527235Y-98636843D01*
X88317191Y-98777191D01*
X88176843Y-98987235D01*
X88127560Y-99235000D01*
X86735000Y-99235000D01*
X86735000Y-43042702D01*
X86800594Y-42480082D01*
X86979191Y-41988056D01*
X87266192Y-41550308D01*
X87646190Y-41190332D01*
X88098821Y-40927424D01*
X88609416Y-40772780D01*
X89032732Y-40735000D01*
X194957298Y-40735000D01*
X195519918Y-40800594D01*
G04 #@! TD*
M02*
