M48
;DRILL file {KiCad (5.0.0)} date 04/03/19 14:36:41
;FORMAT={-:-/ absolute / inch / decimal}
FMAT,2
INCH,TZ
T1C0.0157
T2C0.0300
T3C0.0315
T4C0.0394
T5C0.0398
%
G90
G05
M72
T1
X6.325Y-4.2247
T2
X5.Y-2.6165
X5.Y-2.7165
X5.1Y-2.6165
X5.1Y-2.7165
X5.2Y-2.6165
X5.2Y-2.7165
X5.3Y-2.6165
X5.3Y-2.7165
T3
X7.2047Y-4.0945
X7.5047Y-4.0945
X7.6772Y-5.0787
X7.6772Y-5.3787
X6.7717Y-2.8937
X7.0717Y-2.8937
X6.7717Y-2.7559
X7.0717Y-2.7559
X6.2992Y-4.3307
X6.2992Y-4.6307
X6.2992Y-4.7244
X6.2992Y-5.0244
X6.7717Y-3.0315
X7.0717Y-3.0315
X5.5512Y-3.7992
X5.5512Y-3.8992
X5.5512Y-3.9992
X5.5512Y-4.0992
X5.5512Y-4.1992
X5.5512Y-4.2992
X5.5512Y-4.3992
X5.5512Y-4.4992
X5.5512Y-4.5992
X5.5512Y-4.6992
X5.5512Y-4.7992
X5.5512Y-4.8992
X5.5512Y-4.9992
X5.5512Y-5.0992
X5.5512Y-5.1992
X6.1512Y-3.7992
X6.1512Y-3.8992
X6.1512Y-3.9992
X6.1512Y-4.0992
X6.1512Y-4.1992
X6.1512Y-4.2992
X6.1512Y-4.3992
X6.1512Y-4.4992
X6.1512Y-4.5992
X6.1512Y-4.6992
X6.1512Y-4.7992
X6.1512Y-4.8992
X6.1512Y-4.9992
X6.1512Y-5.0992
X6.1512Y-5.1992
X6.2992Y-5.1181
X6.2992Y-5.4181
X6.7717Y-3.3071
X7.0717Y-3.3071
X6.7717Y-3.1693
X7.0717Y-3.1693
X6.4567Y-3.937
X6.7567Y-3.937
X6.7717Y-4.0945
X7.0717Y-4.0945
X7.2047Y-3.937
X7.5047Y-3.937
X5.6299Y-1.9291
X5.6299Y-2.2291
X5.374Y-5.1181
X5.374Y-5.4181
X5.3543Y-3.4008
X5.3543Y-3.7008
X4.0157Y-2.8496
X4.0157Y-3.1496
X5.7283Y-3.5433
X5.9252Y-3.5433
X4.Y-3.4126
X4.1969Y-3.4126
X5.6102Y-2.5
X5.6102Y-2.6969
X6.8701Y-3.622
X7.0669Y-3.622
T4
X6.4567Y-4.252
X6.4567Y-4.4291
X6.7126Y-4.252
X6.7126Y-4.4291
X6.4567Y-4.8819
X6.4567Y-5.0591
X6.7126Y-4.8819
X6.7126Y-5.0591
X6.8504Y-4.8819
X6.8504Y-5.0591
X7.1063Y-4.8819
X7.1063Y-5.0591
X7.2441Y-3.622
X7.2441Y-3.7992
X7.5Y-3.622
X7.5Y-3.7992
X7.2441Y-4.252
X7.2441Y-4.4291
X7.5Y-4.252
X7.5Y-4.4291
X6.8504Y-4.252
X6.8504Y-4.4291
X7.1063Y-4.252
X7.1063Y-4.4291
X7.2441Y-4.8819
X7.2441Y-5.0591
X7.5Y-4.8819
X7.5Y-5.0591
X6.8504Y-4.5669
X6.8504Y-4.7441
X7.1063Y-4.5669
X7.1063Y-4.7441
X6.4567Y-3.622
X6.4567Y-3.7992
X6.7126Y-3.622
X6.7126Y-3.7992
X6.8504Y-5.1969
X6.8504Y-5.374
X7.1063Y-5.1969
X7.1063Y-5.374
X7.2441Y-4.5669
X7.2441Y-4.7441
X7.5Y-4.5669
X7.5Y-4.7441
X7.2441Y-5.1969
X7.2441Y-5.374
X7.5Y-5.1969
X7.5Y-5.374
X6.4567Y-5.1969
X6.4567Y-5.374
X6.7126Y-5.1969
X6.7126Y-5.374
X6.4567Y-4.5669
X6.4567Y-4.7441
X6.7126Y-4.5669
X6.7126Y-4.7441
T5
X5.7874Y-1.8197
X5.7874Y-1.9197
X5.7874Y-2.0197
X5.7874Y-2.1197
X5.7874Y-2.2197
X5.7874Y-2.3197
X5.7874Y-2.4197
X5.7874Y-2.5197
X5.7874Y-2.6197
X5.7874Y-2.7197
X5.7874Y-2.8197
X5.7874Y-2.9197
X5.7874Y-3.0197
X5.7874Y-3.1197
X5.7874Y-3.2197
X5.7874Y-3.3197
X4.5087Y-3.4106
X4.6087Y-3.4106
X4.0551Y-2.126
X4.685Y-2.126
X5.387Y-2.9201
X5.387Y-3.0201
X5.387Y-3.1201
X5.387Y-3.2201
X4.7602Y-2.761
X4.7602Y-2.861
X4.7602Y-2.961
X4.7602Y-3.061
X4.7602Y-3.161
X4.7602Y-3.261
X5.0378Y-3.3858
X5.1378Y-3.3858
T0
M30
