G04 #@! TF.GenerationSoftware,KiCad,Pcbnew,5.0.1*
G04 #@! TF.CreationDate,2019-02-08T15:06:07+01:00*
G04 #@! TF.ProjectId,arduinowalkietalkie,61726475696E6F77616C6B696574616C,1*
G04 #@! TF.SameCoordinates,Original*
G04 #@! TF.FileFunction,Legend,Top*
G04 #@! TF.FilePolarity,Positive*
%FSLAX46Y46*%
G04 Gerber Fmt 4.6, Leading zero omitted, Abs format (unit mm)*
G04 Created by KiCad (PCBNEW 5.0.1) date Fri 08 Feb 2019 15:06:07 CET*
%MOMM*%
%LPD*%
G01*
G04 APERTURE LIST*
%ADD10C,0.300000*%
%ADD11C,0.120000*%
%ADD12C,0.500000*%
%ADD13C,0.150000*%
G04 APERTURE END LIST*
D10*
X98964285Y-135678571D02*
X98464285Y-134964285D01*
X98107142Y-135678571D02*
X98107142Y-134178571D01*
X98678571Y-134178571D01*
X98821428Y-134250000D01*
X98892857Y-134321428D01*
X98964285Y-134464285D01*
X98964285Y-134678571D01*
X98892857Y-134821428D01*
X98821428Y-134892857D01*
X98678571Y-134964285D01*
X98107142Y-134964285D01*
X100178571Y-135607142D02*
X100035714Y-135678571D01*
X99750000Y-135678571D01*
X99607142Y-135607142D01*
X99535714Y-135464285D01*
X99535714Y-134892857D01*
X99607142Y-134750000D01*
X99750000Y-134678571D01*
X100035714Y-134678571D01*
X100178571Y-134750000D01*
X100250000Y-134892857D01*
X100250000Y-135035714D01*
X99535714Y-135178571D01*
X100750000Y-134678571D02*
X101107142Y-135678571D01*
X101464285Y-134678571D01*
X103964285Y-135678571D02*
X103107142Y-135678571D01*
X103535714Y-135678571D02*
X103535714Y-134178571D01*
X103392857Y-134392857D01*
X103250000Y-134535714D01*
X103107142Y-134607142D01*
X88428571Y-134321428D02*
X88500000Y-134250000D01*
X88642857Y-134178571D01*
X89000000Y-134178571D01*
X89142857Y-134250000D01*
X89214285Y-134321428D01*
X89285714Y-134464285D01*
X89285714Y-134607142D01*
X89214285Y-134821428D01*
X88357142Y-135678571D01*
X89285714Y-135678571D01*
X90214285Y-134178571D02*
X90357142Y-134178571D01*
X90500000Y-134250000D01*
X90571428Y-134321428D01*
X90642857Y-134464285D01*
X90714285Y-134750000D01*
X90714285Y-135107142D01*
X90642857Y-135392857D01*
X90571428Y-135535714D01*
X90500000Y-135607142D01*
X90357142Y-135678571D01*
X90214285Y-135678571D01*
X90071428Y-135607142D01*
X90000000Y-135535714D01*
X89928571Y-135392857D01*
X89857142Y-135107142D01*
X89857142Y-134750000D01*
X89928571Y-134464285D01*
X90000000Y-134321428D01*
X90071428Y-134250000D01*
X90214285Y-134178571D01*
X92142857Y-135678571D02*
X91285714Y-135678571D01*
X91714285Y-135678571D02*
X91714285Y-134178571D01*
X91571428Y-134392857D01*
X91428571Y-134535714D01*
X91285714Y-134607142D01*
X92857142Y-135678571D02*
X93142857Y-135678571D01*
X93285714Y-135607142D01*
X93357142Y-135535714D01*
X93500000Y-135321428D01*
X93571428Y-135035714D01*
X93571428Y-134464285D01*
X93500000Y-134321428D01*
X93428571Y-134250000D01*
X93285714Y-134178571D01*
X93000000Y-134178571D01*
X92857142Y-134250000D01*
X92785714Y-134321428D01*
X92714285Y-134464285D01*
X92714285Y-134821428D01*
X92785714Y-134964285D01*
X92857142Y-135035714D01*
X93000000Y-135107142D01*
X93285714Y-135107142D01*
X93428571Y-135035714D01*
X93500000Y-134964285D01*
X93571428Y-134821428D01*
X88285714Y-131892857D02*
X88785714Y-131892857D01*
X89000000Y-132678571D02*
X88285714Y-132678571D01*
X88285714Y-131178571D01*
X89000000Y-131178571D01*
X90500000Y-132678571D02*
X90000000Y-131964285D01*
X89642857Y-132678571D02*
X89642857Y-131178571D01*
X90214285Y-131178571D01*
X90357142Y-131250000D01*
X90428571Y-131321428D01*
X90500000Y-131464285D01*
X90500000Y-131678571D01*
X90428571Y-131821428D01*
X90357142Y-131892857D01*
X90214285Y-131964285D01*
X89642857Y-131964285D01*
X91071428Y-132607142D02*
X91285714Y-132678571D01*
X91642857Y-132678571D01*
X91785714Y-132607142D01*
X91857142Y-132535714D01*
X91928571Y-132392857D01*
X91928571Y-132250000D01*
X91857142Y-132107142D01*
X91785714Y-132035714D01*
X91642857Y-131964285D01*
X91357142Y-131892857D01*
X91214285Y-131821428D01*
X91142857Y-131750000D01*
X91071428Y-131607142D01*
X91071428Y-131464285D01*
X91142857Y-131321428D01*
X91214285Y-131250000D01*
X91357142Y-131178571D01*
X91714285Y-131178571D01*
X91928571Y-131250000D01*
X92500000Y-132607142D02*
X92714285Y-132678571D01*
X93071428Y-132678571D01*
X93214285Y-132607142D01*
X93285714Y-132535714D01*
X93357142Y-132392857D01*
X93357142Y-132250000D01*
X93285714Y-132107142D01*
X93214285Y-132035714D01*
X93071428Y-131964285D01*
X92785714Y-131892857D01*
X92642857Y-131821428D01*
X92571428Y-131750000D01*
X92500000Y-131607142D01*
X92500000Y-131464285D01*
X92571428Y-131321428D01*
X92642857Y-131250000D01*
X92785714Y-131178571D01*
X93142857Y-131178571D01*
X93357142Y-131250000D01*
X94785714Y-131250000D02*
X94642857Y-131178571D01*
X94428571Y-131178571D01*
X94214285Y-131250000D01*
X94071428Y-131392857D01*
X94000000Y-131535714D01*
X93928571Y-131821428D01*
X93928571Y-132035714D01*
X94000000Y-132321428D01*
X94071428Y-132464285D01*
X94214285Y-132607142D01*
X94428571Y-132678571D01*
X94571428Y-132678571D01*
X94785714Y-132607142D01*
X94857142Y-132535714D01*
X94857142Y-132035714D01*
X94571428Y-132035714D01*
X96428571Y-131178571D02*
X96928571Y-132678571D01*
X97428571Y-131178571D01*
X98500000Y-132607142D02*
X98357142Y-132678571D01*
X98071428Y-132678571D01*
X97928571Y-132607142D01*
X97857142Y-132464285D01*
X97857142Y-131892857D01*
X97928571Y-131750000D01*
X98071428Y-131678571D01*
X98357142Y-131678571D01*
X98500000Y-131750000D01*
X98571428Y-131892857D01*
X98571428Y-132035714D01*
X97857142Y-132178571D01*
X99857142Y-131678571D02*
X99857142Y-132892857D01*
X99785714Y-133035714D01*
X99714285Y-133107142D01*
X99571428Y-133178571D01*
X99357142Y-133178571D01*
X99214285Y-133107142D01*
X99857142Y-132607142D02*
X99714285Y-132678571D01*
X99428571Y-132678571D01*
X99285714Y-132607142D01*
X99214285Y-132535714D01*
X99142857Y-132392857D01*
X99142857Y-131964285D01*
X99214285Y-131821428D01*
X99285714Y-131750000D01*
X99428571Y-131678571D01*
X99714285Y-131678571D01*
X99857142Y-131750000D01*
X100785714Y-132678571D02*
X100642857Y-132607142D01*
X100571428Y-132535714D01*
X100500000Y-132392857D01*
X100500000Y-131964285D01*
X100571428Y-131821428D01*
X100642857Y-131750000D01*
X100785714Y-131678571D01*
X101000000Y-131678571D01*
X101142857Y-131750000D01*
X101214285Y-131821428D01*
X101285714Y-131964285D01*
X101285714Y-132392857D01*
X101214285Y-132535714D01*
X101142857Y-132607142D01*
X101000000Y-132678571D01*
X100785714Y-132678571D01*
X101785714Y-131678571D02*
X102142857Y-132678571D01*
X102500000Y-131678571D01*
X103714285Y-132678571D02*
X103714285Y-131892857D01*
X103642857Y-131750000D01*
X103500000Y-131678571D01*
X103214285Y-131678571D01*
X103071428Y-131750000D01*
X103714285Y-132607142D02*
X103571428Y-132678571D01*
X103214285Y-132678571D01*
X103071428Y-132607142D01*
X103000000Y-132464285D01*
X103000000Y-132321428D01*
X103071428Y-132178571D01*
X103214285Y-132107142D01*
X103571428Y-132107142D01*
X103714285Y-132035714D01*
X89071428Y-129678571D02*
X88571428Y-128964285D01*
X88214285Y-129678571D02*
X88214285Y-128178571D01*
X88785714Y-128178571D01*
X88928571Y-128250000D01*
X89000000Y-128321428D01*
X89071428Y-128464285D01*
X89071428Y-128678571D01*
X89000000Y-128821428D01*
X88928571Y-128892857D01*
X88785714Y-128964285D01*
X88214285Y-128964285D01*
X89714285Y-129535714D02*
X89785714Y-129607142D01*
X89714285Y-129678571D01*
X89642857Y-129607142D01*
X89714285Y-129535714D01*
X89714285Y-129678571D01*
X91428571Y-128178571D02*
X92357142Y-128178571D01*
X91857142Y-128750000D01*
X92071428Y-128750000D01*
X92214285Y-128821428D01*
X92285714Y-128892857D01*
X92357142Y-129035714D01*
X92357142Y-129392857D01*
X92285714Y-129535714D01*
X92214285Y-129607142D01*
X92071428Y-129678571D01*
X91642857Y-129678571D01*
X91500000Y-129607142D01*
X91428571Y-129535714D01*
X93500000Y-128892857D02*
X93714285Y-128964285D01*
X93785714Y-129035714D01*
X93857142Y-129178571D01*
X93857142Y-129392857D01*
X93785714Y-129535714D01*
X93714285Y-129607142D01*
X93571428Y-129678571D01*
X93000000Y-129678571D01*
X93000000Y-128178571D01*
X93500000Y-128178571D01*
X93642857Y-128250000D01*
X93714285Y-128321428D01*
X93785714Y-128464285D01*
X93785714Y-128607142D01*
X93714285Y-128750000D01*
X93642857Y-128821428D01*
X93500000Y-128892857D01*
X93000000Y-128892857D01*
X89035714Y-126678571D02*
X88321428Y-126678571D01*
X88321428Y-125178571D01*
X90107142Y-126607142D02*
X89964285Y-126678571D01*
X89678571Y-126678571D01*
X89535714Y-126607142D01*
X89464285Y-126464285D01*
X89464285Y-125892857D01*
X89535714Y-125750000D01*
X89678571Y-125678571D01*
X89964285Y-125678571D01*
X90107142Y-125750000D01*
X90178571Y-125892857D01*
X90178571Y-126035714D01*
X89464285Y-126178571D01*
X90821428Y-125678571D02*
X90821428Y-126678571D01*
X90821428Y-125821428D02*
X90892857Y-125750000D01*
X91035714Y-125678571D01*
X91250000Y-125678571D01*
X91392857Y-125750000D01*
X91464285Y-125892857D01*
X91464285Y-126678571D01*
X92821428Y-126678571D02*
X92821428Y-125892857D01*
X92750000Y-125750000D01*
X92607142Y-125678571D01*
X92321428Y-125678571D01*
X92178571Y-125750000D01*
X92821428Y-126607142D02*
X92678571Y-126678571D01*
X92321428Y-126678571D01*
X92178571Y-126607142D01*
X92107142Y-126464285D01*
X92107142Y-126321428D01*
X92178571Y-126178571D01*
X92321428Y-126107142D01*
X92678571Y-126107142D01*
X92821428Y-126035714D01*
X93535714Y-126678571D02*
X93535714Y-125678571D01*
X93535714Y-125964285D02*
X93607142Y-125821428D01*
X93678571Y-125750000D01*
X93821428Y-125678571D01*
X93964285Y-125678571D01*
X94250000Y-125678571D02*
X94821428Y-125678571D01*
X94464285Y-125178571D02*
X94464285Y-126464285D01*
X94535714Y-126607142D01*
X94678571Y-126678571D01*
X94821428Y-126678571D01*
X96392857Y-126250000D02*
X97107142Y-126250000D01*
X96250000Y-126678571D02*
X96750000Y-125178571D01*
X97250000Y-126678571D01*
X97750000Y-126678571D02*
X97750000Y-125678571D01*
X97750000Y-125964285D02*
X97821428Y-125821428D01*
X97892857Y-125750000D01*
X98035714Y-125678571D01*
X98178571Y-125678571D01*
X98535714Y-125678571D02*
X98892857Y-126678571D01*
X99250000Y-125678571D01*
X100035714Y-126678571D02*
X99892857Y-126607142D01*
X99821428Y-126535714D01*
X99750000Y-126392857D01*
X99750000Y-125964285D01*
X99821428Y-125821428D01*
X99892857Y-125750000D01*
X100035714Y-125678571D01*
X100250000Y-125678571D01*
X100392857Y-125750000D01*
X100464285Y-125821428D01*
X100535714Y-125964285D01*
X100535714Y-126392857D01*
X100464285Y-126535714D01*
X100392857Y-126607142D01*
X100250000Y-126678571D01*
X100035714Y-126678571D01*
X102321428Y-126678571D02*
X102321428Y-125178571D01*
X103178571Y-126678571D02*
X102535714Y-125821428D01*
X103178571Y-125178571D02*
X102321428Y-126035714D01*
X104035714Y-126678571D02*
X103892857Y-126607142D01*
X103821428Y-126535714D01*
X103750000Y-126392857D01*
X103750000Y-125964285D01*
X103821428Y-125821428D01*
X103892857Y-125750000D01*
X104035714Y-125678571D01*
X104250000Y-125678571D01*
X104392857Y-125750000D01*
X104464285Y-125821428D01*
X104535714Y-125964285D01*
X104535714Y-126392857D01*
X104464285Y-126535714D01*
X104392857Y-126607142D01*
X104250000Y-126678571D01*
X104035714Y-126678571D01*
X105107142Y-126607142D02*
X105250000Y-126678571D01*
X105535714Y-126678571D01*
X105678571Y-126607142D01*
X105750000Y-126464285D01*
X105750000Y-126392857D01*
X105678571Y-126250000D01*
X105535714Y-126178571D01*
X105321428Y-126178571D01*
X105178571Y-126107142D01*
X105107142Y-125964285D01*
X105107142Y-125892857D01*
X105178571Y-125750000D01*
X105321428Y-125678571D01*
X105535714Y-125678571D01*
X105678571Y-125750000D01*
G04 #@! TO.C,BZ1*
X109502105Y-128006304D02*
G75*
G02X109500001Y-120000001I11997895J4006304D01*
G01*
X117493696Y-112002105D02*
G75*
G02X125499999Y-112000001I4006304J-11997895D01*
G01*
X133497895Y-119993696D02*
G75*
G02X133499999Y-127999999I-11997895J-4006304D01*
G01*
X125506304Y-135997895D02*
G75*
G02X117500001Y-135999999I-4006304J11997895D01*
G01*
D11*
G04 #@! TO.C,R4*
X159040000Y-130540000D02*
X159370000Y-130540000D01*
X159370000Y-130540000D02*
X159370000Y-137080000D01*
X159370000Y-137080000D02*
X159040000Y-137080000D01*
X156960000Y-130540000D02*
X156630000Y-130540000D01*
X156630000Y-130540000D02*
X156630000Y-137080000D01*
X156630000Y-137080000D02*
X156960000Y-137080000D01*
G04 #@! TO.C,R3*
X156630000Y-127080000D02*
X156960000Y-127080000D01*
X156630000Y-120540000D02*
X156630000Y-127080000D01*
X156960000Y-120540000D02*
X156630000Y-120540000D01*
X159370000Y-127080000D02*
X159040000Y-127080000D01*
X159370000Y-120540000D02*
X159370000Y-127080000D01*
X159040000Y-120540000D02*
X159370000Y-120540000D01*
G04 #@! TO.C,R2*
X159040000Y-110540000D02*
X159370000Y-110540000D01*
X159370000Y-110540000D02*
X159370000Y-117080000D01*
X159370000Y-117080000D02*
X159040000Y-117080000D01*
X156960000Y-110540000D02*
X156630000Y-110540000D01*
X156630000Y-110540000D02*
X156630000Y-117080000D01*
X156630000Y-117080000D02*
X156960000Y-117080000D01*
G04 #@! TO.C,R1*
X169080000Y-101370000D02*
X169080000Y-101040000D01*
X162540000Y-101370000D02*
X169080000Y-101370000D01*
X162540000Y-101040000D02*
X162540000Y-101370000D01*
X169080000Y-98630000D02*
X169080000Y-98960000D01*
X162540000Y-98630000D02*
X169080000Y-98630000D01*
X162540000Y-98960000D02*
X162540000Y-98630000D01*
G04 #@! TO.C,R5*
X177080000Y-105040000D02*
X177080000Y-105370000D01*
X177080000Y-105370000D02*
X170540000Y-105370000D01*
X170540000Y-105370000D02*
X170540000Y-105040000D01*
X177080000Y-102960000D02*
X177080000Y-102630000D01*
X177080000Y-102630000D02*
X170540000Y-102630000D01*
X170540000Y-102630000D02*
X170540000Y-102960000D01*
G04 #@! TO.C,R6*
X181540000Y-98630000D02*
X181540000Y-98960000D01*
X188080000Y-98630000D02*
X181540000Y-98630000D01*
X188080000Y-98960000D02*
X188080000Y-98630000D01*
X181540000Y-101370000D02*
X181540000Y-101040000D01*
X188080000Y-101370000D02*
X181540000Y-101370000D01*
X188080000Y-101040000D02*
X188080000Y-101370000D01*
G04 #@! TO.C,R7*
X181540000Y-102960000D02*
X181540000Y-102630000D01*
X181540000Y-102630000D02*
X188080000Y-102630000D01*
X188080000Y-102630000D02*
X188080000Y-102960000D01*
X181540000Y-105040000D02*
X181540000Y-105370000D01*
X181540000Y-105370000D02*
X188080000Y-105370000D01*
X188080000Y-105370000D02*
X188080000Y-105040000D01*
G04 #@! TO.C,R8*
X191630000Y-136080000D02*
X191960000Y-136080000D01*
X191630000Y-129540000D02*
X191630000Y-136080000D01*
X191960000Y-129540000D02*
X191630000Y-129540000D01*
X194370000Y-136080000D02*
X194040000Y-136080000D01*
X194370000Y-129540000D02*
X194370000Y-136080000D01*
X194040000Y-129540000D02*
X194370000Y-129540000D01*
G04 #@! TO.C,R9*
X143040000Y-49540000D02*
X143370000Y-49540000D01*
X143370000Y-49540000D02*
X143370000Y-56080000D01*
X143370000Y-56080000D02*
X143040000Y-56080000D01*
X140960000Y-49540000D02*
X140630000Y-49540000D01*
X140630000Y-49540000D02*
X140630000Y-56080000D01*
X140630000Y-56080000D02*
X140960000Y-56080000D01*
G04 #@! TO.C,A1*
X154140000Y-92560000D02*
X136100000Y-92560000D01*
X154140000Y-136000000D02*
X154140000Y-92560000D01*
X136100000Y-136000000D02*
X154140000Y-136000000D01*
X138770000Y-133330000D02*
X136100000Y-133330000D01*
X138770000Y-97770000D02*
X138770000Y-133330000D01*
X138770000Y-97770000D02*
X136100000Y-97770000D01*
X151470000Y-133330000D02*
X154140000Y-133330000D01*
X151470000Y-95230000D02*
X151470000Y-133330000D01*
X151470000Y-95230000D02*
X154140000Y-95230000D01*
X136100000Y-92560000D02*
X136100000Y-95230000D01*
X136100000Y-97770000D02*
X136100000Y-136000000D01*
X138770000Y-95230000D02*
X136100000Y-95230000D01*
X138770000Y-97770000D02*
X138770000Y-95230000D01*
D10*
G04 #@! TO.C,BMP1*
X135500000Y-78000000D02*
X135500000Y-76500000D01*
X134000000Y-76500000D02*
X135500000Y-76500000D01*
X121500000Y-76500000D02*
X123000000Y-76500000D01*
X121500000Y-76500000D02*
X121500000Y-78000000D01*
X121500000Y-86000000D02*
X121500000Y-87500000D01*
X123000000Y-87500000D02*
X121500000Y-87500000D01*
X135500000Y-87500000D02*
X135500000Y-86000000D01*
X135500000Y-87500000D02*
X134000000Y-87500000D01*
D12*
X135750000Y-87500000D02*
G75*
G03X135750000Y-87500000I-250000J0D01*
G01*
D10*
G04 #@! TO.C,BT1*
X87500000Y-92500000D02*
X87500000Y-94000000D01*
X89000000Y-94000000D02*
X87500000Y-94000000D01*
X89000000Y-43000000D02*
X87500000Y-43000000D01*
X87500000Y-44500000D02*
X87500000Y-43000000D01*
X119500000Y-43000000D02*
X121000000Y-43000000D01*
X121000000Y-44500000D02*
X121000000Y-43000000D01*
X121000000Y-92500000D02*
X121000000Y-94000000D01*
X119500000Y-94000000D02*
X121000000Y-94000000D01*
X111500000Y-96000000D02*
X111500000Y-97500000D01*
X110000000Y-97500000D02*
X111500000Y-97500000D01*
X96500000Y-97500000D02*
X96500000Y-96000000D01*
X96500000Y-97500000D02*
X98000000Y-97500000D01*
G04 #@! TO.C,CC1*
X102000000Y-122500000D02*
X104000000Y-122500000D01*
X104000000Y-120500000D02*
X104000000Y-122500000D01*
X88000000Y-120500000D02*
X88000000Y-122500000D01*
X90000000Y-122500000D02*
X88000000Y-122500000D01*
X88000000Y-100500000D02*
X88000000Y-98500000D01*
X90000000Y-98500000D02*
X88000000Y-98500000D01*
X102000000Y-98500000D02*
X104000000Y-98500000D01*
X104000000Y-98500000D02*
X104000000Y-100500000D01*
D12*
X104250000Y-98500000D02*
G75*
G03X104250000Y-98500000I-250000J0D01*
G01*
D11*
G04 #@! TO.C,D1*
X125210000Y-106120000D02*
X125210000Y-103880000D01*
X124970000Y-106120000D02*
X124970000Y-103880000D01*
X125090000Y-106120000D02*
X125090000Y-103880000D01*
X120920000Y-105000000D02*
X121570000Y-105000000D01*
X126460000Y-105000000D02*
X125810000Y-105000000D01*
X121570000Y-106120000D02*
X125810000Y-106120000D01*
X121570000Y-103880000D02*
X121570000Y-106120000D01*
X125810000Y-103880000D02*
X121570000Y-103880000D01*
X125810000Y-106120000D02*
X125810000Y-103880000D01*
D13*
G04 #@! TO.C,JP1*
X110500000Y-106500000D02*
X110500000Y-105500000D01*
X111500000Y-106500000D02*
X110500000Y-106500000D01*
X116000000Y-106500000D02*
X115000000Y-106500000D01*
X116000000Y-105500000D02*
X116000000Y-106500000D01*
X116000000Y-103500000D02*
X116000000Y-104500000D01*
X115000000Y-103500000D02*
X116000000Y-103500000D01*
X110500000Y-103500000D02*
X110500000Y-104500000D01*
X110500000Y-103500000D02*
X111500000Y-103500000D01*
D11*
G04 #@! TO.C,SW1*
X168370000Y-92910000D02*
X168370000Y-95590000D01*
X162130000Y-95590000D02*
X162130000Y-92910000D01*
X162280000Y-91130000D02*
X168220000Y-91130000D01*
X162280000Y-97370000D02*
X168220000Y-97370000D01*
X166664214Y-94250000D02*
G75*
G03X166664214Y-94250000I-1414214J0D01*
G01*
G04 #@! TO.C,SW2*
X168370000Y-108910000D02*
X168370000Y-111590000D01*
X162130000Y-111590000D02*
X162130000Y-108910000D01*
X162280000Y-107130000D02*
X168220000Y-107130000D01*
X162280000Y-113370000D02*
X168220000Y-113370000D01*
X166664214Y-110250000D02*
G75*
G03X166664214Y-110250000I-1414214J0D01*
G01*
G04 #@! TO.C,SW3*
X168370000Y-116910000D02*
X168370000Y-119590000D01*
X162130000Y-119590000D02*
X162130000Y-116910000D01*
X162280000Y-115130000D02*
X168220000Y-115130000D01*
X162280000Y-121370000D02*
X168220000Y-121370000D01*
X166664214Y-118250000D02*
G75*
G03X166664214Y-118250000I-1414214J0D01*
G01*
G04 #@! TO.C,SW4*
X168370000Y-124910000D02*
X168370000Y-127590000D01*
X162130000Y-127590000D02*
X162130000Y-124910000D01*
X162280000Y-123130000D02*
X168220000Y-123130000D01*
X162280000Y-129370000D02*
X168220000Y-129370000D01*
X166664214Y-126250000D02*
G75*
G03X166664214Y-126250000I-1414214J0D01*
G01*
G04 #@! TO.C,SW5*
X168370000Y-132910000D02*
X168370000Y-135590000D01*
X162130000Y-135590000D02*
X162130000Y-132910000D01*
X162280000Y-131130000D02*
X168220000Y-131130000D01*
X162280000Y-137370000D02*
X168220000Y-137370000D01*
X166664214Y-134250000D02*
G75*
G03X166664214Y-134250000I-1414214J0D01*
G01*
G04 #@! TO.C,SW6*
X178370000Y-108910000D02*
X178370000Y-111590000D01*
X172130000Y-111590000D02*
X172130000Y-108910000D01*
X172280000Y-107130000D02*
X178220000Y-107130000D01*
X172280000Y-113370000D02*
X178220000Y-113370000D01*
X176664214Y-110250000D02*
G75*
G03X176664214Y-110250000I-1414214J0D01*
G01*
G04 #@! TO.C,SW7*
X178370000Y-116910000D02*
X178370000Y-119590000D01*
X172130000Y-119590000D02*
X172130000Y-116910000D01*
X172280000Y-115130000D02*
X178220000Y-115130000D01*
X172280000Y-121370000D02*
X178220000Y-121370000D01*
X176664214Y-118250000D02*
G75*
G03X176664214Y-118250000I-1414214J0D01*
G01*
G04 #@! TO.C,SW8*
X178370000Y-124910000D02*
X178370000Y-127590000D01*
X172130000Y-127590000D02*
X172130000Y-124910000D01*
X172280000Y-123130000D02*
X178220000Y-123130000D01*
X172280000Y-129370000D02*
X178220000Y-129370000D01*
X176664214Y-126250000D02*
G75*
G03X176664214Y-126250000I-1414214J0D01*
G01*
G04 #@! TO.C,SW9*
X178370000Y-132910000D02*
X178370000Y-135590000D01*
X172130000Y-135590000D02*
X172130000Y-132910000D01*
X172280000Y-131130000D02*
X178220000Y-131130000D01*
X172280000Y-137370000D02*
X178220000Y-137370000D01*
X176664214Y-134250000D02*
G75*
G03X176664214Y-134250000I-1414214J0D01*
G01*
G04 #@! TO.C,SW10*
X188370000Y-92910000D02*
X188370000Y-95590000D01*
X182130000Y-95590000D02*
X182130000Y-92910000D01*
X182280000Y-91130000D02*
X188220000Y-91130000D01*
X182280000Y-97370000D02*
X188220000Y-97370000D01*
X186664214Y-94250000D02*
G75*
G03X186664214Y-94250000I-1414214J0D01*
G01*
G04 #@! TO.C,SW11*
X188370000Y-108910000D02*
X188370000Y-111590000D01*
X182130000Y-111590000D02*
X182130000Y-108910000D01*
X182280000Y-107130000D02*
X188220000Y-107130000D01*
X182280000Y-113370000D02*
X188220000Y-113370000D01*
X186664214Y-110250000D02*
G75*
G03X186664214Y-110250000I-1414214J0D01*
G01*
G04 #@! TO.C,SW12*
X188370000Y-116910000D02*
X188370000Y-119590000D01*
X182130000Y-119590000D02*
X182130000Y-116910000D01*
X182280000Y-115130000D02*
X188220000Y-115130000D01*
X182280000Y-121370000D02*
X188220000Y-121370000D01*
X186664214Y-118250000D02*
G75*
G03X186664214Y-118250000I-1414214J0D01*
G01*
G04 #@! TO.C,SW13*
X188370000Y-124910000D02*
X188370000Y-127590000D01*
X182130000Y-127590000D02*
X182130000Y-124910000D01*
X182280000Y-123130000D02*
X188220000Y-123130000D01*
X182280000Y-129370000D02*
X188220000Y-129370000D01*
X186664214Y-126250000D02*
G75*
G03X186664214Y-126250000I-1414214J0D01*
G01*
G04 #@! TO.C,SW14*
X188370000Y-132910000D02*
X188370000Y-135590000D01*
X182130000Y-135590000D02*
X182130000Y-132910000D01*
X182280000Y-131130000D02*
X188220000Y-131130000D01*
X182280000Y-137370000D02*
X188220000Y-137370000D01*
X186664214Y-134250000D02*
G75*
G03X186664214Y-134250000I-1414214J0D01*
G01*
D10*
G04 #@! TO.C,TFT1*
X144500000Y-86500000D02*
X144500000Y-88000000D01*
X144500000Y-88000000D02*
X146000000Y-88000000D01*
X195000000Y-88000000D02*
X196500000Y-88000000D01*
X196500000Y-86500000D02*
X196500000Y-88000000D01*
X196500000Y-43500000D02*
X196500000Y-42000000D01*
X195000000Y-42000000D02*
X196500000Y-42000000D01*
X144500000Y-42000000D02*
X146000000Y-42000000D01*
X144500000Y-42000000D02*
X144500000Y-43500000D01*
D12*
X144750000Y-42000000D02*
G75*
G03X144750000Y-42000000I-250000J0D01*
G01*
D11*
G04 #@! TO.C,U1*
X123976000Y-71770000D02*
X123976000Y-71770000D01*
X134644000Y-71770000D02*
X123976000Y-71770000D01*
X123400000Y-72100000D02*
X123400000Y-72100000D01*
X138850000Y-72100000D02*
X123400000Y-72100000D01*
X138850000Y-42900000D02*
X138850000Y-72100000D01*
X123400000Y-42900000D02*
X138850000Y-42900000D01*
X123400000Y-72100000D02*
X123400000Y-42900000D01*
X126770000Y-71516000D02*
X126770000Y-71516000D01*
X126770000Y-69230000D02*
X126770000Y-71516000D01*
X124484000Y-69230000D02*
X126770000Y-69230000D01*
X134644000Y-71770000D02*
X134644000Y-71770000D01*
X134644000Y-66436000D02*
X134644000Y-71770000D01*
X123976000Y-66436000D02*
X134644000Y-66436000D01*
X123976000Y-71770000D02*
X123976000Y-66436000D01*
G04 #@! TO.C,BZ1*
D13*
X120619047Y-109928571D02*
X120761904Y-109976190D01*
X120809523Y-110023809D01*
X120857142Y-110119047D01*
X120857142Y-110261904D01*
X120809523Y-110357142D01*
X120761904Y-110404761D01*
X120666666Y-110452380D01*
X120285714Y-110452380D01*
X120285714Y-109452380D01*
X120619047Y-109452380D01*
X120714285Y-109500000D01*
X120761904Y-109547619D01*
X120809523Y-109642857D01*
X120809523Y-109738095D01*
X120761904Y-109833333D01*
X120714285Y-109880952D01*
X120619047Y-109928571D01*
X120285714Y-109928571D01*
X121190476Y-109452380D02*
X121857142Y-109452380D01*
X121190476Y-110452380D01*
X121857142Y-110452380D01*
X122761904Y-110452380D02*
X122190476Y-110452380D01*
X122476190Y-110452380D02*
X122476190Y-109452380D01*
X122380952Y-109595238D01*
X122285714Y-109690476D01*
X122190476Y-109738095D01*
G04 #@! TO.C,R4*
X158452380Y-134166666D02*
X157976190Y-134500000D01*
X158452380Y-134738095D02*
X157452380Y-134738095D01*
X157452380Y-134357142D01*
X157500000Y-134261904D01*
X157547619Y-134214285D01*
X157642857Y-134166666D01*
X157785714Y-134166666D01*
X157880952Y-134214285D01*
X157928571Y-134261904D01*
X157976190Y-134357142D01*
X157976190Y-134738095D01*
X157785714Y-133309523D02*
X158452380Y-133309523D01*
X157404761Y-133547619D02*
X158119047Y-133785714D01*
X158119047Y-133166666D01*
G04 #@! TO.C,R3*
X158452380Y-123976666D02*
X157976190Y-124310000D01*
X158452380Y-124548095D02*
X157452380Y-124548095D01*
X157452380Y-124167142D01*
X157500000Y-124071904D01*
X157547619Y-124024285D01*
X157642857Y-123976666D01*
X157785714Y-123976666D01*
X157880952Y-124024285D01*
X157928571Y-124071904D01*
X157976190Y-124167142D01*
X157976190Y-124548095D01*
X157452380Y-123643333D02*
X157452380Y-123024285D01*
X157833333Y-123357619D01*
X157833333Y-123214761D01*
X157880952Y-123119523D01*
X157928571Y-123071904D01*
X158023809Y-123024285D01*
X158261904Y-123024285D01*
X158357142Y-123071904D01*
X158404761Y-123119523D01*
X158452380Y-123214761D01*
X158452380Y-123500476D01*
X158404761Y-123595714D01*
X158357142Y-123643333D01*
G04 #@! TO.C,R2*
X158452380Y-114166666D02*
X157976190Y-114500000D01*
X158452380Y-114738095D02*
X157452380Y-114738095D01*
X157452380Y-114357142D01*
X157500000Y-114261904D01*
X157547619Y-114214285D01*
X157642857Y-114166666D01*
X157785714Y-114166666D01*
X157880952Y-114214285D01*
X157928571Y-114261904D01*
X157976190Y-114357142D01*
X157976190Y-114738095D01*
X157547619Y-113785714D02*
X157500000Y-113738095D01*
X157452380Y-113642857D01*
X157452380Y-113404761D01*
X157500000Y-113309523D01*
X157547619Y-113261904D01*
X157642857Y-113214285D01*
X157738095Y-113214285D01*
X157880952Y-113261904D01*
X158452380Y-113833333D01*
X158452380Y-113214285D01*
G04 #@! TO.C,R1*
X165643333Y-100452380D02*
X165310000Y-99976190D01*
X165071904Y-100452380D02*
X165071904Y-99452380D01*
X165452857Y-99452380D01*
X165548095Y-99500000D01*
X165595714Y-99547619D01*
X165643333Y-99642857D01*
X165643333Y-99785714D01*
X165595714Y-99880952D01*
X165548095Y-99928571D01*
X165452857Y-99976190D01*
X165071904Y-99976190D01*
X166595714Y-100452380D02*
X166024285Y-100452380D01*
X166310000Y-100452380D02*
X166310000Y-99452380D01*
X166214761Y-99595238D01*
X166119523Y-99690476D01*
X166024285Y-99738095D01*
G04 #@! TO.C,R5*
X173643333Y-104452380D02*
X173310000Y-103976190D01*
X173071904Y-104452380D02*
X173071904Y-103452380D01*
X173452857Y-103452380D01*
X173548095Y-103500000D01*
X173595714Y-103547619D01*
X173643333Y-103642857D01*
X173643333Y-103785714D01*
X173595714Y-103880952D01*
X173548095Y-103928571D01*
X173452857Y-103976190D01*
X173071904Y-103976190D01*
X174548095Y-103452380D02*
X174071904Y-103452380D01*
X174024285Y-103928571D01*
X174071904Y-103880952D01*
X174167142Y-103833333D01*
X174405238Y-103833333D01*
X174500476Y-103880952D01*
X174548095Y-103928571D01*
X174595714Y-104023809D01*
X174595714Y-104261904D01*
X174548095Y-104357142D01*
X174500476Y-104404761D01*
X174405238Y-104452380D01*
X174167142Y-104452380D01*
X174071904Y-104404761D01*
X174024285Y-104357142D01*
G04 #@! TO.C,R6*
X184643333Y-104452380D02*
X184310000Y-103976190D01*
X184071904Y-104452380D02*
X184071904Y-103452380D01*
X184452857Y-103452380D01*
X184548095Y-103500000D01*
X184595714Y-103547619D01*
X184643333Y-103642857D01*
X184643333Y-103785714D01*
X184595714Y-103880952D01*
X184548095Y-103928571D01*
X184452857Y-103976190D01*
X184071904Y-103976190D01*
X185500476Y-103452380D02*
X185310000Y-103452380D01*
X185214761Y-103500000D01*
X185167142Y-103547619D01*
X185071904Y-103690476D01*
X185024285Y-103880952D01*
X185024285Y-104261904D01*
X185071904Y-104357142D01*
X185119523Y-104404761D01*
X185214761Y-104452380D01*
X185405238Y-104452380D01*
X185500476Y-104404761D01*
X185548095Y-104357142D01*
X185595714Y-104261904D01*
X185595714Y-104023809D01*
X185548095Y-103928571D01*
X185500476Y-103880952D01*
X185405238Y-103833333D01*
X185214761Y-103833333D01*
X185119523Y-103880952D01*
X185071904Y-103928571D01*
X185024285Y-104023809D01*
G04 #@! TO.C,R7*
X184643333Y-100452380D02*
X184310000Y-99976190D01*
X184071904Y-100452380D02*
X184071904Y-99452380D01*
X184452857Y-99452380D01*
X184548095Y-99500000D01*
X184595714Y-99547619D01*
X184643333Y-99642857D01*
X184643333Y-99785714D01*
X184595714Y-99880952D01*
X184548095Y-99928571D01*
X184452857Y-99976190D01*
X184071904Y-99976190D01*
X184976666Y-99452380D02*
X185643333Y-99452380D01*
X185214761Y-100452380D01*
G04 #@! TO.C,R8*
X193452380Y-133166666D02*
X192976190Y-133500000D01*
X193452380Y-133738095D02*
X192452380Y-133738095D01*
X192452380Y-133357142D01*
X192500000Y-133261904D01*
X192547619Y-133214285D01*
X192642857Y-133166666D01*
X192785714Y-133166666D01*
X192880952Y-133214285D01*
X192928571Y-133261904D01*
X192976190Y-133357142D01*
X192976190Y-133738095D01*
X192880952Y-132595238D02*
X192833333Y-132690476D01*
X192785714Y-132738095D01*
X192690476Y-132785714D01*
X192642857Y-132785714D01*
X192547619Y-132738095D01*
X192500000Y-132690476D01*
X192452380Y-132595238D01*
X192452380Y-132404761D01*
X192500000Y-132309523D01*
X192547619Y-132261904D01*
X192642857Y-132214285D01*
X192690476Y-132214285D01*
X192785714Y-132261904D01*
X192833333Y-132309523D01*
X192880952Y-132404761D01*
X192880952Y-132595238D01*
X192928571Y-132690476D01*
X192976190Y-132738095D01*
X193071428Y-132785714D01*
X193261904Y-132785714D01*
X193357142Y-132738095D01*
X193404761Y-132690476D01*
X193452380Y-132595238D01*
X193452380Y-132404761D01*
X193404761Y-132309523D01*
X193357142Y-132261904D01*
X193261904Y-132214285D01*
X193071428Y-132214285D01*
X192976190Y-132261904D01*
X192928571Y-132309523D01*
X192880952Y-132404761D01*
G04 #@! TO.C,R9*
X144822380Y-52976666D02*
X144346190Y-53310000D01*
X144822380Y-53548095D02*
X143822380Y-53548095D01*
X143822380Y-53167142D01*
X143870000Y-53071904D01*
X143917619Y-53024285D01*
X144012857Y-52976666D01*
X144155714Y-52976666D01*
X144250952Y-53024285D01*
X144298571Y-53071904D01*
X144346190Y-53167142D01*
X144346190Y-53548095D01*
X144822380Y-52500476D02*
X144822380Y-52310000D01*
X144774761Y-52214761D01*
X144727142Y-52167142D01*
X144584285Y-52071904D01*
X144393809Y-52024285D01*
X144012857Y-52024285D01*
X143917619Y-52071904D01*
X143870000Y-52119523D01*
X143822380Y-52214761D01*
X143822380Y-52405238D01*
X143870000Y-52500476D01*
X143917619Y-52548095D01*
X144012857Y-52595714D01*
X144250952Y-52595714D01*
X144346190Y-52548095D01*
X144393809Y-52500476D01*
X144441428Y-52405238D01*
X144441428Y-52214761D01*
X144393809Y-52119523D01*
X144346190Y-52071904D01*
X144250952Y-52024285D01*
G04 #@! TO.C,A1*
X144405714Y-91586666D02*
X144881904Y-91586666D01*
X144310476Y-91872380D02*
X144643809Y-90872380D01*
X144977142Y-91872380D01*
X145834285Y-91872380D02*
X145262857Y-91872380D01*
X145548571Y-91872380D02*
X145548571Y-90872380D01*
X145453333Y-91015238D01*
X145358095Y-91110476D01*
X145262857Y-91158095D01*
G04 #@! TO.C,BMP1*
X127523809Y-87928571D02*
X127666666Y-87976190D01*
X127714285Y-88023809D01*
X127761904Y-88119047D01*
X127761904Y-88261904D01*
X127714285Y-88357142D01*
X127666666Y-88404761D01*
X127571428Y-88452380D01*
X127190476Y-88452380D01*
X127190476Y-87452380D01*
X127523809Y-87452380D01*
X127619047Y-87500000D01*
X127666666Y-87547619D01*
X127714285Y-87642857D01*
X127714285Y-87738095D01*
X127666666Y-87833333D01*
X127619047Y-87880952D01*
X127523809Y-87928571D01*
X127190476Y-87928571D01*
X128190476Y-88452380D02*
X128190476Y-87452380D01*
X128523809Y-88166666D01*
X128857142Y-87452380D01*
X128857142Y-88452380D01*
X129333333Y-88452380D02*
X129333333Y-87452380D01*
X129714285Y-87452380D01*
X129809523Y-87500000D01*
X129857142Y-87547619D01*
X129904761Y-87642857D01*
X129904761Y-87785714D01*
X129857142Y-87880952D01*
X129809523Y-87928571D01*
X129714285Y-87976190D01*
X129333333Y-87976190D01*
X130857142Y-88452380D02*
X130285714Y-88452380D01*
X130571428Y-88452380D02*
X130571428Y-87452380D01*
X130476190Y-87595238D01*
X130380952Y-87690476D01*
X130285714Y-87738095D01*
G04 #@! TO.C,BT1*
X86428571Y-69285714D02*
X86476190Y-69142857D01*
X86523809Y-69095238D01*
X86619047Y-69047619D01*
X86761904Y-69047619D01*
X86857142Y-69095238D01*
X86904761Y-69142857D01*
X86952380Y-69238095D01*
X86952380Y-69619047D01*
X85952380Y-69619047D01*
X85952380Y-69285714D01*
X86000000Y-69190476D01*
X86047619Y-69142857D01*
X86142857Y-69095238D01*
X86238095Y-69095238D01*
X86333333Y-69142857D01*
X86380952Y-69190476D01*
X86428571Y-69285714D01*
X86428571Y-69619047D01*
X85952380Y-68761904D02*
X85952380Y-68190476D01*
X86952380Y-68476190D02*
X85952380Y-68476190D01*
X86952380Y-67333333D02*
X86952380Y-67904761D01*
X86952380Y-67619047D02*
X85952380Y-67619047D01*
X86095238Y-67714285D01*
X86190476Y-67809523D01*
X86238095Y-67904761D01*
G04 #@! TO.C,CC1*
X104857142Y-110666666D02*
X104904761Y-110714285D01*
X104952380Y-110857142D01*
X104952380Y-110952380D01*
X104904761Y-111095238D01*
X104809523Y-111190476D01*
X104714285Y-111238095D01*
X104523809Y-111285714D01*
X104380952Y-111285714D01*
X104190476Y-111238095D01*
X104095238Y-111190476D01*
X104000000Y-111095238D01*
X103952380Y-110952380D01*
X103952380Y-110857142D01*
X104000000Y-110714285D01*
X104047619Y-110666666D01*
X104857142Y-109666666D02*
X104904761Y-109714285D01*
X104952380Y-109857142D01*
X104952380Y-109952380D01*
X104904761Y-110095238D01*
X104809523Y-110190476D01*
X104714285Y-110238095D01*
X104523809Y-110285714D01*
X104380952Y-110285714D01*
X104190476Y-110238095D01*
X104095238Y-110190476D01*
X104000000Y-110095238D01*
X103952380Y-109952380D01*
X103952380Y-109857142D01*
X104000000Y-109714285D01*
X104047619Y-109666666D01*
X104952380Y-108714285D02*
X104952380Y-109285714D01*
X104952380Y-109000000D02*
X103952380Y-109000000D01*
X104095238Y-109095238D01*
X104190476Y-109190476D01*
X104238095Y-109285714D01*
G04 #@! TO.C,D1*
X122951904Y-107572380D02*
X122951904Y-106572380D01*
X123190000Y-106572380D01*
X123332857Y-106620000D01*
X123428095Y-106715238D01*
X123475714Y-106810476D01*
X123523333Y-107000952D01*
X123523333Y-107143809D01*
X123475714Y-107334285D01*
X123428095Y-107429523D01*
X123332857Y-107524761D01*
X123190000Y-107572380D01*
X122951904Y-107572380D01*
X124475714Y-107572380D02*
X123904285Y-107572380D01*
X124190000Y-107572380D02*
X124190000Y-106572380D01*
X124094761Y-106715238D01*
X123999523Y-106810476D01*
X123904285Y-106858095D01*
X127238095Y-107252380D02*
X127238095Y-106252380D01*
X127809523Y-107252380D02*
X127380952Y-106680952D01*
X127809523Y-106252380D02*
X127238095Y-106823809D01*
G04 #@! TO.C,JP1*
X112166666Y-106952380D02*
X112166666Y-107666666D01*
X112119047Y-107809523D01*
X112023809Y-107904761D01*
X111880952Y-107952380D01*
X111785714Y-107952380D01*
X112642857Y-107952380D02*
X112642857Y-106952380D01*
X113023809Y-106952380D01*
X113119047Y-107000000D01*
X113166666Y-107047619D01*
X113214285Y-107142857D01*
X113214285Y-107285714D01*
X113166666Y-107380952D01*
X113119047Y-107428571D01*
X113023809Y-107476190D01*
X112642857Y-107476190D01*
X114166666Y-107952380D02*
X113595238Y-107952380D01*
X113880952Y-107952380D02*
X113880952Y-106952380D01*
X113785714Y-107095238D01*
X113690476Y-107190476D01*
X113595238Y-107238095D01*
G04 #@! TO.C,SW1*
X163916666Y-90354761D02*
X164059523Y-90402380D01*
X164297619Y-90402380D01*
X164392857Y-90354761D01*
X164440476Y-90307142D01*
X164488095Y-90211904D01*
X164488095Y-90116666D01*
X164440476Y-90021428D01*
X164392857Y-89973809D01*
X164297619Y-89926190D01*
X164107142Y-89878571D01*
X164011904Y-89830952D01*
X163964285Y-89783333D01*
X163916666Y-89688095D01*
X163916666Y-89592857D01*
X163964285Y-89497619D01*
X164011904Y-89450000D01*
X164107142Y-89402380D01*
X164345238Y-89402380D01*
X164488095Y-89450000D01*
X164821428Y-89402380D02*
X165059523Y-90402380D01*
X165250000Y-89688095D01*
X165440476Y-90402380D01*
X165678571Y-89402380D01*
X166583333Y-90402380D02*
X166011904Y-90402380D01*
X166297619Y-90402380D02*
X166297619Y-89402380D01*
X166202380Y-89545238D01*
X166107142Y-89640476D01*
X166011904Y-89688095D01*
G04 #@! TO.C,SW2*
X163916666Y-106354761D02*
X164059523Y-106402380D01*
X164297619Y-106402380D01*
X164392857Y-106354761D01*
X164440476Y-106307142D01*
X164488095Y-106211904D01*
X164488095Y-106116666D01*
X164440476Y-106021428D01*
X164392857Y-105973809D01*
X164297619Y-105926190D01*
X164107142Y-105878571D01*
X164011904Y-105830952D01*
X163964285Y-105783333D01*
X163916666Y-105688095D01*
X163916666Y-105592857D01*
X163964285Y-105497619D01*
X164011904Y-105450000D01*
X164107142Y-105402380D01*
X164345238Y-105402380D01*
X164488095Y-105450000D01*
X164821428Y-105402380D02*
X165059523Y-106402380D01*
X165250000Y-105688095D01*
X165440476Y-106402380D01*
X165678571Y-105402380D01*
X166011904Y-105497619D02*
X166059523Y-105450000D01*
X166154761Y-105402380D01*
X166392857Y-105402380D01*
X166488095Y-105450000D01*
X166535714Y-105497619D01*
X166583333Y-105592857D01*
X166583333Y-105688095D01*
X166535714Y-105830952D01*
X165964285Y-106402380D01*
X166583333Y-106402380D01*
G04 #@! TO.C,SW3*
X163916666Y-114354761D02*
X164059523Y-114402380D01*
X164297619Y-114402380D01*
X164392857Y-114354761D01*
X164440476Y-114307142D01*
X164488095Y-114211904D01*
X164488095Y-114116666D01*
X164440476Y-114021428D01*
X164392857Y-113973809D01*
X164297619Y-113926190D01*
X164107142Y-113878571D01*
X164011904Y-113830952D01*
X163964285Y-113783333D01*
X163916666Y-113688095D01*
X163916666Y-113592857D01*
X163964285Y-113497619D01*
X164011904Y-113450000D01*
X164107142Y-113402380D01*
X164345238Y-113402380D01*
X164488095Y-113450000D01*
X164821428Y-113402380D02*
X165059523Y-114402380D01*
X165250000Y-113688095D01*
X165440476Y-114402380D01*
X165678571Y-113402380D01*
X165964285Y-113402380D02*
X166583333Y-113402380D01*
X166250000Y-113783333D01*
X166392857Y-113783333D01*
X166488095Y-113830952D01*
X166535714Y-113878571D01*
X166583333Y-113973809D01*
X166583333Y-114211904D01*
X166535714Y-114307142D01*
X166488095Y-114354761D01*
X166392857Y-114402380D01*
X166107142Y-114402380D01*
X166011904Y-114354761D01*
X165964285Y-114307142D01*
G04 #@! TO.C,SW4*
X163916666Y-122354761D02*
X164059523Y-122402380D01*
X164297619Y-122402380D01*
X164392857Y-122354761D01*
X164440476Y-122307142D01*
X164488095Y-122211904D01*
X164488095Y-122116666D01*
X164440476Y-122021428D01*
X164392857Y-121973809D01*
X164297619Y-121926190D01*
X164107142Y-121878571D01*
X164011904Y-121830952D01*
X163964285Y-121783333D01*
X163916666Y-121688095D01*
X163916666Y-121592857D01*
X163964285Y-121497619D01*
X164011904Y-121450000D01*
X164107142Y-121402380D01*
X164345238Y-121402380D01*
X164488095Y-121450000D01*
X164821428Y-121402380D02*
X165059523Y-122402380D01*
X165250000Y-121688095D01*
X165440476Y-122402380D01*
X165678571Y-121402380D01*
X166488095Y-121735714D02*
X166488095Y-122402380D01*
X166250000Y-121354761D02*
X166011904Y-122069047D01*
X166630952Y-122069047D01*
G04 #@! TO.C,SW5*
X163916666Y-130354761D02*
X164059523Y-130402380D01*
X164297619Y-130402380D01*
X164392857Y-130354761D01*
X164440476Y-130307142D01*
X164488095Y-130211904D01*
X164488095Y-130116666D01*
X164440476Y-130021428D01*
X164392857Y-129973809D01*
X164297619Y-129926190D01*
X164107142Y-129878571D01*
X164011904Y-129830952D01*
X163964285Y-129783333D01*
X163916666Y-129688095D01*
X163916666Y-129592857D01*
X163964285Y-129497619D01*
X164011904Y-129450000D01*
X164107142Y-129402380D01*
X164345238Y-129402380D01*
X164488095Y-129450000D01*
X164821428Y-129402380D02*
X165059523Y-130402380D01*
X165250000Y-129688095D01*
X165440476Y-130402380D01*
X165678571Y-129402380D01*
X166535714Y-129402380D02*
X166059523Y-129402380D01*
X166011904Y-129878571D01*
X166059523Y-129830952D01*
X166154761Y-129783333D01*
X166392857Y-129783333D01*
X166488095Y-129830952D01*
X166535714Y-129878571D01*
X166583333Y-129973809D01*
X166583333Y-130211904D01*
X166535714Y-130307142D01*
X166488095Y-130354761D01*
X166392857Y-130402380D01*
X166154761Y-130402380D01*
X166059523Y-130354761D01*
X166011904Y-130307142D01*
G04 #@! TO.C,SW6*
X173916666Y-106354761D02*
X174059523Y-106402380D01*
X174297619Y-106402380D01*
X174392857Y-106354761D01*
X174440476Y-106307142D01*
X174488095Y-106211904D01*
X174488095Y-106116666D01*
X174440476Y-106021428D01*
X174392857Y-105973809D01*
X174297619Y-105926190D01*
X174107142Y-105878571D01*
X174011904Y-105830952D01*
X173964285Y-105783333D01*
X173916666Y-105688095D01*
X173916666Y-105592857D01*
X173964285Y-105497619D01*
X174011904Y-105450000D01*
X174107142Y-105402380D01*
X174345238Y-105402380D01*
X174488095Y-105450000D01*
X174821428Y-105402380D02*
X175059523Y-106402380D01*
X175250000Y-105688095D01*
X175440476Y-106402380D01*
X175678571Y-105402380D01*
X176488095Y-105402380D02*
X176297619Y-105402380D01*
X176202380Y-105450000D01*
X176154761Y-105497619D01*
X176059523Y-105640476D01*
X176011904Y-105830952D01*
X176011904Y-106211904D01*
X176059523Y-106307142D01*
X176107142Y-106354761D01*
X176202380Y-106402380D01*
X176392857Y-106402380D01*
X176488095Y-106354761D01*
X176535714Y-106307142D01*
X176583333Y-106211904D01*
X176583333Y-105973809D01*
X176535714Y-105878571D01*
X176488095Y-105830952D01*
X176392857Y-105783333D01*
X176202380Y-105783333D01*
X176107142Y-105830952D01*
X176059523Y-105878571D01*
X176011904Y-105973809D01*
G04 #@! TO.C,SW7*
X173916666Y-114354761D02*
X174059523Y-114402380D01*
X174297619Y-114402380D01*
X174392857Y-114354761D01*
X174440476Y-114307142D01*
X174488095Y-114211904D01*
X174488095Y-114116666D01*
X174440476Y-114021428D01*
X174392857Y-113973809D01*
X174297619Y-113926190D01*
X174107142Y-113878571D01*
X174011904Y-113830952D01*
X173964285Y-113783333D01*
X173916666Y-113688095D01*
X173916666Y-113592857D01*
X173964285Y-113497619D01*
X174011904Y-113450000D01*
X174107142Y-113402380D01*
X174345238Y-113402380D01*
X174488095Y-113450000D01*
X174821428Y-113402380D02*
X175059523Y-114402380D01*
X175250000Y-113688095D01*
X175440476Y-114402380D01*
X175678571Y-113402380D01*
X175964285Y-113402380D02*
X176630952Y-113402380D01*
X176202380Y-114402380D01*
G04 #@! TO.C,SW8*
X173916666Y-122354761D02*
X174059523Y-122402380D01*
X174297619Y-122402380D01*
X174392857Y-122354761D01*
X174440476Y-122307142D01*
X174488095Y-122211904D01*
X174488095Y-122116666D01*
X174440476Y-122021428D01*
X174392857Y-121973809D01*
X174297619Y-121926190D01*
X174107142Y-121878571D01*
X174011904Y-121830952D01*
X173964285Y-121783333D01*
X173916666Y-121688095D01*
X173916666Y-121592857D01*
X173964285Y-121497619D01*
X174011904Y-121450000D01*
X174107142Y-121402380D01*
X174345238Y-121402380D01*
X174488095Y-121450000D01*
X174821428Y-121402380D02*
X175059523Y-122402380D01*
X175250000Y-121688095D01*
X175440476Y-122402380D01*
X175678571Y-121402380D01*
X176202380Y-121830952D02*
X176107142Y-121783333D01*
X176059523Y-121735714D01*
X176011904Y-121640476D01*
X176011904Y-121592857D01*
X176059523Y-121497619D01*
X176107142Y-121450000D01*
X176202380Y-121402380D01*
X176392857Y-121402380D01*
X176488095Y-121450000D01*
X176535714Y-121497619D01*
X176583333Y-121592857D01*
X176583333Y-121640476D01*
X176535714Y-121735714D01*
X176488095Y-121783333D01*
X176392857Y-121830952D01*
X176202380Y-121830952D01*
X176107142Y-121878571D01*
X176059523Y-121926190D01*
X176011904Y-122021428D01*
X176011904Y-122211904D01*
X176059523Y-122307142D01*
X176107142Y-122354761D01*
X176202380Y-122402380D01*
X176392857Y-122402380D01*
X176488095Y-122354761D01*
X176535714Y-122307142D01*
X176583333Y-122211904D01*
X176583333Y-122021428D01*
X176535714Y-121926190D01*
X176488095Y-121878571D01*
X176392857Y-121830952D01*
G04 #@! TO.C,SW9*
X173916666Y-130354761D02*
X174059523Y-130402380D01*
X174297619Y-130402380D01*
X174392857Y-130354761D01*
X174440476Y-130307142D01*
X174488095Y-130211904D01*
X174488095Y-130116666D01*
X174440476Y-130021428D01*
X174392857Y-129973809D01*
X174297619Y-129926190D01*
X174107142Y-129878571D01*
X174011904Y-129830952D01*
X173964285Y-129783333D01*
X173916666Y-129688095D01*
X173916666Y-129592857D01*
X173964285Y-129497619D01*
X174011904Y-129450000D01*
X174107142Y-129402380D01*
X174345238Y-129402380D01*
X174488095Y-129450000D01*
X174821428Y-129402380D02*
X175059523Y-130402380D01*
X175250000Y-129688095D01*
X175440476Y-130402380D01*
X175678571Y-129402380D01*
X176107142Y-130402380D02*
X176297619Y-130402380D01*
X176392857Y-130354761D01*
X176440476Y-130307142D01*
X176535714Y-130164285D01*
X176583333Y-129973809D01*
X176583333Y-129592857D01*
X176535714Y-129497619D01*
X176488095Y-129450000D01*
X176392857Y-129402380D01*
X176202380Y-129402380D01*
X176107142Y-129450000D01*
X176059523Y-129497619D01*
X176011904Y-129592857D01*
X176011904Y-129830952D01*
X176059523Y-129926190D01*
X176107142Y-129973809D01*
X176202380Y-130021428D01*
X176392857Y-130021428D01*
X176488095Y-129973809D01*
X176535714Y-129926190D01*
X176583333Y-129830952D01*
G04 #@! TO.C,SW10*
X183440476Y-90354761D02*
X183583333Y-90402380D01*
X183821428Y-90402380D01*
X183916666Y-90354761D01*
X183964285Y-90307142D01*
X184011904Y-90211904D01*
X184011904Y-90116666D01*
X183964285Y-90021428D01*
X183916666Y-89973809D01*
X183821428Y-89926190D01*
X183630952Y-89878571D01*
X183535714Y-89830952D01*
X183488095Y-89783333D01*
X183440476Y-89688095D01*
X183440476Y-89592857D01*
X183488095Y-89497619D01*
X183535714Y-89450000D01*
X183630952Y-89402380D01*
X183869047Y-89402380D01*
X184011904Y-89450000D01*
X184345238Y-89402380D02*
X184583333Y-90402380D01*
X184773809Y-89688095D01*
X184964285Y-90402380D01*
X185202380Y-89402380D01*
X186107142Y-90402380D02*
X185535714Y-90402380D01*
X185821428Y-90402380D02*
X185821428Y-89402380D01*
X185726190Y-89545238D01*
X185630952Y-89640476D01*
X185535714Y-89688095D01*
X186726190Y-89402380D02*
X186821428Y-89402380D01*
X186916666Y-89450000D01*
X186964285Y-89497619D01*
X187011904Y-89592857D01*
X187059523Y-89783333D01*
X187059523Y-90021428D01*
X187011904Y-90211904D01*
X186964285Y-90307142D01*
X186916666Y-90354761D01*
X186821428Y-90402380D01*
X186726190Y-90402380D01*
X186630952Y-90354761D01*
X186583333Y-90307142D01*
X186535714Y-90211904D01*
X186488095Y-90021428D01*
X186488095Y-89783333D01*
X186535714Y-89592857D01*
X186583333Y-89497619D01*
X186630952Y-89450000D01*
X186726190Y-89402380D01*
G04 #@! TO.C,SW11*
X183440476Y-106354761D02*
X183583333Y-106402380D01*
X183821428Y-106402380D01*
X183916666Y-106354761D01*
X183964285Y-106307142D01*
X184011904Y-106211904D01*
X184011904Y-106116666D01*
X183964285Y-106021428D01*
X183916666Y-105973809D01*
X183821428Y-105926190D01*
X183630952Y-105878571D01*
X183535714Y-105830952D01*
X183488095Y-105783333D01*
X183440476Y-105688095D01*
X183440476Y-105592857D01*
X183488095Y-105497619D01*
X183535714Y-105450000D01*
X183630952Y-105402380D01*
X183869047Y-105402380D01*
X184011904Y-105450000D01*
X184345238Y-105402380D02*
X184583333Y-106402380D01*
X184773809Y-105688095D01*
X184964285Y-106402380D01*
X185202380Y-105402380D01*
X186107142Y-106402380D02*
X185535714Y-106402380D01*
X185821428Y-106402380D02*
X185821428Y-105402380D01*
X185726190Y-105545238D01*
X185630952Y-105640476D01*
X185535714Y-105688095D01*
X187059523Y-106402380D02*
X186488095Y-106402380D01*
X186773809Y-106402380D02*
X186773809Y-105402380D01*
X186678571Y-105545238D01*
X186583333Y-105640476D01*
X186488095Y-105688095D01*
G04 #@! TO.C,SW12*
X183440476Y-114354761D02*
X183583333Y-114402380D01*
X183821428Y-114402380D01*
X183916666Y-114354761D01*
X183964285Y-114307142D01*
X184011904Y-114211904D01*
X184011904Y-114116666D01*
X183964285Y-114021428D01*
X183916666Y-113973809D01*
X183821428Y-113926190D01*
X183630952Y-113878571D01*
X183535714Y-113830952D01*
X183488095Y-113783333D01*
X183440476Y-113688095D01*
X183440476Y-113592857D01*
X183488095Y-113497619D01*
X183535714Y-113450000D01*
X183630952Y-113402380D01*
X183869047Y-113402380D01*
X184011904Y-113450000D01*
X184345238Y-113402380D02*
X184583333Y-114402380D01*
X184773809Y-113688095D01*
X184964285Y-114402380D01*
X185202380Y-113402380D01*
X186107142Y-114402380D02*
X185535714Y-114402380D01*
X185821428Y-114402380D02*
X185821428Y-113402380D01*
X185726190Y-113545238D01*
X185630952Y-113640476D01*
X185535714Y-113688095D01*
X186488095Y-113497619D02*
X186535714Y-113450000D01*
X186630952Y-113402380D01*
X186869047Y-113402380D01*
X186964285Y-113450000D01*
X187011904Y-113497619D01*
X187059523Y-113592857D01*
X187059523Y-113688095D01*
X187011904Y-113830952D01*
X186440476Y-114402380D01*
X187059523Y-114402380D01*
G04 #@! TO.C,SW13*
X183440476Y-122354761D02*
X183583333Y-122402380D01*
X183821428Y-122402380D01*
X183916666Y-122354761D01*
X183964285Y-122307142D01*
X184011904Y-122211904D01*
X184011904Y-122116666D01*
X183964285Y-122021428D01*
X183916666Y-121973809D01*
X183821428Y-121926190D01*
X183630952Y-121878571D01*
X183535714Y-121830952D01*
X183488095Y-121783333D01*
X183440476Y-121688095D01*
X183440476Y-121592857D01*
X183488095Y-121497619D01*
X183535714Y-121450000D01*
X183630952Y-121402380D01*
X183869047Y-121402380D01*
X184011904Y-121450000D01*
X184345238Y-121402380D02*
X184583333Y-122402380D01*
X184773809Y-121688095D01*
X184964285Y-122402380D01*
X185202380Y-121402380D01*
X186107142Y-122402380D02*
X185535714Y-122402380D01*
X185821428Y-122402380D02*
X185821428Y-121402380D01*
X185726190Y-121545238D01*
X185630952Y-121640476D01*
X185535714Y-121688095D01*
X186440476Y-121402380D02*
X187059523Y-121402380D01*
X186726190Y-121783333D01*
X186869047Y-121783333D01*
X186964285Y-121830952D01*
X187011904Y-121878571D01*
X187059523Y-121973809D01*
X187059523Y-122211904D01*
X187011904Y-122307142D01*
X186964285Y-122354761D01*
X186869047Y-122402380D01*
X186583333Y-122402380D01*
X186488095Y-122354761D01*
X186440476Y-122307142D01*
G04 #@! TO.C,SW14*
X183440476Y-130354761D02*
X183583333Y-130402380D01*
X183821428Y-130402380D01*
X183916666Y-130354761D01*
X183964285Y-130307142D01*
X184011904Y-130211904D01*
X184011904Y-130116666D01*
X183964285Y-130021428D01*
X183916666Y-129973809D01*
X183821428Y-129926190D01*
X183630952Y-129878571D01*
X183535714Y-129830952D01*
X183488095Y-129783333D01*
X183440476Y-129688095D01*
X183440476Y-129592857D01*
X183488095Y-129497619D01*
X183535714Y-129450000D01*
X183630952Y-129402380D01*
X183869047Y-129402380D01*
X184011904Y-129450000D01*
X184345238Y-129402380D02*
X184583333Y-130402380D01*
X184773809Y-129688095D01*
X184964285Y-130402380D01*
X185202380Y-129402380D01*
X186107142Y-130402380D02*
X185535714Y-130402380D01*
X185821428Y-130402380D02*
X185821428Y-129402380D01*
X185726190Y-129545238D01*
X185630952Y-129640476D01*
X185535714Y-129688095D01*
X186964285Y-129735714D02*
X186964285Y-130402380D01*
X186726190Y-129354761D02*
X186488095Y-130069047D01*
X187107142Y-130069047D01*
G04 #@! TO.C,TFT1*
X169428571Y-40452380D02*
X170000000Y-40452380D01*
X169714285Y-41452380D02*
X169714285Y-40452380D01*
X170666666Y-40928571D02*
X170333333Y-40928571D01*
X170333333Y-41452380D02*
X170333333Y-40452380D01*
X170809523Y-40452380D01*
X171047619Y-40452380D02*
X171619047Y-40452380D01*
X171333333Y-41452380D02*
X171333333Y-40452380D01*
X172476190Y-41452380D02*
X171904761Y-41452380D01*
X172190476Y-41452380D02*
X172190476Y-40452380D01*
X172095238Y-40595238D01*
X172000000Y-40690476D01*
X171904761Y-40738095D01*
G04 #@! TO.C,U1*
X121952380Y-71261904D02*
X122761904Y-71261904D01*
X122857142Y-71214285D01*
X122904761Y-71166666D01*
X122952380Y-71071428D01*
X122952380Y-70880952D01*
X122904761Y-70785714D01*
X122857142Y-70738095D01*
X122761904Y-70690476D01*
X121952380Y-70690476D01*
X122952380Y-69690476D02*
X122952380Y-70261904D01*
X122952380Y-69976190D02*
X121952380Y-69976190D01*
X122095238Y-70071428D01*
X122190476Y-70166666D01*
X122238095Y-70261904D01*
G04 #@! TD*
M02*
