G04 #@! TF.GenerationSoftware,KiCad,Pcbnew,5.0.1*
G04 #@! TF.CreationDate,2019-02-08T19:53:44+01:00*
G04 #@! TF.ProjectId,arduinowalkietalkie,61726475696E6F77616C6B696574616C,1.1*
G04 #@! TF.SameCoordinates,Original*
G04 #@! TF.FileFunction,Legend,Top*
G04 #@! TF.FilePolarity,Positive*
%FSLAX46Y46*%
G04 Gerber Fmt 4.6, Leading zero omitted, Abs format (unit mm)*
G04 Created by KiCad (PCBNEW 5.0.1) date Fri 08 Feb 2019 19:53:44 CET*
%MOMM*%
%LPD*%
G01*
G04 APERTURE LIST*
%ADD10C,0.300000*%
%ADD11C,0.120000*%
%ADD12C,0.500000*%
%ADD13C,0.150000*%
G04 APERTURE END LIST*
D10*
G04 #@! TO.C,BZ1*
X99002105Y-58006304D02*
G75*
G02X99000001Y-50000001I11997895J4006304D01*
G01*
X106993696Y-42002105D02*
G75*
G02X114999999Y-42000001I4006304J-11997895D01*
G01*
X122997895Y-49993696D02*
G75*
G02X122999999Y-57999999I-11997895J-4006304D01*
G01*
X115006304Y-65997895D02*
G75*
G02X107000001Y-65999999I-4006304J11997895D01*
G01*
D11*
G04 #@! TO.C,R4*
X161040000Y-130540000D02*
X161370000Y-130540000D01*
X161370000Y-130540000D02*
X161370000Y-137080000D01*
X161370000Y-137080000D02*
X161040000Y-137080000D01*
X158960000Y-130540000D02*
X158630000Y-130540000D01*
X158630000Y-130540000D02*
X158630000Y-137080000D01*
X158630000Y-137080000D02*
X158960000Y-137080000D01*
G04 #@! TO.C,R3*
X158630000Y-127080000D02*
X158960000Y-127080000D01*
X158630000Y-120540000D02*
X158630000Y-127080000D01*
X158960000Y-120540000D02*
X158630000Y-120540000D01*
X161370000Y-127080000D02*
X161040000Y-127080000D01*
X161370000Y-120540000D02*
X161370000Y-127080000D01*
X161040000Y-120540000D02*
X161370000Y-120540000D01*
G04 #@! TO.C,R2*
X161040000Y-110540000D02*
X161370000Y-110540000D01*
X161370000Y-110540000D02*
X161370000Y-117080000D01*
X161370000Y-117080000D02*
X161040000Y-117080000D01*
X158960000Y-110540000D02*
X158630000Y-110540000D01*
X158630000Y-110540000D02*
X158630000Y-117080000D01*
X158630000Y-117080000D02*
X158960000Y-117080000D01*
G04 #@! TO.C,R1*
X171080000Y-101370000D02*
X171080000Y-101040000D01*
X164540000Y-101370000D02*
X171080000Y-101370000D01*
X164540000Y-101040000D02*
X164540000Y-101370000D01*
X171080000Y-98630000D02*
X171080000Y-98960000D01*
X164540000Y-98630000D02*
X171080000Y-98630000D01*
X164540000Y-98960000D02*
X164540000Y-98630000D01*
G04 #@! TO.C,R5*
X179080000Y-105040000D02*
X179080000Y-105370000D01*
X179080000Y-105370000D02*
X172540000Y-105370000D01*
X172540000Y-105370000D02*
X172540000Y-105040000D01*
X179080000Y-102960000D02*
X179080000Y-102630000D01*
X179080000Y-102630000D02*
X172540000Y-102630000D01*
X172540000Y-102630000D02*
X172540000Y-102960000D01*
G04 #@! TO.C,R6*
X183540000Y-98630000D02*
X183540000Y-98960000D01*
X190080000Y-98630000D02*
X183540000Y-98630000D01*
X190080000Y-98960000D02*
X190080000Y-98630000D01*
X183540000Y-101370000D02*
X183540000Y-101040000D01*
X190080000Y-101370000D02*
X183540000Y-101370000D01*
X190080000Y-101040000D02*
X190080000Y-101370000D01*
G04 #@! TO.C,R7*
X183540000Y-102960000D02*
X183540000Y-102630000D01*
X183540000Y-102630000D02*
X190080000Y-102630000D01*
X190080000Y-102630000D02*
X190080000Y-102960000D01*
X183540000Y-105040000D02*
X183540000Y-105370000D01*
X183540000Y-105370000D02*
X190080000Y-105370000D01*
X190080000Y-105370000D02*
X190080000Y-105040000D01*
G04 #@! TO.C,R8*
X193630000Y-136080000D02*
X193960000Y-136080000D01*
X193630000Y-129540000D02*
X193630000Y-136080000D01*
X193960000Y-129540000D02*
X193630000Y-129540000D01*
X196370000Y-136080000D02*
X196040000Y-136080000D01*
X196370000Y-129540000D02*
X196370000Y-136080000D01*
X196040000Y-129540000D02*
X196370000Y-129540000D01*
G04 #@! TO.C,R9*
X144040000Y-49540000D02*
X144370000Y-49540000D01*
X144370000Y-49540000D02*
X144370000Y-56080000D01*
X144370000Y-56080000D02*
X144040000Y-56080000D01*
X141960000Y-49540000D02*
X141630000Y-49540000D01*
X141630000Y-49540000D02*
X141630000Y-56080000D01*
X141630000Y-56080000D02*
X141960000Y-56080000D01*
G04 #@! TO.C,A1*
X157640000Y-92560000D02*
X139600000Y-92560000D01*
X157640000Y-136000000D02*
X157640000Y-92560000D01*
X139600000Y-136000000D02*
X157640000Y-136000000D01*
X142270000Y-133330000D02*
X139600000Y-133330000D01*
X142270000Y-97770000D02*
X142270000Y-133330000D01*
X142270000Y-97770000D02*
X139600000Y-97770000D01*
X154970000Y-133330000D02*
X157640000Y-133330000D01*
X154970000Y-95230000D02*
X154970000Y-133330000D01*
X154970000Y-95230000D02*
X157640000Y-95230000D01*
X139600000Y-92560000D02*
X139600000Y-95230000D01*
X139600000Y-97770000D02*
X139600000Y-136000000D01*
X142270000Y-95230000D02*
X139600000Y-95230000D01*
X142270000Y-97770000D02*
X142270000Y-95230000D01*
D10*
G04 #@! TO.C,BMP1*
X138500000Y-74000000D02*
X138500000Y-72500000D01*
X137000000Y-72500000D02*
X138500000Y-72500000D01*
X124500000Y-72500000D02*
X126000000Y-72500000D01*
X124500000Y-72500000D02*
X124500000Y-74000000D01*
X124500000Y-82000000D02*
X124500000Y-83500000D01*
X126000000Y-83500000D02*
X124500000Y-83500000D01*
X138500000Y-83500000D02*
X138500000Y-82000000D01*
X138500000Y-83500000D02*
X137000000Y-83500000D01*
D12*
X138750000Y-83500000D02*
G75*
G03X138750000Y-83500000I-250000J0D01*
G01*
D10*
G04 #@! TO.C,BT1*
X134000000Y-90000000D02*
X134000000Y-88500000D01*
X132500000Y-88500000D02*
X134000000Y-88500000D01*
X132500000Y-139500000D02*
X134000000Y-139500000D01*
X134000000Y-138000000D02*
X134000000Y-139500000D01*
X102000000Y-139500000D02*
X100500000Y-139500000D01*
X100500000Y-138000000D02*
X100500000Y-139500000D01*
X100500000Y-90000000D02*
X100500000Y-88500000D01*
X102000000Y-88500000D02*
X100500000Y-88500000D01*
X110000000Y-86500000D02*
X110000000Y-85000000D01*
X111500000Y-85000000D02*
X110000000Y-85000000D01*
X125000000Y-85000000D02*
X125000000Y-86500000D01*
X125000000Y-85000000D02*
X123500000Y-85000000D01*
G04 #@! TO.C,CC1*
X98500000Y-82500000D02*
X98500000Y-84500000D01*
X100500000Y-84500000D02*
X98500000Y-84500000D01*
X100500000Y-68500000D02*
X98500000Y-68500000D01*
X98500000Y-70500000D02*
X98500000Y-68500000D01*
X120500000Y-68500000D02*
X122500000Y-68500000D01*
X122500000Y-70500000D02*
X122500000Y-68500000D01*
X122500000Y-82500000D02*
X122500000Y-84500000D01*
X122500000Y-84500000D02*
X120500000Y-84500000D01*
D12*
X122750000Y-84500000D02*
G75*
G03X122750000Y-84500000I-250000J0D01*
G01*
D11*
G04 #@! TO.C,D1*
X134880000Y-91710000D02*
X137120000Y-91710000D01*
X134880000Y-91470000D02*
X137120000Y-91470000D01*
X134880000Y-91590000D02*
X137120000Y-91590000D01*
X136000000Y-87420000D02*
X136000000Y-88070000D01*
X136000000Y-92960000D02*
X136000000Y-92310000D01*
X134880000Y-88070000D02*
X134880000Y-92310000D01*
X137120000Y-88070000D02*
X134880000Y-88070000D01*
X137120000Y-92310000D02*
X137120000Y-88070000D01*
X134880000Y-92310000D02*
X137120000Y-92310000D01*
D13*
G04 #@! TO.C,JP1*
X126500000Y-87500000D02*
X126500000Y-86500000D01*
X127500000Y-87500000D02*
X126500000Y-87500000D01*
X132000000Y-87500000D02*
X131000000Y-87500000D01*
X132000000Y-86500000D02*
X132000000Y-87500000D01*
X132000000Y-84500000D02*
X132000000Y-85500000D01*
X131000000Y-84500000D02*
X132000000Y-84500000D01*
X126500000Y-84500000D02*
X126500000Y-85500000D01*
X126500000Y-84500000D02*
X127500000Y-84500000D01*
D11*
G04 #@! TO.C,SW1*
X170370000Y-92910000D02*
X170370000Y-95590000D01*
X164130000Y-95590000D02*
X164130000Y-92910000D01*
X164280000Y-91130000D02*
X170220000Y-91130000D01*
X164280000Y-97370000D02*
X170220000Y-97370000D01*
X168664214Y-94250000D02*
G75*
G03X168664214Y-94250000I-1414214J0D01*
G01*
G04 #@! TO.C,SW2*
X170370000Y-108910000D02*
X170370000Y-111590000D01*
X164130000Y-111590000D02*
X164130000Y-108910000D01*
X164280000Y-107130000D02*
X170220000Y-107130000D01*
X164280000Y-113370000D02*
X170220000Y-113370000D01*
X168664214Y-110250000D02*
G75*
G03X168664214Y-110250000I-1414214J0D01*
G01*
G04 #@! TO.C,SW3*
X170370000Y-116910000D02*
X170370000Y-119590000D01*
X164130000Y-119590000D02*
X164130000Y-116910000D01*
X164280000Y-115130000D02*
X170220000Y-115130000D01*
X164280000Y-121370000D02*
X170220000Y-121370000D01*
X168664214Y-118250000D02*
G75*
G03X168664214Y-118250000I-1414214J0D01*
G01*
G04 #@! TO.C,SW4*
X170370000Y-124910000D02*
X170370000Y-127590000D01*
X164130000Y-127590000D02*
X164130000Y-124910000D01*
X164280000Y-123130000D02*
X170220000Y-123130000D01*
X164280000Y-129370000D02*
X170220000Y-129370000D01*
X168664214Y-126250000D02*
G75*
G03X168664214Y-126250000I-1414214J0D01*
G01*
G04 #@! TO.C,SW5*
X170370000Y-132910000D02*
X170370000Y-135590000D01*
X164130000Y-135590000D02*
X164130000Y-132910000D01*
X164280000Y-131130000D02*
X170220000Y-131130000D01*
X164280000Y-137370000D02*
X170220000Y-137370000D01*
X168664214Y-134250000D02*
G75*
G03X168664214Y-134250000I-1414214J0D01*
G01*
G04 #@! TO.C,SW6*
X180370000Y-108910000D02*
X180370000Y-111590000D01*
X174130000Y-111590000D02*
X174130000Y-108910000D01*
X174280000Y-107130000D02*
X180220000Y-107130000D01*
X174280000Y-113370000D02*
X180220000Y-113370000D01*
X178664214Y-110250000D02*
G75*
G03X178664214Y-110250000I-1414214J0D01*
G01*
G04 #@! TO.C,SW7*
X180370000Y-116910000D02*
X180370000Y-119590000D01*
X174130000Y-119590000D02*
X174130000Y-116910000D01*
X174280000Y-115130000D02*
X180220000Y-115130000D01*
X174280000Y-121370000D02*
X180220000Y-121370000D01*
X178664214Y-118250000D02*
G75*
G03X178664214Y-118250000I-1414214J0D01*
G01*
G04 #@! TO.C,SW8*
X180370000Y-124910000D02*
X180370000Y-127590000D01*
X174130000Y-127590000D02*
X174130000Y-124910000D01*
X174280000Y-123130000D02*
X180220000Y-123130000D01*
X174280000Y-129370000D02*
X180220000Y-129370000D01*
X178664214Y-126250000D02*
G75*
G03X178664214Y-126250000I-1414214J0D01*
G01*
G04 #@! TO.C,SW9*
X180370000Y-132910000D02*
X180370000Y-135590000D01*
X174130000Y-135590000D02*
X174130000Y-132910000D01*
X174280000Y-131130000D02*
X180220000Y-131130000D01*
X174280000Y-137370000D02*
X180220000Y-137370000D01*
X178664214Y-134250000D02*
G75*
G03X178664214Y-134250000I-1414214J0D01*
G01*
G04 #@! TO.C,SW10*
X190370000Y-92910000D02*
X190370000Y-95590000D01*
X184130000Y-95590000D02*
X184130000Y-92910000D01*
X184280000Y-91130000D02*
X190220000Y-91130000D01*
X184280000Y-97370000D02*
X190220000Y-97370000D01*
X188664214Y-94250000D02*
G75*
G03X188664214Y-94250000I-1414214J0D01*
G01*
G04 #@! TO.C,SW11*
X190370000Y-108910000D02*
X190370000Y-111590000D01*
X184130000Y-111590000D02*
X184130000Y-108910000D01*
X184280000Y-107130000D02*
X190220000Y-107130000D01*
X184280000Y-113370000D02*
X190220000Y-113370000D01*
X188664214Y-110250000D02*
G75*
G03X188664214Y-110250000I-1414214J0D01*
G01*
G04 #@! TO.C,SW12*
X190370000Y-116910000D02*
X190370000Y-119590000D01*
X184130000Y-119590000D02*
X184130000Y-116910000D01*
X184280000Y-115130000D02*
X190220000Y-115130000D01*
X184280000Y-121370000D02*
X190220000Y-121370000D01*
X188664214Y-118250000D02*
G75*
G03X188664214Y-118250000I-1414214J0D01*
G01*
G04 #@! TO.C,SW13*
X190370000Y-124910000D02*
X190370000Y-127590000D01*
X184130000Y-127590000D02*
X184130000Y-124910000D01*
X184280000Y-123130000D02*
X190220000Y-123130000D01*
X184280000Y-129370000D02*
X190220000Y-129370000D01*
X188664214Y-126250000D02*
G75*
G03X188664214Y-126250000I-1414214J0D01*
G01*
G04 #@! TO.C,SW14*
X190370000Y-132910000D02*
X190370000Y-135590000D01*
X184130000Y-135590000D02*
X184130000Y-132910000D01*
X184280000Y-131130000D02*
X190220000Y-131130000D01*
X184280000Y-137370000D02*
X190220000Y-137370000D01*
X188664214Y-134250000D02*
G75*
G03X188664214Y-134250000I-1414214J0D01*
G01*
D10*
G04 #@! TO.C,TFT1*
X144500000Y-86500000D02*
X144500000Y-88000000D01*
X144500000Y-88000000D02*
X146000000Y-88000000D01*
X195000000Y-88000000D02*
X196500000Y-88000000D01*
X196500000Y-86500000D02*
X196500000Y-88000000D01*
X196500000Y-43500000D02*
X196500000Y-42000000D01*
X195000000Y-42000000D02*
X196500000Y-42000000D01*
X144500000Y-42000000D02*
X146000000Y-42000000D01*
X144500000Y-42000000D02*
X144500000Y-43500000D01*
D12*
X144750000Y-42000000D02*
G75*
G03X144750000Y-42000000I-250000J0D01*
G01*
D11*
G04 #@! TO.C,U1*
X125476000Y-70270000D02*
X125476000Y-70270000D01*
X136144000Y-70270000D02*
X125476000Y-70270000D01*
X124900000Y-70600000D02*
X124900000Y-70600000D01*
X140350000Y-70600000D02*
X124900000Y-70600000D01*
X140350000Y-41400000D02*
X140350000Y-70600000D01*
X124900000Y-41400000D02*
X140350000Y-41400000D01*
X124900000Y-70600000D02*
X124900000Y-41400000D01*
X128270000Y-70016000D02*
X128270000Y-70016000D01*
X128270000Y-67730000D02*
X128270000Y-70016000D01*
X125984000Y-67730000D02*
X128270000Y-67730000D01*
X136144000Y-70270000D02*
X136144000Y-70270000D01*
X136144000Y-64936000D02*
X136144000Y-70270000D01*
X125476000Y-64936000D02*
X136144000Y-64936000D01*
X125476000Y-70270000D02*
X125476000Y-64936000D01*
G04 #@! TO.C,BZ1*
D13*
X110119047Y-53928571D02*
X110261904Y-53976190D01*
X110309523Y-54023809D01*
X110357142Y-54119047D01*
X110357142Y-54261904D01*
X110309523Y-54357142D01*
X110261904Y-54404761D01*
X110166666Y-54452380D01*
X109785714Y-54452380D01*
X109785714Y-53452380D01*
X110119047Y-53452380D01*
X110214285Y-53500000D01*
X110261904Y-53547619D01*
X110309523Y-53642857D01*
X110309523Y-53738095D01*
X110261904Y-53833333D01*
X110214285Y-53880952D01*
X110119047Y-53928571D01*
X109785714Y-53928571D01*
X110690476Y-53452380D02*
X111357142Y-53452380D01*
X110690476Y-54452380D01*
X111357142Y-54452380D01*
X112261904Y-54452380D02*
X111690476Y-54452380D01*
X111976190Y-54452380D02*
X111976190Y-53452380D01*
X111880952Y-53595238D01*
X111785714Y-53690476D01*
X111690476Y-53738095D01*
G04 #@! TO.C,R4*
X160452380Y-134166666D02*
X159976190Y-134500000D01*
X160452380Y-134738095D02*
X159452380Y-134738095D01*
X159452380Y-134357142D01*
X159500000Y-134261904D01*
X159547619Y-134214285D01*
X159642857Y-134166666D01*
X159785714Y-134166666D01*
X159880952Y-134214285D01*
X159928571Y-134261904D01*
X159976190Y-134357142D01*
X159976190Y-134738095D01*
X159785714Y-133309523D02*
X160452380Y-133309523D01*
X159404761Y-133547619D02*
X160119047Y-133785714D01*
X160119047Y-133166666D01*
G04 #@! TO.C,R3*
X160452380Y-123976666D02*
X159976190Y-124310000D01*
X160452380Y-124548095D02*
X159452380Y-124548095D01*
X159452380Y-124167142D01*
X159500000Y-124071904D01*
X159547619Y-124024285D01*
X159642857Y-123976666D01*
X159785714Y-123976666D01*
X159880952Y-124024285D01*
X159928571Y-124071904D01*
X159976190Y-124167142D01*
X159976190Y-124548095D01*
X159452380Y-123643333D02*
X159452380Y-123024285D01*
X159833333Y-123357619D01*
X159833333Y-123214761D01*
X159880952Y-123119523D01*
X159928571Y-123071904D01*
X160023809Y-123024285D01*
X160261904Y-123024285D01*
X160357142Y-123071904D01*
X160404761Y-123119523D01*
X160452380Y-123214761D01*
X160452380Y-123500476D01*
X160404761Y-123595714D01*
X160357142Y-123643333D01*
G04 #@! TO.C,R2*
X160452380Y-114166666D02*
X159976190Y-114500000D01*
X160452380Y-114738095D02*
X159452380Y-114738095D01*
X159452380Y-114357142D01*
X159500000Y-114261904D01*
X159547619Y-114214285D01*
X159642857Y-114166666D01*
X159785714Y-114166666D01*
X159880952Y-114214285D01*
X159928571Y-114261904D01*
X159976190Y-114357142D01*
X159976190Y-114738095D01*
X159547619Y-113785714D02*
X159500000Y-113738095D01*
X159452380Y-113642857D01*
X159452380Y-113404761D01*
X159500000Y-113309523D01*
X159547619Y-113261904D01*
X159642857Y-113214285D01*
X159738095Y-113214285D01*
X159880952Y-113261904D01*
X160452380Y-113833333D01*
X160452380Y-113214285D01*
G04 #@! TO.C,R1*
X167643333Y-100452380D02*
X167310000Y-99976190D01*
X167071904Y-100452380D02*
X167071904Y-99452380D01*
X167452857Y-99452380D01*
X167548095Y-99500000D01*
X167595714Y-99547619D01*
X167643333Y-99642857D01*
X167643333Y-99785714D01*
X167595714Y-99880952D01*
X167548095Y-99928571D01*
X167452857Y-99976190D01*
X167071904Y-99976190D01*
X168595714Y-100452380D02*
X168024285Y-100452380D01*
X168310000Y-100452380D02*
X168310000Y-99452380D01*
X168214761Y-99595238D01*
X168119523Y-99690476D01*
X168024285Y-99738095D01*
G04 #@! TO.C,R5*
X175643333Y-104452380D02*
X175310000Y-103976190D01*
X175071904Y-104452380D02*
X175071904Y-103452380D01*
X175452857Y-103452380D01*
X175548095Y-103500000D01*
X175595714Y-103547619D01*
X175643333Y-103642857D01*
X175643333Y-103785714D01*
X175595714Y-103880952D01*
X175548095Y-103928571D01*
X175452857Y-103976190D01*
X175071904Y-103976190D01*
X176548095Y-103452380D02*
X176071904Y-103452380D01*
X176024285Y-103928571D01*
X176071904Y-103880952D01*
X176167142Y-103833333D01*
X176405238Y-103833333D01*
X176500476Y-103880952D01*
X176548095Y-103928571D01*
X176595714Y-104023809D01*
X176595714Y-104261904D01*
X176548095Y-104357142D01*
X176500476Y-104404761D01*
X176405238Y-104452380D01*
X176167142Y-104452380D01*
X176071904Y-104404761D01*
X176024285Y-104357142D01*
G04 #@! TO.C,R6*
X186643333Y-104452380D02*
X186310000Y-103976190D01*
X186071904Y-104452380D02*
X186071904Y-103452380D01*
X186452857Y-103452380D01*
X186548095Y-103500000D01*
X186595714Y-103547619D01*
X186643333Y-103642857D01*
X186643333Y-103785714D01*
X186595714Y-103880952D01*
X186548095Y-103928571D01*
X186452857Y-103976190D01*
X186071904Y-103976190D01*
X187500476Y-103452380D02*
X187310000Y-103452380D01*
X187214761Y-103500000D01*
X187167142Y-103547619D01*
X187071904Y-103690476D01*
X187024285Y-103880952D01*
X187024285Y-104261904D01*
X187071904Y-104357142D01*
X187119523Y-104404761D01*
X187214761Y-104452380D01*
X187405238Y-104452380D01*
X187500476Y-104404761D01*
X187548095Y-104357142D01*
X187595714Y-104261904D01*
X187595714Y-104023809D01*
X187548095Y-103928571D01*
X187500476Y-103880952D01*
X187405238Y-103833333D01*
X187214761Y-103833333D01*
X187119523Y-103880952D01*
X187071904Y-103928571D01*
X187024285Y-104023809D01*
G04 #@! TO.C,R7*
X186643333Y-100452380D02*
X186310000Y-99976190D01*
X186071904Y-100452380D02*
X186071904Y-99452380D01*
X186452857Y-99452380D01*
X186548095Y-99500000D01*
X186595714Y-99547619D01*
X186643333Y-99642857D01*
X186643333Y-99785714D01*
X186595714Y-99880952D01*
X186548095Y-99928571D01*
X186452857Y-99976190D01*
X186071904Y-99976190D01*
X186976666Y-99452380D02*
X187643333Y-99452380D01*
X187214761Y-100452380D01*
G04 #@! TO.C,R8*
X195452380Y-133166666D02*
X194976190Y-133500000D01*
X195452380Y-133738095D02*
X194452380Y-133738095D01*
X194452380Y-133357142D01*
X194500000Y-133261904D01*
X194547619Y-133214285D01*
X194642857Y-133166666D01*
X194785714Y-133166666D01*
X194880952Y-133214285D01*
X194928571Y-133261904D01*
X194976190Y-133357142D01*
X194976190Y-133738095D01*
X194880952Y-132595238D02*
X194833333Y-132690476D01*
X194785714Y-132738095D01*
X194690476Y-132785714D01*
X194642857Y-132785714D01*
X194547619Y-132738095D01*
X194500000Y-132690476D01*
X194452380Y-132595238D01*
X194452380Y-132404761D01*
X194500000Y-132309523D01*
X194547619Y-132261904D01*
X194642857Y-132214285D01*
X194690476Y-132214285D01*
X194785714Y-132261904D01*
X194833333Y-132309523D01*
X194880952Y-132404761D01*
X194880952Y-132595238D01*
X194928571Y-132690476D01*
X194976190Y-132738095D01*
X195071428Y-132785714D01*
X195261904Y-132785714D01*
X195357142Y-132738095D01*
X195404761Y-132690476D01*
X195452380Y-132595238D01*
X195452380Y-132404761D01*
X195404761Y-132309523D01*
X195357142Y-132261904D01*
X195261904Y-132214285D01*
X195071428Y-132214285D01*
X194976190Y-132261904D01*
X194928571Y-132309523D01*
X194880952Y-132404761D01*
G04 #@! TO.C,R9*
X143452380Y-53166666D02*
X142976190Y-53500000D01*
X143452380Y-53738095D02*
X142452380Y-53738095D01*
X142452380Y-53357142D01*
X142500000Y-53261904D01*
X142547619Y-53214285D01*
X142642857Y-53166666D01*
X142785714Y-53166666D01*
X142880952Y-53214285D01*
X142928571Y-53261904D01*
X142976190Y-53357142D01*
X142976190Y-53738095D01*
X143452380Y-52690476D02*
X143452380Y-52500000D01*
X143404761Y-52404761D01*
X143357142Y-52357142D01*
X143214285Y-52261904D01*
X143023809Y-52214285D01*
X142642857Y-52214285D01*
X142547619Y-52261904D01*
X142500000Y-52309523D01*
X142452380Y-52404761D01*
X142452380Y-52595238D01*
X142500000Y-52690476D01*
X142547619Y-52738095D01*
X142642857Y-52785714D01*
X142880952Y-52785714D01*
X142976190Y-52738095D01*
X143023809Y-52690476D01*
X143071428Y-52595238D01*
X143071428Y-52404761D01*
X143023809Y-52309523D01*
X142976190Y-52261904D01*
X142880952Y-52214285D01*
G04 #@! TO.C,A1*
X147905714Y-114166666D02*
X148381904Y-114166666D01*
X147810476Y-114452380D02*
X148143809Y-113452380D01*
X148477142Y-114452380D01*
X149334285Y-114452380D02*
X148762857Y-114452380D01*
X149048571Y-114452380D02*
X149048571Y-113452380D01*
X148953333Y-113595238D01*
X148858095Y-113690476D01*
X148762857Y-113738095D01*
G04 #@! TO.C,BMP1*
X129523809Y-77928571D02*
X129666666Y-77976190D01*
X129714285Y-78023809D01*
X129761904Y-78119047D01*
X129761904Y-78261904D01*
X129714285Y-78357142D01*
X129666666Y-78404761D01*
X129571428Y-78452380D01*
X129190476Y-78452380D01*
X129190476Y-77452380D01*
X129523809Y-77452380D01*
X129619047Y-77500000D01*
X129666666Y-77547619D01*
X129714285Y-77642857D01*
X129714285Y-77738095D01*
X129666666Y-77833333D01*
X129619047Y-77880952D01*
X129523809Y-77928571D01*
X129190476Y-77928571D01*
X130190476Y-78452380D02*
X130190476Y-77452380D01*
X130523809Y-78166666D01*
X130857142Y-77452380D01*
X130857142Y-78452380D01*
X131333333Y-78452380D02*
X131333333Y-77452380D01*
X131714285Y-77452380D01*
X131809523Y-77500000D01*
X131857142Y-77547619D01*
X131904761Y-77642857D01*
X131904761Y-77785714D01*
X131857142Y-77880952D01*
X131809523Y-77928571D01*
X131714285Y-77976190D01*
X131333333Y-77976190D01*
X132857142Y-78452380D02*
X132285714Y-78452380D01*
X132571428Y-78452380D02*
X132571428Y-77452380D01*
X132476190Y-77595238D01*
X132380952Y-77690476D01*
X132285714Y-77738095D01*
G04 #@! TO.C,BT1*
X115928571Y-114785714D02*
X115976190Y-114642857D01*
X116023809Y-114595238D01*
X116119047Y-114547619D01*
X116261904Y-114547619D01*
X116357142Y-114595238D01*
X116404761Y-114642857D01*
X116452380Y-114738095D01*
X116452380Y-115119047D01*
X115452380Y-115119047D01*
X115452380Y-114785714D01*
X115500000Y-114690476D01*
X115547619Y-114642857D01*
X115642857Y-114595238D01*
X115738095Y-114595238D01*
X115833333Y-114642857D01*
X115880952Y-114690476D01*
X115928571Y-114785714D01*
X115928571Y-115119047D01*
X115452380Y-114261904D02*
X115452380Y-113690476D01*
X116452380Y-113976190D02*
X115452380Y-113976190D01*
X116452380Y-112833333D02*
X116452380Y-113404761D01*
X116452380Y-113119047D02*
X115452380Y-113119047D01*
X115595238Y-113214285D01*
X115690476Y-113309523D01*
X115738095Y-113404761D01*
G04 #@! TO.C,CC1*
X110333333Y-77357142D02*
X110285714Y-77404761D01*
X110142857Y-77452380D01*
X110047619Y-77452380D01*
X109904761Y-77404761D01*
X109809523Y-77309523D01*
X109761904Y-77214285D01*
X109714285Y-77023809D01*
X109714285Y-76880952D01*
X109761904Y-76690476D01*
X109809523Y-76595238D01*
X109904761Y-76500000D01*
X110047619Y-76452380D01*
X110142857Y-76452380D01*
X110285714Y-76500000D01*
X110333333Y-76547619D01*
X111333333Y-77357142D02*
X111285714Y-77404761D01*
X111142857Y-77452380D01*
X111047619Y-77452380D01*
X110904761Y-77404761D01*
X110809523Y-77309523D01*
X110761904Y-77214285D01*
X110714285Y-77023809D01*
X110714285Y-76880952D01*
X110761904Y-76690476D01*
X110809523Y-76595238D01*
X110904761Y-76500000D01*
X111047619Y-76452380D01*
X111142857Y-76452380D01*
X111285714Y-76500000D01*
X111333333Y-76547619D01*
X112285714Y-77452380D02*
X111714285Y-77452380D01*
X112000000Y-77452380D02*
X112000000Y-76452380D01*
X111904761Y-76595238D01*
X111809523Y-76690476D01*
X111714285Y-76738095D01*
G04 #@! TO.C,D1*
X136452380Y-90738095D02*
X135452380Y-90738095D01*
X135452380Y-90500000D01*
X135500000Y-90357142D01*
X135595238Y-90261904D01*
X135690476Y-90214285D01*
X135880952Y-90166666D01*
X136023809Y-90166666D01*
X136214285Y-90214285D01*
X136309523Y-90261904D01*
X136404761Y-90357142D01*
X136452380Y-90500000D01*
X136452380Y-90738095D01*
X136452380Y-89214285D02*
X136452380Y-89785714D01*
X136452380Y-89500000D02*
X135452380Y-89500000D01*
X135595238Y-89595238D01*
X135690476Y-89690476D01*
X135738095Y-89785714D01*
X134652380Y-94261904D02*
X133652380Y-94261904D01*
X134652380Y-93690476D02*
X134080952Y-94119047D01*
X133652380Y-93690476D02*
X134223809Y-94261904D01*
G04 #@! TO.C,JP1*
X128166666Y-87952380D02*
X128166666Y-88666666D01*
X128119047Y-88809523D01*
X128023809Y-88904761D01*
X127880952Y-88952380D01*
X127785714Y-88952380D01*
X128642857Y-88952380D02*
X128642857Y-87952380D01*
X129023809Y-87952380D01*
X129119047Y-88000000D01*
X129166666Y-88047619D01*
X129214285Y-88142857D01*
X129214285Y-88285714D01*
X129166666Y-88380952D01*
X129119047Y-88428571D01*
X129023809Y-88476190D01*
X128642857Y-88476190D01*
X130166666Y-88952380D02*
X129595238Y-88952380D01*
X129880952Y-88952380D02*
X129880952Y-87952380D01*
X129785714Y-88095238D01*
X129690476Y-88190476D01*
X129595238Y-88238095D01*
G04 #@! TO.C,SW1*
X165916666Y-90354761D02*
X166059523Y-90402380D01*
X166297619Y-90402380D01*
X166392857Y-90354761D01*
X166440476Y-90307142D01*
X166488095Y-90211904D01*
X166488095Y-90116666D01*
X166440476Y-90021428D01*
X166392857Y-89973809D01*
X166297619Y-89926190D01*
X166107142Y-89878571D01*
X166011904Y-89830952D01*
X165964285Y-89783333D01*
X165916666Y-89688095D01*
X165916666Y-89592857D01*
X165964285Y-89497619D01*
X166011904Y-89450000D01*
X166107142Y-89402380D01*
X166345238Y-89402380D01*
X166488095Y-89450000D01*
X166821428Y-89402380D02*
X167059523Y-90402380D01*
X167250000Y-89688095D01*
X167440476Y-90402380D01*
X167678571Y-89402380D01*
X168583333Y-90402380D02*
X168011904Y-90402380D01*
X168297619Y-90402380D02*
X168297619Y-89402380D01*
X168202380Y-89545238D01*
X168107142Y-89640476D01*
X168011904Y-89688095D01*
G04 #@! TO.C,SW2*
X165916666Y-106354761D02*
X166059523Y-106402380D01*
X166297619Y-106402380D01*
X166392857Y-106354761D01*
X166440476Y-106307142D01*
X166488095Y-106211904D01*
X166488095Y-106116666D01*
X166440476Y-106021428D01*
X166392857Y-105973809D01*
X166297619Y-105926190D01*
X166107142Y-105878571D01*
X166011904Y-105830952D01*
X165964285Y-105783333D01*
X165916666Y-105688095D01*
X165916666Y-105592857D01*
X165964285Y-105497619D01*
X166011904Y-105450000D01*
X166107142Y-105402380D01*
X166345238Y-105402380D01*
X166488095Y-105450000D01*
X166821428Y-105402380D02*
X167059523Y-106402380D01*
X167250000Y-105688095D01*
X167440476Y-106402380D01*
X167678571Y-105402380D01*
X168011904Y-105497619D02*
X168059523Y-105450000D01*
X168154761Y-105402380D01*
X168392857Y-105402380D01*
X168488095Y-105450000D01*
X168535714Y-105497619D01*
X168583333Y-105592857D01*
X168583333Y-105688095D01*
X168535714Y-105830952D01*
X167964285Y-106402380D01*
X168583333Y-106402380D01*
G04 #@! TO.C,SW3*
X165916666Y-114354761D02*
X166059523Y-114402380D01*
X166297619Y-114402380D01*
X166392857Y-114354761D01*
X166440476Y-114307142D01*
X166488095Y-114211904D01*
X166488095Y-114116666D01*
X166440476Y-114021428D01*
X166392857Y-113973809D01*
X166297619Y-113926190D01*
X166107142Y-113878571D01*
X166011904Y-113830952D01*
X165964285Y-113783333D01*
X165916666Y-113688095D01*
X165916666Y-113592857D01*
X165964285Y-113497619D01*
X166011904Y-113450000D01*
X166107142Y-113402380D01*
X166345238Y-113402380D01*
X166488095Y-113450000D01*
X166821428Y-113402380D02*
X167059523Y-114402380D01*
X167250000Y-113688095D01*
X167440476Y-114402380D01*
X167678571Y-113402380D01*
X167964285Y-113402380D02*
X168583333Y-113402380D01*
X168250000Y-113783333D01*
X168392857Y-113783333D01*
X168488095Y-113830952D01*
X168535714Y-113878571D01*
X168583333Y-113973809D01*
X168583333Y-114211904D01*
X168535714Y-114307142D01*
X168488095Y-114354761D01*
X168392857Y-114402380D01*
X168107142Y-114402380D01*
X168011904Y-114354761D01*
X167964285Y-114307142D01*
G04 #@! TO.C,SW4*
X165916666Y-122354761D02*
X166059523Y-122402380D01*
X166297619Y-122402380D01*
X166392857Y-122354761D01*
X166440476Y-122307142D01*
X166488095Y-122211904D01*
X166488095Y-122116666D01*
X166440476Y-122021428D01*
X166392857Y-121973809D01*
X166297619Y-121926190D01*
X166107142Y-121878571D01*
X166011904Y-121830952D01*
X165964285Y-121783333D01*
X165916666Y-121688095D01*
X165916666Y-121592857D01*
X165964285Y-121497619D01*
X166011904Y-121450000D01*
X166107142Y-121402380D01*
X166345238Y-121402380D01*
X166488095Y-121450000D01*
X166821428Y-121402380D02*
X167059523Y-122402380D01*
X167250000Y-121688095D01*
X167440476Y-122402380D01*
X167678571Y-121402380D01*
X168488095Y-121735714D02*
X168488095Y-122402380D01*
X168250000Y-121354761D02*
X168011904Y-122069047D01*
X168630952Y-122069047D01*
G04 #@! TO.C,SW5*
X165916666Y-130354761D02*
X166059523Y-130402380D01*
X166297619Y-130402380D01*
X166392857Y-130354761D01*
X166440476Y-130307142D01*
X166488095Y-130211904D01*
X166488095Y-130116666D01*
X166440476Y-130021428D01*
X166392857Y-129973809D01*
X166297619Y-129926190D01*
X166107142Y-129878571D01*
X166011904Y-129830952D01*
X165964285Y-129783333D01*
X165916666Y-129688095D01*
X165916666Y-129592857D01*
X165964285Y-129497619D01*
X166011904Y-129450000D01*
X166107142Y-129402380D01*
X166345238Y-129402380D01*
X166488095Y-129450000D01*
X166821428Y-129402380D02*
X167059523Y-130402380D01*
X167250000Y-129688095D01*
X167440476Y-130402380D01*
X167678571Y-129402380D01*
X168535714Y-129402380D02*
X168059523Y-129402380D01*
X168011904Y-129878571D01*
X168059523Y-129830952D01*
X168154761Y-129783333D01*
X168392857Y-129783333D01*
X168488095Y-129830952D01*
X168535714Y-129878571D01*
X168583333Y-129973809D01*
X168583333Y-130211904D01*
X168535714Y-130307142D01*
X168488095Y-130354761D01*
X168392857Y-130402380D01*
X168154761Y-130402380D01*
X168059523Y-130354761D01*
X168011904Y-130307142D01*
G04 #@! TO.C,SW6*
X175916666Y-106354761D02*
X176059523Y-106402380D01*
X176297619Y-106402380D01*
X176392857Y-106354761D01*
X176440476Y-106307142D01*
X176488095Y-106211904D01*
X176488095Y-106116666D01*
X176440476Y-106021428D01*
X176392857Y-105973809D01*
X176297619Y-105926190D01*
X176107142Y-105878571D01*
X176011904Y-105830952D01*
X175964285Y-105783333D01*
X175916666Y-105688095D01*
X175916666Y-105592857D01*
X175964285Y-105497619D01*
X176011904Y-105450000D01*
X176107142Y-105402380D01*
X176345238Y-105402380D01*
X176488095Y-105450000D01*
X176821428Y-105402380D02*
X177059523Y-106402380D01*
X177250000Y-105688095D01*
X177440476Y-106402380D01*
X177678571Y-105402380D01*
X178488095Y-105402380D02*
X178297619Y-105402380D01*
X178202380Y-105450000D01*
X178154761Y-105497619D01*
X178059523Y-105640476D01*
X178011904Y-105830952D01*
X178011904Y-106211904D01*
X178059523Y-106307142D01*
X178107142Y-106354761D01*
X178202380Y-106402380D01*
X178392857Y-106402380D01*
X178488095Y-106354761D01*
X178535714Y-106307142D01*
X178583333Y-106211904D01*
X178583333Y-105973809D01*
X178535714Y-105878571D01*
X178488095Y-105830952D01*
X178392857Y-105783333D01*
X178202380Y-105783333D01*
X178107142Y-105830952D01*
X178059523Y-105878571D01*
X178011904Y-105973809D01*
G04 #@! TO.C,SW7*
X175916666Y-114354761D02*
X176059523Y-114402380D01*
X176297619Y-114402380D01*
X176392857Y-114354761D01*
X176440476Y-114307142D01*
X176488095Y-114211904D01*
X176488095Y-114116666D01*
X176440476Y-114021428D01*
X176392857Y-113973809D01*
X176297619Y-113926190D01*
X176107142Y-113878571D01*
X176011904Y-113830952D01*
X175964285Y-113783333D01*
X175916666Y-113688095D01*
X175916666Y-113592857D01*
X175964285Y-113497619D01*
X176011904Y-113450000D01*
X176107142Y-113402380D01*
X176345238Y-113402380D01*
X176488095Y-113450000D01*
X176821428Y-113402380D02*
X177059523Y-114402380D01*
X177250000Y-113688095D01*
X177440476Y-114402380D01*
X177678571Y-113402380D01*
X177964285Y-113402380D02*
X178630952Y-113402380D01*
X178202380Y-114402380D01*
G04 #@! TO.C,SW8*
X175916666Y-122354761D02*
X176059523Y-122402380D01*
X176297619Y-122402380D01*
X176392857Y-122354761D01*
X176440476Y-122307142D01*
X176488095Y-122211904D01*
X176488095Y-122116666D01*
X176440476Y-122021428D01*
X176392857Y-121973809D01*
X176297619Y-121926190D01*
X176107142Y-121878571D01*
X176011904Y-121830952D01*
X175964285Y-121783333D01*
X175916666Y-121688095D01*
X175916666Y-121592857D01*
X175964285Y-121497619D01*
X176011904Y-121450000D01*
X176107142Y-121402380D01*
X176345238Y-121402380D01*
X176488095Y-121450000D01*
X176821428Y-121402380D02*
X177059523Y-122402380D01*
X177250000Y-121688095D01*
X177440476Y-122402380D01*
X177678571Y-121402380D01*
X178202380Y-121830952D02*
X178107142Y-121783333D01*
X178059523Y-121735714D01*
X178011904Y-121640476D01*
X178011904Y-121592857D01*
X178059523Y-121497619D01*
X178107142Y-121450000D01*
X178202380Y-121402380D01*
X178392857Y-121402380D01*
X178488095Y-121450000D01*
X178535714Y-121497619D01*
X178583333Y-121592857D01*
X178583333Y-121640476D01*
X178535714Y-121735714D01*
X178488095Y-121783333D01*
X178392857Y-121830952D01*
X178202380Y-121830952D01*
X178107142Y-121878571D01*
X178059523Y-121926190D01*
X178011904Y-122021428D01*
X178011904Y-122211904D01*
X178059523Y-122307142D01*
X178107142Y-122354761D01*
X178202380Y-122402380D01*
X178392857Y-122402380D01*
X178488095Y-122354761D01*
X178535714Y-122307142D01*
X178583333Y-122211904D01*
X178583333Y-122021428D01*
X178535714Y-121926190D01*
X178488095Y-121878571D01*
X178392857Y-121830952D01*
G04 #@! TO.C,SW9*
X175916666Y-130354761D02*
X176059523Y-130402380D01*
X176297619Y-130402380D01*
X176392857Y-130354761D01*
X176440476Y-130307142D01*
X176488095Y-130211904D01*
X176488095Y-130116666D01*
X176440476Y-130021428D01*
X176392857Y-129973809D01*
X176297619Y-129926190D01*
X176107142Y-129878571D01*
X176011904Y-129830952D01*
X175964285Y-129783333D01*
X175916666Y-129688095D01*
X175916666Y-129592857D01*
X175964285Y-129497619D01*
X176011904Y-129450000D01*
X176107142Y-129402380D01*
X176345238Y-129402380D01*
X176488095Y-129450000D01*
X176821428Y-129402380D02*
X177059523Y-130402380D01*
X177250000Y-129688095D01*
X177440476Y-130402380D01*
X177678571Y-129402380D01*
X178107142Y-130402380D02*
X178297619Y-130402380D01*
X178392857Y-130354761D01*
X178440476Y-130307142D01*
X178535714Y-130164285D01*
X178583333Y-129973809D01*
X178583333Y-129592857D01*
X178535714Y-129497619D01*
X178488095Y-129450000D01*
X178392857Y-129402380D01*
X178202380Y-129402380D01*
X178107142Y-129450000D01*
X178059523Y-129497619D01*
X178011904Y-129592857D01*
X178011904Y-129830952D01*
X178059523Y-129926190D01*
X178107142Y-129973809D01*
X178202380Y-130021428D01*
X178392857Y-130021428D01*
X178488095Y-129973809D01*
X178535714Y-129926190D01*
X178583333Y-129830952D01*
G04 #@! TO.C,SW10*
X185440476Y-90354761D02*
X185583333Y-90402380D01*
X185821428Y-90402380D01*
X185916666Y-90354761D01*
X185964285Y-90307142D01*
X186011904Y-90211904D01*
X186011904Y-90116666D01*
X185964285Y-90021428D01*
X185916666Y-89973809D01*
X185821428Y-89926190D01*
X185630952Y-89878571D01*
X185535714Y-89830952D01*
X185488095Y-89783333D01*
X185440476Y-89688095D01*
X185440476Y-89592857D01*
X185488095Y-89497619D01*
X185535714Y-89450000D01*
X185630952Y-89402380D01*
X185869047Y-89402380D01*
X186011904Y-89450000D01*
X186345238Y-89402380D02*
X186583333Y-90402380D01*
X186773809Y-89688095D01*
X186964285Y-90402380D01*
X187202380Y-89402380D01*
X188107142Y-90402380D02*
X187535714Y-90402380D01*
X187821428Y-90402380D02*
X187821428Y-89402380D01*
X187726190Y-89545238D01*
X187630952Y-89640476D01*
X187535714Y-89688095D01*
X188726190Y-89402380D02*
X188821428Y-89402380D01*
X188916666Y-89450000D01*
X188964285Y-89497619D01*
X189011904Y-89592857D01*
X189059523Y-89783333D01*
X189059523Y-90021428D01*
X189011904Y-90211904D01*
X188964285Y-90307142D01*
X188916666Y-90354761D01*
X188821428Y-90402380D01*
X188726190Y-90402380D01*
X188630952Y-90354761D01*
X188583333Y-90307142D01*
X188535714Y-90211904D01*
X188488095Y-90021428D01*
X188488095Y-89783333D01*
X188535714Y-89592857D01*
X188583333Y-89497619D01*
X188630952Y-89450000D01*
X188726190Y-89402380D01*
G04 #@! TO.C,SW11*
X185440476Y-106354761D02*
X185583333Y-106402380D01*
X185821428Y-106402380D01*
X185916666Y-106354761D01*
X185964285Y-106307142D01*
X186011904Y-106211904D01*
X186011904Y-106116666D01*
X185964285Y-106021428D01*
X185916666Y-105973809D01*
X185821428Y-105926190D01*
X185630952Y-105878571D01*
X185535714Y-105830952D01*
X185488095Y-105783333D01*
X185440476Y-105688095D01*
X185440476Y-105592857D01*
X185488095Y-105497619D01*
X185535714Y-105450000D01*
X185630952Y-105402380D01*
X185869047Y-105402380D01*
X186011904Y-105450000D01*
X186345238Y-105402380D02*
X186583333Y-106402380D01*
X186773809Y-105688095D01*
X186964285Y-106402380D01*
X187202380Y-105402380D01*
X188107142Y-106402380D02*
X187535714Y-106402380D01*
X187821428Y-106402380D02*
X187821428Y-105402380D01*
X187726190Y-105545238D01*
X187630952Y-105640476D01*
X187535714Y-105688095D01*
X189059523Y-106402380D02*
X188488095Y-106402380D01*
X188773809Y-106402380D02*
X188773809Y-105402380D01*
X188678571Y-105545238D01*
X188583333Y-105640476D01*
X188488095Y-105688095D01*
G04 #@! TO.C,SW12*
X185440476Y-114354761D02*
X185583333Y-114402380D01*
X185821428Y-114402380D01*
X185916666Y-114354761D01*
X185964285Y-114307142D01*
X186011904Y-114211904D01*
X186011904Y-114116666D01*
X185964285Y-114021428D01*
X185916666Y-113973809D01*
X185821428Y-113926190D01*
X185630952Y-113878571D01*
X185535714Y-113830952D01*
X185488095Y-113783333D01*
X185440476Y-113688095D01*
X185440476Y-113592857D01*
X185488095Y-113497619D01*
X185535714Y-113450000D01*
X185630952Y-113402380D01*
X185869047Y-113402380D01*
X186011904Y-113450000D01*
X186345238Y-113402380D02*
X186583333Y-114402380D01*
X186773809Y-113688095D01*
X186964285Y-114402380D01*
X187202380Y-113402380D01*
X188107142Y-114402380D02*
X187535714Y-114402380D01*
X187821428Y-114402380D02*
X187821428Y-113402380D01*
X187726190Y-113545238D01*
X187630952Y-113640476D01*
X187535714Y-113688095D01*
X188488095Y-113497619D02*
X188535714Y-113450000D01*
X188630952Y-113402380D01*
X188869047Y-113402380D01*
X188964285Y-113450000D01*
X189011904Y-113497619D01*
X189059523Y-113592857D01*
X189059523Y-113688095D01*
X189011904Y-113830952D01*
X188440476Y-114402380D01*
X189059523Y-114402380D01*
G04 #@! TO.C,SW13*
X185440476Y-122354761D02*
X185583333Y-122402380D01*
X185821428Y-122402380D01*
X185916666Y-122354761D01*
X185964285Y-122307142D01*
X186011904Y-122211904D01*
X186011904Y-122116666D01*
X185964285Y-122021428D01*
X185916666Y-121973809D01*
X185821428Y-121926190D01*
X185630952Y-121878571D01*
X185535714Y-121830952D01*
X185488095Y-121783333D01*
X185440476Y-121688095D01*
X185440476Y-121592857D01*
X185488095Y-121497619D01*
X185535714Y-121450000D01*
X185630952Y-121402380D01*
X185869047Y-121402380D01*
X186011904Y-121450000D01*
X186345238Y-121402380D02*
X186583333Y-122402380D01*
X186773809Y-121688095D01*
X186964285Y-122402380D01*
X187202380Y-121402380D01*
X188107142Y-122402380D02*
X187535714Y-122402380D01*
X187821428Y-122402380D02*
X187821428Y-121402380D01*
X187726190Y-121545238D01*
X187630952Y-121640476D01*
X187535714Y-121688095D01*
X188440476Y-121402380D02*
X189059523Y-121402380D01*
X188726190Y-121783333D01*
X188869047Y-121783333D01*
X188964285Y-121830952D01*
X189011904Y-121878571D01*
X189059523Y-121973809D01*
X189059523Y-122211904D01*
X189011904Y-122307142D01*
X188964285Y-122354761D01*
X188869047Y-122402380D01*
X188583333Y-122402380D01*
X188488095Y-122354761D01*
X188440476Y-122307142D01*
G04 #@! TO.C,SW14*
X185440476Y-130354761D02*
X185583333Y-130402380D01*
X185821428Y-130402380D01*
X185916666Y-130354761D01*
X185964285Y-130307142D01*
X186011904Y-130211904D01*
X186011904Y-130116666D01*
X185964285Y-130021428D01*
X185916666Y-129973809D01*
X185821428Y-129926190D01*
X185630952Y-129878571D01*
X185535714Y-129830952D01*
X185488095Y-129783333D01*
X185440476Y-129688095D01*
X185440476Y-129592857D01*
X185488095Y-129497619D01*
X185535714Y-129450000D01*
X185630952Y-129402380D01*
X185869047Y-129402380D01*
X186011904Y-129450000D01*
X186345238Y-129402380D02*
X186583333Y-130402380D01*
X186773809Y-129688095D01*
X186964285Y-130402380D01*
X187202380Y-129402380D01*
X188107142Y-130402380D02*
X187535714Y-130402380D01*
X187821428Y-130402380D02*
X187821428Y-129402380D01*
X187726190Y-129545238D01*
X187630952Y-129640476D01*
X187535714Y-129688095D01*
X188964285Y-129735714D02*
X188964285Y-130402380D01*
X188726190Y-129354761D02*
X188488095Y-130069047D01*
X189107142Y-130069047D01*
G04 #@! TO.C,TFT1*
X169428571Y-63452380D02*
X170000000Y-63452380D01*
X169714285Y-64452380D02*
X169714285Y-63452380D01*
X170666666Y-63928571D02*
X170333333Y-63928571D01*
X170333333Y-64452380D02*
X170333333Y-63452380D01*
X170809523Y-63452380D01*
X171047619Y-63452380D02*
X171619047Y-63452380D01*
X171333333Y-64452380D02*
X171333333Y-63452380D01*
X172476190Y-64452380D02*
X171904761Y-64452380D01*
X172190476Y-64452380D02*
X172190476Y-63452380D01*
X172095238Y-63595238D01*
X172000000Y-63690476D01*
X171904761Y-63738095D01*
G04 #@! TO.C,U1*
X128452380Y-57761904D02*
X129261904Y-57761904D01*
X129357142Y-57714285D01*
X129404761Y-57666666D01*
X129452380Y-57571428D01*
X129452380Y-57380952D01*
X129404761Y-57285714D01*
X129357142Y-57238095D01*
X129261904Y-57190476D01*
X128452380Y-57190476D01*
X129452380Y-56190476D02*
X129452380Y-56761904D01*
X129452380Y-56476190D02*
X128452380Y-56476190D01*
X128595238Y-56571428D01*
X128690476Y-56666666D01*
X128738095Y-56761904D01*
G04 #@! TD*
M02*
