G04 #@! TF.GenerationSoftware,KiCad,Pcbnew,(5.0.0)*
G04 #@! TF.CreationDate,2019-04-03T14:36:45+02:00*
G04 #@! TF.ProjectId,arduinowalkietalkie,61726475696E6F77616C6B696574616C,1.1*
G04 #@! TF.SameCoordinates,Original*
G04 #@! TF.FileFunction,Copper,L1,Top,Signal*
G04 #@! TF.FilePolarity,Positive*
%FSLAX46Y46*%
G04 Gerber Fmt 4.6, Leading zero omitted, Abs format (unit mm)*
G04 Created by KiCad (PCBNEW (5.0.0)) date 04/03/19 14:36:45*
%MOMM*%
%LPD*%
G01*
G04 APERTURE LIST*
G04 #@! TA.AperFunction,ComponentPad*
%ADD10C,1.600000*%
G04 #@! TD*
G04 #@! TA.AperFunction,ComponentPad*
%ADD11O,1.600000X1.600000*%
G04 #@! TD*
G04 #@! TA.AperFunction,ComponentPad*
%ADD12C,1.710000*%
G04 #@! TD*
G04 #@! TA.AperFunction,ComponentPad*
%ADD13R,1.600000X1.600000*%
G04 #@! TD*
G04 #@! TA.AperFunction,ConnectorPad*
%ADD14R,2.540000X2.540000*%
G04 #@! TD*
G04 #@! TA.AperFunction,ComponentPad*
%ADD15R,1.710000X1.710000*%
G04 #@! TD*
G04 #@! TA.AperFunction,ComponentPad*
%ADD16C,1.700000*%
G04 #@! TD*
G04 #@! TA.AperFunction,ComponentPad*
%ADD17C,1.524000*%
G04 #@! TD*
G04 #@! TA.AperFunction,ComponentPad*
%ADD18R,1.524000X1.524000*%
G04 #@! TD*
G04 #@! TA.AperFunction,ViaPad*
%ADD19C,0.800000*%
G04 #@! TD*
G04 #@! TA.AperFunction,Conductor*
%ADD20C,0.250000*%
G04 #@! TD*
G04 APERTURE END LIST*
D10*
G04 #@! TO.P,C1,2*
G04 #@! TO.N,GND*
X150500000Y-90000000D03*
G04 #@! TO.P,C1,1*
G04 #@! TO.N,+5V*
X145500000Y-90000000D03*
G04 #@! TD*
G04 #@! TO.P,C4,1*
G04 #@! TO.N,+5V*
X142500000Y-68500000D03*
G04 #@! TO.P,C4,2*
G04 #@! TO.N,GND*
X142500000Y-63500000D03*
G04 #@! TD*
G04 #@! TO.P,C2,2*
G04 #@! TO.N,GND*
X174500000Y-92000000D03*
G04 #@! TO.P,C2,1*
G04 #@! TO.N,+5V*
X179500000Y-92000000D03*
G04 #@! TD*
G04 #@! TO.P,C3,1*
G04 #@! TO.N,+5V*
X106600000Y-86680000D03*
G04 #@! TO.P,C3,2*
G04 #@! TO.N,GND*
X101600000Y-86680000D03*
G04 #@! TD*
D11*
G04 #@! TO.P,R16,2*
G04 #@! TO.N,Net-(A1-Pad20)*
X136500000Y-137620000D03*
D10*
G04 #@! TO.P,R16,1*
G04 #@! TO.N,Net-(BT1-Pad1)*
X136500000Y-130000000D03*
G04 #@! TD*
G04 #@! TO.P,R15,1*
G04 #@! TO.N,Net-(A1-Pad7)*
X102000000Y-80000000D03*
D11*
G04 #@! TO.P,R15,2*
G04 #@! TO.N,Net-(BZ1-Pad1)*
X102000000Y-72380000D03*
G04 #@! TD*
D12*
G04 #@! TO.P,TFT1,16*
G04 #@! TO.N,GND*
X147000000Y-84320000D03*
G04 #@! TO.P,TFT1,15*
G04 #@! TO.N,Net-(A1-Pad17)*
X147000000Y-81780000D03*
G04 #@! TO.P,TFT1,14*
G04 #@! TO.N,Net-(TFT1-Pad14)*
X147000000Y-79240000D03*
G04 #@! TO.P,TFT1,13*
G04 #@! TO.N,Net-(TFT1-Pad13)*
X147000000Y-76700000D03*
G04 #@! TO.P,TFT1,12*
G04 #@! TO.N,Net-(TFT1-Pad12)*
X147000000Y-74160000D03*
G04 #@! TO.P,TFT1,11*
G04 #@! TO.N,Net-(R14-Pad1)*
X147000000Y-71620000D03*
G04 #@! TO.P,TFT1,10*
G04 #@! TO.N,Net-(R13-Pad1)*
X147000000Y-69080000D03*
G04 #@! TO.P,TFT1,9*
G04 #@! TO.N,Net-(R12-Pad1)*
X147000000Y-66540000D03*
G04 #@! TO.P,TFT1,8*
G04 #@! TO.N,Net-(R11-Pad1)*
X147000000Y-64000000D03*
G04 #@! TO.P,TFT1,7*
G04 #@! TO.N,Net-(R10-Pad1)*
X147000000Y-61460000D03*
G04 #@! TO.P,TFT1,6*
G04 #@! TO.N,Net-(TFT1-Pad6)*
X147000000Y-58920000D03*
G04 #@! TO.P,TFT1,5*
G04 #@! TO.N,Net-(TFT1-Pad5)*
X147000000Y-56380000D03*
G04 #@! TO.P,TFT1,4*
G04 #@! TO.N,Net-(TFT1-Pad4)*
X147000000Y-53840000D03*
G04 #@! TO.P,TFT1,3*
G04 #@! TO.N,Net-(TFT1-Pad3)*
X147000000Y-51300000D03*
G04 #@! TO.P,TFT1,2*
G04 #@! TO.N,Net-(R9-Pad1)*
X147000000Y-48760000D03*
G04 #@! TO.P,TFT1,1*
G04 #@! TO.N,GND*
X147000000Y-46220000D03*
G04 #@! TD*
G04 #@! TO.P,JP2,1*
G04 #@! TO.N,+5V*
X117060000Y-86630000D03*
G04 #@! TO.P,JP2,2*
G04 #@! TO.N,Net-(CC1-Pad1)*
X114520000Y-86630000D03*
G04 #@! TD*
D10*
G04 #@! TO.P,R14,1*
G04 #@! TO.N,Net-(R14-Pad1)*
X172000000Y-84000000D03*
D11*
G04 #@! TO.P,R14,2*
G04 #@! TO.N,Net-(A1-Pad12)*
X179620000Y-84000000D03*
G04 #@! TD*
G04 #@! TO.P,R13,2*
G04 #@! TO.N,Net-(A1-Pad11)*
X179620000Y-80500000D03*
D10*
G04 #@! TO.P,R13,1*
G04 #@! TO.N,Net-(R13-Pad1)*
X172000000Y-80500000D03*
G04 #@! TD*
G04 #@! TO.P,R12,1*
G04 #@! TO.N,Net-(R12-Pad1)*
X172000000Y-77000000D03*
D11*
G04 #@! TO.P,R12,2*
G04 #@! TO.N,Net-(A1-Pad22)*
X179620000Y-77000000D03*
G04 #@! TD*
G04 #@! TO.P,R11,2*
G04 #@! TO.N,Net-(A1-Pad21)*
X179620000Y-73500000D03*
D10*
G04 #@! TO.P,R11,1*
G04 #@! TO.N,Net-(R11-Pad1)*
X172000000Y-73500000D03*
G04 #@! TD*
G04 #@! TO.P,R10,1*
G04 #@! TO.N,Net-(R10-Pad1)*
X172000000Y-70000000D03*
D11*
G04 #@! TO.P,R10,2*
G04 #@! TO.N,Net-(A1-Pad13)*
X179620000Y-70000000D03*
G04 #@! TD*
D12*
G04 #@! TO.P,BZ1,2*
G04 #@! TO.N,GND*
X119000000Y-54000000D03*
G04 #@! TO.P,BZ1,1*
G04 #@! TO.N,Net-(BZ1-Pad1)*
X103000000Y-54000000D03*
G04 #@! TD*
D10*
G04 #@! TO.P,R4,1*
G04 #@! TO.N,Net-(R3-Pad2)*
X160000000Y-130000000D03*
D11*
G04 #@! TO.P,R4,2*
G04 #@! TO.N,Net-(A1-Pad19)*
X160000000Y-137620000D03*
G04 #@! TD*
G04 #@! TO.P,R3,2*
G04 #@! TO.N,Net-(R3-Pad2)*
X160000000Y-127620000D03*
D10*
G04 #@! TO.P,R3,1*
G04 #@! TO.N,Net-(R2-Pad2)*
X160000000Y-120000000D03*
G04 #@! TD*
G04 #@! TO.P,R2,1*
G04 #@! TO.N,Net-(R2-Pad1)*
X160000000Y-110000000D03*
D11*
G04 #@! TO.P,R2,2*
G04 #@! TO.N,Net-(R2-Pad2)*
X160000000Y-117620000D03*
G04 #@! TD*
G04 #@! TO.P,R1,2*
G04 #@! TO.N,GND*
X171620000Y-100000000D03*
D10*
G04 #@! TO.P,R1,1*
G04 #@! TO.N,Net-(R1-Pad1)*
X164000000Y-100000000D03*
G04 #@! TD*
G04 #@! TO.P,R5,1*
G04 #@! TO.N,Net-(R5-Pad1)*
X179620000Y-104000000D03*
D11*
G04 #@! TO.P,R5,2*
G04 #@! TO.N,Net-(R5-Pad2)*
X172000000Y-104000000D03*
G04 #@! TD*
G04 #@! TO.P,R6,2*
G04 #@! TO.N,Net-(R6-Pad2)*
X183000000Y-100000000D03*
D10*
G04 #@! TO.P,R6,1*
G04 #@! TO.N,GND*
X190620000Y-100000000D03*
G04 #@! TD*
G04 #@! TO.P,R7,1*
G04 #@! TO.N,Net-(R5-Pad1)*
X183000000Y-104000000D03*
D11*
G04 #@! TO.P,R7,2*
G04 #@! TO.N,GND*
X190620000Y-104000000D03*
G04 #@! TD*
G04 #@! TO.P,R8,2*
G04 #@! TO.N,Net-(A1-Pad19)*
X195000000Y-136620000D03*
D10*
G04 #@! TO.P,R8,1*
G04 #@! TO.N,+5V*
X195000000Y-129000000D03*
G04 #@! TD*
G04 #@! TO.P,R9,1*
G04 #@! TO.N,Net-(R9-Pad1)*
X143000000Y-49000000D03*
D11*
G04 #@! TO.P,R9,2*
G04 #@! TO.N,Net-(A1-Pad8)*
X143000000Y-56620000D03*
G04 #@! TD*
G04 #@! TO.P,A1,16*
G04 #@! TO.N,SCK*
X156240000Y-132060000D03*
G04 #@! TO.P,A1,15*
G04 #@! TO.N,MISO*
X141000000Y-132060000D03*
G04 #@! TO.P,A1,30*
G04 #@! TO.N,Net-(A1-Pad30)*
X156240000Y-96500000D03*
G04 #@! TO.P,A1,14*
G04 #@! TO.N,MOSI*
X141000000Y-129520000D03*
G04 #@! TO.P,A1,29*
G04 #@! TO.N,GND*
X156240000Y-99040000D03*
G04 #@! TO.P,A1,13*
G04 #@! TO.N,Net-(A1-Pad13)*
X141000000Y-126980000D03*
G04 #@! TO.P,A1,28*
G04 #@! TO.N,Net-(A1-Pad28)*
X156240000Y-101580000D03*
G04 #@! TO.P,A1,12*
G04 #@! TO.N,Net-(A1-Pad12)*
X141000000Y-124440000D03*
G04 #@! TO.P,A1,27*
G04 #@! TO.N,+5V*
X156240000Y-104120000D03*
G04 #@! TO.P,A1,11*
G04 #@! TO.N,Net-(A1-Pad11)*
X141000000Y-121900000D03*
G04 #@! TO.P,A1,26*
G04 #@! TO.N,Net-(A1-Pad26)*
X156240000Y-106660000D03*
G04 #@! TO.P,A1,10*
G04 #@! TO.N,Net-(A1-Pad10)*
X141000000Y-119360000D03*
G04 #@! TO.P,A1,25*
G04 #@! TO.N,Net-(A1-Pad25)*
X156240000Y-109200000D03*
G04 #@! TO.P,A1,9*
G04 #@! TO.N,Net-(A1-Pad9)*
X141000000Y-116820000D03*
G04 #@! TO.P,A1,24*
G04 #@! TO.N,SCL*
X156240000Y-111740000D03*
G04 #@! TO.P,A1,8*
G04 #@! TO.N,Net-(A1-Pad8)*
X141000000Y-114280000D03*
G04 #@! TO.P,A1,23*
G04 #@! TO.N,SDA*
X156240000Y-114280000D03*
G04 #@! TO.P,A1,7*
G04 #@! TO.N,Net-(A1-Pad7)*
X141000000Y-111740000D03*
G04 #@! TO.P,A1,22*
G04 #@! TO.N,Net-(A1-Pad22)*
X156240000Y-116820000D03*
G04 #@! TO.P,A1,6*
G04 #@! TO.N,Net-(A1-Pad6)*
X141000000Y-109200000D03*
G04 #@! TO.P,A1,21*
G04 #@! TO.N,Net-(A1-Pad21)*
X156240000Y-119360000D03*
G04 #@! TO.P,A1,5*
G04 #@! TO.N,Net-(A1-Pad5)*
X141000000Y-106660000D03*
G04 #@! TO.P,A1,20*
G04 #@! TO.N,Net-(A1-Pad20)*
X156240000Y-121900000D03*
G04 #@! TO.P,A1,4*
G04 #@! TO.N,Net-(A1-Pad4)*
X141000000Y-104120000D03*
G04 #@! TO.P,A1,19*
G04 #@! TO.N,Net-(A1-Pad19)*
X156240000Y-124440000D03*
G04 #@! TO.P,A1,3*
G04 #@! TO.N,Net-(A1-Pad3)*
X141000000Y-101580000D03*
G04 #@! TO.P,A1,18*
G04 #@! TO.N,Net-(A1-Pad18)*
X156240000Y-126980000D03*
G04 #@! TO.P,A1,2*
G04 #@! TO.N,Net-(A1-Pad2)*
X141000000Y-99040000D03*
G04 #@! TO.P,A1,17*
G04 #@! TO.N,Net-(A1-Pad17)*
X156240000Y-129520000D03*
D13*
G04 #@! TO.P,A1,1*
G04 #@! TO.N,Net-(A1-Pad1)*
X141000000Y-96500000D03*
G04 #@! TD*
D12*
G04 #@! TO.P,BMP1,4*
G04 #@! TO.N,SDA*
X136830000Y-74170000D03*
G04 #@! TO.P,BMP1,3*
G04 #@! TO.N,SCL*
X136830000Y-76710000D03*
G04 #@! TO.P,BMP1,2*
G04 #@! TO.N,GND*
X136830000Y-79250000D03*
G04 #@! TO.P,BMP1,1*
G04 #@! TO.N,+5V*
X136830000Y-81790000D03*
G04 #@! TD*
D14*
G04 #@! TO.P,BT1,2*
G04 #@! TO.N,Net-(BT1-Pad2)*
X121690000Y-86380000D03*
G04 #@! TO.P,BT1,1*
G04 #@! TO.N,Net-(BT1-Pad1)*
X110690000Y-86380000D03*
G04 #@! TD*
D15*
G04 #@! TO.P,CC1,6*
G04 #@! TO.N,Net-(CC1-Pad6)*
X120910000Y-70130000D03*
G04 #@! TO.P,CC1,5*
G04 #@! TO.N,Net-(CC1-Pad5)*
X120910000Y-72670000D03*
G04 #@! TO.P,CC1,4*
G04 #@! TO.N,Net-(BT1-Pad2)*
X120910000Y-75210000D03*
G04 #@! TO.P,CC1,3*
G04 #@! TO.N,Net-(BT1-Pad1)*
X120910000Y-77750000D03*
G04 #@! TO.P,CC1,2*
G04 #@! TO.N,GND*
X120910000Y-80290000D03*
G04 #@! TO.P,CC1,1*
G04 #@! TO.N,Net-(CC1-Pad1)*
X120910000Y-82830000D03*
G04 #@! TD*
D11*
G04 #@! TO.P,D1,2*
G04 #@! TO.N,Net-(D1-Pad2)*
X136000000Y-86380000D03*
D13*
G04 #@! TO.P,D1,1*
G04 #@! TO.N,+5V*
X136000000Y-94000000D03*
G04 #@! TD*
D12*
G04 #@! TO.P,JP1,2*
G04 #@! TO.N,Net-(D1-Pad2)*
X130500000Y-86000000D03*
G04 #@! TO.P,JP1,1*
G04 #@! TO.N,Net-(CC1-Pad6)*
X127960000Y-86000000D03*
G04 #@! TD*
D16*
G04 #@! TO.P,SW1,1*
G04 #@! TO.N,+5V*
X164000000Y-92000000D03*
G04 #@! TO.P,SW1,2*
G04 #@! TO.N,Net-(SW1-Pad2)*
X170500000Y-92000000D03*
G04 #@! TO.P,SW1,3*
G04 #@! TO.N,Net-(R1-Pad1)*
X164000000Y-96500000D03*
G04 #@! TO.P,SW1,4*
G04 #@! TO.N,Net-(A1-Pad6)*
X170500000Y-96500000D03*
G04 #@! TD*
G04 #@! TO.P,SW2,1*
G04 #@! TO.N,Net-(SW2-Pad1)*
X164000000Y-108000000D03*
G04 #@! TO.P,SW2,2*
G04 #@! TO.N,Net-(R5-Pad2)*
X170500000Y-108000000D03*
G04 #@! TO.P,SW2,3*
G04 #@! TO.N,Net-(R2-Pad1)*
X164000000Y-112500000D03*
G04 #@! TO.P,SW2,4*
G04 #@! TO.N,Net-(SW2-Pad4)*
X170500000Y-112500000D03*
G04 #@! TD*
G04 #@! TO.P,SW3,1*
G04 #@! TO.N,Net-(SW3-Pad1)*
X164000000Y-116000000D03*
G04 #@! TO.P,SW3,2*
G04 #@! TO.N,Net-(R5-Pad2)*
X170500000Y-116000000D03*
G04 #@! TO.P,SW3,3*
G04 #@! TO.N,Net-(R2-Pad2)*
X164000000Y-120500000D03*
G04 #@! TO.P,SW3,4*
G04 #@! TO.N,Net-(SW3-Pad4)*
X170500000Y-120500000D03*
G04 #@! TD*
G04 #@! TO.P,SW4,1*
G04 #@! TO.N,Net-(SW4-Pad1)*
X164000000Y-124000000D03*
G04 #@! TO.P,SW4,2*
G04 #@! TO.N,Net-(R5-Pad2)*
X170500000Y-124000000D03*
G04 #@! TO.P,SW4,3*
G04 #@! TO.N,Net-(R3-Pad2)*
X164000000Y-128500000D03*
G04 #@! TO.P,SW4,4*
G04 #@! TO.N,Net-(SW4-Pad4)*
X170500000Y-128500000D03*
G04 #@! TD*
G04 #@! TO.P,SW5,1*
G04 #@! TO.N,Net-(SW5-Pad1)*
X164000000Y-132000000D03*
G04 #@! TO.P,SW5,2*
G04 #@! TO.N,Net-(R5-Pad2)*
X170500000Y-132000000D03*
G04 #@! TO.P,SW5,3*
G04 #@! TO.N,Net-(A1-Pad19)*
X164000000Y-136500000D03*
G04 #@! TO.P,SW5,4*
G04 #@! TO.N,Net-(SW5-Pad4)*
X170500000Y-136500000D03*
G04 #@! TD*
G04 #@! TO.P,SW6,1*
G04 #@! TO.N,Net-(SW6-Pad1)*
X174000000Y-108000000D03*
G04 #@! TO.P,SW6,2*
G04 #@! TO.N,Net-(R5-Pad1)*
X180500000Y-108000000D03*
G04 #@! TO.P,SW6,3*
G04 #@! TO.N,Net-(R2-Pad1)*
X174000000Y-112500000D03*
G04 #@! TO.P,SW6,4*
G04 #@! TO.N,Net-(SW6-Pad4)*
X180500000Y-112500000D03*
G04 #@! TD*
G04 #@! TO.P,SW7,1*
G04 #@! TO.N,Net-(SW7-Pad1)*
X174000000Y-116000000D03*
G04 #@! TO.P,SW7,2*
G04 #@! TO.N,Net-(R5-Pad1)*
X180500000Y-116000000D03*
G04 #@! TO.P,SW7,3*
G04 #@! TO.N,Net-(R2-Pad2)*
X174000000Y-120500000D03*
G04 #@! TO.P,SW7,4*
G04 #@! TO.N,Net-(SW7-Pad4)*
X180500000Y-120500000D03*
G04 #@! TD*
G04 #@! TO.P,SW8,1*
G04 #@! TO.N,Net-(SW8-Pad1)*
X174000000Y-124000000D03*
G04 #@! TO.P,SW8,2*
G04 #@! TO.N,Net-(R5-Pad1)*
X180500000Y-124000000D03*
G04 #@! TO.P,SW8,3*
G04 #@! TO.N,Net-(R3-Pad2)*
X174000000Y-128500000D03*
G04 #@! TO.P,SW8,4*
G04 #@! TO.N,Net-(SW8-Pad4)*
X180500000Y-128500000D03*
G04 #@! TD*
G04 #@! TO.P,SW9,1*
G04 #@! TO.N,Net-(SW9-Pad1)*
X174000000Y-132000000D03*
G04 #@! TO.P,SW9,2*
G04 #@! TO.N,Net-(R5-Pad1)*
X180500000Y-132000000D03*
G04 #@! TO.P,SW9,3*
G04 #@! TO.N,Net-(A1-Pad19)*
X174000000Y-136500000D03*
G04 #@! TO.P,SW9,4*
G04 #@! TO.N,Net-(SW9-Pad4)*
X180500000Y-136500000D03*
G04 #@! TD*
G04 #@! TO.P,SW10,1*
G04 #@! TO.N,+5V*
X184000000Y-92000000D03*
G04 #@! TO.P,SW10,2*
G04 #@! TO.N,Net-(SW10-Pad2)*
X190500000Y-92000000D03*
G04 #@! TO.P,SW10,3*
G04 #@! TO.N,Net-(R6-Pad2)*
X184000000Y-96500000D03*
G04 #@! TO.P,SW10,4*
G04 #@! TO.N,Net-(A1-Pad5)*
X190500000Y-96500000D03*
G04 #@! TD*
G04 #@! TO.P,SW11,1*
G04 #@! TO.N,Net-(SW11-Pad1)*
X184000000Y-108000000D03*
G04 #@! TO.P,SW11,2*
G04 #@! TO.N,GND*
X190500000Y-108000000D03*
G04 #@! TO.P,SW11,3*
G04 #@! TO.N,Net-(R2-Pad1)*
X184000000Y-112500000D03*
G04 #@! TO.P,SW11,4*
G04 #@! TO.N,Net-(SW11-Pad4)*
X190500000Y-112500000D03*
G04 #@! TD*
G04 #@! TO.P,SW12,1*
G04 #@! TO.N,Net-(SW12-Pad1)*
X184000000Y-116000000D03*
G04 #@! TO.P,SW12,2*
G04 #@! TO.N,GND*
X190500000Y-116000000D03*
G04 #@! TO.P,SW12,3*
G04 #@! TO.N,Net-(R2-Pad2)*
X184000000Y-120500000D03*
G04 #@! TO.P,SW12,4*
G04 #@! TO.N,Net-(SW12-Pad4)*
X190500000Y-120500000D03*
G04 #@! TD*
G04 #@! TO.P,SW13,1*
G04 #@! TO.N,Net-(SW13-Pad1)*
X184000000Y-124000000D03*
G04 #@! TO.P,SW13,2*
G04 #@! TO.N,GND*
X190500000Y-124000000D03*
G04 #@! TO.P,SW13,3*
G04 #@! TO.N,Net-(R3-Pad2)*
X184000000Y-128500000D03*
G04 #@! TO.P,SW13,4*
G04 #@! TO.N,Net-(SW13-Pad4)*
X190500000Y-128500000D03*
G04 #@! TD*
G04 #@! TO.P,SW14,1*
G04 #@! TO.N,Net-(SW14-Pad1)*
X184000000Y-132000000D03*
G04 #@! TO.P,SW14,2*
G04 #@! TO.N,GND*
X190500000Y-132000000D03*
G04 #@! TO.P,SW14,3*
G04 #@! TO.N,Net-(A1-Pad19)*
X184000000Y-136500000D03*
G04 #@! TO.P,SW14,4*
G04 #@! TO.N,Net-(SW14-Pad4)*
X190500000Y-136500000D03*
G04 #@! TD*
D17*
G04 #@! TO.P,U1,8*
G04 #@! TO.N,Net-(U1-Pad8)*
X134620000Y-66460000D03*
G04 #@! TO.P,U1,7*
G04 #@! TO.N,MISO*
X134620000Y-69000000D03*
G04 #@! TO.P,U1,6*
G04 #@! TO.N,MOSI*
X132080000Y-66460000D03*
G04 #@! TO.P,U1,5*
G04 #@! TO.N,SCK*
X132080000Y-69000000D03*
G04 #@! TO.P,U1,4*
G04 #@! TO.N,Net-(A1-Pad9)*
X129540000Y-66460000D03*
G04 #@! TO.P,U1,3*
G04 #@! TO.N,Net-(A1-Pad10)*
X129540000Y-69000000D03*
G04 #@! TO.P,U1,2*
G04 #@! TO.N,Net-(A1-Pad17)*
X127000000Y-66460000D03*
D18*
G04 #@! TO.P,U1,1*
G04 #@! TO.N,GND*
X127000000Y-69000000D03*
G04 #@! TD*
D19*
G04 #@! TO.N,Net-(A1-Pad13)*
X160655800Y-107307400D03*
G04 #@! TD*
D20*
G04 #@! TO.N,Net-(A1-Pad17)*
X127000000Y-66460000D02*
X128110700Y-67570700D01*
X128110700Y-67570700D02*
X128110700Y-69187600D01*
X128110700Y-69187600D02*
X134363100Y-75440000D01*
X134363100Y-75440000D02*
X140660000Y-75440000D01*
X140660000Y-75440000D02*
X147000000Y-81780000D01*
G04 #@! TO.N,Net-(A1-Pad19)*
X184000000Y-136500000D02*
X182818800Y-137681200D01*
X182818800Y-137681200D02*
X175181200Y-137681200D01*
X175181200Y-137681200D02*
X174000000Y-136500000D01*
X193874700Y-136620000D02*
X192785400Y-137709300D01*
X192785400Y-137709300D02*
X185209300Y-137709300D01*
X185209300Y-137709300D02*
X184000000Y-136500000D01*
X160000000Y-137620000D02*
X160000000Y-136494700D01*
X156240000Y-124440000D02*
X156240000Y-125565300D01*
X156240000Y-125565300D02*
X156521400Y-125565300D01*
X156521400Y-125565300D02*
X158874700Y-127918600D01*
X158874700Y-127918600D02*
X158874700Y-135369400D01*
X158874700Y-135369400D02*
X160000000Y-136494700D01*
X164000000Y-137110300D02*
X161635000Y-137110300D01*
X161635000Y-137110300D02*
X161125300Y-137620000D01*
X174000000Y-136500000D02*
X172779400Y-137720600D01*
X172779400Y-137720600D02*
X164610300Y-137720600D01*
X164610300Y-137720600D02*
X164000000Y-137110300D01*
X164000000Y-137110300D02*
X164000000Y-136500000D01*
X160000000Y-137620000D02*
X161125300Y-137620000D01*
X195000000Y-136620000D02*
X193874700Y-136620000D01*
G04 #@! TO.N,Net-(A1-Pad20)*
X156240000Y-121900000D02*
X155114700Y-121900000D01*
X155114700Y-121900000D02*
X139394700Y-137620000D01*
X139394700Y-137620000D02*
X136500000Y-137620000D01*
G04 #@! TO.N,Net-(A1-Pad5)*
X141000000Y-106660000D02*
X142125300Y-106660000D01*
X190500000Y-96500000D02*
X189276000Y-95276000D01*
X189276000Y-95276000D02*
X170033600Y-95276000D01*
X170033600Y-95276000D02*
X168964700Y-96344900D01*
X168964700Y-96344900D02*
X168964700Y-96679800D01*
X168964700Y-96679800D02*
X162794500Y-102850000D01*
X162794500Y-102850000D02*
X145935300Y-102850000D01*
X145935300Y-102850000D02*
X142125300Y-106660000D01*
G04 #@! TO.N,Net-(A1-Pad6)*
X141000000Y-109200000D02*
X142125300Y-109200000D01*
X170500000Y-96500000D02*
X161465300Y-105534700D01*
X161465300Y-105534700D02*
X145790600Y-105534700D01*
X145790600Y-105534700D02*
X142125300Y-109200000D01*
G04 #@! TO.N,Net-(A1-Pad7)*
X141000000Y-111740000D02*
X139874700Y-111740000D01*
X139874700Y-111740000D02*
X131722400Y-111740000D01*
X131722400Y-111740000D02*
X107874600Y-87892200D01*
X107874600Y-87892200D02*
X107874600Y-85874600D01*
X107874600Y-85874600D02*
X102000000Y-80000000D01*
G04 #@! TO.N,Net-(A1-Pad11)*
X179620000Y-80500000D02*
X179620000Y-81625300D01*
X141000000Y-121900000D02*
X141000000Y-120774700D01*
X141000000Y-120774700D02*
X141281300Y-120774700D01*
X141281300Y-120774700D02*
X142144700Y-119911300D01*
X142144700Y-119911300D02*
X142144700Y-111252700D01*
X142144700Y-111252700D02*
X141362000Y-110470000D01*
X141362000Y-110470000D02*
X140618200Y-110470000D01*
X140618200Y-110470000D02*
X139823300Y-109675100D01*
X139823300Y-109675100D02*
X139823300Y-106227200D01*
X139823300Y-106227200D02*
X140660500Y-105390000D01*
X140660500Y-105390000D02*
X142681500Y-105390000D01*
X142681500Y-105390000D02*
X153245900Y-94825600D01*
X153245900Y-94825600D02*
X182892800Y-94825600D01*
X182892800Y-94825600D02*
X185197200Y-92521200D01*
X185197200Y-92521200D02*
X185197200Y-87202500D01*
X185197200Y-87202500D02*
X179620000Y-81625300D01*
G04 #@! TO.N,Net-(A1-Pad13)*
X141000000Y-125854700D02*
X141281400Y-125854700D01*
X141281400Y-125854700D02*
X142125300Y-125010800D01*
X142125300Y-125010800D02*
X142125300Y-124243500D01*
X142125300Y-124243500D02*
X155759700Y-110609100D01*
X155759700Y-110609100D02*
X157354100Y-110609100D01*
X157354100Y-110609100D02*
X160655800Y-107307400D01*
X141000000Y-126980000D02*
X141000000Y-125854700D01*
G04 #@! TO.N,GND*
X136830000Y-79250000D02*
X141900000Y-84320000D01*
X141900000Y-84320000D02*
X147000000Y-84320000D01*
X127000000Y-75380300D02*
X122090300Y-80290000D01*
X127000000Y-69000000D02*
X127000000Y-75380300D01*
X136830000Y-79250000D02*
X130869700Y-79250000D01*
X130869700Y-79250000D02*
X127000000Y-75380300D01*
X120910000Y-80290000D02*
X122090300Y-80290000D01*
X189494700Y-101125300D02*
X173870600Y-101125300D01*
X173870600Y-101125300D02*
X172745300Y-100000000D01*
X190620000Y-100000000D02*
X189494700Y-101125300D01*
X189494700Y-101125300D02*
X190620000Y-102250600D01*
X190620000Y-102250600D02*
X190620000Y-104000000D01*
X174500000Y-92000000D02*
X172500000Y-90000000D01*
X172500000Y-90000000D02*
X150500000Y-90000000D01*
X171620000Y-100000000D02*
X172745300Y-100000000D01*
G04 #@! TO.N,+5V*
X145500000Y-90000000D02*
X147500000Y-92000000D01*
X147500000Y-92000000D02*
X164000000Y-92000000D01*
X140125300Y-90000000D02*
X145500000Y-90000000D01*
X179500000Y-92000000D02*
X178304700Y-93195300D01*
X178304700Y-93195300D02*
X165195300Y-93195300D01*
X165195300Y-93195300D02*
X164000000Y-92000000D01*
X140125300Y-90000000D02*
X140125300Y-91000000D01*
X140125300Y-91000000D02*
X137125300Y-94000000D01*
X136830000Y-81790000D02*
X140125300Y-85085300D01*
X140125300Y-85085300D02*
X140125300Y-90000000D01*
X136000000Y-94000000D02*
X137125300Y-94000000D01*
X117000000Y-87000000D02*
X124000000Y-94000000D01*
X124000000Y-94000000D02*
X136000000Y-94000000D01*
X184000000Y-92000000D02*
X179500000Y-92000000D01*
G04 #@! TO.N,Net-(BT1-Pad2)*
X121500000Y-87500000D02*
X121500000Y-85904700D01*
X120910000Y-75210000D02*
X120910000Y-76390300D01*
X120910000Y-76390300D02*
X121721500Y-76390300D01*
X121721500Y-76390300D02*
X122090400Y-76759200D01*
X122090400Y-76759200D02*
X122090400Y-78739700D01*
X122090400Y-78739700D02*
X121899700Y-78930400D01*
X121899700Y-78930400D02*
X120087100Y-78930400D01*
X120087100Y-78930400D02*
X119720200Y-79297300D01*
X119720200Y-79297300D02*
X119720200Y-81314500D01*
X119720200Y-81314500D02*
X119876100Y-81470400D01*
X119876100Y-81470400D02*
X121813600Y-81470400D01*
X121813600Y-81470400D02*
X122111300Y-81768100D01*
X122111300Y-81768100D02*
X122111300Y-85293400D01*
X122111300Y-85293400D02*
X121500000Y-85904700D01*
G04 #@! TO.N,Net-(D1-Pad2)*
X136000000Y-86380000D02*
X134874700Y-86380000D01*
X130500000Y-86000000D02*
X134494700Y-86000000D01*
X134494700Y-86000000D02*
X134874700Y-86380000D01*
G04 #@! TO.N,Net-(R2-Pad2)*
X174000000Y-120500000D02*
X172780100Y-119280100D01*
X172780100Y-119280100D02*
X165219900Y-119280100D01*
X165219900Y-119280100D02*
X164000000Y-120500000D01*
X184000000Y-120500000D02*
X182804700Y-119304700D01*
X182804700Y-119304700D02*
X175195300Y-119304700D01*
X175195300Y-119304700D02*
X174000000Y-120500000D01*
G04 #@! TO.N,Net-(R2-Pad1)*
X164000000Y-112500000D02*
X161500000Y-110000000D01*
X161500000Y-110000000D02*
X160000000Y-110000000D01*
X174000000Y-112500000D02*
X172780100Y-111280100D01*
X172780100Y-111280100D02*
X165219900Y-111280100D01*
X165219900Y-111280100D02*
X164000000Y-112500000D01*
X184000000Y-112500000D02*
X182804700Y-111304700D01*
X182804700Y-111304700D02*
X175195300Y-111304700D01*
X175195300Y-111304700D02*
X174000000Y-112500000D01*
G04 #@! TO.N,Net-(R3-Pad2)*
X160627400Y-129372600D02*
X160000000Y-130000000D01*
X164000000Y-128500000D02*
X161500000Y-128500000D01*
X161500000Y-128500000D02*
X160627400Y-129372600D01*
X160627400Y-129372600D02*
X160000000Y-128745300D01*
X160000000Y-127620000D02*
X160000000Y-128745300D01*
X174000000Y-128500000D02*
X172780100Y-127280100D01*
X172780100Y-127280100D02*
X165219900Y-127280100D01*
X165219900Y-127280100D02*
X164000000Y-128500000D01*
X184000000Y-128500000D02*
X182804700Y-127304700D01*
X182804700Y-127304700D02*
X175195300Y-127304700D01*
X175195300Y-127304700D02*
X174000000Y-128500000D01*
G04 #@! TO.N,Net-(R5-Pad1)*
X180500000Y-104880000D02*
X179620000Y-104000000D01*
X180500000Y-108000000D02*
X180500000Y-104880000D01*
X183000000Y-104000000D02*
X181380000Y-104000000D01*
X181380000Y-104000000D02*
X180500000Y-104880000D01*
G04 #@! TO.N,Net-(R5-Pad2)*
X172000000Y-104000000D02*
X172000000Y-105125300D01*
X170500000Y-108000000D02*
X170500000Y-106625300D01*
X170500000Y-106625300D02*
X172000000Y-105125300D01*
G04 #@! TO.N,Net-(R9-Pad1)*
X147000000Y-48760000D02*
X143240000Y-48760000D01*
X143240000Y-48760000D02*
X143000000Y-49000000D01*
G04 #@! TO.N,Net-(R14-Pad1)*
X147000000Y-71620000D02*
X159380000Y-84000000D01*
X159380000Y-84000000D02*
X172000000Y-84000000D01*
G04 #@! TO.N,Net-(R13-Pad1)*
X172000000Y-80500000D02*
X158420000Y-80500000D01*
X158420000Y-80500000D02*
X147000000Y-69080000D01*
G04 #@! TO.N,Net-(R12-Pad1)*
X147000000Y-66540000D02*
X161540000Y-66540000D01*
X161540000Y-66540000D02*
X172000000Y-77000000D01*
G04 #@! TO.N,Net-(R11-Pad1)*
X147000000Y-64000000D02*
X162500000Y-64000000D01*
X162500000Y-64000000D02*
X172000000Y-73500000D01*
G04 #@! TO.N,Net-(R10-Pad1)*
X147000000Y-61460000D02*
X163460000Y-61460000D01*
X163460000Y-61460000D02*
X172000000Y-70000000D01*
G04 #@! TO.N,Net-(CC1-Pad1)*
X120910000Y-82830000D02*
X118630000Y-82830000D01*
X118630000Y-82830000D02*
X114460000Y-87000000D01*
G04 #@! TO.N,Net-(BT1-Pad1)*
X110500000Y-87500000D02*
X110500000Y-85904700D01*
X120910000Y-77750000D02*
X119729700Y-77750000D01*
X119729700Y-77750000D02*
X111575000Y-85904700D01*
X111575000Y-85904700D02*
X110500000Y-85904700D01*
G04 #@! TD*
M02*
